<?xml version="1.0" encoding="UTF-8"?>
<!DOCTYPE svg PUBLIC "-//W3C//DTD SVG 1.1//EN" "http://www.w3.org/Graphics/SVG/1.1/DTD/svg11.dtd">
<svg xmlns="http://www.w3.org/2000/svg" version="1.1" width="1024px" height="1024px" style="shape-rendering:geometricPrecision; text-rendering:geometricPrecision; image-rendering:optimizeQuality; fill-rule:evenodd; clip-rule:evenodd" xmlns:xlink="http://www.w3.org/1999/xlink">
<g><path style="opacity:0.004" fill="#fefffe" d="M 855.5,24.5 C 856.833,25.1667 856.833,25.1667 855.5,24.5 Z"/></g>
<g><path style="opacity:0.004" fill="#fefffe" d="M 716.5,36.5 C 717.833,37.1667 717.833,37.1667 716.5,36.5 Z"/></g>
<g><path style="opacity:0.004" fill="#fefffe" d="M 687.5,50.5 C 688.833,51.1667 688.833,51.1667 687.5,50.5 Z"/></g>
<g><path style="opacity:0.004" fill="#fefffe" d="M 410.5,74.5 C 411.833,75.1667 411.833,75.1667 410.5,74.5 Z"/></g>
<g><path style="opacity:0.004" fill="#fefffe" d="M 164.5,78.5 C 165.833,79.1667 165.833,79.1667 164.5,78.5 Z"/></g>
<g><path style="opacity:0.004" fill="#fefffe" d="M 678.5,111.5 C 679.833,112.167 679.833,112.167 678.5,111.5 Z"/></g>
<g><path style="opacity:0.004" fill="#fefffe" d="M 915.5,111.5 C 916.833,112.167 916.833,112.167 915.5,111.5 Z"/></g>
<g><path style="opacity:0.004" fill="#fefffe" d="M 583.5,130.5 C 584.833,131.167 584.833,131.167 583.5,130.5 Z"/></g>
<g><path style="opacity:0.004" fill="#fefffe" d="M 330.5,157.5 C 331.833,158.167 331.833,158.167 330.5,157.5 Z"/></g>
<g><path style="opacity:0.004" fill="#fefffe" d="M 374.5,157.5 C 375.833,158.167 375.833,158.167 374.5,157.5 Z"/></g>
<g><path style="opacity:0.004" fill="#fefffe" d="M 688.5,163.5 C 689.833,164.167 689.833,164.167 688.5,163.5 Z"/></g>
<g><path style="opacity:0.004" fill="#fefffe" d="M 999.5,164.5 C 1000.83,165.167 1000.83,165.167 999.5,164.5 Z"/></g>
<g><path style="opacity:0.004" fill="#fefffe" d="M 1005.5,168.5 C 1006.83,169.167 1006.83,169.167 1005.5,168.5 Z"/></g>
<g><path style="opacity:0.004" fill="#fefffe" d="M 433.5,171.5 C 434.833,172.167 434.833,172.167 433.5,171.5 Z"/></g>
<g><path style="opacity:0.004" fill="#fefffe" d="M 439.5,181.5 C 440.833,182.167 440.833,182.167 439.5,181.5 Z"/></g>
<g><path style="opacity:0.004" fill="#fefffe" d="M 833.5,184.5 C 834.833,185.167 834.833,185.167 833.5,184.5 Z"/></g>
<g><path style="opacity:1" fill="#7fa042" d="M 425.5,189.5 C 431.176,189.334 436.843,189.501 442.5,190C 446.065,191.357 449.732,192.19 453.5,192.5C 455.06,194.816 456.394,197.316 457.5,200C 455.208,214.177 453.208,228.344 451.5,242.5C 450.192,252.357 448.525,262.024 446.5,271.5C 445.252,272.334 444.585,273.667 444.5,275.5C 442.154,289.228 440.154,302.895 438.5,316.5C 437.247,325.371 435.58,334.038 433.5,342.5C 432.883,342.611 432.383,342.944 432,343.5C 431.749,353.291 428.749,361.958 423,369.5C 422.369,372.393 421.536,375.226 420.5,378C 420.938,379.92 421.605,381.754 422.5,383.5C 423.167,380.833 423.833,378.167 424.5,375.5C 424.833,376.833 425.167,378.167 425.5,379.5C 424.726,387.987 423.56,396.321 422,404.5C 421.667,404.167 421.333,403.833 421,403.5C 420.501,407.486 420.334,411.486 420.5,415.5C 418.717,422.82 416.717,430.154 414.5,437.5C 413.5,437.5 412.5,437.5 411.5,437.5C 411.663,439.857 411.497,442.19 411,444.5C 410.667,443.833 410.333,443.167 410,442.5C 409.667,449.833 409.333,457.167 409,464.5C 408.333,465.833 407.667,467.167 407,468.5C 406.559,464.903 405.892,461.236 405,457.5C 403,456.833 401.667,455.5 401,453.5C 400.185,447.797 399.185,442.13 398,436.5C 397.263,434.404 396.097,432.737 394.5,431.5C 394.5,431.167 394.5,430.833 394.5,430.5C 392.848,421.22 391.514,411.887 390.5,402.5C 391.815,401.105 391.481,400.105 389.5,399.5C 388.491,394.149 387.491,388.816 386.5,383.5C 384.801,383.473 383.467,382.806 382.5,381.5C 381.699,379.958 381.366,378.292 381.5,376.5C 381.276,369.763 380.442,363.096 379,356.5C 376.677,358.317 374.344,359.317 372,359.5C 371.487,371.724 368.487,383.391 363,394.5C 363.131,402.627 362.298,410.627 360.5,418.5C 359.658,424.397 358.324,430.064 356.5,435.5C 355.504,435.414 354.671,435.748 354,436.5C 353.257,441.639 352.09,446.639 350.5,451.5C 349.849,450.909 349.182,450.243 348.5,449.5C 347.167,455.5 345.833,461.5 344.5,467.5C 343.082,465.165 342.082,462.665 341.5,460C 342.237,457.559 342.237,455.225 341.5,453C 343.192,451.599 343.859,449.766 343.5,447.5C 342.5,447.5 341.5,447.5 340.5,447.5C 340.261,445.533 340.594,443.699 341.5,442C 339.626,437.752 337.626,433.585 335.5,429.5C 336.633,421.883 336.8,414.216 336,406.5C 335.362,405.391 334.862,404.225 334.5,403C 335.604,396.863 336.104,390.697 336,384.5C 335.333,383.167 334.667,383.167 334,384.5C 333.764,386.764 333.264,388.931 332.5,391C 332.833,391.333 333.167,391.667 333.5,392C 331.007,393.325 329.84,395.491 330,398.5C 328.455,393.953 328.121,389.287 329,384.5C 330.011,383.663 331.178,383.33 332.5,383.5C 333.352,375.179 333.519,366.846 333,358.5C 332,357.167 331,357.167 330,358.5C 329.047,361.432 328.547,364.432 328.5,367.5C 329.5,367.5 330.5,367.5 331.5,367.5C 329.639,372.602 328.306,377.935 327.5,383.5C 326.287,379.171 326.287,374.838 327.5,370.5C 325.5,367.167 323.5,363.833 321.5,360.5C 320.803,353.143 319.97,345.81 319,338.5C 317.224,335.064 316.224,331.397 316,327.5C 315.148,326.429 314.315,325.429 313.5,324.5C 313.5,324.167 313.5,323.833 313.5,323.5C 313.85,315.89 312.684,308.557 310,301.5C 308.55,290.274 307.05,279.107 305.5,268C 306.574,267.261 307.241,266.261 307.5,265C 306.175,257.882 304.175,251.049 301.5,244.5C 304.53,241.695 308.196,239.861 312.5,239C 311.253,237.506 311.253,236.006 312.5,234.5C 314.5,233.167 316.5,231.833 318.5,230.5C 319.386,231.325 319.719,232.325 319.5,233.5C 322.187,233.664 324.854,233.497 327.5,233C 325.715,231.837 323.715,231.17 321.5,231C 320.167,230.333 320.167,229.667 321.5,229C 327.342,228.602 333.176,228.102 339,227.5C 343.1,227.365 346.6,228.698 349.5,231.5C 351.432,230.48 353.432,230.313 355.5,231C 358.791,234.475 362.791,236.309 367.5,236.5C 367.34,238.199 367.506,239.866 368,241.5C 368.561,240.978 369.228,240.645 370,240.5C 371.706,242.276 373.539,243.942 375.5,245.5C 378.757,247.106 380.924,246.106 382,242.5C 382.179,239.447 382.679,236.447 383.5,233.5C 385.527,232.307 387.027,230.64 388,228.5C 388.737,224.13 389.57,219.796 390.5,215.5C 398.364,201.733 410.031,193.066 425.5,189.5 Z"/></g>
<g><path style="opacity:0.961" fill="#3390bc" d="M 598.5,198.5 C 594.828,196.514 590.828,195.347 586.5,195C 585.833,193.667 584.833,192.667 583.5,192C 554.167,191.333 524.833,191.333 495.5,192C 493.974,193.589 492.807,195.423 492,197.5C 491.163,195.649 490.329,193.816 489.5,192C 488.207,191.51 486.873,191.343 485.5,191.5C 486.175,195.616 486.842,199.449 487.5,203C 484.716,210.022 481.549,216.855 478,223.5C 477.655,231.839 476.488,240.005 474.5,248C 475.231,251.951 475.898,255.951 476.5,260C 474.198,264.106 473.865,268.44 475.5,273C 475.333,273.833 475.167,274.667 475,275.5C 473.927,274.72 472.76,274.887 471.5,276C 472.826,278.868 471.992,281.034 469,282.5C 468.936,289.477 467.769,296.143 465.5,302.5C 474.894,302.822 484.227,302.822 493.5,302.5C 497.162,302.838 497.829,304.005 495.5,306C 499.477,307.014 502.477,309.18 504.5,312.5C 503.833,312.5 503.167,312.5 502.5,312.5C 502.144,311.13 501.31,310.13 500,309.5C 497.852,308.27 495.686,307.27 493.5,306.5C 492.737,305.732 491.737,305.232 490.5,305C 481.528,303.96 472.528,303.46 463.5,303.5C 463.5,303.167 463.5,302.833 463.5,302.5C 469.653,267.565 475.487,232.565 481,197.5C 481.21,194.766 482.044,192.266 483.5,190C 493.597,188.87 503.764,188.37 514,188.5C 535.648,188.709 557.481,189.209 579.5,190C 586.64,191.24 592.973,194.074 598.5,198.5 Z"/></g>
<g><path style="opacity:1" fill="#0b8bc3" d="M 598.5,198.5 C 600.891,200.894 603.557,202.894 606.5,204.5C 612.128,201.993 617.795,200.993 623.5,201.5C 625.827,262.627 625.994,323.96 624,385.5C 622.951,386.517 621.784,386.684 620.5,386C 620.833,385.667 621.167,385.333 621.5,385C 619.866,384.506 618.199,384.34 616.5,384.5C 602.909,377.581 588.576,372.747 573.5,370C 553.849,367.712 535.016,370.545 517,378.5C 515.397,377.114 514.563,375.281 514.5,373C 517.551,359.65 518.717,346.15 518,332.5C 515.621,324.307 511.121,317.641 504.5,312.5C 502.477,309.18 499.477,307.014 495.5,306C 497.829,304.005 497.162,302.838 493.5,302.5C 484.227,302.822 474.894,302.822 465.5,302.5C 467.769,296.143 468.936,289.477 469,282.5C 471.992,281.034 472.826,278.868 471.5,276C 472.76,274.887 473.927,274.72 475,275.5C 475.167,274.667 475.333,273.833 475.5,273C 473.865,268.44 474.198,264.106 476.5,260C 475.898,255.951 475.231,251.951 474.5,248C 476.488,240.005 477.655,231.839 478,223.5C 481.549,216.855 484.716,210.022 487.5,203C 486.842,199.449 486.175,195.616 485.5,191.5C 486.873,191.343 488.207,191.51 489.5,192C 490.329,193.816 491.163,195.649 492,197.5C 492.807,195.423 493.974,193.589 495.5,192C 524.833,191.333 554.167,191.333 583.5,192C 584.833,192.667 585.833,193.667 586.5,195C 590.828,195.347 594.828,196.514 598.5,198.5 Z"/></g>
<g><path style="opacity:0.004" fill="#fefffe" d="M 703.5,205.5 C 704.833,206.167 704.833,206.167 703.5,205.5 Z"/></g>
<g><path style="opacity:1" fill="#1686bb" d="M 651.5,430.5 C 651.333,355.166 651.5,279.833 652,204.5C 653.729,204.026 654.895,203.026 655.5,201.5C 674.683,201.354 688.516,210.021 697,227.5C 699.66,235.488 701.994,243.488 704,251.5C 715.442,243.612 727.942,241.112 741.5,244C 742.167,245 742.833,246 743.5,247C 712.148,307.871 681.481,369.037 651.5,430.5 Z"/></g>
<g><path style="opacity:0.004" fill="#fefffe" d="M 27.5,216.5 C 28.8333,217.167 28.8333,217.167 27.5,216.5 Z"/></g>
<g><path style="opacity:0.549" fill="#97ac6d" d="M 425.5,189.5 C 435.586,187.675 445.586,188.509 455.5,192C 457.286,192.785 458.786,193.951 460,195.5C 458.018,211.399 455.185,227.066 451.5,242.5C 453.208,228.344 455.208,214.177 457.5,200C 456.394,197.316 455.06,194.816 453.5,192.5C 449.732,192.19 446.065,191.357 442.5,190C 436.843,189.501 431.176,189.334 425.5,189.5 Z"/></g>
<g><path style="opacity:0.004" fill="#fefffe" d="M 808.5,236.5 C 809.833,237.167 809.833,237.167 808.5,236.5 Z"/></g>
<g><path style="opacity:0.004" fill="#fefffe" d="M 955.5,241.5 C 956.833,242.167 956.833,242.167 955.5,241.5 Z"/></g>
<g><path style="opacity:0.004" fill="#fefffe" d="M 91.5,243.5 C 92.8333,244.167 92.8333,244.167 91.5,243.5 Z"/></g>
<g><path style="opacity:0.999" fill="#8ca35b" d="M 390.5,215.5 C 389.57,219.796 388.737,224.13 388,228.5C 387.027,230.64 385.527,232.307 383.5,233.5C 382.679,236.447 382.179,239.447 382,242.5C 380.924,246.106 378.757,247.106 375.5,245.5C 373.539,243.942 371.706,242.276 370,240.5C 369.228,240.645 368.561,240.978 368,241.5C 367.506,239.866 367.34,238.199 367.5,236.5C 362.791,236.309 358.791,234.475 355.5,231C 353.432,230.313 351.432,230.48 349.5,231.5C 346.6,228.698 343.1,227.365 339,227.5C 333.176,228.102 327.342,228.602 321.5,229C 320.167,229.667 320.167,230.333 321.5,231C 323.715,231.17 325.715,231.837 327.5,233C 324.854,233.497 322.187,233.664 319.5,233.5C 319.719,232.325 319.386,231.325 318.5,230.5C 316.5,231.833 314.5,233.167 312.5,234.5C 311.253,236.006 311.253,237.506 312.5,239C 308.196,239.861 304.53,241.695 301.5,244.5C 304.175,251.049 306.175,257.882 307.5,265C 307.241,266.261 306.574,267.261 305.5,268C 307.05,279.107 308.55,290.274 310,301.5C 312.684,308.557 313.85,315.89 313.5,323.5C 307.278,297.211 302.778,270.544 300,243.5C 315.203,224.99 334.036,220.157 356.5,229C 364.568,232.703 371.568,237.869 377.5,244.5C 380.085,237.917 382.585,231.25 385,224.5C 386.357,221.102 388.19,218.102 390.5,215.5 Z"/></g>
<g><path style="opacity:0.125" fill="#e8a7a0" d="M 249.5,270.5 C 256.224,269.196 262.891,269.529 269.5,271.5C 262.847,270.946 256.18,270.612 249.5,270.5 Z"/></g>
<g><path style="opacity:0.919" fill="#c14e40" d="M 249.5,270.5 C 256.18,270.612 262.847,270.946 269.5,271.5C 278.167,271.5 282.5,275.833 282.5,284.5C 282.5,285.833 282.5,287.167 282.5,288.5C 281.034,287.653 280.2,286.32 280,284.5C 279.667,282.167 279.333,279.833 279,277.5C 276.256,276.368 273.756,274.868 271.5,273C 260.818,272.168 250.151,272.334 239.5,273.5C 235.967,274.374 232.634,275.708 229.5,277.5C 227.273,276.947 224.939,276.947 222.5,277.5C 230.879,273.154 239.879,270.821 249.5,270.5 Z"/></g>
<g><path style="opacity:1" fill="#c4236c" d="M 841.5,303.5 C 844.771,308.38 847.271,313.714 849,319.5C 863.232,326.228 873.066,336.894 878.5,351.5C 879.765,356.728 881.098,361.895 882.5,367C 882.149,372.251 880.816,377.084 878.5,381.5C 878.295,384.795 879.128,387.795 881,390.5C 881.333,386.5 881.667,382.5 882,378.5C 883.299,379.09 884.132,380.09 884.5,381.5C 883.757,387.137 883.257,392.804 883,398.5C 882.259,399.641 881.425,399.641 880.5,398.5C 879.614,399.325 879.281,400.325 879.5,401.5C 880.5,401.5 881.5,401.5 882.5,401.5C 882.5,402.833 882.5,404.167 882.5,405.5C 867.854,405.353 853.354,405.353 839,405.5C 836.833,405.333 834.667,405.167 832.5,405C 831.333,404.5 830.5,403.667 830,402.5C 829.333,405.167 828.667,405.167 828,402.5C 827.333,405.167 826.667,405.167 826,402.5C 825.333,405.167 824.667,405.167 824,402.5C 823.333,405.167 822.667,405.167 822,402.5C 821.333,405.167 820.667,405.167 820,402.5C 819.333,405.167 818.667,405.167 818,402.5C 817.5,403.667 816.667,404.5 815.5,405C 805.505,405.676 795.505,406.176 785.5,406.5C 784.5,406.167 783.833,405.5 783.5,404.5C 784.332,373.669 784.832,342.669 785,311.5C 785.333,314.167 785.667,316.833 786,319.5C 786.583,301.159 786.416,282.826 785.5,264.5C 786.978,264.238 788.311,264.571 789.5,265.5C 790.685,266.853 792.019,268.02 793.5,269C 798.678,269.528 803.678,270.695 808.5,272.5C 809.386,273.325 809.719,274.325 809.5,275.5C 814.441,275.73 815.441,277.73 812.5,281.5C 814.259,282.754 815.759,282.421 817,280.5C 817.833,281.333 818.667,282.167 819.5,283C 818.262,282.923 817.262,283.089 816.5,283.5C 817.853,284.685 819.02,286.019 820,287.5C 820.414,287.043 820.914,286.709 821.5,286.5C 822.223,289.07 823.39,291.403 825,293.5C 825.333,293.167 825.667,292.833 826,292.5C 827.945,293.863 830.112,294.697 832.5,295C 834.743,297.488 836.743,300.154 838.5,303C 839.448,303.483 840.448,303.649 841.5,303.5 Z"/></g>
<g><path style="opacity:0.004" fill="#fefffe" d="M 977.5,273.5 C 978.833,274.167 978.833,274.167 977.5,273.5 Z"/></g>
<g><path style="opacity:0.455" fill="#8ea261" d="M 446.5,271.5 C 444.354,286.716 441.688,301.716 438.5,316.5C 440.154,302.895 442.154,289.228 444.5,275.5C 444.585,273.667 445.252,272.334 446.5,271.5 Z"/></g>
<g><path style="opacity:1" fill="#1385bb" d="M 762.5,585.5 C 762.5,585.833 762.5,586.167 762.5,586.5C 760.272,586.777 758.605,587.777 757.5,589.5C 731.442,546.392 704.608,503.725 677,461.5C 673.685,456.538 671.185,451.205 669.5,445.5C 670.428,440.975 671.928,436.642 674,432.5C 698.646,385.541 722.48,338.207 745.5,290.5C 746.643,290.092 747.643,289.425 748.5,288.5C 752.427,280.311 756.593,272.311 761,264.5C 761.167,371.667 761.667,478.667 762.5,585.5 Z"/></g>
<g><path style="opacity:1" fill="#c6503f" d="M 213.5,282.5 C 212.789,285.377 210.956,287.043 208,287.5C 207.51,288.793 207.343,290.127 207.5,291.5C 206.127,291.343 204.793,291.51 203.5,292C 202.624,293.585 201.291,294.585 199.5,295C 197.393,296.264 196.393,298.097 196.5,300.5C 194.486,300.392 192.82,301.058 191.5,302.5C 197.26,294.072 204.593,287.405 213.5,282.5 Z"/></g>
<g><path style="opacity:0.102" fill="#f9c0b4" d="M 282.5,284.5 C 283.768,286.905 284.435,289.572 284.5,292.5C 283.833,291.5 283.167,290.5 282.5,289.5C 282.5,289.167 282.5,288.833 282.5,288.5C 282.5,287.167 282.5,285.833 282.5,284.5 Z"/></g>
<g><path style="opacity:1" fill="#c04177" d="M 841.5,303.5 C 840.448,303.649 839.448,303.483 838.5,303C 836.743,300.154 834.743,297.488 832.5,295C 830.112,294.697 827.945,293.863 826,292.5C 825.667,292.833 825.333,293.167 825,293.5C 823.39,291.403 822.223,289.07 821.5,286.5C 820.914,286.709 820.414,287.043 820,287.5C 819.02,286.019 817.853,284.685 816.5,283.5C 817.262,283.089 818.262,282.923 819.5,283C 818.667,282.167 817.833,281.333 817,280.5C 815.759,282.421 814.259,282.754 812.5,281.5C 815.441,277.73 814.441,275.73 809.5,275.5C 809.719,274.325 809.386,273.325 808.5,272.5C 803.678,270.695 798.678,269.528 793.5,269C 792.019,268.02 790.685,266.853 789.5,265.5C 788.311,264.571 786.978,264.238 785.5,264.5C 786.416,282.826 786.583,301.159 786,319.5C 785.667,316.833 785.333,314.167 785,311.5C 784.832,342.669 784.332,373.669 783.5,404.5C 782.991,357.458 782.991,310.458 783.5,263.5C 789.075,262.388 794.408,263.222 799.5,266C 811.731,271.897 822.564,279.731 832,289.5C 835.929,293.705 839.096,298.372 841.5,303.5 Z"/></g>
<g><path style="opacity:0.302" fill="#4c8dac" d="M 762.5,571.5 C 762.5,576.167 762.5,580.833 762.5,585.5C 761.667,478.667 761.167,371.667 761,264.5C 756.593,272.311 752.427,280.311 748.5,288.5C 747.643,289.425 746.643,290.092 745.5,290.5C 750.578,280.675 755.412,270.675 760,260.5C 761,259.167 762,259.167 763,260.5C 762.571,364.161 762.405,467.827 762.5,571.5 Z"/></g>
<g><path style="opacity:1" fill="#3e9290" d="M 463.5,304.5 C 463.5,304.167 463.5,303.833 463.5,303.5C 472.528,303.46 481.528,303.96 490.5,305C 491.737,305.232 492.737,305.732 493.5,306.5C 485.868,305.642 478.201,305.309 470.5,305.5C 468.393,304.532 466.059,304.198 463.5,304.5 Z"/></g>
<g><path style="opacity:0.945" fill="#cb6155" d="M 191.5,302.5 C 191.005,304.482 190.505,306.482 190,308.5C 187.094,310.984 184.594,313.651 182.5,316.5C 184.506,311.145 187.506,306.479 191.5,302.5 Z"/></g>
<g><path style="opacity:1" fill="#88a45b" d="M 470.5,305.5 C 478.201,305.309 485.868,305.642 493.5,306.5C 495.686,307.27 497.852,308.27 500,309.5C 501.31,310.13 502.144,311.13 502.5,312.5C 497.827,339.04 493.66,365.707 490,392.5C 489.559,397 488.059,401 485.5,404.5C 489.295,385.826 492.295,366.993 494.5,348C 493.676,343.756 494.176,339.59 496,335.5C 495.826,328.876 496.992,322.543 499.5,316.5C 495.498,316.675 491.498,315.841 487.5,314C 490.146,313.503 492.813,313.336 495.5,313.5C 495.5,311.833 495.5,310.167 495.5,308.5C 486.942,308.234 478.609,307.234 470.5,305.5 Z"/></g>
<g><path style="opacity:1" fill="#80a043" d="M 463.5,304.5 C 466.059,304.198 468.393,304.532 470.5,305.5C 478.609,307.234 486.942,308.234 495.5,308.5C 495.5,310.167 495.5,311.833 495.5,313.5C 492.813,313.336 490.146,313.503 487.5,314C 491.498,315.841 495.498,316.675 499.5,316.5C 496.992,322.543 495.826,328.876 496,335.5C 494.176,339.59 493.676,343.756 494.5,348C 492.295,366.993 489.295,385.826 485.5,404.5C 479.432,413.087 473.932,422.087 469,431.5C 465.583,439.169 463.416,447.169 462.5,455.5C 461.778,455.918 461.278,456.584 461,457.5C 459.606,470.14 459.273,482.807 460,495.5C 460.002,498.051 460.836,500.051 462.5,501.5C 465.398,509.802 466.731,518.469 466.5,527.5C 463.805,536.142 461.638,545.142 460,554.5C 458.355,567.844 456.855,581.177 455.5,594.5C 455.5,595.167 455.5,595.833 455.5,596.5C 454.198,598.672 453.032,601.006 452,603.5C 450.497,615.526 448.83,627.526 447,639.5C 444.564,643.893 442.73,648.56 441.5,653.5C 440.675,654.386 439.675,654.719 438.5,654.5C 436.776,656.914 435.442,659.58 434.5,662.5C 433.833,662.833 433.167,663.167 432.5,663.5C 430.801,663.34 429.134,663.506 427.5,664C 428.167,664.333 428.833,664.667 429.5,665C 426.918,666.776 424.085,667.943 421,668.5C 419.113,668.031 417.613,667.031 416.5,665.5C 415.17,667.347 415.503,668.847 417.5,670C 415.084,671.818 412.418,673.152 409.5,674C 402.19,674.615 395.023,675.115 388,675.5C 382.564,674.643 377.064,673.976 371.5,673.5C 370.041,673.567 368.708,673.234 367.5,672.5C 367.423,671.25 366.756,670.417 365.5,670C 367.007,669.163 367.507,667.996 367,666.5C 364.867,665.582 362.7,665.416 360.5,666C 359.167,665 359.167,664 360.5,663C 359.051,661.883 357.384,661.216 355.5,661C 354.663,659.989 354.33,658.822 354.5,657.5C 351.359,659.286 348.692,658.786 346.5,656C 348.121,653.834 348.955,651.334 349,648.5C 349.333,649.5 349.667,650.5 350,651.5C 350.495,649.527 350.662,647.527 350.5,645.5C 348.167,645.5 345.833,645.5 343.5,645.5C 343.5,646.5 343.5,647.5 343.5,648.5C 337.568,648.377 334.568,645.377 334.5,639.5C 331.61,634.111 328.61,628.778 325.5,623.5C 324.424,616.103 324.424,608.937 325.5,602C 326.957,600.303 328.623,598.803 330.5,597.5C 331.466,595.604 331.799,593.604 331.5,591.5C 330.178,591.67 329.011,591.337 328,590.5C 325.481,592.31 322.981,593.977 320.5,595.5C 319.99,590.789 319.156,586.122 318,581.5C 317.617,580.944 317.117,580.611 316.5,580.5C 315.833,577.5 315.167,574.5 314.5,571.5C 323.234,572.135 331.567,571.468 339.5,569.5C 340.397,570.598 341.23,570.598 342,569.5C 343.522,564.714 345.022,560.048 346.5,555.5C 347.058,553.407 348.391,551.907 350.5,551C 350.167,550.667 349.833,550.333 349.5,550C 353.709,536.053 357.375,521.886 360.5,507.5C 361.5,507.5 362.5,507.5 363.5,507.5C 363.334,502.156 363.501,496.823 364,491.5C 364.915,490.672 365.581,489.672 366,488.5C 367.152,482.194 367.985,475.861 368.5,469.5C 368.5,469.167 368.5,468.833 368.5,468.5C 371.591,465.044 373.924,461.044 375.5,456.5C 376.274,455.289 377.107,455.289 378,456.5C 378.684,459.38 378.517,462.213 377.5,465C 378.947,469.708 379.947,474.542 380.5,479.5C 381.5,478.167 382.5,478.167 383.5,479.5C 384.578,484.455 385.411,489.455 386,494.5C 386.414,494.957 386.914,495.291 387.5,495.5C 389.023,503.413 391.19,511.08 394,518.5C 394.83,523.143 395.497,527.81 396,532.5C 398.048,535.813 399.048,539.479 399,543.5C 399.876,545.758 401.043,547.758 402.5,549.5C 402.563,554.203 402.229,558.87 401.5,563.5C 402.5,563.5 403.5,563.5 404.5,563.5C 404.216,566.777 404.549,569.943 405.5,573C 407.441,573.304 409.107,574.137 410.5,575.5C 411.148,573.851 412.148,572.518 413.5,571.5C 415.082,565.597 416.249,559.597 417,553.5C 417.317,551.699 417.984,551.366 419,552.5C 419.516,543.116 420.35,533.783 421.5,524.5C 421.5,524.167 421.5,523.833 421.5,523.5C 422.496,523.414 423.329,523.748 424,524.5C 423.613,518.015 424.947,512.015 428,506.5C 429.048,494.661 430.881,482.994 433.5,471.5C 434.086,471.291 434.586,470.957 435,470.5C 435.772,461.149 436.605,451.816 437.5,442.5C 439.502,432.495 441.502,422.495 443.5,412.5C 444.793,411.158 445.626,409.491 446,407.5C 450.432,387.606 454.099,367.606 457,347.5C 458.044,346.377 458.71,345.044 459,343.5C 459.186,345.9 459.686,348.234 460.5,350.5C 461.655,346.912 461.322,343.412 459.5,340C 461.089,328.199 462.422,316.366 463.5,304.5 Z"/></g>
<g><path style="opacity:0.911" fill="#c25545" d="M 282.5,289.5 C 283.167,290.5 283.833,291.5 284.5,292.5C 291.936,328.015 298.603,363.682 304.5,399.5C 303.252,398.666 302.585,397.333 302.5,395.5C 300.771,382.933 298.271,370.6 295,358.5C 293.574,349.511 292.241,340.511 291,331.5C 289.26,330.284 288.26,328.618 288,326.5C 287.667,322.167 287.333,317.833 287,313.5C 283.426,306.022 281.926,298.022 282.5,289.5 Z"/></g>
<g><path style="opacity:0.773" fill="#488eb4" d="M 655.5,201.5 C 654.895,203.026 653.729,204.026 652,204.5C 651.5,279.833 651.333,355.166 651.5,430.5C 650.235,429.486 649.569,427.986 649.5,426C 648.934,419.514 648.6,413.014 648.5,406.5C 649.28,338.837 649.78,271.17 650,203.5C 651.444,201.845 653.278,201.178 655.5,201.5 Z"/></g>
<g><path style="opacity:0.004" fill="#fefffe" d="M 988.5,338.5 C 989.833,339.167 989.833,339.167 988.5,338.5 Z"/></g>
<g><path style="opacity:0.999" fill="#859f52" d="M 433.5,342.5 C 430.3,367.155 425.966,391.489 420.5,415.5C 420.334,411.486 420.501,407.486 421,403.5C 421.333,403.833 421.667,404.167 422,404.5C 423.56,396.321 424.726,387.987 425.5,379.5C 425.167,378.167 424.833,376.833 424.5,375.5C 423.833,378.167 423.167,380.833 422.5,383.5C 421.605,381.754 420.938,379.92 420.5,378C 421.536,375.226 422.369,372.393 423,369.5C 428.749,361.958 431.749,353.291 432,343.5C 432.383,342.944 432.883,342.611 433.5,342.5 Z"/></g>
<g><path style="opacity:0.956" fill="#4d96be" d="M 623.5,201.5 C 625.124,201.36 626.29,202.027 627,203.5C 626.908,265.325 626.908,327.325 627,389.5C 625.951,390.517 624.784,390.684 623.5,390C 620.98,388.303 618.647,386.47 616.5,384.5C 618.199,384.34 619.866,384.506 621.5,385C 621.167,385.333 620.833,385.667 620.5,386C 621.784,386.684 622.951,386.517 624,385.5C 625.994,323.96 625.827,262.627 623.5,201.5 Z"/></g>
<g><path style="opacity:0.924" fill="#889f55" d="M 463.5,302.5 C 463.5,302.833 463.5,303.167 463.5,303.5C 463.5,303.833 463.5,304.167 463.5,304.5C 462.422,316.366 461.089,328.199 459.5,340C 461.322,343.412 461.655,346.912 460.5,350.5C 459.686,348.234 459.186,345.9 459,343.5C 458.71,345.044 458.044,346.377 457,347.5C 454.099,367.606 450.432,387.606 446,407.5C 445.626,409.491 444.793,411.158 443.5,412.5C 449.552,375.586 456.218,338.92 463.5,302.5 Z"/></g>
<g><path style="opacity:1" fill="#86a04e" d="M 313.5,324.5 C 314.315,325.429 315.148,326.429 316,327.5C 316.224,331.397 317.224,335.064 319,338.5C 319.97,345.81 320.803,353.143 321.5,360.5C 323.5,363.833 325.5,367.167 327.5,370.5C 326.287,374.838 326.287,379.171 327.5,383.5C 328.306,377.935 329.639,372.602 331.5,367.5C 330.5,367.5 329.5,367.5 328.5,367.5C 328.547,364.432 329.047,361.432 330,358.5C 331,357.167 332,357.167 333,358.5C 333.519,366.846 333.352,375.179 332.5,383.5C 331.178,383.33 330.011,383.663 329,384.5C 328.121,389.287 328.455,393.953 330,398.5C 329.84,395.491 331.007,393.325 333.5,392C 333.167,391.667 332.833,391.333 332.5,391C 333.264,388.931 333.764,386.764 334,384.5C 334.667,383.167 335.333,383.167 336,384.5C 336.104,390.697 335.604,396.863 334.5,403C 334.862,404.225 335.362,405.391 336,406.5C 336.8,414.216 336.633,421.883 335.5,429.5C 337.626,433.585 339.626,437.752 341.5,442C 340.594,443.699 340.261,445.533 340.5,447.5C 341.5,447.5 342.5,447.5 343.5,447.5C 343.859,449.766 343.192,451.599 341.5,453C 342.237,455.225 342.237,457.559 341.5,460C 342.082,462.665 343.082,465.165 344.5,467.5C 345.833,461.5 347.167,455.5 348.5,449.5C 349.182,450.243 349.849,450.909 350.5,451.5C 349.405,456.43 348.739,461.43 348.5,466.5C 346.584,469.567 344.418,471.9 342,473.5C 340.353,466.93 339.353,460.264 339,453.5C 337.893,450.416 336.727,447.416 335.5,444.5C 327.956,404.572 320.623,364.572 313.5,324.5 Z"/></g>
<g><path style="opacity:0.769" fill="#dd9750" d="M 564.5,391.5 C 552.678,393.758 540.678,395.758 528.5,397.5C 532.858,395.403 537.524,393.903 542.5,393C 549.815,392.168 557.148,391.668 564.5,391.5 Z"/></g>
<g><path style="opacity:0.878" fill="#c65a4a" d="M 176.5,367.5 C 178.215,370.895 179.715,374.561 181,378.5C 182.166,382.145 182.833,385.812 183,389.5C 175.688,393.21 168.188,396.21 160.5,398.5C 157.833,398.833 155.167,399.167 152.5,399.5C 162.25,395.192 172.25,391.358 182.5,388C 179.338,381.521 177.338,374.688 176.5,367.5 Z"/></g>
<g><path style="opacity:0.992" fill="#8da25c" d="M 381.5,376.5 C 379.993,371.842 378.659,367.009 377.5,362C 376.576,360.189 375.743,360.355 375,362.5C 370.426,381.362 365.592,400.029 360.5,418.5C 362.298,410.627 363.131,402.627 363,394.5C 368.487,383.391 371.487,371.724 372,359.5C 374.344,359.317 376.677,358.317 379,356.5C 380.442,363.096 381.276,369.763 381.5,376.5 Z"/></g>
<g><path style="opacity:0.004" fill="#fefffe" d="M 907.5,396.5 C 908.833,397.167 908.833,397.167 907.5,396.5 Z"/></g>
<g><path style="opacity:1" fill="#eb8a25" d="M 564.5,391.5 C 564.833,391.5 565.167,391.5 565.5,391.5C 568.337,393.402 571.671,394.069 575.5,393.5C 575.5,394.5 575.5,395.5 575.5,396.5C 582.707,395.587 589.04,397.42 594.5,402C 594.167,402.333 593.833,402.667 593.5,403C 604.934,404.265 612.267,410.432 615.5,421.5C 616.914,422.624 618.414,423.624 620,424.5C 621.599,431.814 623.766,438.814 626.5,445.5C 627.811,450.061 628.478,454.728 628.5,459.5C 629.099,478.777 628.099,497.943 625.5,517C 621.933,522.745 619.1,528.911 617,535.5C 616.333,536.167 615.667,536.833 615,537.5C 613.293,536.862 611.46,536.862 609.5,537.5C 609.785,539.288 609.452,540.955 608.5,542.5C 606.596,544.322 604.596,545.988 602.5,547.5C 600.922,548.298 599.256,548.798 597.5,549C 598.684,550.145 598.684,551.312 597.5,552.5C 593.577,553.141 589.743,553.141 586,552.5C 582.673,555.154 578.839,556.154 574.5,555.5C 574.5,556.5 574.5,557.5 574.5,558.5C 564.167,558.5 553.833,558.5 543.5,558.5C 543.719,557.325 543.386,556.325 542.5,555.5C 538.128,556.849 533.794,556.682 529.5,555C 526.5,553.333 523.5,551.667 520.5,550C 521.308,549.692 521.975,549.192 522.5,548.5C 516.451,544.597 510.118,541.264 503.5,538.5C 496.111,530.702 491.778,521.369 490.5,510.5C 489.616,503.193 488.949,495.859 488.5,488.5C 489.58,473.797 490.913,459.13 492.5,444.5C 494.309,438.937 496.476,433.27 499,427.5C 502.786,420.792 507.286,414.625 512.5,409C 515.745,408.364 518.078,406.53 519.5,403.5C 522.813,401.833 525.813,399.833 528.5,397.5C 540.678,395.758 552.678,393.758 564.5,391.5 Z"/></g>
<g><path style="opacity:0.888" fill="#8aa159" d="M 382.5,381.5 C 383.467,382.806 384.801,383.473 386.5,383.5C 387.491,388.816 388.491,394.149 389.5,399.5C 391.481,400.105 391.815,401.105 390.5,402.5C 391.514,411.887 392.848,421.22 394.5,430.5C 389.742,414.467 385.742,398.134 382.5,381.5 Z"/></g>
<g><path style="opacity:1" fill="#e09e56" d="M 565.5,391.5 C 588.773,391.883 606.94,401.55 620,420.5C 623.269,426.476 625.436,432.809 626.5,439.5C 626.5,441.5 626.5,443.5 626.5,445.5C 623.766,438.814 621.599,431.814 620,424.5C 618.414,423.624 616.914,422.624 615.5,421.5C 612.267,410.432 604.934,404.265 593.5,403C 593.833,402.667 594.167,402.333 594.5,402C 589.04,397.42 582.707,395.587 575.5,396.5C 575.5,395.5 575.5,394.5 575.5,393.5C 571.671,394.069 568.337,393.402 565.5,391.5 Z"/></g>
<g><path style="opacity:0.933" fill="#ba3672" d="M 878.5,351.5 C 885.617,366.261 888.45,381.927 887,398.5C 886.681,401.973 885.181,404.806 882.5,407C 866.217,408.137 849.884,408.637 833.5,408.5C 818.5,408.333 803.5,408.167 788.5,408C 787.263,407.768 786.263,407.268 785.5,406.5C 795.505,406.176 805.505,405.676 815.5,405C 816.667,404.5 817.5,403.667 818,402.5C 818.667,405.167 819.333,405.167 820,402.5C 820.667,405.167 821.333,405.167 822,402.5C 822.667,405.167 823.333,405.167 824,402.5C 824.667,405.167 825.333,405.167 826,402.5C 826.667,405.167 827.333,405.167 828,402.5C 828.667,405.167 829.333,405.167 830,402.5C 830.5,403.667 831.333,404.5 832.5,405C 834.667,405.167 836.833,405.333 839,405.5C 853.354,405.353 867.854,405.353 882.5,405.5C 882.5,404.167 882.5,402.833 882.5,401.5C 881.5,401.5 880.5,401.5 879.5,401.5C 879.281,400.325 879.614,399.325 880.5,398.5C 881.425,399.641 882.259,399.641 883,398.5C 883.257,392.804 883.757,387.137 884.5,381.5C 884.132,380.09 883.299,379.09 882,378.5C 881.667,382.5 881.333,386.5 881,390.5C 879.128,387.795 878.295,384.795 878.5,381.5C 880.816,377.084 882.149,372.251 882.5,367C 881.098,361.895 879.765,356.728 878.5,351.5 Z"/></g>
<g><path style="opacity:1" fill="#cd4330" d="M 160.5,398.5 C 159.01,400.28 157.01,400.946 154.5,400.5C 154.5,401.5 154.5,402.5 154.5,403.5C 151.101,404.016 147.768,404.85 144.5,406C 143.218,410.658 140.385,412.825 136,412.5C 134.931,415.208 133.764,417.875 132.5,420.5C 127.706,421.205 123.372,422.872 119.5,425.5C 128.148,413.853 139.148,405.186 152.5,399.5C 155.167,399.167 157.833,398.833 160.5,398.5 Z"/></g>
<g><path style="opacity:0.557" fill="#dea15c" d="M 528.5,397.5 C 525.813,399.833 522.813,401.833 519.5,403.5C 518.078,406.53 515.745,408.364 512.5,409C 507.286,414.625 502.786,420.792 499,427.5C 496.476,433.27 494.309,438.937 492.5,444.5C 495.636,421.834 507.636,406.168 528.5,397.5 Z"/></g>
<g><path style="opacity:0.004" fill="#fefffe" d="M 774.5,417.5 C 775.833,418.167 775.833,418.167 774.5,417.5 Z"/></g>
<g><path style="opacity:1" fill="#d33320" d="M 282.5,288.5 C 282.5,288.833 282.5,289.167 282.5,289.5C 281.926,298.022 283.426,306.022 287,313.5C 287.333,317.833 287.667,322.167 288,326.5C 288.26,328.618 289.26,330.284 291,331.5C 292.241,340.511 293.574,349.511 295,358.5C 298.271,370.6 300.771,382.933 302.5,395.5C 302.585,397.333 303.252,398.666 304.5,399.5C 305.675,403.042 306.341,406.709 306.5,410.5C 307.799,423.81 308.966,437.144 310,450.5C 311.678,452.07 313.178,453.737 314.5,455.5C 315.015,457.751 316.015,459.751 317.5,461.5C 317.5,461.833 317.5,462.167 317.5,462.5C 317.743,468.184 318.243,473.851 319,479.5C 319.852,480.571 320.685,481.571 321.5,482.5C 321.42,485.781 322.087,488.781 323.5,491.5C 323.5,491.833 323.5,492.167 323.5,492.5C 323.539,497.184 323.872,501.851 324.5,506.5C 325.946,517.007 327.78,527.34 330,537.5C 330.667,538.167 331.333,538.833 332,539.5C 332.064,546.441 333.23,553.108 335.5,559.5C 336.182,560.243 336.849,560.909 337.5,561.5C 337.5,561.833 337.5,562.167 337.5,562.5C 337.833,565.167 338.167,567.833 338.5,570.5C 330.5,570.5 322.5,570.5 314.5,570.5C 314.857,566.042 313.524,562.376 310.5,559.5C 309.232,557.095 308.565,554.428 308.5,551.5C 305.274,535.869 302.107,520.202 299,504.5C 298.722,503.584 298.222,502.918 297.5,502.5C 297.5,501.5 297.5,500.5 297.5,499.5C 295.829,490.286 294.662,480.953 294,471.5C 293.333,470.833 292.667,470.167 292,469.5C 292.696,463.128 290.863,457.794 286.5,453.5C 287.198,448.283 286.198,443.616 283.5,439.5C 284.01,433.928 283.177,428.595 281,423.5C 280.667,419.167 280.333,414.833 280,410.5C 277.535,402.744 275.868,394.744 275,386.5C 274.667,386.833 274.333,387.167 274,387.5C 272.956,386.377 272.29,385.044 272,383.5C 270.87,376.184 269.87,368.851 269,361.5C 268.34,359.676 267.173,358.343 265.5,357.5C 265.06,355.156 264.06,353.156 262.5,351.5C 259.187,334.231 255.853,316.898 252.5,299.5C 249.794,299.575 247.127,299.908 244.5,300.5C 245.167,301.833 245.833,303.167 246.5,304.5C 244.074,314.438 241.074,324.104 237.5,333.5C 235.344,336.113 233.844,339.113 233,342.5C 230.743,349.361 228.91,356.361 227.5,363.5C 226.5,368.167 225.5,372.833 224.5,377.5C 222.057,382.5 220.39,387.834 219.5,393.5C 218.738,397.785 217.405,401.785 215.5,405.5C 213.855,406.479 212.521,407.812 211.5,409.5C 210.721,414.777 209.221,419.777 207,424.5C 206.503,426.81 206.337,429.143 206.5,431.5C 205.5,431.5 204.5,431.5 203.5,431.5C 202.2,436.659 201.367,441.992 201,447.5C 200.284,451.384 199.117,455.051 197.5,458.5C 196.351,458.791 195.684,459.624 195.5,461C 193.524,467.092 191.858,473.259 190.5,479.5C 189.5,479.5 188.5,479.5 187.5,479.5C 188.176,483.49 186.51,485.157 182.5,484.5C 168.471,484.121 154.138,484.121 139.5,484.5C 137.89,493.785 138.223,502.952 140.5,512C 153.162,512.5 165.829,512.667 178.5,512.5C 178.5,514.167 178.5,515.833 178.5,517.5C 177.952,519.532 176.619,520.532 174.5,520.5C 174.5,522.5 174.5,524.5 174.5,526.5C 171.724,526.089 171.057,526.922 172.5,529C 169.736,539.119 167.736,549.285 166.5,559.5C 165.5,559.5 164.5,559.5 163.5,559.5C 162.838,563.466 162.505,567.466 162.5,571.5C 160.771,572.953 159.771,574.953 159.5,577.5C 158.833,577.833 158.167,578.167 157.5,578.5C 152.588,577.043 148.255,574.543 144.5,571C 141.555,569.869 138.555,569.036 135.5,568.5C 133.82,566.473 132.653,564.139 132,561.5C 127.387,561.384 125.554,559.051 126.5,554.5C 123.355,554.507 120.689,553.507 118.5,551.5C 113.849,546.871 110.182,541.537 107.5,535.5C 106.735,527.107 104.735,519.107 101.5,511.5C 100.5,511.5 99.5,511.5 98.5,511.5C 98.5,510.833 98.5,510.167 98.5,509.5C 97.3414,496.173 97.3414,482.84 98.5,469.5C 98.7191,465.2 99.7191,461.2 101.5,457.5C 103.145,456.521 104.479,455.188 105.5,453.5C 106.521,449.474 107.521,445.474 108.5,441.5C 109.721,440.972 110.887,440.305 112,439.5C 114.423,434.679 116.923,430.012 119.5,425.5C 123.372,422.872 127.706,421.205 132.5,420.5C 133.764,417.875 134.931,415.208 136,412.5C 140.385,412.825 143.218,410.658 144.5,406C 147.768,404.85 151.101,404.016 154.5,403.5C 154.5,402.5 154.5,401.5 154.5,400.5C 157.01,400.946 159.01,400.28 160.5,398.5C 168.188,396.21 175.688,393.21 183,389.5C 182.833,385.812 182.166,382.145 181,378.5C 179.715,374.561 178.215,370.895 176.5,367.5C 172.435,349.703 174.435,332.703 182.5,316.5C 184.594,313.651 187.094,310.984 190,308.5C 190.505,306.482 191.005,304.482 191.5,302.5C 192.82,301.058 194.486,300.392 196.5,300.5C 196.393,298.097 197.393,296.264 199.5,295C 201.291,294.585 202.624,293.585 203.5,292C 204.793,291.51 206.127,291.343 207.5,291.5C 207.343,290.127 207.51,288.793 208,287.5C 210.956,287.043 212.789,285.377 213.5,282.5C 216.008,280.076 219.008,278.41 222.5,277.5C 224.939,276.947 227.273,276.947 229.5,277.5C 232.634,275.708 235.967,274.374 239.5,273.5C 250.151,272.334 260.818,272.168 271.5,273C 273.756,274.868 276.256,276.368 279,277.5C 279.333,279.833 279.667,282.167 280,284.5C 280.2,286.32 281.034,287.653 282.5,288.5 Z"/></g>
<g><path style="opacity:0.949" fill="#cd6753" d="M 232.5,422.5 C 233.037,429.73 231.037,436.064 226.5,441.5C 228.054,434.926 230.054,428.593 232.5,422.5 Z"/></g>
<g><path style="opacity:0.788" fill="#cb5747" d="M 215.5,405.5 C 209.127,427.673 202.461,449.673 195.5,471.5C 195.433,466.964 196.099,462.631 197.5,458.5C 199.117,455.051 200.284,451.384 201,447.5C 201.367,441.992 202.2,436.659 203.5,431.5C 204.5,431.5 205.5,431.5 206.5,431.5C 206.337,429.143 206.503,426.81 207,424.5C 209.221,419.777 210.721,414.777 211.5,409.5C 212.521,407.812 213.855,406.479 215.5,405.5 Z"/></g>
<g><path style="opacity:0.169" fill="#e4a096" d="M 234.5,415.5 C 234.829,418.228 234.163,420.562 232.5,422.5C 232.41,419.848 233.076,417.515 234.5,415.5 Z"/></g>
<g><path style="opacity:0.953" fill="#c65d4f" d="M 251.5,393.5 C 256.453,413.989 261.12,434.656 265.5,455.5C 264.542,455.047 263.708,454.381 263,453.5C 261.449,443.308 259.115,433.308 256,423.5C 253.405,413.688 251.905,403.688 251.5,393.5 Z"/></g>
<g><path style="opacity:0.373" fill="#e9aba0" d="M 245.5,379.5 C 242.61,391.83 238.943,403.83 234.5,415.5C 237.394,403.159 241.061,391.159 245.5,379.5 Z"/></g>
<g><path style="opacity:1" fill="#d23321" d="M 249.5,386.5 C 249.41,389.152 250.076,391.485 251.5,393.5C 251.905,403.688 253.405,413.688 256,423.5C 259.115,433.308 261.449,443.308 263,453.5C 263.708,454.381 264.542,455.047 265.5,455.5C 266.994,465.941 268.66,476.274 270.5,486.5C 269.5,486.5 268.5,486.5 267.5,486.5C 250.5,486.5 233.5,486.5 216.5,486.5C 216.392,482.753 216.892,479.086 218,475.5C 218.71,474.027 219.876,473.36 221.5,473.5C 221.886,467.466 222.553,461.466 223.5,455.5C 225.959,451.181 226.959,446.515 226.5,441.5C 231.037,436.064 233.037,429.73 232.5,422.5C 234.163,420.562 234.829,418.228 234.5,415.5C 238.943,403.83 242.61,391.83 245.5,379.5C 246.189,378.226 247.023,378.226 248,379.5C 248.977,381.74 249.477,384.073 249.5,386.5 Z"/></g>
<g><path style="opacity:0.192" fill="#f0b0a6" d="M 249.5,386.5 C 250.924,388.515 251.59,390.848 251.5,393.5C 250.076,391.485 249.41,389.152 249.5,386.5 Z"/></g>
<g><path style="opacity:0.133" fill="#ecad9c" d="M 224.5,377.5 C 223.61,383.166 221.943,388.5 219.5,393.5C 220.39,387.834 222.057,382.5 224.5,377.5 Z"/></g>
<g><path style="opacity:1" fill="#c6493a" d="M 265.5,357.5 C 267.173,358.343 268.34,359.676 269,361.5C 269.87,368.851 270.87,376.184 272,383.5C 272.29,385.044 272.956,386.377 274,387.5C 274.333,387.167 274.667,386.833 275,386.5C 275.868,394.744 277.535,402.744 280,410.5C 280.333,414.833 280.667,419.167 281,423.5C 283.177,428.595 284.01,433.928 283.5,439.5C 277.529,414.277 271.529,388.944 265.5,363.5C 265.5,361.5 265.5,359.5 265.5,357.5 Z"/></g>
<g><path style="opacity:0.169" fill="#e6a5a0" d="M 229.5,361.5 C 228.607,367.172 226.941,372.506 224.5,377.5C 225.5,372.833 226.5,368.167 227.5,363.5C 228.167,362.833 228.833,362.167 229.5,361.5 Z"/></g>
<g><path style="opacity:0.565" fill="#d37c71" d="M 262.5,351.5 C 264.06,353.156 265.06,355.156 265.5,357.5C 265.5,359.5 265.5,361.5 265.5,363.5C 263.898,359.761 262.898,355.761 262.5,351.5 Z"/></g>
<g><path style="opacity:0.69" fill="#c25949" d="M 237.5,333.5 C 235.123,343.021 232.456,352.355 229.5,361.5C 228.833,362.167 228.167,362.833 227.5,363.5C 228.91,356.361 230.743,349.361 233,342.5C 233.844,339.113 235.344,336.113 237.5,333.5 Z"/></g>
<g><path style="opacity:0.627" fill="#c75e50" d="M 262.5,351.5 C 258.541,335.573 254.374,319.573 250,303.5C 249.692,302.692 249.192,302.025 248.5,301.5C 247.824,302.602 247.158,303.602 246.5,304.5C 245.833,303.167 245.167,301.833 244.5,300.5C 247.127,299.908 249.794,299.575 252.5,299.5C 255.853,316.898 259.187,334.231 262.5,351.5 Z"/></g>
<g><path style="opacity:0.839" fill="#bd5143" d="M 119.5,425.5 C 116.923,430.012 114.423,434.679 112,439.5C 110.887,440.305 109.721,440.972 108.5,441.5C 111.393,435.612 115.06,430.278 119.5,425.5 Z"/></g>
<g><path style="opacity:0.757" fill="#a1b377" d="M 356.5,435.5 C 354.279,446.053 351.613,456.386 348.5,466.5C 348.739,461.43 349.405,456.43 350.5,451.5C 352.09,446.639 353.257,441.639 354,436.5C 354.671,435.748 355.504,435.414 356.5,435.5 Z"/></g>
<g><path style="opacity:0.694" fill="#de8b7c" d="M 283.5,439.5 C 286.198,443.616 287.198,448.283 286.5,453.5C 285.01,449.058 284.01,444.391 283.5,439.5 Z"/></g>
<g><path style="opacity:0.753" fill="#ac396b" d="M 899.5,435.5 C 907.186,443.526 912.852,452.859 916.5,463.5C 913.759,459.472 910.926,455.472 908,451.5C 905.782,445.797 902.949,440.464 899.5,435.5 Z"/></g>
<g><path style="opacity:0.596" fill="#cd7266" d="M 226.5,441.5 C 226.959,446.515 225.959,451.181 223.5,455.5C 222.5,457.5 221.5,459.5 220.5,461.5C 221.926,454.565 223.926,447.899 226.5,441.5 Z"/></g>
<g><path style="opacity:0.506" fill="#f0c18e" d="M 626.5,439.5 C 631.027,457.963 632.361,476.629 630.5,495.5C 630.905,483.286 630.238,471.286 628.5,459.5C 628.478,454.728 627.811,450.061 626.5,445.5C 626.5,443.5 626.5,441.5 626.5,439.5 Z"/></g>
<g><path style="opacity:1" fill="#c6432f" d="M 306.5,410.5 C 309.452,421.252 311.785,432.252 313.5,443.5C 313.505,447.534 313.838,451.534 314.5,455.5C 313.178,453.737 311.678,452.07 310,450.5C 308.966,437.144 307.799,423.81 306.5,410.5 Z"/></g>
<g><path style="opacity:0.596" fill="#d37c71" d="M 313.5,443.5 C 315.451,449.245 316.785,455.245 317.5,461.5C 316.015,459.751 315.015,457.751 314.5,455.5C 313.838,451.534 313.505,447.534 313.5,443.5 Z"/></g>
<g><path style="opacity:0.718" fill="#c35248" d="M 108.5,441.5 C 107.521,445.474 106.521,449.474 105.5,453.5C 104.479,455.188 103.145,456.521 101.5,457.5C 102.772,451.629 105.106,446.296 108.5,441.5 Z"/></g>
<g><path style="opacity:0.998" fill="#8ca359" d="M 420.5,415.5 C 417.64,437.659 413.807,459.659 409,481.5C 408.333,482.167 407.667,482.833 407,483.5C 402.207,466.326 398.04,448.993 394.5,431.5C 396.097,432.737 397.263,434.404 398,436.5C 399.185,442.13 400.185,447.797 401,453.5C 401.667,455.5 403,456.833 405,457.5C 405.892,461.236 406.559,464.903 407,468.5C 407.667,467.167 408.333,465.833 409,464.5C 409.333,457.167 409.667,449.833 410,442.5C 410.333,443.167 410.667,443.833 411,444.5C 411.497,442.19 411.663,439.857 411.5,437.5C 412.5,437.5 413.5,437.5 414.5,437.5C 416.717,430.154 418.717,422.82 420.5,415.5 Z"/></g>
<g><path style="opacity:1" fill="#92a661" d="M 402.5,549.5 C 401.043,547.758 399.876,545.758 399,543.5C 399.048,539.479 398.048,535.813 396,532.5C 395.497,527.81 394.83,523.143 394,518.5C 391.19,511.08 389.023,503.413 387.5,495.5C 386.914,495.291 386.414,494.957 386,494.5C 385.411,489.455 384.578,484.455 383.5,479.5C 382.5,478.167 381.5,478.167 380.5,479.5C 379.947,474.542 378.947,469.708 377.5,465C 378.517,462.213 378.684,459.38 378,456.5C 377.107,455.289 376.274,455.289 375.5,456.5C 373.924,461.044 371.591,465.044 368.5,468.5C 369.516,459.958 372.016,451.958 376,444.5C 386.413,479.054 395.246,514.054 402.5,549.5 Z"/></g>
<g><path style="opacity:0.944" fill="#a6b880" d="M 335.5,444.5 C 336.727,447.416 337.893,450.416 339,453.5C 339.353,460.264 340.353,466.93 342,473.5C 344.418,471.9 346.584,469.567 348.5,466.5C 347.885,472.315 346.051,477.648 343,482.5C 339.962,469.937 337.462,457.27 335.5,444.5 Z"/></g>
<g><path style="opacity:0.984" fill="#c75647" d="M 286.5,453.5 C 290.863,457.794 292.696,463.128 292,469.5C 292.667,470.167 293.333,470.833 294,471.5C 294.662,480.953 295.829,490.286 297.5,499.5C 293.547,484.35 289.88,469.017 286.5,453.5 Z"/></g>
<g><path style="opacity:0.6" fill="#c56757" d="M 317.5,462.5 C 319.451,468.921 320.784,475.588 321.5,482.5C 320.685,481.571 319.852,480.571 319,479.5C 318.243,473.851 317.743,468.184 317.5,462.5 Z"/></g>
<g><path style="opacity:0.153" fill="#d99c8b" d="M 194.5,474.5 C 194.31,477.855 193.31,480.855 191.5,483.5C 191.69,480.145 192.69,477.145 194.5,474.5 Z"/></g>
<g><path style="opacity:0.999" fill="#c94431" d="M 197.5,458.5 C 196.099,462.631 195.433,466.964 195.5,471.5C 195.737,472.791 195.404,473.791 194.5,474.5C 192.69,477.145 191.69,480.145 191.5,483.5C 190.878,485.335 189.544,486.502 187.5,487C 171.869,488.362 156.202,488.862 140.5,488.5C 140.5,495.167 140.5,501.833 140.5,508.5C 140.328,509.492 140.662,510.158 141.5,510.5C 153.989,511.495 166.656,511.829 179.5,511.5C 179.795,513.735 179.461,515.735 178.5,517.5C 178.5,515.833 178.5,514.167 178.5,512.5C 165.829,512.667 153.162,512.5 140.5,512C 138.223,502.952 137.89,493.785 139.5,484.5C 154.138,484.121 168.471,484.121 182.5,484.5C 186.51,485.157 188.176,483.49 187.5,479.5C 188.5,479.5 189.5,479.5 190.5,479.5C 191.858,473.259 193.524,467.092 195.5,461C 195.684,459.624 196.351,458.791 197.5,458.5 Z"/></g>
<g><path style="opacity:0.804" fill="#b1346d" d="M 784.5,432.5 C 784.167,448.847 784.501,465.18 785.5,481.5C 787.111,482.32 787.778,483.654 787.5,485.5C 818.167,485.905 848.834,486.405 879.5,487C 880.056,487.383 880.389,487.883 880.5,488.5C 848.814,487.993 817.148,487.159 785.5,486C 785,485.5 784.5,485 784,484.5C 783.392,481.183 782.892,477.849 782.5,474.5C 783.097,460.341 783.764,446.341 784.5,432.5 Z"/></g>
<g><path style="opacity:0.518" fill="#c85747" d="M 223.5,455.5 C 222.553,461.466 221.886,467.466 221.5,473.5C 219.876,473.36 218.71,474.027 218,475.5C 216.892,479.086 216.392,482.753 216.5,486.5C 233.5,486.5 250.5,486.5 267.5,486.5C 267.5,486.833 267.5,487.167 267.5,487.5C 249.556,488.765 231.556,488.765 213.5,487.5C 214.918,478.488 217.251,469.822 220.5,461.5C 221.5,459.5 222.5,457.5 223.5,455.5 Z"/></g>
<g><path style="opacity:0.396" fill="#c46256" d="M 265.5,455.5 C 268.751,465.851 271.084,476.517 272.5,487.5C 270.833,487.5 269.167,487.5 267.5,487.5C 267.5,487.167 267.5,486.833 267.5,486.5C 268.5,486.5 269.5,486.5 270.5,486.5C 268.66,476.274 266.994,465.941 265.5,455.5 Z"/></g>
<g><path style="opacity:0.235" fill="#ecaba4" d="M 321.5,482.5 C 322.913,485.219 323.58,488.219 323.5,491.5C 322.087,488.781 321.42,485.781 321.5,482.5 Z"/></g>
<g><path style="opacity:0.325" fill="#eab37b" d="M 492.5,444.5 C 490.913,459.13 489.58,473.797 488.5,488.5C 488.949,495.859 489.616,503.193 490.5,510.5C 485.71,494.448 485.21,478.115 489,461.5C 489.754,455.614 490.92,449.947 492.5,444.5 Z"/></g>
<g><path style="opacity:1" fill="#0c5484" d="M 653.5,471.5 C 656.959,474.388 659.459,478.055 661,482.5C 661.333,482.167 661.667,481.833 662,481.5C 662.708,482.381 663.542,483.047 664.5,483.5C 709.28,554.885 753.946,626.385 798.5,698C 791.947,702.023 784.947,705.19 777.5,707.5C 776.287,714.154 775.121,720.821 774,727.5C 771.873,733.584 768.373,738.751 763.5,743C 748.193,753.548 731.193,759.548 712.5,761C 692.389,763.467 672.389,764.301 652.5,763.5C 652.389,762.883 652.056,762.383 651.5,762C 652.293,758.589 652.793,755.089 653,751.5C 653.389,658.144 653.555,564.81 653.5,471.5 Z"/></g>
<g><path style="opacity:0.259" fill="#b45042" d="M 98.5,469.5 C 97.3414,482.84 97.3414,496.173 98.5,509.5C 96.975,503.07 96.3083,496.404 96.5,489.5C 96.3083,482.596 96.975,475.93 98.5,469.5 Z"/></g>
<g><path style="opacity:0.923" fill="#e09c51" d="M 628.5,459.5 C 630.238,471.286 630.905,483.286 630.5,495.5C 630.338,514.165 624.004,530.332 611.5,544C 607.277,547.609 602.61,550.443 597.5,552.5C 598.684,551.312 598.684,550.145 597.5,549C 599.256,548.798 600.922,548.298 602.5,547.5C 604.596,545.988 606.596,544.322 608.5,542.5C 609.452,540.955 609.785,539.288 609.5,537.5C 611.46,536.862 613.293,536.862 615,537.5C 615.667,536.833 616.333,536.167 617,535.5C 619.1,528.911 621.933,522.745 625.5,517C 628.099,497.943 629.099,478.777 628.5,459.5 Z"/></g>
<g><path style="opacity:0.792" fill="#a8b983" d="M 462.5,455.5 C 461.961,463.056 461.295,470.556 460.5,478C 461.496,485.755 462.162,493.588 462.5,501.5C 460.836,500.051 460.002,498.051 460,495.5C 459.273,482.807 459.606,470.14 461,457.5C 461.278,456.584 461.778,455.918 462.5,455.5 Z"/></g>
<g><path style="opacity:0.004" fill="#fefffe" d="M 688.5,501.5 C 689.833,502.167 689.833,502.167 688.5,501.5 Z"/></g>
<g><path style="opacity:0.809" fill="#b8366d" d="M 917.5,465.5 C 926.094,486.869 927.927,508.869 923,531.5C 921.247,538.337 918.414,544.67 914.5,550.5C 918.277,555.058 921.277,560.058 923.5,565.5C 922.883,565.611 922.383,565.944 922,566.5C 921.333,564.5 920.667,562.5 920,560.5C 918.989,559.663 917.822,559.33 916.5,559.5C 916.186,556.378 915.186,553.545 913.5,551C 913.648,549.293 913.982,547.626 914.5,546C 916.881,543.236 918.715,540.07 920,536.5C 922.44,524.65 923.107,512.65 922,500.5C 921.598,499.128 921.098,497.795 920.5,496.5C 921.937,494.979 922.604,493.145 922.5,491C 921.136,482.352 919.47,473.852 917.5,465.5 Z"/></g>
<g><path style="opacity:0.004" fill="#fefffe" d="M 50.5,505.5 C 51.8333,506.167 51.8333,506.167 50.5,505.5 Z"/></g>
<g><path style="opacity:0.957" fill="#8ea35f" d="M 437.5,442.5 C 436.605,451.816 435.772,461.149 435,470.5C 434.586,470.957 434.086,471.291 433.5,471.5C 430.881,482.994 429.048,494.661 428,506.5C 424.947,512.015 423.613,518.015 424,524.5C 423.329,523.748 422.496,523.414 421.5,523.5C 426.343,496.285 431.677,469.285 437.5,442.5 Z"/></g>
<g><path style="opacity:0.114" fill="#f49e95" d="M 140.5,508.5 C 153.265,509.149 165.932,509.815 178.5,510.5C 166.167,510.5 153.833,510.5 141.5,510.5C 140.662,510.158 140.328,509.492 140.5,508.5 Z"/></g>
<g><path style="opacity:0.043" fill="#ffb4d1" d="M 880.5,508.5 C 850.852,510.492 820.852,511.159 790.5,510.5C 820.402,509.826 850.402,509.159 880.5,508.5 Z"/></g>
<g><path style="opacity:0.462" fill="#a33162" d="M 880.5,488.5 C 881.492,495.982 881.825,503.648 881.5,511.5C 849.833,511.5 818.167,511.5 786.5,511.5C 787.568,510.566 788.901,510.232 790.5,510.5C 820.852,511.159 850.852,510.492 880.5,508.5C 880.5,501.833 880.5,495.167 880.5,488.5 Z"/></g>
<g><path style="opacity:0.188" fill="#f5bfb5" d="M 297.5,502.5 C 298.222,502.918 298.722,503.584 299,504.5C 302.107,520.202 305.274,535.869 308.5,551.5C 303.96,535.479 300.293,519.145 297.5,502.5 Z"/></g>
<g><path style="opacity:0.69" fill="#d67e6e" d="M 277.5,513.5 C 279.706,518.503 281.039,523.836 281.5,529.5C 280.034,528.653 279.2,527.32 279,525.5C 278.358,521.509 277.858,517.509 277.5,513.5 Z"/></g>
<g><path style="opacity:0.004" fill="#fefffe" d="M 939.5,523.5 C 940.833,524.167 940.833,524.167 939.5,523.5 Z"/></g>
<g><path style="opacity:0.876" fill="#c44036" d="M 98.5,511.5 C 99.5,511.5 100.5,511.5 101.5,511.5C 104.735,519.107 106.735,527.107 107.5,535.5C 103.34,528.03 100.34,520.03 98.5,511.5 Z"/></g>
<g><path style="opacity:0.702" fill="#c25a4a" d="M 323.5,492.5 C 328.912,515.224 333.578,538.224 337.5,561.5C 336.849,560.909 336.182,560.243 335.5,559.5C 333.23,553.108 332.064,546.441 332,539.5C 331.333,538.833 330.667,538.167 330,537.5C 327.78,527.34 325.946,517.007 324.5,506.5C 323.872,501.851 323.539,497.184 323.5,492.5 Z"/></g>
<g><path style="opacity:1" fill="#d33421" d="M 277.5,513.5 C 277.858,517.509 278.358,521.509 279,525.5C 279.2,527.32 280.034,528.653 281.5,529.5C 281.639,535.557 282.306,541.557 283.5,547.5C 284.183,547.863 284.85,548.196 285.5,548.5C 287.152,555.408 288.485,562.408 289.5,569.5C 289.5,570.833 289.5,572.167 289.5,573.5C 289.5,576.5 289.5,579.5 289.5,582.5C 284.833,582.5 280.167,582.5 275.5,582.5C 275.471,579.344 273.804,577.678 270.5,577.5C 265.026,579.862 261.359,578.195 259.5,572.5C 257.5,571.833 255.5,571.167 253.5,570.5C 253.121,568.787 252.121,567.787 250.5,567.5C 249.094,567.027 248.427,566.027 248.5,564.5C 247.258,560.341 246.425,556.007 246,551.5C 245.167,550.667 244.333,549.833 243.5,549C 238.167,548.333 232.833,548.333 227.5,549C 225.085,550.465 224.085,552.632 224.5,555.5C 222.983,555.511 221.816,556.177 221,557.5C 220.683,555.699 220.016,555.366 219,556.5C 217.42,559.109 216.254,562.442 215.5,566.5C 214.167,566.5 212.833,566.5 211.5,566.5C 211.5,567.833 211.5,569.167 211.5,570.5C 208.509,570.33 206.509,571.663 205.5,574.5C 202.389,576.611 199.055,578.278 195.5,579.5C 194.702,579.957 194.369,580.624 194.5,581.5C 191.428,581.817 188.428,581.484 185.5,580.5C 184.754,579.264 184.421,577.93 184.5,576.5C 185.924,574.485 186.59,572.152 186.5,569.5C 187.6,567.723 188.434,565.723 189,563.5C 189.333,564.5 189.667,565.5 190,566.5C 192.793,559.444 194.793,552.111 196,544.5C 197.293,541.281 198.96,538.281 201,535.5C 202.11,528.056 203.276,520.722 204.5,513.5C 204.511,511.983 205.177,510.816 206.5,510C 229.5,509.333 252.5,509.333 275.5,510C 276.823,510.816 277.489,511.983 277.5,513.5 Z"/></g>
<g><path style="opacity:0.933" fill="#8aa05a" d="M 368.5,469.5 C 367.985,475.861 367.152,482.194 366,488.5C 365.581,489.672 364.915,490.672 364,491.5C 363.501,496.823 363.334,502.156 363.5,507.5C 362.5,507.5 361.5,507.5 360.5,507.5C 357.375,521.886 353.709,536.053 349.5,550C 349.833,550.333 350.167,550.667 350.5,551C 348.391,551.907 347.058,553.407 346.5,555.5C 352.92,526.486 360.253,497.819 368.5,469.5 Z"/></g>
<g><path style="opacity:1" fill="#c34133" d="M 141.5,510.5 C 153.833,510.5 166.167,510.5 178.5,510.5C 179.496,510.414 180.329,510.748 181,511.5C 181.667,513.5 181.667,515.5 181,517.5C 174.829,535.51 168.996,553.51 163.5,571.5C 163.167,571.5 162.833,571.5 162.5,571.5C 162.505,567.466 162.838,563.466 163.5,559.5C 164.5,559.5 165.5,559.5 166.5,559.5C 167.736,549.285 169.736,539.119 172.5,529C 171.057,526.922 171.724,526.089 174.5,526.5C 174.5,524.5 174.5,522.5 174.5,520.5C 176.619,520.532 177.952,519.532 178.5,517.5C 179.461,515.735 179.795,513.735 179.5,511.5C 166.656,511.829 153.989,511.495 141.5,510.5 Z"/></g>
<g><path style="opacity:0.906" fill="#c95d4f" d="M 281.5,529.5 C 283.323,535.61 284.657,541.943 285.5,548.5C 284.85,548.196 284.183,547.863 283.5,547.5C 282.306,541.557 281.639,535.557 281.5,529.5 Z"/></g>
<g><path style="opacity:1" fill="#c74b3c" d="M 204.5,513.5 C 203.276,520.722 202.11,528.056 201,535.5C 198.96,538.281 197.293,541.281 196,544.5C 194.793,552.111 192.793,559.444 190,566.5C 189.667,565.5 189.333,564.5 189,563.5C 188.434,565.723 187.6,567.723 186.5,569.5C 191.929,550.548 197.929,531.882 204.5,513.5 Z"/></g>
<g><path style="opacity:0.616" fill="#c15346" d="M 248.5,564.5 C 246.081,559.761 243.747,554.927 241.5,550C 236.792,549.504 232.125,549.838 227.5,551C 226.601,552.652 225.601,554.152 224.5,555.5C 224.085,552.632 225.085,550.465 227.5,549C 232.833,548.333 238.167,548.333 243.5,549C 244.333,549.833 245.167,550.667 246,551.5C 246.425,556.007 247.258,560.341 248.5,564.5 Z"/></g>
<g><path style="opacity:0.838" fill="#df974b" d="M 503.5,538.5 C 510.118,541.264 516.451,544.597 522.5,548.5C 521.975,549.192 521.308,549.692 520.5,550C 523.5,551.667 526.5,553.333 529.5,555C 533.794,556.682 538.128,556.849 542.5,555.5C 543.386,556.325 543.719,557.325 543.5,558.5C 553.833,558.5 564.167,558.5 574.5,558.5C 574.5,557.5 574.5,556.5 574.5,555.5C 578.839,556.154 582.673,555.154 586,552.5C 589.743,553.141 593.577,553.141 597.5,552.5C 571.565,564.552 545.565,564.385 519.5,552C 513.096,548.762 507.763,544.262 503.5,538.5 Z"/></g>
<g><path style="opacity:1" fill="#c4246c" d="M 899.5,435.5 C 902.949,440.464 905.782,445.797 908,451.5C 910.926,455.472 913.759,459.472 916.5,463.5C 917.338,463.842 917.672,464.508 917.5,465.5C 919.47,473.852 921.136,482.352 922.5,491C 922.604,493.145 921.937,494.979 920.5,496.5C 921.098,497.795 921.598,499.128 922,500.5C 923.107,512.65 922.44,524.65 920,536.5C 918.715,540.07 916.881,543.236 914.5,546C 913.982,547.626 913.648,549.293 913.5,551C 915.186,553.545 916.186,556.378 916.5,559.5C 917.822,559.33 918.989,559.663 920,560.5C 920.667,562.5 921.333,564.5 922,566.5C 922.383,565.944 922.883,565.611 923.5,565.5C 928.61,579.687 928.776,594.02 924,608.5C 918.118,625.952 908.951,641.286 896.5,654.5C 895.732,653.737 895.232,652.737 895,651.5C 894.51,652.793 894.343,654.127 894.5,655.5C 891.75,655.618 889.75,656.951 888.5,659.5C 887.675,660.386 886.675,660.719 885.5,660.5C 885.707,663.745 884.207,665.745 881,666.5C 879.667,665.833 878.667,664.833 878,663.5C 877,664.833 876,664.833 875,663.5C 874.097,664.701 872.931,665.535 871.5,666C 871.957,666.414 872.291,666.914 872.5,667.5C 870.363,668.738 869.029,670.571 868.5,673C 869.738,672.923 870.738,673.089 871.5,673.5C 867.956,674.766 864.956,676.766 862.5,679.5C 857.208,678.576 852.208,679.576 847.5,682.5C 847.255,684.317 847.255,685.984 847.5,687.5C 844.5,688.5 841.5,689.5 838.5,690.5C 836.796,689.932 835.296,689.932 834,690.5C 833.517,689.552 833.351,688.552 833.5,687.5C 832.167,687.5 830.833,687.5 829.5,687.5C 829.594,690.541 828.094,692.207 825,692.5C 825.338,689.375 826.005,686.375 827,683.5C 826.282,682.549 825.449,682.383 824.5,683C 823.068,688.644 821.401,688.811 819.5,683.5C 819.608,682.558 819.941,681.725 820.5,681C 822.044,680.71 823.377,680.044 824.5,679C 823.023,676.555 821.19,674.388 819,672.5C 818.056,673.263 817.556,674.263 817.5,675.5C 818.043,676.864 818.21,678.197 818,679.5C 817,680.833 816,680.833 815,679.5C 813.877,676.419 812.211,673.753 810,671.5C 809.667,669.5 809.333,667.5 809,665.5C 806.799,663.256 805.299,660.589 804.5,657.5C 803.193,656.184 801.693,655.184 800,654.5C 799.855,651.509 798.355,649.842 795.5,649.5C 795.5,649.167 795.5,648.833 795.5,648.5C 794.657,645.484 793.157,642.817 791,640.5C 790.578,637.764 790.578,635.098 791,632.5C 789.989,633.337 788.822,633.67 787.5,633.5C 787.663,631.143 787.497,628.81 787,626.5C 784.485,630.059 783.985,629.392 785.5,624.5C 784.284,623.904 782.951,623.737 781.5,624C 780.383,621.575 778.883,619.409 777,617.5C 776.504,615.965 776.67,614.465 777.5,613C 774.661,610.489 773.161,607.323 773,603.5C 770.961,601.126 768.628,599.126 766,597.5C 764.463,594.427 762.963,591.427 761.5,588.5C 809.168,588.667 856.834,588.5 904.5,588C 905.167,587 905.833,586 906.5,585C 904.249,581.933 901.916,579.1 899.5,576.5C 897.052,572.441 894.719,568.275 892.5,564C 856.453,563.974 820.453,563.308 784.5,562C 783.809,560.933 783.309,559.766 783,558.5C 782.47,543.153 782.803,527.82 784,512.5C 784.671,511.748 785.504,511.414 786.5,511.5C 818.167,511.5 849.833,511.5 881.5,511.5C 881.825,503.648 881.492,495.982 880.5,488.5C 880.389,487.883 880.056,487.383 879.5,487C 848.834,486.405 818.167,485.905 787.5,485.5C 787.778,483.654 787.111,482.32 785.5,481.5C 784.501,465.18 784.167,448.847 784.5,432.5C 784.918,431.778 785.584,431.278 786.5,431C 822.167,430.333 857.833,430.333 893.5,431C 896.274,431.624 898.274,433.124 899.5,435.5 Z"/></g>
<g><path style="opacity:0.976" fill="#bf4335" d="M 118.5,551.5 C 120.689,553.507 123.355,554.507 126.5,554.5C 125.554,559.051 127.387,561.384 132,561.5C 132.653,564.139 133.82,566.473 135.5,568.5C 128.833,563.833 123.167,558.167 118.5,551.5 Z"/></g>
<g><path style="opacity:0.949" fill="#95a967" d="M 466.5,527.5 C 464.214,550.187 460.547,572.521 455.5,594.5C 456.855,581.177 458.355,567.844 460,554.5C 461.638,545.142 463.805,536.142 466.5,527.5 Z"/></g>
<g><path style="opacity:0.9" fill="#89a157" d="M 421.5,524.5 C 420.35,533.783 419.516,543.116 419,552.5C 417.984,551.366 417.317,551.699 417,553.5C 416.249,559.597 415.082,565.597 413.5,571.5C 412.148,572.518 411.148,573.851 410.5,575.5C 409.107,574.137 407.441,573.304 405.5,573C 404.549,569.943 404.216,566.777 404.5,563.5C 403.5,563.5 402.5,563.5 401.5,563.5C 402.229,558.87 402.563,554.203 402.5,549.5C 404.798,555.915 406.632,562.582 408,569.5C 408.826,571.405 409.993,571.739 411.5,570.5C 415.238,555.131 418.572,539.798 421.5,524.5 Z"/></g>
<g><path style="opacity:0.525" fill="#c1c27d" d="M 501.5,566.5 C 497.242,564.882 493.242,562.882 489.5,560.5C 489.5,559.5 489.5,558.5 489.5,557.5C 487.019,557.323 485.186,558.323 484,560.5C 483.589,568.185 482.089,575.518 479.5,582.5C 480.578,572.866 482.244,563.366 484.5,554C 485.908,553.685 487.241,554.018 488.5,555C 492.53,559.321 496.863,563.154 501.5,566.5 Z"/></g>
<g><path style="opacity:0.886" fill="#c45140" d="M 224.5,555.5 C 217.874,568.13 207.874,576.797 194.5,581.5C 194.369,580.624 194.702,579.957 195.5,579.5C 199.055,578.278 202.389,576.611 205.5,574.5C 206.509,571.663 208.509,570.33 211.5,570.5C 211.5,569.167 211.5,567.833 211.5,566.5C 212.833,566.5 214.167,566.5 215.5,566.5C 216.254,562.442 217.42,559.109 219,556.5C 220.016,555.366 220.683,555.699 221,557.5C 221.816,556.177 222.983,555.511 224.5,555.5 Z"/></g>
<g><path style="opacity:1" fill="#bb5638" d="M 310.5,559.5 C 313.524,562.376 314.857,566.042 314.5,570.5C 322.5,570.5 330.5,570.5 338.5,570.5C 338.167,567.833 337.833,565.167 337.5,562.5C 338.924,564.515 339.59,566.848 339.5,569.5C 331.567,571.468 323.234,572.135 314.5,571.5C 313.833,571.5 313.167,571.5 312.5,571.5C 311.833,567.5 311.167,563.5 310.5,559.5 Z"/></g>
<g><path style="opacity:0.996" fill="#bf4e40" d="M 135.5,568.5 C 138.555,569.036 141.555,569.869 144.5,571C 148.255,574.543 152.588,577.043 157.5,578.5C 158.167,578.167 158.833,577.833 159.5,577.5C 159.771,574.953 160.771,572.953 162.5,571.5C 162.244,573.937 161.577,576.271 160.5,578.5C 159.311,579.429 157.978,579.762 156.5,579.5C 148.461,577.649 141.461,573.982 135.5,568.5 Z"/></g>
<g><path style="opacity:0.31" fill="#e39591" d="M 186.5,569.5 C 186.59,572.152 185.924,574.485 184.5,576.5C 184.41,573.848 185.076,571.515 186.5,569.5 Z"/></g>
<g><path style="opacity:0.027" fill="#e6a69d" d="M 162.5,571.5 C 162.833,571.5 163.167,571.5 163.5,571.5C 163.452,574.313 162.785,576.979 161.5,579.5C 159.701,580.788 158.035,580.788 156.5,579.5C 157.978,579.762 159.311,579.429 160.5,578.5C 161.577,576.271 162.244,573.937 162.5,571.5 Z"/></g>
<g><path style="opacity:0.024" fill="#ecebf4" d="M 762.5,571.5 C 763.325,575.647 763.825,579.981 764,584.5C 768.601,585.142 773.101,585.809 777.5,586.5C 772.5,586.5 767.5,586.5 762.5,586.5C 762.5,586.167 762.5,585.833 762.5,585.5C 762.5,580.833 762.5,576.167 762.5,571.5 Z"/></g>
<g><path style="opacity:1" fill="#c44133" d="M 250.5,567.5 C 252.121,567.787 253.121,568.787 253.5,570.5C 255.5,571.167 257.5,571.833 259.5,572.5C 261.359,578.195 265.026,579.862 270.5,577.5C 273.804,577.678 275.471,579.344 275.5,582.5C 280.167,582.5 284.833,582.5 289.5,582.5C 289.5,579.5 289.5,576.5 289.5,573.5C 291.082,576.876 291.749,580.542 291.5,584.5C 278.649,587.092 266.982,584.258 256.5,576C 253.619,573.721 251.619,570.888 250.5,567.5 Z"/></g>
<g><path style="opacity:0.773" fill="#c8645e" d="M 184.5,576.5 C 184.421,577.93 184.754,579.264 185.5,580.5C 188.428,581.484 191.428,581.817 194.5,581.5C 190.817,583.25 186.817,583.917 182.5,583.5C 182.41,580.848 183.076,578.515 184.5,576.5 Z"/></g>
<g><path style="opacity:0.298" fill="#d5968c" d="M 289.5,569.5 C 291.277,573.586 292.611,577.919 293.5,582.5C 293.145,583.522 292.478,584.189 291.5,584.5C 291.749,580.542 291.082,576.876 289.5,573.5C 289.5,572.167 289.5,570.833 289.5,569.5 Z"/></g>
<g><path style="opacity:1" fill="#aeae37" d="M 501.5,566.5 C 502.348,568.312 502.348,569.812 501.5,571C 503.126,570.805 504.793,570.805 506.5,571C 505.167,571.667 505.167,572.333 506.5,573C 513.473,573.744 519.639,576.244 525,580.5C 529.343,580.886 533.343,582.22 537,584.5C 537.804,583.196 538.971,582.529 540.5,582.5C 557.572,585.27 574.572,584.77 591.5,581C 595.395,580.123 599.062,578.623 602.5,576.5C 604.069,577.714 604.902,579.381 605,581.5C 606.011,582.337 607.178,582.67 608.5,582.5C 608.5,580.167 608.5,577.833 608.5,575.5C 611.131,574.522 613.798,573.522 616.5,572.5C 617.167,572.833 617.833,573.167 618.5,573.5C 619.869,571.876 621.536,571.376 623.5,572C 624.753,628.073 624.753,684.239 623.5,740.5C 623.5,740.833 623.5,741.167 623.5,741.5C 603.506,744.628 584.506,741.795 566.5,733C 551.294,722.769 541.961,708.603 538.5,690.5C 531.846,697.019 524.18,702.186 515.5,706C 516.056,706.383 516.389,706.883 516.5,707.5C 514.833,707.5 513.167,707.5 511.5,707.5C 501.085,709.161 490.751,708.827 480.5,706.5C 480.719,705.325 480.386,704.325 479.5,703.5C 475.795,702.044 472.462,700.044 469.5,697.5C 468.047,694.647 466.881,691.647 466,688.5C 465.333,681.833 465.333,675.167 466,668.5C 470.612,639.83 475.112,611.164 479.5,582.5C 482.089,575.518 483.589,568.185 484,560.5C 485.186,558.323 487.019,557.323 489.5,557.5C 489.5,558.5 489.5,559.5 489.5,560.5C 493.242,562.882 497.242,564.882 501.5,566.5 Z"/></g>
<g><path style="opacity:1" fill="#0f507b" d="M 653.5,471.5 C 653.555,564.81 653.389,658.144 653,751.5C 652.793,755.089 652.293,758.589 651.5,762C 652.056,762.383 652.389,762.883 652.5,763.5C 651.508,763.672 650.842,763.338 650.5,762.5C 650.333,663.833 650.5,565.166 651,466.5C 651.847,468.193 652.68,469.86 653.5,471.5 Z"/></g>
<g><path style="opacity:0.063" fill="#ffbbdd" d="M 903.5,584.5 C 904.043,584.56 904.376,584.893 904.5,585.5C 872.669,586.83 841.003,586.83 809.5,585.5C 841.004,585.832 872.338,585.498 903.5,584.5 Z"/></g>
<g><path style="opacity:0.88" fill="#b23269" d="M 899.5,576.5 C 901.916,579.1 904.249,581.933 906.5,585C 905.833,586 905.167,587 904.5,588C 856.834,588.5 809.168,588.667 761.5,588.5C 762.963,591.427 764.463,594.427 766,597.5C 768.628,599.126 770.961,601.126 773,603.5C 773.161,607.323 774.661,610.489 777.5,613C 776.67,614.465 776.504,615.965 777,617.5C 778.883,619.409 780.383,621.575 781.5,624C 782.951,623.737 784.284,623.904 785.5,624.5C 783.985,629.392 784.485,630.059 787,626.5C 787.497,628.81 787.663,631.143 787.5,633.5C 788.822,633.67 789.989,633.337 791,632.5C 790.578,635.098 790.578,637.764 791,640.5C 793.157,642.817 794.657,645.484 795.5,648.5C 782.598,629.04 769.931,609.373 757.5,589.5C 758.605,587.777 760.272,586.777 762.5,586.5C 767.5,586.5 772.5,586.5 777.5,586.5C 788.19,586.679 798.857,586.345 809.5,585.5C 841.003,586.83 872.669,586.83 904.5,585.5C 904.376,584.893 904.043,584.56 903.5,584.5C 902.199,581.899 900.866,579.232 899.5,576.5 Z"/></g>
<g><path style="opacity:0.999" fill="#839f4c" d="M 316.5,580.5 C 317.117,580.611 317.617,580.944 318,581.5C 319.156,586.122 319.99,590.789 320.5,595.5C 322.981,593.977 325.481,592.31 328,590.5C 329.011,591.337 330.178,591.67 331.5,591.5C 331.799,593.604 331.466,595.604 330.5,597.5C 328.623,598.803 326.957,600.303 325.5,602C 324.424,608.937 324.424,616.103 325.5,623.5C 328.61,628.778 331.61,634.111 334.5,639.5C 334.568,645.377 337.568,648.377 343.5,648.5C 343.5,647.5 343.5,646.5 343.5,645.5C 345.833,645.5 348.167,645.5 350.5,645.5C 350.662,647.527 350.495,649.527 350,651.5C 349.667,650.5 349.333,649.5 349,648.5C 348.955,651.334 348.121,653.834 346.5,656C 348.692,658.786 351.359,659.286 354.5,657.5C 354.33,658.822 354.663,659.989 355.5,661C 357.384,661.216 359.051,661.883 360.5,663C 359.167,664 359.167,665 360.5,666C 362.7,665.416 364.867,665.582 367,666.5C 367.507,667.996 367.007,669.163 365.5,670C 366.756,670.417 367.423,671.25 367.5,672.5C 341.106,661.072 325.773,641.072 321.5,612.5C 321.665,609.15 321.498,605.817 321,602.5C 318.295,595.476 316.795,588.143 316.5,580.5 Z"/></g>
<g><path style="opacity:0.004" fill="#fefffe" d="M 1011.5,593.5 C 1012.83,594.167 1012.83,594.167 1011.5,593.5 Z"/></g>
<g><path style="opacity:0.004" fill="#fefffe" d="M 1014.5,595.5 C 1015.83,596.167 1015.83,596.167 1014.5,595.5 Z"/></g>
<g><path style="opacity:0.545" fill="#9caf73" d="M 312.5,571.5 C 313.167,571.5 313.833,571.5 314.5,571.5C 315.167,574.5 315.833,577.5 316.5,580.5C 316.795,588.143 318.295,595.476 321,602.5C 321.498,605.817 321.665,609.15 321.5,612.5C 318.133,599.007 315.133,585.34 312.5,571.5 Z"/></g>
<g><path style="opacity:0.004" fill="#fefffe" d="M 219.5,602.5 C 220.833,603.167 220.833,603.167 219.5,602.5 Z"/></g>
<g><path style="opacity:0.83" fill="#8ea55e" d="M 455.5,596.5 C 452.669,613.488 449.835,630.488 447,647.5C 444.126,653.544 439.96,658.544 434.5,662.5C 435.442,659.58 436.776,656.914 438.5,654.5C 439.675,654.719 440.675,654.386 441.5,653.5C 442.73,648.56 444.564,643.893 447,639.5C 448.83,627.526 450.497,615.526 452,603.5C 453.032,601.006 454.198,598.672 455.5,596.5 Z"/></g>
<g><path style="opacity:0.876" fill="#aeaf48" d="M 626.5,561.5 C 626.225,621.502 625.225,681.168 623.5,740.5C 624.753,684.239 624.753,628.073 623.5,572C 621.536,571.376 619.869,571.876 618.5,573.5C 617.833,573.167 617.167,572.833 616.5,572.5C 613.798,573.522 611.131,574.522 608.5,575.5C 608.5,577.833 608.5,580.167 608.5,582.5C 607.178,582.67 606.011,582.337 605,581.5C 604.902,579.381 604.069,577.714 602.5,576.5C 599.062,578.623 595.395,580.123 591.5,581C 574.572,584.77 557.572,585.27 540.5,582.5C 538.971,582.529 537.804,583.196 537,584.5C 533.343,582.22 529.343,580.886 525,580.5C 519.639,576.244 513.473,573.744 506.5,573C 505.167,572.333 505.167,571.667 506.5,571C 504.793,570.805 503.126,570.805 501.5,571C 502.348,569.812 502.348,568.312 501.5,566.5C 533.923,584.284 567.589,586.784 602.5,574C 610.163,570.171 617.496,565.837 624.5,561C 625.437,560.308 626.103,560.475 626.5,561.5 Z"/></g>
<g><path style="opacity:0.46" fill="#c1c178" d="M 626.5,561.5 C 627.833,626.167 627.833,690.833 626.5,755.5C 626.5,750.833 626.5,746.167 626.5,741.5C 625.5,741.5 624.5,741.5 623.5,741.5C 623.5,741.167 623.5,740.833 623.5,740.5C 625.225,681.168 626.225,621.502 626.5,561.5 Z"/></g>
<g><path style="opacity:0.004" fill="#fefffe" d="M 28.5,650.5 C 29.8333,651.167 29.8333,651.167 28.5,650.5 Z"/></g>
<g><path style="opacity:0.322" fill="#6387a4" d="M 664.5,483.5 C 663.542,483.047 662.708,482.381 662,481.5C 661.667,481.833 661.333,482.167 661,482.5C 659.459,478.055 656.959,474.388 653.5,471.5C 652.68,469.86 651.847,468.193 651,466.5C 650.5,565.166 650.333,663.833 650.5,762.5C 649.285,662.981 648.785,563.315 649,463.5C 649.605,461.519 650.605,461.185 652,462.5C 656.42,469.404 660.587,476.404 664.5,483.5 Z"/></g>
<g><path style="opacity:0.629" fill="#87a059" d="M 432.5,663.5 C 423.701,671.226 413.368,675.726 401.5,677C 391.06,678.373 381.06,677.206 371.5,673.5C 377.064,673.976 382.564,674.643 388,675.5C 395.023,675.115 402.19,674.615 409.5,674C 412.418,673.152 415.084,671.818 417.5,670C 415.503,668.847 415.17,667.347 416.5,665.5C 417.613,667.031 419.113,668.031 421,668.5C 424.085,667.943 426.918,666.776 429.5,665C 428.833,664.667 428.167,664.333 427.5,664C 429.134,663.506 430.801,663.34 432.5,663.5 Z"/></g>
<g><path style="opacity:0.004" fill="#fefffe" d="M 800.5,675.5 C 801.833,676.167 801.833,676.167 800.5,675.5 Z"/></g>
<g><path style="opacity:1" fill="#ba2e6c" d="M 795.5,649.5 C 798.355,649.842 799.855,651.509 800,654.5C 801.693,655.184 803.193,656.184 804.5,657.5C 805.299,660.589 806.799,663.256 809,665.5C 809.333,667.5 809.667,669.5 810,671.5C 812.211,673.753 813.877,676.419 815,679.5C 816,680.833 817,680.833 818,679.5C 818.21,678.197 818.043,676.864 817.5,675.5C 817.556,674.263 818.056,673.263 819,672.5C 821.19,674.388 823.023,676.555 824.5,679C 823.377,680.044 822.044,680.71 820.5,681C 819.941,681.725 819.608,682.558 819.5,683.5C 821.401,688.811 823.068,688.644 824.5,683C 825.449,682.383 826.282,682.549 827,683.5C 826.005,686.375 825.338,689.375 825,692.5C 828.094,692.207 829.594,690.541 829.5,687.5C 830.833,687.5 832.167,687.5 833.5,687.5C 833.351,688.552 833.517,689.552 834,690.5C 835.296,689.932 836.796,689.932 838.5,690.5C 841.5,689.5 844.5,688.5 847.5,687.5C 847.255,685.984 847.255,684.317 847.5,682.5C 852.208,679.576 857.208,678.576 862.5,679.5C 864.956,676.766 867.956,674.766 871.5,673.5C 870.738,673.089 869.738,672.923 868.5,673C 869.029,670.571 870.363,668.738 872.5,667.5C 872.291,666.914 871.957,666.414 871.5,666C 872.931,665.535 874.097,664.701 875,663.5C 876,664.833 877,664.833 878,663.5C 878.667,664.833 879.667,665.833 881,666.5C 884.207,665.745 885.707,663.745 885.5,660.5C 886.675,660.719 887.675,660.386 888.5,659.5C 889.75,656.951 891.75,655.618 894.5,655.5C 894.343,654.127 894.51,652.793 895,651.5C 895.232,652.737 895.732,653.737 896.5,654.5C 877.484,675.479 854.151,689.479 826.5,696.5C 822.967,695.802 820.467,693.802 819,690.5C 811.155,676.806 803.322,663.139 795.5,649.5 Z"/></g>
<g><path style="opacity:0.004" fill="#fefffe" d="M 208.5,687.5 C 209.833,688.167 209.833,688.167 208.5,687.5 Z"/></g>
<g><path style="opacity:0.004" fill="#fefffe" d="M 873.5,694.5 C 874.833,695.167 874.833,695.167 873.5,694.5 Z"/></g>
<g><path style="opacity:0.259" fill="#b1b363" d="M 469.5,697.5 C 472.462,700.044 475.795,702.044 479.5,703.5C 480.386,704.325 480.719,705.325 480.5,706.5C 490.751,708.827 501.085,709.161 511.5,707.5C 499.741,711.754 488.075,711.254 476.5,706C 473.577,703.584 471.243,700.75 469.5,697.5 Z"/></g>
<g><path style="opacity:0.004" fill="#fefffe" d="M 216.5,712.5 C 217.833,713.167 217.833,713.167 216.5,712.5 Z"/></g>
<g><path style="opacity:0.004" fill="#fefffe" d="M 148.5,740.5 C 149.833,741.167 149.833,741.167 148.5,740.5 Z"/></g>
<g><path style="opacity:0.004" fill="#fefffe" d="M 168.5,741.5 C 169.833,742.167 169.833,742.167 168.5,741.5 Z"/></g>
<g><path style="opacity:0.004" fill="#fefffe" d="M 765.5,744.5 C 766.833,745.167 766.833,745.167 765.5,744.5 Z"/></g>
<g><path style="opacity:1" fill="#8f461a" d="M 623.5,741.5 C 624.5,741.5 625.5,741.5 626.5,741.5C 626.5,746.167 626.5,750.833 626.5,755.5C 627.591,781.871 627.257,808.205 625.5,834.5C 615.472,835.948 605.472,835.781 595.5,834C 568.546,792.215 542.213,750.048 516.5,707.5C 516.389,706.883 516.056,706.383 515.5,706C 524.18,702.186 531.846,697.019 538.5,690.5C 541.961,708.603 551.294,722.769 566.5,733C 584.506,741.795 603.506,744.628 623.5,741.5 Z"/></g>
<g><path style="opacity:0.004" fill="#fefffe" d="M 24.5,764.5 C 25.8333,765.167 25.8333,765.167 24.5,764.5 Z"/></g>
<g><path style="opacity:0.004" fill="#fefffe" d="M 41.5,774.5 C 42.8333,775.167 42.8333,775.167 41.5,774.5 Z"/></g>
<g><path style="opacity:0.004" fill="#fefffe" d="M 370.5,774.5 C 371.833,775.167 371.833,775.167 370.5,774.5 Z"/></g>
<g><path style="opacity:0.004" fill="#fefffe" d="M 951.5,836.5 C 952.833,837.167 952.833,837.167 951.5,836.5 Z"/></g>
<g><path style="opacity:0.004" fill="#fefffe" d="M 352.5,842.5 C 353.833,843.167 353.833,843.167 352.5,842.5 Z"/></g>
<g><path style="opacity:0.004" fill="#fefffe" d="M 91.5,844.5 C 92.8333,845.167 92.8333,845.167 91.5,844.5 Z"/></g>
<g><path style="opacity:0.004" fill="#fefffe" d="M 916.5,859.5 C 917.833,860.167 917.833,860.167 916.5,859.5 Z"/></g>
<g><path style="opacity:0.004" fill="#fefffe" d="M 661.5,878.5 C 662.833,879.167 662.833,879.167 661.5,878.5 Z"/></g>
<g><path style="opacity:0.004" fill="#fefffe" d="M 93.5,908.5 C 94.8333,909.167 94.8333,909.167 93.5,908.5 Z"/></g>
<g><path style="opacity:0.004" fill="#fefffe" d="M 38.5,924.5 C 39.8333,925.167 39.8333,925.167 38.5,924.5 Z"/></g>
<g><path style="opacity:0.004" fill="#fefffe" d="M 163.5,950.5 C 164.833,951.167 164.833,951.167 163.5,950.5 Z"/></g>
<g><path style="opacity:0.004" fill="#fefffe" d="M 381.5,969.5 C 382.833,970.167 382.833,970.167 381.5,969.5 Z"/></g>
<g><path style="opacity:0.004" fill="#fefffe" d="M 781.5,976.5 C 782.833,977.167 782.833,977.167 781.5,976.5 Z"/></g>
<g><path style="opacity:0.004" fill="#fefffe" d="M 902.5,999.5 C 903.833,1000.17 903.833,1000.17 902.5,999.5 Z"/></g>
<g><path style="opacity:0.004" fill="#fefffe" d="M 650.5,1000.5 C 651.833,1001.17 651.833,1001.17 650.5,1000.5 Z"/></g>
</svg>
