<svg xmlns="http://www.w3.org/2000/svg" width="1734" height="1562" style="shape-rendering:geometricPrecision;text-rendering:geometricPrecision;image-rendering:optimizeQuality;fill-rule:evenodd;clip-rule:evenodd"><path style="opacity:.978" fill="#023672" d="M874.5-.5h19c9.683 1.26 19.017 4.094 28 8.5 11.919 7.757 15.419 18.257 10.5 31.5-3.814 5.992-9.314 8.992-16.5 9a20.691 20.691 0 0 1-1 5 647.722 647.722 0 0 0-6 6 41.673 41.673 0 0 1-5-14.5 16.25 16.25 0 0 0-8 0c3.289 1.391 4.956 3.558 5 6.5-3.943-3.637-8.61-5.637-14-6 1.667-1.667 1.333-2.667-1-3-10.369-1.9-20.036-5.566-29-11a118.107 118.107 0 0 1-12.5 31c-2.333-1-4-2.667-5-5-.383.556-.883.89-1.5 1-2.851-14.516-3.685-29.182-2.5-44 12.112-7.98 25.278-12.98 39.5-15Z"/><path style="opacity:.984" fill="#f6c59e" d="M914.5 53.5c2.033 1.398 3.033 3.398 3 6-.337 5.859-2.837 10.525-7.5 14-1.332 12.015-7.165 21.015-17.5 27a47.147 47.147 0 0 1-15.5 3c-4.762-.048-9.262-.881-13.5-2.5 8.083 6.862 17.417 10.695 28 11.5v5c-2.471 9.912-8.804 13.746-19 11.5-6.758-3.457-10.091-8.957-10-16.5a72.367 72.367 0 0 0-.5-12c-9.254-5.848-14.42-14.181-15.5-25 .215-1.679-.452-2.679-2-3-4.434-3.535-6.767-8.201-7-14 .617-.11 1.117-.444 1.5-1 1 2.333 2.667 4 5 5a118.107 118.107 0 0 0 12.5-31c8.964 5.434 18.631 9.1 29 11 2.333.333 2.667 1.333 1 3 5.39.363 10.057 2.363 14 6-.044-2.942-1.711-5.109-5-6.5a16.25 16.25 0 0 1 8 0 41.673 41.673 0 0 0 5 14.5 647.722 647.722 0 0 1 6-6Z"/><path style="opacity:1" fill="#2f4878" d="M862.5 43.5c2.477-.45 4.477.218 6 2a34.21 34.21 0 0 1-8 1.5 31.83 31.83 0 0 1-5 4.5c-1.083-.865-1.249-1.865-.5-3 2.426-1.952 4.926-3.619 7.5-5Z"/><path style="opacity:1" fill="#1f3f75" d="M861.5 59.5h4v4h-4v-4Z"/><path style="opacity:1" fill="#1f4075" d="M890.5 59.5c3.194-.324 4.194.842 3 3.5a8.435 8.435 0 0 1-4 .5c-.067-1.459.266-2.792 1-4Z"/><path style="opacity:.989" fill="#aae0fd" d="M471.5 62.5c36.76-1.624 64.76 13.043 84 44 20.8-11.557 40.8-10.39 60 3.5 11.524 10.217 17.19 23.05 17 38.5h-238c1.17-36.2 17.836-62.367 50-78.5 8.823-3.619 17.823-6.119 27-7.5Z"/><path style="opacity:1" fill="#de6d5f" d="M855.5 67.5h7c.325 3.024-1.008 4.69-4 5-3.48-.377-4.48-2.044-3-5Z"/><path style="opacity:1" fill="#e07262" d="M894.5 66.5c4.23-.669 6.063.998 5.5 5-2.931 1.547-5.431 1.047-7.5-1.5a11.804 11.804 0 0 1 2-3.5Z"/><path style="opacity:1" fill="#df6f60" d="M875.5 67.5c.996-.086 1.829.248 2.5 1 .092 4.213 2.092 6.88 6 8 .611 3.588-.889 4.754-4.5 3.5-4.838-2.985-6.172-7.152-4-12.5Z"/><path style="opacity:.957" fill="#3c557c" d="M844.5 72.5c1.548.321 2.215 1.321 2 3-1.406-.473-2.073-1.473-2-3Z"/><path style="opacity:1" fill="#e17565" d="M863.5 80.5c2.297 1.335 4.297 3.168 6 5.5 1.973.496 3.973.662 6 .5v3c-6.679.347-10.679-2.653-12-9Z"/><path style="opacity:.974" fill="#aae0fd" d="M212.5 98.5c22.977-1.169 37.811 9.164 44.5 31 2.648 24.001-7.518 39.501-30.5 46.5-24.881 2.437-40.381-8.396-46.5-32.5-1.234-23.906 9.599-38.906 32.5-45Z"/><path style="opacity:1" fill="#dba377" d="M892.5 100.5v12c.284 1.915-.049 3.581-1 5v-5c-10.583-.805-19.917-4.638-28-11.5 4.238 1.619 8.738 2.452 13.5 2.5a47.147 47.147 0 0 0 15.5-3Z"/><path style="opacity:.982" fill="#df422d" d="M862.5 112.5c-.091 7.543 3.242 13.043 10 16.5 10.196 2.246 16.529-1.588 19-11.5.951-1.419 1.284-3.085 1-5 10.339-.166 20.672 0 31 .5 32.619 19.283 56.786 46.116 72.5 80.5 2.439 7.955 1.773 15.622-2 23-11.029 14.862-23.862 27.862-38.5 39a576.628 576.628 0 0 1-1-48c5.16-3.905 5.16-7.905 0-12 3.769-14.747-.564-26.08-13-34a247.517 247.517 0 0 0-12.5-27c-.5 8.66-.666 17.327-.5 26h-102c.166-8.34 0-16.673-.5-25a174.753 174.753 0 0 0-12.5 28c-3.719 2.554-6.552 5.887-8.5 10a236.556 236.556 0 0 1-1.5 19 48.915 48.915 0 0 0-7 9.5 53.326 53.326 0 0 0 8 9.5v47c-16.626-12.126-31.126-26.459-43.5-43-4.04-7.523-4.374-15.189-1-23 16.16-33.825 40.326-60.325 72.5-79.5 9.994-.5 19.994-.666 30-.5Zm-59 80c.057 6.351.39 12.685 1 19a53.326 53.326 0 0 1-8-9.5 48.915 48.915 0 0 1 7-9.5Zm151 3c5.16 4.095 5.16 8.095 0 12v-12Z"/><path style="opacity:.987" fill="#aae0fd" d="M1363.5 128.5c51.92-.469 89.76 22.197 113.5 68 6.63 15.658 10.13 31.991 10.5 49h-399c1.69-32.85 18.35-53.684 50-62.5 13.7-2.804 26.86-1.304 39.5 4.5 30.91-33.808 67.91-42.475 111-26 21.27-19.049 46.1-30.049 74.5-33Z"/><path style="opacity:1" fill="#a43021" d="M941.5 161.5h-3c-3.125-.979-6.458-1.313-10-1-.166-8.673 0-17.34.5-26a247.517 247.517 0 0 1 12.5 27Z"/><path style="opacity:1" fill="#a33327" d="M928.5 160.5c3.542-.313 6.875.021 10 1-40.668-.167-81.335 0-122 .5l-3 1.5a174.753 174.753 0 0 1 12.5-28c.5 8.327.666 16.66.5 25h102Z"/><path style="opacity:.939" fill="#aae0fd" d="M297.5 154.5c16.566-.824 23.399 6.843 20.5 23-6.611 10.658-15.444 12.824-26.5 6.5-8-8.667-8-17.333 0-26 1.932-1.459 3.932-2.625 6-3.5Z"/><path style="opacity:.998" fill="#002854" d="M938.5 161.5h3c12.436 7.92 16.769 19.253 13 34v12a576.628 576.628 0 0 0 1 48v17c1.915-.284 3.581.049 5 1-1.282 3.231-1.282 6.564 0 10a37.297 37.297 0 0 0-14-.5 260.72 260.72 0 0 1-20 8.5h-100a208.649 208.649 0 0 0-26-10v-9h4v-61a217.864 217.864 0 0 1-1-19 236.556 236.556 0 0 0 1.5-19c1.948-4.113 4.781-7.446 8.5-10l3-1.5c40.665-.5 81.332-.667 122-.5Z"/><path style="opacity:.991" fill="#aadffd" d="M403.5 367.5a12099.39 12099.39 0 0 0 23 124 676.386 676.386 0 0 1-67 10v-1l-6-31c.507-4.691 3.174-6.857 8-6.5 7.075-2.984 9.741-8.151 8-15.5a154.266 154.266 0 0 0 7.5-25c.884-7.082.551-14.082-1-21-3.33-5.249-8.163-7.749-14.5-7.5-6.562-9.104-15.229-14.937-26-17.5-6.83-33.639-13.663-67.306-20.5-101-5.928-11.044-15.095-15.211-27.5-12.5-9.025 3.891-13.692 10.724-14 20.5a5337.71 5337.71 0 0 0 14.5 78 274.58 274.58 0 0 0 6.5 27 375.037 375.037 0 0 1-22 24c.175-2.121-.159-4.121-1-6 0-.667-.333-1-1-1l-29-152c-13.429.067-19.262-6.599-17.5-20 1.4-3.402 3.567-6.236 6.5-8.5a10542.644 10542.644 0 0 1 141-28.5c13.627 2.925 18.127 10.925 13.5 24-2.264 2.933-5.098 5.1-8.5 6.5a4.933 4.933 0 0 0-1 2.5 8409.117 8409.117 0 0 0 28 138Z"/><path style="opacity:.993" fill="#fe9a30" d="M578.5 202.5c-50.884 50.296-86.551 109.963-107 179-.838.342-1.172 1.008-1 2a361.617 361.617 0 0 0-6 33 3347.836 3347.836 0 0 1-30.5 73c-2.491.72-4.991 1.387-7.5 2a12099.39 12099.39 0 0 1-23-124c9.152-54.137 32.486-100.971 70-140.5 25.178-23.281 54.845-32.948 89-29 5.624.902 10.958 2.402 16 4.5Z"/><path style="opacity:1" fill="#fafbfc" d="M873.5 200.5c17.455-1.053 23.289 6.613 17.5 23-9.112 8.458-17.445 7.792-25-2-3.636-9.364-1.136-16.364 7.5-21Z"/><path style="opacity:1" fill="#feba45" d="M578.5 202.5c13.708 4.347 24.708 12.347 33 24-20.621 11.509-32.455 29.176-35.5 53-1.181 13.912.152 27.578 4 41a1355.574 1355.574 0 0 0 16.5 48 281.672 281.672 0 0 0-21 33 74.434 74.434 0 0 1-26-5.5c-16.765-2.522-30.265 2.978-40.5 16.5-11.863 18.012-13.529 37.012-5 57a118 118 0 0 0 10 18 604.735 604.735 0 0 0 18.5 22c-4.342 30.771-3.675 61.437 2 92a2149.235 2149.235 0 0 1-58-52 267.114 267.114 0 0 1-12-57 6048.609 6048.609 0 0 1 24-84c5.793-7.916 10.293-16.583 13.5-26 .867-4.456.534-8.789-1-13-3.64-1.643-6.807-.976-9.5 2a112.559 112.559 0 0 0-14.5 20c-1.008-3.923-2.841-7.257-5.5-10 20.449-69.037 56.116-128.704 107-179Z"/><path style="opacity:.985" fill="#df422d" d="M699.5 292.5a1754.855 1754.855 0 0 1-63 5 4394.445 4394.445 0 0 0-23-71c20.149-4.296 38.149.204 54 13.5 15.626 14.407 26.292 31.907 32 52.5Z"/><path style="opacity:.998" fill="#fe5b42" d="M611.5 226.5h2a4394.445 4394.445 0 0 1 23 71c-17.036 3.881-24.536 14.548-22.5 32 1.632 6.43 5.132 11.597 10.5 15.5a704.76 704.76 0 0 0 32 15.5c2.014 5.712 4.014 11.378 6 17a5540.472 5540.472 0 0 1 37.5 128A4659.13 4659.13 0 0 0 570.5 472 15688.625 15688.625 0 0 1 704 517.5a5016.322 5016.322 0 0 1 48.5 162h-4c-42.545-16.469-86.545-26.969-132-31.5a481.165 481.165 0 0 0-31-.5l-35-32a241.576 241.576 0 0 1 25-6.5c34.528-12.113 38.528-30.78 12-56a1386.44 1386.44 0 0 0-55-43.5 604.735 604.735 0 0 1-18.5-22 118 118 0 0 1-10-18c-8.529-19.988-6.863-38.988 5-57 10.235-13.522 23.735-19.022 40.5-16.5a74.434 74.434 0 0 0 26 5.5c14.121 1.068 21.787-5.598 23-20a110.664 110.664 0 0 0-2-13 1355.574 1355.574 0 0 1-16.5-48c-3.848-13.422-5.181-27.088-4-41 3.045-23.824 14.879-41.491 35.5-53Z"/><path style="opacity:1" fill="#fefefe" d="M335.5 376.5c-15.621-2.545-29.288 1.455-41 12a274.58 274.58 0 0 1-6.5-27 5337.71 5337.71 0 0 1-14.5-78c.308-9.776 4.975-16.609 14-20.5 12.405-2.711 21.572 1.456 27.5 12.5 6.837 33.694 13.67 67.361 20.5 101Z"/><path style="opacity:.999" fill="#013671" d="M1171.5 317.5a3598.905 3598.905 0 0 0 102 49c51.96 24.992 103.96 49.992 156 75l23 11.5c12.62 12.706 13.28 26.039 2 40-3.68 3.338-8.02 5.338-13 6-37 3.009-74 5.843-111 8.5a689.894 689.894 0 0 1-37 3c-.88-4.729-3.54-8.229-8-10.5a39112.49 39112.49 0 0 1-235-121c-5.92-3.998-11.92-4.332-18-1-5.62 6.693-5.29 13.026 1 19a17777.598 17777.598 0 0 1 225 116.5c-6.67.213-13.34.546-20 1l-210 15c-13.64-.43-26.64-3.596-39-9.5a9069.266 9069.266 0 0 0-180-85.5 221.924 221.924 0 0 0-31-15c-.342-.838-1.008-1.172-2-1a4968.527 4968.527 0 0 0-120-58 704.76 704.76 0 0 1-32-15.5c-5.368-3.903-8.868-9.07-10.5-15.5-2.036-17.452 5.464-28.119 22.5-32 21.177-1.3 42.177-2.967 63-5l87-6c-7.871 8.43-9.038 17.764-3.5 28 2.592 3.262 5.759 5.762 9.5 7.5a751.36 751.36 0 0 0 36 11.5l-49 2c.654 11.481 6.321 19.314 17 23.5 15.663.5 31.33.667 47 .5a178.524 178.524 0 0 0 32-10 989.911 989.911 0 0 0 34 10c16.723.441 33.39-.059 50-1.5 9.124-4.751 13.79-12.251 14-22.5l-49-2a157.162 157.162 0 0 0 19-6 318.4 318.4 0 0 0 23-8.5c6.542-6.537 8.709-14.371 6.5-23.5-2.717-5.551-6.883-9.551-12.5-12-1.282-3.436-1.282-6.769 0-10a11405.57 11405.57 0 0 1 72-5.5c15.74-1.807 31.07-.14 46 5l93 44.5Z"/><path style="opacity:.991" fill="#fe9930" d="M1452.5 339.5c-57.3-1.868-113.3 5.632-168 22.5-3.97 1.038-7.63 2.538-11 4.5a3598.905 3598.905 0 0 1-102-49c54.11-33.779 113.11-49.946 177-48.5 47.9 4.459 82.56 27.959 104 70.5Z"/><path style="opacity:.998" fill="#fdba45" d="M800.5 281.5a208.649 208.649 0 0 1 26 10 3007.623 3007.623 0 0 0 94 43 568.672 568.672 0 0 1-11 25 989.911 989.911 0 0 1-34-10 1547.644 1547.644 0 0 0-42-14h-1c-1.171-.845-2.505-1.511-4-2a751.36 751.36 0 0 1-36-11.5c-3.741-1.738-6.908-4.238-9.5-7.5-5.538-10.236-4.371-19.57 3.5-28 4.038-3.184 8.705-4.851 14-5Z"/><path style="opacity:1" fill="#fdba45" d="M960.5 283.5c5.617 2.449 9.783 6.449 12.5 12 2.209 9.129.042 16.963-6.5 23.5a318.4 318.4 0 0 1-23 8.5 1471.066 1471.066 0 0 0-50-20.5 374.506 374.506 0 0 0 33-15.5 260.72 260.72 0 0 0 20-8.5c4.72-.717 9.386-.55 14 .5Z"/><path style="opacity:1" fill="#fe9a30" d="M826.5 291.5h100a374.506 374.506 0 0 1-33 15.5 1471.066 1471.066 0 0 1 50 20.5 157.162 157.162 0 0 1-19 6 5.727 5.727 0 0 1-3 1h-1a3007.623 3007.623 0 0 1-94-43Z"/><path style="opacity:1" fill="#703c4f" d="M828.5 333.5c1.495.489 2.829 1.155 4 2h-53l49-2Z"/><path style="opacity:1" fill="#713d4f" d="m924.5 333.5 49 2a676.419 676.419 0 0 1-52-1 5.727 5.727 0 0 0 3-1Z"/><path style="opacity:1" fill="#df422d" d="M779.5 335.5h54l10 24c-15.67.167-31.337 0-47-.5-10.679-4.186-16.346-12.019-17-23.5ZM920.5 334.5h1a676.419 676.419 0 0 0 52 1c-.21 10.249-4.876 17.749-14 22.5a442.945 442.945 0 0 1-50 1.5 568.672 568.672 0 0 0 11-25Z"/><path style="opacity:1" fill="#fc9831" d="M833.5 335.5a1547.644 1547.644 0 0 1 42 14 178.524 178.524 0 0 1-32 10l-10-24Z"/><path style="opacity:1" fill="#feba45" d="M1452.5 339.5c9.59 23.482 9.26 46.816-1 70-5.38 12.041-12.71 22.708-22 32-52.04-25.008-104.04-50.008-156-75 3.37-1.962 7.03-3.462 11-4.5 54.7-16.868 110.7-24.368 168-22.5Z"/><path style="opacity:1" fill="#df422d" d="M656.5 360.5a4968.527 4968.527 0 0 1 120 58 7889.812 7889.812 0 0 1-69.5 84 27303.342 27303.342 0 0 0-44.5-125c-1.986-5.622-3.986-11.288-6-17Z"/><path style="opacity:.99" fill="#fe9930" d="M141.5 416.5c-7.256 8.921-11.089 19.254-11.5 31a207.464 207.464 0 0 0 2.5 50 255.48 255.48 0 0 1-12.5-14 12619.86 12619.86 0 0 1-81.5-110c8.504-5.837 18.004-8.504 28.5-8 18.103.473 33.937 6.64 47.5 18.5 10.343 9.831 19.343 20.665 27 32.5Z"/><path style="opacity:1" fill="#f8c69d" d="m488.5 408.5-18-4v-21c-.172-.992.162-1.658 1-2 2.659 2.743 4.492 6.077 5.5 10a112.559 112.559 0 0 1 14.5-20c2.693-2.976 5.86-3.643 9.5-2 1.534 4.211 1.867 8.544 1 13-3.207 9.417-7.707 18.084-13.5 26Z"/><path style="opacity:.993" fill="#febb45" d="M38.5 373.5a12619.86 12619.86 0 0 0 81.5 110 255.48 255.48 0 0 0 12.5 14 51.437 51.437 0 0 0 5.5 14c1.432 1.939 3.265 3.272 5.5 4a3153.61 3153.61 0 0 0 56 78 18556.564 18556.564 0 0 1-121 9.5l128 1a3185.652 3185.652 0 0 0 34 46.5 7895.944 7895.944 0 0 1-52 107c-15.638 3.497-31.305 6.997-47 10.5a1557.73 1557.73 0 0 0 45-6.5 994.012 994.012 0 0 1-18.5 38c-3.737 8.282-5.237 16.949-4.5 26a262.847 262.847 0 0 1-26-6.5 469.917 469.917 0 0 1-26-12.5c-8.107-6.276-14.607-13.943-19.5-23-7.68-17.252-5.18-32.752 7.5-46.5l28-19c6.465-5.764 10.132-12.931 11-21.5-.11-6.719-2.776-12.219-8-16.5a145.097 145.097 0 0 0-20-11l-56-20c-18.026-7.371-33.193-18.537-45.5-33.5-4.591-6.836-7.758-14.169-9.5-22v-16c1.783-11.391 7.117-20.891 16-28.5a35.147 35.147 0 0 1 10-5 595.009 595.009 0 0 1 29-3c18.746-5.333 23.246-16.5 13.5-33.5a658.705 658.705 0 0 0-27-34c-9.335-12.673-16.002-26.673-20-42-3.259-16.522-.925-32.189 7-47a54.817 54.817 0 0 1 10.5-11Z"/><path style="opacity:.993" fill="#fdba45" d="M1293.5 510.5a5612.71 5612.71 0 0 0-17 92 3367.95 3367.95 0 0 0-24 123 997.774 997.774 0 0 1-16-39v-3c6-32.01 12-64.01 18-96 3.95-23.074 8.28-46.074 13-69a59.706 59.706 0 0 0-9-5 17777.598 17777.598 0 0 0-225-116.5c-6.29-5.974-6.62-12.307-1-19 6.08-3.332 12.08-2.998 18 1a39112.49 39112.49 0 0 0 235 121c4.46 2.271 7.12 5.771 8 10.5Z"/><path style="opacity:1" fill="#033772" d="M335.5 376.5c10.771 2.563 19.438 8.396 26 17.5 6.337-.249 11.17 2.251 14.5 7.5 1.551 6.918 1.884 13.918 1 21a154.266 154.266 0 0 1-7.5 25c-5.525-3.396-10.025-2.396-13.5 3l-3 8c-9.552-10.821-14.052-23.488-13.5-38-15.681 4.426-31.681 6.092-48 5a161.574 161.574 0 0 1-16-1 55.146 55.146 0 0 0-9-1.5l7-4.5c-1.973-.831-3.973-.998-6-.5a38.47 38.47 0 0 0 5-5.5 375.037 375.037 0 0 0 22-24c11.712-10.545 25.379-14.545 41-12Z"/><path style="opacity:.993" fill="#fe9930" d="M270.5 405.5c.667 0 1 .333 1 1 .841 1.879 1.175 3.879 1 6a38.47 38.47 0 0 1-5 5.5c2.027-.498 4.027-.331 6 .5l-7 4.5c3.087.259 6.087.759 9 1.5a4352.6 4352.6 0 0 0 16 81 2193.104 2193.104 0 0 0-28.5 56 7511.482 7511.482 0 0 1-12.5-53 696.828 696.828 0 0 1-5-23c1.481-3.917 2.315-7.917 2.5-12a220.346 220.346 0 0 1-4.5 11c-1.35-1.45-3.016-2.117-5-2l1-6c9.543-3.692 11.543-9.859 6-18.5a1532.725 1532.725 0 0 1-51-21.5 1150.051 1150.051 0 0 1 9.5-25c5.458-8.818 13.292-14.318 23.5-16.5 16.026-2.91 30.36.59 43 10.5Z"/><path style="opacity:1" fill="#fdb64b" d="M470.5 383.5v21l-6 12a361.617 361.617 0 0 1 6-33Z"/><path style="opacity:1" fill="#e0422d" d="m470.5 404.5 18 4a6048.609 6048.609 0 0 0-24 84c-1.57 7.304-4.903 13.804-10 19.5a148.793 148.793 0 0 1-15 6.5 1065.062 1065.062 0 0 0-54.5 20 19726.25 19726.25 0 0 0-19.5 128h-90c1.759-27.031 3.592-54.031 5.5-81-4.765 5.272-9.931 9.939-15.5 14-12.627 3.561-20.46-1.106-23.5-14a1900.497 1900.497 0 0 0-8.5-60 34.163 34.163 0 0 0-1-10v-4a294.142 294.142 0 0 0 18-3 7511.482 7511.482 0 0 0 12.5 53 2193.104 2193.104 0 0 1 28.5-56 31.941 31.941 0 0 0 6-3.5 162.597 162.597 0 0 1 18-.5h4c.486 13.332 7.153 18.498 20 15.5 5.966-3.431 8.633-8.598 8-15.5h12a676.386 676.386 0 0 0 67-10c2.509-.613 5.009-1.28 7.5-2a3347.836 3347.836 0 0 0 30.5-73l6-12Z"/><path style="opacity:1" fill="#fea195" d="M662.5 377.5a27303.342 27303.342 0 0 1 44.5 125 7889.812 7889.812 0 0 0 69.5-84c.992-.172 1.658.162 2 1a256004.126 256004.126 0 0 0-68 96 15617.256 15617.256 0 0 1 56.5 160 555.118 555.118 0 0 0 35.5-33c2.947 1.281 5.281 3.281 7 6a672.477 672.477 0 0 0-37.5 38 4.934 4.934 0 0 0-.5 3 360.17 360.17 0 0 1-23-10h4a5016.322 5016.322 0 0 0-48.5-162A15688.625 15688.625 0 0 0 570.5 472 4659.13 4659.13 0 0 1 700 505.5a5540.472 5540.472 0 0 0-37.5-128Z"/><path style="opacity:.992" fill="#77cbfd" d="M1689.5 408.5c8.61 8.545 14.11 18.878 16.5 31 3.78 23.893-.56 46.226-13 67a363.179 363.179 0 0 1-15 21c-17.33 17.333-34.67 34.667-52 52-14.21 22.105-8.71 37.272 16.5 45.5a273.549 273.549 0 0 1 32 7c16.31 7.665 25.81 20.498 28.5 38.5 3.57 24.641-3.6 45.474-21.5 62.5-17.44 15.053-37.44 25.386-60 31-20.53 4.973-41.2 9.306-62 13a216.49 216.49 0 0 0-37 11.5 2023.784 2023.784 0 0 1 42-93c.83 1.248 2.17 1.915 4 2a419.686 419.686 0 0 0 37 4.5 592.763 592.763 0 0 0-41-7.5 318.483 318.483 0 0 0 13.5-31c1.67-17.816-5.83-29.816-22.5-36 13.44-19.784 16.61-41.117 9.5-64a80.58 80.58 0 0 0-9.5-16 30.09 30.09 0 0 1 3.5-6c43.73-44.228 87.23-88.562 130.5-133Z"/><path style="opacity:1" fill="#a33021" d="M141.5 416.5a18.453 18.453 0 0 1 6 .5c.556.383.889.883 1 1.5 3.755 5.421 6.255 11.421 7.5 18 3.567 21.062 3.233 42.062-1 63a8561.66 8561.66 0 0 0-5.5 13 308.607 308.607 0 0 0-4 3h-2c-2.235-.728-4.068-2.061-5.5-4a51.437 51.437 0 0 1-5.5-14 207.464 207.464 0 0 1-2.5-50c.411-11.746 4.244-22.079 11.5-31Z"/><path style="opacity:.995" fill="#df422d" d="M148.5 418.5a1939.06 1939.06 0 0 1 46 18 1532.725 1532.725 0 0 0 51 21.5c5.543 8.641 3.543 14.808-6 18.5a146.156 146.156 0 0 0-15 6 83.183 83.183 0 0 0-11 5c-21.323 8.327-42.656 16.66-64 25a8561.66 8561.66 0 0 1 5.5-13c4.233-20.938 4.567-41.938 1-63-1.245-6.579-3.745-12.579-7.5-18Z"/><path style="opacity:1" fill="#df422d" d="M778.5 419.5a221.924 221.924 0 0 1 31 15 143796.12 143796.12 0 0 0-9 48 8817.95 8817.95 0 0 0-22 118.5c.894 8.015 3.394 15.515 7.5 22.5a149.118 149.118 0 0 0 16.5 19 555.118 555.118 0 0 1-35.5 33 15617.256 15617.256 0 0 0-56.5-160c22.676-32.029 45.343-64.029 68-96Z"/><path style="opacity:1" fill="#f5c59e" d="M369.5 447.5c1.741 7.349-.925 12.516-8 15.5-4.826-.357-7.493 1.809-8 6.5a24.766 24.766 0 0 0-5 8c-7.676 7.837-17.009 11.837-28 12h-7c-7.732-3.918-12.232-10.252-13.5-19l-1-21a81.939 81.939 0 0 1-7.5-24c16.319 1.092 32.319-.574 48-5-.552 14.512 3.948 27.179 13.5 38l3-8c3.475-5.396 7.975-6.396 13.5-3Z"/><path style="opacity:1" fill="#acdefa" d="M275.5 424.5c5.313.598 10.646.931 16 1a81.939 81.939 0 0 0 7.5 24l1 21c1.268 8.748 5.768 15.082 13.5 19a63.084 63.084 0 0 1 2 12 162.597 162.597 0 0 0-18 .5 31.941 31.941 0 0 1-6 3.5 4352.6 4352.6 0 0 1-16-81Z"/><path style="opacity:1" fill="#1c4175" d="M295.5 432.5c9.017.273 9.184 1.273.5 3-1.728-.852-1.895-1.852-.5-3Z"/><path style="opacity:1" fill="#234376" d="M316.5 432.5c3.35-.165 6.683.002 10 .5 3.03.897 3.864 2.397 2.5 4.5a564.619 564.619 0 0 0-12.5-5Z"/><path style="opacity:1" fill="#002854" d="M809.5 434.5a9069.266 9069.266 0 0 1 180 85.5c12.36 5.904 25.36 9.07 39 9.5l210-15a3411.052 3411.052 0 0 1-9 47c-6.6 34.812-13.26 69.645-20 104.5-.11 1.681-.77 2.848-2 3.5-42.6-17.373-86.93-24.706-133-22 4.47-.986 9.14-1.319 14-1 3.93-22.992-5.07-38.159-27-45.5-61.34-5.418-120.34-20.085-177-44-22.851-10.538-43.851-23.871-63-40-9.984-9.823-16.984-21.323-21-34.5 3.003-16.031 6.003-32.031 9-48Z"/><path style="opacity:1" fill="#2f4677" d="M302.5 447.5c3.456 1.036 3.79 2.703 1 5-2.204-1.282-2.538-2.949-1-5Z"/><path style="opacity:1" fill="#364d79" d="M327.5 453.5h-1c-1.752.082-2.752-.751-3-2.5 1.667-3.333 3.333-3.333 5 0a11.123 11.123 0 0 1-1 2.5Z"/><path style="opacity:1" fill="#df6e60" d="M310.5 451.5c.996-.086 1.829.248 2.5 1 1.826 7.569-1.008 11.402-8.5 11.5-1.017-1.049-1.184-2.216-.5-3.5 4.566-1.197 6.732-4.197 6.5-9Z"/><path style="opacity:1" fill="#e07262" d="M326.5 453.5h1c1.725.343 2.225 1.343 1.5 3-1.011.837-2.178 1.17-3.5 1-.067-1.459.266-2.792 1-4Z"/><path style="opacity:1" fill="#fefdfc" d="M325.5 461.5c3.516 7.265 1.016 11.265-7.5 12-2.352.195-4.352-.472-6-2-.617-.949-.451-1.782.5-2.5 5.315-.985 9.648-3.485 13-7.5Z"/><path style="opacity:1" fill="#fdfdfd" d="m353.5 469.5 6 31h-12a84.029 84.029 0 0 1 1-16v-7a24.766 24.766 0 0 1 5-8Z"/><path style="opacity:1" fill="#a53221" d="m239.5 476.5-1 6c-.904.709-1.237 1.709-1 3h-13v-3a146.156 146.156 0 0 1 15-6Z"/><path style="opacity:1" fill="#daa376" d="M348.5 477.5v7c-7.819 7.576-17.152 11.909-28 13v-8c10.991-.163 20.324-4.163 28-12Z"/><path style="opacity:1" fill="#f7c49b" d="M250.5 508.5a294.142 294.142 0 0 1-18 3h-2a277.533 277.533 0 0 1 4-14 32.364 32.364 0 0 0-5.5-4 28.946 28.946 0 0 0-3 10 34.041 34.041 0 0 1-7.5 1.5c-.752.671-1.086 1.504-1 2.5-1.613-.444-2.78-1.444-3.5-3a145.053 145.053 0 0 1-.5-17 83.183 83.183 0 0 1 11-5v3h13c-.237-1.291.096-2.291 1-3 1.984-.117 3.65.55 5 2a220.346 220.346 0 0 0 4.5-11c-.185 4.083-1.019 8.083-2.5 12a696.828 696.828 0 0 0 5 23Z"/><path style="opacity:1" fill="#013671" d="M800.5 482.5c4.016 13.177 11.016 24.677 21 34.5 19.149 16.129 40.149 29.462 63 40 56.66 23.915 115.66 38.582 177 44 21.93 7.341 30.93 22.508 27 45.5-4.86-.319-9.53.014-14 1-42.53 2.254-83.862 10.421-124 24.5a1925.025 1925.025 0 0 0-54 21.5 158.623 158.623 0 0 0-23-9 376.353 376.353 0 0 1-64-36c-1.719-2.719-4.053-4.719-7-6a149.118 149.118 0 0 1-16.5-19c-4.106-6.985-6.606-14.485-7.5-22.5a8817.95 8817.95 0 0 1 22-118.5Z"/><path style="opacity:1" fill="#f7c49d" d="M348.5 484.5a84.029 84.029 0 0 0-1 16h12v1h-12c.633 6.902-2.034 12.069-8 15.5-12.847 2.998-19.514-2.168-20-15.5.734-1.208 1.067-2.541 1-4 10.848-1.091 20.181-5.424 28-13Z"/><path style="opacity:1" fill="#fe9a30" d="M213.5 487.5c-.166 5.676.001 11.343.5 17 .72 1.556 1.887 2.556 3.5 3-1.303 2.876-1.803 5.876-1.5 9a54.65 54.65 0 0 0 12.5 4c.2-3.13.866-6.13 2-9h2v4a10396.013 10396.013 0 0 1-28.5 74 5417.963 5417.963 0 0 1-58.5-74 308.607 308.607 0 0 1 4-3c21.344-8.34 42.677-16.673 64-25Z"/><path style="opacity:1" fill="#fdf8f5" d="M313.5 489.5h7v8c.067 1.459-.266 2.792-1 4h-4a63.084 63.084 0 0 0-2-12Z"/><path style="opacity:1" fill="#a73624" d="M230.5 511.5a29.446 29.446 0 0 0-2 9 54.65 54.65 0 0 1-12.5-4c-.303-3.124.197-6.124 1.5-9-.086-.996.248-1.829 1-2.5a34.041 34.041 0 0 0 7.5-1.5 28.946 28.946 0 0 1 3-10 32.364 32.364 0 0 1 5.5 4 277.533 277.533 0 0 0-4 14Z"/><path style="opacity:1" fill="#fe9a32" d="M464.5 492.5a267.114 267.114 0 0 0 12 57 427.677 427.677 0 0 1-32-28.5 19.177 19.177 0 0 0-5-2.5 148.793 148.793 0 0 0 15-6.5c5.097-5.696 8.43-12.196 10-19.5Z"/><path style="opacity:.998" fill="#aadffd" d="M1689.5 408.5a24343.075 24343.075 0 0 1-130.5 133 30.09 30.09 0 0 0-3.5 6c-18.36-20.391-41.02-27.224-68-20.5-22.94 9.112-37.61 25.612-44 49.5a481.395 481.395 0 0 0-15 32l-3 6c-.62-.111-1.12-.444-1.5-1-8.23-36.367-16.56-72.701-25-109a12.44 12.44 0 0 0 0 7 4924.396 4924.396 0 0 1 18.5 120 7258.453 7258.453 0 0 1-40 88 2.424 2.424 0 0 0-2 .5c-28.87 28.37-57.87 56.536-87 84.5.33-14.177 0-28.177-1-42-3.84-17.844-14.84-27.511-33-29a18.25 18.25 0 0 1-2-8 3367.95 3367.95 0 0 1 24-123c14.65 3.76 25.82-.907 33.5-14a103.764 103.764 0 0 0 9-24c4.29-18.949 8.12-37.949 11.5-57 37-2.657 74-5.491 111-8.5 4.98-.662 9.32-2.662 13-6 11.28-13.961 10.62-27.294-2-40l-23-11.5c9.29-9.292 16.62-19.959 22-32 6.03 4.542 10.87 10.209 14.5 17a293.289 293.289 0 0 1 8 33c9.94 26.42 26.1 30.92 48.5 13.5a1462.226 1462.226 0 0 1 44-47c11.97-10.958 25.3-19.958 40-27 22.91-9.496 45.91-9.83 69-1 5.42 2.594 10.08 6.094 14 10.5Z"/><path style="opacity:1" fill="#d5f0fd" d="M1425.5 614.5a198.772 198.772 0 0 1-8 17 4924.396 4924.396 0 0 0-18.5-120 12.44 12.44 0 0 1 0-7c8.44 36.299 16.77 72.633 25 109 .38.556.88.889 1.5 1Z"/><path style="opacity:1" fill="#ffdfa9" d="M143.5 515.5h2a5417.963 5417.963 0 0 0 58.5 74 10396.013 10396.013 0 0 0 28.5-74 34.163 34.163 0 0 1 1 10 5592.826 5592.826 0 0 0-22 73 1834.656 1834.656 0 0 0 31.5 42c.671.752 1.504 1.086 2.5 1a60.305 60.305 0 0 0-5 9 3185.652 3185.652 0 0 1-34-46.5l-128-1c40.349-3.035 80.682-6.202 121-9.5a3153.61 3153.61 0 0 1-56-78Z"/><path style="opacity:.999" fill="#aadffd" d="M439.5 518.5a19.177 19.177 0 0 1 5 2.5 427.677 427.677 0 0 0 32 28.5 2149.235 2149.235 0 0 0 58 52 160.385 160.385 0 0 1 16 14l35 32c-48.328-.28-93.995 10.553-137 32.5-2.766 1.371-5.099 3.204-7 5.5a230.125 230.125 0 0 1-6 16 320.816 320.816 0 0 1-66 0 1702.847 1702.847 0 0 0-4-35 19726.25 19726.25 0 0 1 19.5-128 1065.062 1065.062 0 0 1 54.5-20Z"/><path style="opacity:1" fill="#feba45" d="M1555.5 547.5a80.58 80.58 0 0 1 9.5 16c7.11 22.883 3.94 44.216-9.5 64a992.115 992.115 0 0 1-65-30 139.234 139.234 0 0 0 11-27.5c-1.09-7.09-5.09-11.757-12-14-6.09-2.472-11.76-1.805-17 2a936.472 936.472 0 0 0-13 25.5 85.765 85.765 0 0 1-16-7c6.39-23.888 21.06-40.388 44-49.5 26.98-6.724 49.64.109 68 20.5Z"/><path style="opacity:1" fill="#fe9a31" d="M233.5 525.5a1900.497 1900.497 0 0 1 8.5 60c3.04 12.894 10.873 17.561 23.5 14l-20 42c-.996.086-1.829-.248-2.5-1a1834.656 1834.656 0 0 1-31.5-42 5592.826 5592.826 0 0 1 22-73Z"/><path style="opacity:1" fill="#fedf86" d="M1490.5 597.5a216.697 216.697 0 0 1-31-14 936.472 936.472 0 0 1 13-25.5c5.24-3.805 10.91-4.472 17-2 6.91 2.243 10.91 6.91 12 14a139.234 139.234 0 0 1-11 27.5Z"/><path style="opacity:.992" fill="#aadffc" d="M1229.5 561.5c8.33 8.667 16.67 17.333 25 26-6 31.99-12 63.99-18 96h-1a273.798 273.798 0 0 0-28-14c1.23-.652 1.89-1.819 2-3.5 6.74-34.855 13.4-69.688 20-104.5Z"/><path style="opacity:1" fill="#053672" d="M1443.5 576.5a85.765 85.765 0 0 0 16 7 216.697 216.697 0 0 0 31 14 992.115 992.115 0 0 0 65 30c16.67 6.184 24.17 18.184 22.5 36a318.483 318.483 0 0 1-13.5 31v1a2023.784 2023.784 0 0 0-42 93v1a2479.566 2479.566 0 0 0-42 90c-10.49 22.974-20.99 45.974-31.5 69-5.71 6.215-11.71 6.548-18 1-1.4-2.139-2.24-4.472-2.5-7a1995.402 1995.402 0 0 1 24-55c14.7-31.087 29.04-62.42 43-94a3395.73 3395.73 0 0 0 46-100c.94-1.55 1.61-3.216 2-5a212.789 212.789 0 0 0 10-21.5 3.92 3.92 0 0 0-1-2 75.4 75.4 0 0 0-11-4.5 1476.269 1476.269 0 0 0-66-30 668.538 668.538 0 0 0-31-15l-16-7a481.395 481.395 0 0 1 15-32Z"/><path style="opacity:1" fill="#aadffc" d="M275.5 666.5v30c-2.235-.295-4.235.039-6 1-4.838-.115-9.338.885-13.5 3a8814.83 8814.83 0 0 1-55 113c-5.388 18.727.779 32.227 18.5 40.5a39.081 39.081 0 0 0 16 1 573.86 573.86 0 0 1 39-7.5h1v36h-1a3652.519 3652.519 0 0 1-37 7.5c-20.068 1.808-37.735-3.692-53-16.5-13.782-13.324-20.782-29.657-21-49-.737-9.051.763-17.718 4.5-26a994.012 994.012 0 0 0 18.5-38c.845-1.171 1.511-2.505 2-4a7895.944 7895.944 0 0 0 52-107 60.305 60.305 0 0 1 5-9l20-42c5.569-4.061 10.735-8.728 15.5-14a14373.397 14373.397 0 0 0-5.5 81Z"/><path style="opacity:1" fill="#febb45" d="m1428.5 608.5 16 7a14918.927 14918.927 0 0 1-95.5 211c-2.05 13.202 3.61 20.536 17 22 4.74-.012 8.74-1.678 12-5 32.53-71.057 65.03-142.057 97.5-213a1476.269 1476.269 0 0 1 66 30 196.68 196.68 0 0 0-11 25c-1.69 2.035-3.03 4.368-4 7a5143.314 5143.314 0 0 0-47 104 2989.508 2989.508 0 0 0-43 94c-2.64 5.273-5.3 10.606-8 16a53.57 53.57 0 0 0-9-4 4197.57 4197.57 0 0 0-94-43 55.225 55.225 0 0 0-9-4c1.13-4.062 2.47-8.062 4-12a3009.934 3009.934 0 0 0 43-94 306.882 306.882 0 0 0 14-30 7258.453 7258.453 0 0 0 40-88 198.772 198.772 0 0 0 8-17l3-6Z"/><path style="opacity:1" fill="#fee086" d="M1444.5 615.5a668.538 668.538 0 0 1 31 15c-32.47 70.943-64.97 141.943-97.5 213-3.26 3.322-7.26 4.988-12 5-13.39-1.464-19.05-8.798-17-22 32.4-70.128 64.23-140.462 95.5-211Z"/><path style="opacity:1" fill="#feeccb" d="M585.5 647.5c10.339-.166 20.672 0 31 .5 45.455 4.531 89.455 15.031 132 31.5a360.17 360.17 0 0 0 23 10 1095.755 1095.755 0 0 1 56 28 152.225 152.225 0 0 0 11.5 8 537.44 537.44 0 0 1 57.5-32 1925.025 1925.025 0 0 1 54-21.5c40.138-14.079 81.47-22.246 124-24.5 46.07-2.706 90.4 4.627 133 22a273.798 273.798 0 0 1 28 14c.33 152.834 0 305.501-1 458-37.99-12.05-76.99-17.72-117-17-73.59 1.02-144.919 14.18-214 39.5a1541.348 1541.348 0 0 0-48 18.5v-18a365.133 365.133 0 0 0 38-22.5 114.564 114.564 0 0 0 19-17c-5.991-.5-11.991-.67-18-.5h-10c25.163-.83 50.497-1.33 76-1.5a3419.248 3419.248 0 0 0 17-39.5c69.7-20.17 139.7-21.17 210-3 5.17-.86 6.17-3.36 3-7.5-69.06-18.13-138.06-17.96-207 .5-.916-.04-1.583-.38-2-1a43.015 43.015 0 0 1 3-8.5c-.139-1.3-.805-2.13-2-2.5-20.667-.67-41.333-1.33-62-2 87.14-39.59 177.14-47.76 270-24.5 2.67-2.33 2.67-4.67 0-7-89.51-23.37-176.84-17.04-262 19a294.9 294.9 0 0 0-29 14.5c-1.527-.07-2.527.59-3 2a74.281 74.281 0 0 0-18.5 11c-1.072 3.05-.072 5.05 3 6 3.815-1.24 7.148-3.24 10-6 .399.23.565.56.5 1-3.668 9.34-7.335 18.67-11 28-4.901-2.4-9.901-2.57-15-.5-4.83 3.01-9.164 6.51-13 10.5l-12-316a82.105 82.105 0 0 0-1.5-18c-.833 111.501-.666 222.83.5 334v1c-7.497-.7-9.497 2.14-6 8.5 1.973.5 3.973.66 6 .5-.408 4.42-2.741 7.42-7 9-7.362-12.2-16.695-22.7-28-31.5-4.363-2.68-9.029-4.52-14-5.5-1.468-1.28-2.135-2.95-2-5 .904-.71 1.237-1.71 1-3 11.035 1.9 18.868-2.1 23.5-12a109.38 109.38 0 0 0 2.5-8c1.279 1.62 2.613 3.29 4 5a6.845 6.845 0 0 0 1.5-3c1.228-8.61.395-16.94-2.5-25 1.309-3.9 2.309-7.9 3-12 4.486-2.68 7.32-6.68 8.5-12 1.95-14.3-4.216-21.795-18.5-22.5-15.897-9.8-31.897-9.967-48-.5h-4c-8.01-7.67-17.01-9.003-27-4-26.537-9.968-53.87-17.135-82-21.5-3.382-.824-6.716-.657-10 .5-1.46 2.788-.793 4.955 2 6.5a386.539 386.539 0 0 1 84 20.5c-4.088 7.63-4.922 15.63-2.5 24 1.907 4.81 4.074 9.48 6.5 14a503.674 503.674 0 0 0-74-19.5 68.4 68.4 0 0 0-18-1c-1.482 2.59-1.148 4.93 1 7a794.963 794.963 0 0 1 49 9c15.455 4.54 30.788 9.37 46 14.5.541 3.15-.459 5.65-3 7.5-4.408 1.43-8.741 1.93-13 1.5 3.37 5.52 8.37 8.19 15 8 6.666 2.06 12.666.72 18-4 2.079.47 4.079 1.14 6 2a69.798 69.798 0 0 1 9 11 84.855 84.855 0 0 0 2 8v10c-1.599-.27-2.932.07-4 1-2.885-.31-5.552.03-8 1-30.948-13.15-62.948-22.98-96-29.5-7.303-1.33-14.637-2-22-2-1.482 2.59-1.148 4.93 1 7 38.13 5.06 74.796 15.22 110 30.5-2.253 3.67-3.586 7.67-4 12-1.121 2.45-1.954 5.12-2.5 8a590.87 590.87 0 0 0-4.5 37c.262-1.48-.071-2.81-1-4-72.238-23.45-146.238-32.11-222-26-.265-18.39-2.931-36.39-8-54 .418-.72 1.084-1.22 2-1.5a659.856 659.856 0 0 1 110-5.5v-152c-43.658-1.702-86.658 2.298-129 12l-2 106c-12.189-19.52-27.522-36.19-46-50 .333-98.835-.001-197.501-1-296 1.901-2.296 4.234-4.129 7-5.5 43.005-21.947 88.672-32.78 137-32.5Zm288 37a158.623 158.623 0 0 1 23 9 537.44 537.44 0 0 0-57.5 32 152.225 152.225 0 0 1-11.5-8 295.48 295.48 0 0 0 46-33Z"/><path style="opacity:.992" fill="#df422d" d="M809.5 648.5a376.353 376.353 0 0 0 64 36 295.48 295.48 0 0 1-46 33 1095.755 1095.755 0 0 0-56-28 4.934 4.934 0 0 1 .5-3 672.477 672.477 0 0 1 37.5-38Z"/><path style="opacity:1" fill="#77cafa" d="M1541.5 660.5a75.4 75.4 0 0 1 11 4.5 3.92 3.92 0 0 1 1 2 212.789 212.789 0 0 1-10 21.5c-4.69.075-9.03-.925-13-3a196.68 196.68 0 0 1 11-25Z"/><path style="opacity:1" fill="#023671" d="M275.5 666.5h90a1702.847 1702.847 0 0 1 4 35c4.454 41.492 9.12 82.825 14 124 .563 12.227 1.897 24.227 4 36-.202 2.45.131 4.783 1 7a148.16 148.16 0 0 0 1.5 20c.5-6.325.666-12.658.5-19v-45c-.167-21.336 0-42.669.5-64 3.436-13.704 11.936-22.537 25.5-26.5a24.935 24.935 0 0 1 7-.5 259.678 259.678 0 0 1-9.5 27 16972.032 16972.032 0 0 0-1.5 198 247.35 247.35 0 0 1-16-12.5c-9.327-.5-18.661-.666-28-.5a19.22 19.22 0 0 1-1-6 1795.666 1795.666 0 0 1-13-72 315.072 315.072 0 0 0-7-35 3777.183 3777.183 0 0 0-19.5-114c-1.857-5.678-5.691-7.845-11.5-6.5-2.5 1.167-4.333 3-5.5 5.5a21218.63 21218.63 0 0 0-4.5 123 1439.824 1439.824 0 0 1-1 37 251.234 251.234 0 0 0-1 28 486.338 486.338 0 0 0-1 40h-28v-279Zm112 195h3v8l-2-1c-.869-2.217-1.202-4.55-1-7Z"/><path style="opacity:1" fill="#fcd092" d="M1235.5 683.5h1v3c.33 152.001 0 304.001-1 456-.61-.12-.94-.46-1-1 1-152.499 1.33-305.166 1-458Z"/><path style="opacity:1" fill="#f7b25a" d="M441.5 685.5c.999 98.499 1.333 197.165 1 296a218.713 218.713 0 0 0-17-10c-4.667-4-9-8.333-13-13 .115-66.003.615-132.003 1.5-198a259.678 259.678 0 0 0 9.5-27 573.85 573.85 0 0 0 12-32 230.125 230.125 0 0 0 6-16Z"/><path style="opacity:1" fill="#d1edf9" d="M1530.5 685.5c3.97 2.075 8.31 3.075 13 3a16.289 16.289 0 0 1-2 5 89.367 89.367 0 0 0-15-1c.97-2.632 2.31-4.965 4-7Z"/><path style="opacity:1" fill="#f9b35a" d="M1236.5 686.5a997.774 997.774 0 0 0 16 39 18.25 18.25 0 0 0 2 8 420.648 420.648 0 0 0 9.5 26c1.87 141.992 3.04 283.99 3.5 426-142.88 14.3-285.71 28.97-428.5 44-5-.67-10-1.33-15-2-1.749-1.72-2.916-3.72-3.5-6 .091-12.7.758-25.37 2-38a80.153 80.153 0 0 1 16 6 211.13 211.13 0 0 0 1-29 43.252 43.252 0 0 0 16 4v18a1541.348 1541.348 0 0 1 48-18.5c69.081-25.32 140.41-38.48 214-39.5 40.01-.72 79.01 4.95 117 17 .06.54.39.88 1 1 1-151.999 1.33-303.999 1-456Z"/><path style="opacity:1" fill="#78cafa" d="M1526.5 692.5c5.04-.087 10.04.246 15 1a3395.73 3395.73 0 0 1-46 100l-16 3a5143.314 5143.314 0 0 1 47-104Z"/><path style="opacity:1" fill="#c7ebfd" d="M1564.5 694.5a592.763 592.763 0 0 1 41 7.5 419.686 419.686 0 0 1-37-4.5c-1.83-.085-3.17-.752-4-2v-1Z"/><path style="opacity:1" fill="#6a95c7" d="M569.5 695.5c82.962-3.719 159.795 15.948 230.5 59 1.477 4.498-.023 6.665-4.5 6.5-80.063-47.547-166.397-65.547-259-54a3726.41 3726.41 0 0 0-49 9c-1.333-2.333-1.333-4.667 0-7 27.058-7.01 54.391-11.51 82-13.5Z"/><path style="opacity:1" fill="#6995c7" d="M1069.5 695.5c41.04-1.495 81.37 3.005 121 13.5 3.09 3.813 2.26 6.313-2.5 7.5-57.21-14.929-114.88-16.929-173-6-3.21-1.298-4.21-3.632-3-7a9.39 9.39 0 0 1 2.5-1.5 492.832 492.832 0 0 1 55-6.5Z"/><path style="opacity:1" fill="#fe9a30" d="M269.5 697.5h5v150a573.86 573.86 0 0 0-39 7.5 39.081 39.081 0 0 1-16-1c-17.721-8.273-23.888-21.773-18.5-40.5a8814.83 8814.83 0 0 0 55-113c4.162-2.115 8.662-3.115 13.5-3Z"/><path style="opacity:1" fill="#bf8244" d="M269.5 697.5c1.765-.961 3.765-1.295 6-1v151h-1v-150h-5Z"/><path style="opacity:1" fill="#fd9931" d="M369.5 701.5a320.816 320.816 0 0 0 66 0 573.85 573.85 0 0 1-12 32 24.935 24.935 0 0 0-7 .5c-13.564 3.963-22.064 12.796-25.5 26.5a2047.17 2047.17 0 0 0-.5 64 21.435 21.435 0 0 0-7 1c-4.88-41.175-9.546-82.508-14-124Z"/><path style="opacity:1" fill="#fb9831" d="M347.5 832.5a1116.816 1116.816 0 0 1-41 8 21218.63 21218.63 0 0 1 4.5-123c1.167-2.5 3-4.333 5.5-5.5 5.809-1.345 9.643.822 11.5 6.5a3777.183 3777.183 0 0 1 19.5 114Z"/><path style="opacity:1" fill="#6593c7" d="M976.5 712.5c.328 47.405-.005 94.739-1 142-33.771 8.724-64.771 23.057-93 43a5329.655 5329.655 0 0 1-1-146c28.955-19.302 60.622-32.302 95-39Z"/><path style="opacity:1" fill="#b2c0c9" d="M976.5 712.5c.667 23.498 1 47.164 1 71 0 24.01-.667 47.676-2 71a5077.105 5077.105 0 0 0 1-142Z"/><path style="opacity:1" fill="#d7f1fd" d="M1377.5 719.5a306.882 306.882 0 0 1-14 30 4149.637 4149.637 0 0 1-75 79v-24c29.13-27.964 58.13-56.13 87-84.5a2.424 2.424 0 0 1 2-.5Z"/><path style="opacity:.988" fill="#013671" d="M1254.5 733.5c18.16 1.489 29.16 11.156 33 29-.33 55.405 0 110.738 1 166v13c-1.33 82.67-1.33 165.33 0 248 .18 13.31-5.15 23.64-16 31a37.153 37.153 0 0 1-15 5.5c-32.2 1.92-64.2 4.42-96 7.5a91116.944 91116.944 0 0 1-322 23c-3.341-.34-6.675-.67-10-1 20.176 87.7 40.509 175.37 61 263a290.627 290.627 0 0 1-18 6 16343.753 16343.753 0 0 0-55-133c.66-1.46.993-3.13 1-5-3.537-46.39-7.37-92.72-11.5-139a5537.619 5537.619 0 0 0-6.5 105c-3.823 59.69-7.823 119.35-12 179h-23a3619.01 3619.01 0 0 1-21-228c9.522.74 19.022 1.74 28.5 3 4.656.51 8.323-1.16 11-5 2.89-6 4.556-12.34 5-19-.345-18.68-.179-37.34.5-56 2.885.31 5.552-.03 8-1 7.761-.82 15.428-2.15 23-4 .584 2.28 1.751 4.28 3.5 6 5 .67 10 1.33 15 2 142.79-15.03 285.62-29.7 428.5-44-.46-142.01-1.63-284.008-3.5-426a420.648 420.648 0 0 1-9.5-26Z"/><path style="opacity:1" fill="#6a95c7" d="M566.5 740.5c82.675-3.248 159.675 15.919 231 57.5 2.707 1.864 3.541 4.364 2.5 7.5-1.726 1.076-3.559 1.243-5.5.5-79.289-47.481-164.956-65.481-257-54a11526.34 11526.34 0 0 1-50 9c-2.062-4.337-.729-7.004 4-8 24.754-6.348 49.754-10.515 75-12.5ZM1066.5 740.5c41.66-1.289 82.66 3.211 123 13.5 3.05 1.36 3.72 3.527 2 6.5l-3 1c-57.39-14.73-115.22-16.73-173.5-6a6.272 6.272 0 0 1-3-1c-.76-2.269-.59-4.436.5-6.5 18.08-2.986 36.08-5.486 54-7.5Z"/><path style="opacity:1" fill="#d8d6cb" d="M881.5 751.5c-.332 48.836.001 97.503 1 146-.06.543-.393.876-1 1a2706.352 2706.352 0 0 1 0-147Z"/><path style="opacity:1" fill="#79ccfc" d="M1363.5 749.5a3009.934 3009.934 0 0 1-43 94c-10.65-3.653-21.31-7.32-32-11v-4a4149.637 4149.637 0 0 0 75-79Z"/><path style="opacity:1" fill="#fedb9e" d="M188.5 757.5c-.489 1.495-1.155 2.829-2 4a1557.73 1557.73 0 0 1-45 6.5c15.695-3.503 31.362-7.003 47-10.5Z"/><path style="opacity:1" fill="#fddeae" d="M840.5 797.5c-.999 105.165-1.333 210.5-1 316a18597.785 18597.785 0 0 1-.5-334 82.105 82.105 0 0 1 1.5 18Z"/><path style="opacity:1" fill="#6a95c7" d="M559.5 786.5c85.662-5.167 165.329 14 239 57.5 1.896 1.808 2.396 3.975 1.5 6.5-1.726 1.076-3.559 1.243-5.5.5-95.521-55.932-197.021-70.432-304.5-43.5-3.205-1.298-4.205-3.632-3-7a332.055 332.055 0 0 1 32.5-8.5c13.48-1.81 26.813-3.643 40-5.5ZM1059.5 786.5c43.68-2.522 86.68 1.644 129 12.5 5.34 3.012 5.18 5.845-.5 8.5-41.73-11.406-84.23-15.573-127.5-12.5a2032.754 2032.754 0 0 1-49 5c-1.48-2.592-1.15-4.925 1-7a563.568 563.568 0 0 1 47-6.5Z"/><path style="opacity:.993" fill="#df422d" d="M1732.5 900.5a1610.04 1610.04 0 0 0-54-15.5 844.313 844.313 0 0 0-40-7.5 803.863 803.863 0 0 1-30-22.5c-9.68-4.621-19.35-4.621-29 0-5.93 5.092-10.93 10.925-15 17.5a473.789 473.789 0 0 0-84 7 2479.566 2479.566 0 0 1 42-90c41.21-5.191 81.71-1.858 121.5 10 39.5 12.507 67.17 37.84 83 76a96.708 96.708 0 0 1 5.5 25Z"/><path style="opacity:1" fill="#de432e" d="M1495.5 793.5a4056.654 4056.654 0 0 1-43 94 84.011 84.011 0 0 0-15.5 5c-.46-.594-.63-1.261-.5-2 13.8-31.607 28.14-62.94 43-94l16-3Z"/><path style="opacity:1" fill="#fab45b" d="m840.5 797.5 12 316h-13c-.333-105.5.001-210.835 1-316Z"/><path style="opacity:.991" fill="#e0422d" d="M111.5 806.5a469.917 469.917 0 0 0 26 12.5 262.847 262.847 0 0 0 26 6.5c.218 19.343 7.218 35.676 21 49-45.214-4.735-90.214-3.402-135 4 6.754-23.934 20.087-43.434 40-58.5a383.87 383.87 0 0 1 22-13.5Z"/><path style="opacity:.991" fill="#a6dbf9" d="M390.5 824.5v37h-3c-2.103-11.773-3.437-23.773-4-36a21.435 21.435 0 0 1 7-1Z"/><path style="opacity:1" fill="#6995c7" d="M568.5 831.5c83.209-3.573 160.376 16.093 231.5 59 1.477 4.498-.023 6.665-4.5 6.5-82.26-49.234-170.926-66.9-266-53a1407.385 1407.385 0 0 1-42 8c-2.024-3.984-1.024-6.65 3-8 25.723-6.794 51.723-10.96 78-12.5Z"/><path style="opacity:1" fill="#6a95c7" d="M1064.5 831.5c42.75-2.12 84.75 2.38 126 13.5 3.09 3.813 2.26 6.313-2.5 7.5-57.2-14.923-114.87-16.923-173-6-2.6-.101-4.1-1.435-4.5-4 .43-2.266 1.76-3.766 4-4.5a842.012 842.012 0 0 1 50-6.5Z"/><path style="opacity:1" fill="#d6f1fd" d="M1288.5 832.5c10.69 3.68 21.35 7.347 32 11a127.461 127.461 0 0 0-4 12c-8.97-3.768-18.31-6.768-28-9v-14Z"/><path style="opacity:1" fill="#aaddfa" d="M347.5 832.5a315.072 315.072 0 0 1 7 35 1594.06 1594.06 0 0 1-49 10c.492-12.328.825-24.661 1-37a1116.816 1116.816 0 0 0 41-8Z"/><path style="opacity:.999" fill="#74c6f7" d="M1287.5 762.5c1 13.823 1.33 27.823 1 42v42c9.69 2.232 19.03 5.232 28 9a55.225 55.225 0 0 1 9 4 484.923 484.923 0 0 0-17 38 745.66 745.66 0 0 1-16 33c-1.33-.667-2.67-1.333-4-2-1-55.262-1.33-110.595-1-166Z"/><path style="opacity:1" fill="#fee4b1" d="M1638.5 877.5a304.089 304.089 0 0 0 27 20.5c12.8 9.703 15.97 21.87 9.5 36.5a2761.845 2761.845 0 0 1-36.5 48 8184.764 8184.764 0 0 1-99-76 501.7 501.7 0 0 1 25-34c4.07-6.575 9.07-12.408 15-17.5 9.65-4.621 19.32-4.621 29 0a803.863 803.863 0 0 0 30 22.5Z"/><path style="opacity:1" fill="#fe9a30" d="M1325.5 859.5a4197.57 4197.57 0 0 1 94 43l-18 38a4649.83 4649.83 0 0 1-84-37.5c-3.4-1.357-6.4-3.19-9-5.5a484.923 484.923 0 0 1 17-38Z"/><path style="opacity:1" fill="#de422d" d="M354.5 867.5a1795.666 1795.666 0 0 0 13 72 408.987 408.987 0 0 0-63-34 251.234 251.234 0 0 1 1-28 1594.06 1594.06 0 0 0 49-10Z"/><path style="opacity:.948" fill="#d8412f" d="m388.5 868.5 2 1c.166 6.342 0 12.675-.5 19a148.16 148.16 0 0 1-1.5-20Z"/><path style="opacity:1" fill="#fe5a41" d="M184.5 874.5c15.265 12.808 32.932 18.308 53 16.5a3652.519 3652.519 0 0 0 37-7.5c.333 21.011 0 42.011-1 63a669.39 669.39 0 0 0-24 19.5 147.622 147.622 0 0 0-17 18.5 17.902 17.902 0 0 0-6 4 1092.458 1092.458 0 0 0-26 5.5 2340.586 2340.586 0 0 1-37 11.5c-36.953-3.9-68.453-18.896-94.5-45-21.009-24.028-27.509-51.362-19.5-82 44.786-7.402 89.786-8.735 135-4Z"/><path style="opacity:1" fill="#fe5b42" d="M1564.5 872.5a501.7 501.7 0 0 0-25 34 219.102 219.102 0 0 0-13.5 16 10.164 10.164 0 0 0-1.5 4 1467.63 1467.63 0 0 0-45.5 59c-2.4 3.531-5.24 6.531-8.5 9-16.65-.032-32.98 1.635-49 5-16.39.477-32.56 2.48-48.5 6-.4-.23-.57-.56-.5-1 9.68-21.364 19.35-42.697 29-64l18-38a53.57 53.57 0 0 1 9 4c2.7-5.394 5.36-10.727 8-16-.13.739.04 1.406.5 2 5-2.168 10.17-3.834 15.5-5a1995.402 1995.402 0 0 0-24 55c.26 2.528 1.1 4.861 2.5 7 6.29 5.548 12.29 5.215 18-1 10.51-23.026 21.01-46.026 31.5-69a473.789 473.789 0 0 1 84-7Z"/><path style="opacity:1" fill="#6a95c7" d="M565.5 876.5c84.183-4.121 162.183 15.545 234 59 1.333 2 1.333 4 0 6-1.268.928-2.601 1.095-4 .5-81.803-48.027-169.803-65.694-264-53a1002.886 1002.886 0 0 1-44 8c-2.062-4.337-.729-7.004 4-8 24.447-6.241 49.113-10.408 74-12.5ZM1066.5 876.5c41.7-1.575 82.7 2.925 123 13.5 3.05 1.36 3.72 3.527 2 6.5-1.17.333-2.33.667-3.5 1-107.7-26.852-209.204-12.019-304.5 44.5-6 .333-7.333-2-4-7 57.729-34.548 120.062-54.048 187-58.5Z"/><path style="opacity:1" fill="#fe5b42" d="M1638.5 877.5a844.313 844.313 0 0 1 40 7.5 1610.04 1610.04 0 0 1 54 15.5c-.3 2.559.03 4.893 1 7v4c-2.74 32.92-18.4 57.754-47 74.5-19.89 11.14-41.23 17.31-64 18.5.61-.89.94-1.89 1-3a208.986 208.986 0 0 0 15-19 2761.845 2761.845 0 0 0 36.5-48c6.47-14.63 3.3-26.797-9.5-36.5a304.089 304.089 0 0 1-27-20.5Z"/><path style="opacity:.999" fill="#feba45" d="M1308.5 897.5c2.6 2.31 5.6 4.143 9 5.5a4649.83 4649.83 0 0 0 84 37.5c-9.65 21.303-19.32 42.636-29 64a436.634 436.634 0 0 0-77 26c14.82-32.307 29.65-64.641 44.5-97 2.28-7.935-.22-13.769-7.5-17.5-6.51-1.874-11.68-.041-15.5 5.5a3533.871 3533.871 0 0 0-28 61c-.5-13.663-.67-27.329-.5-41v-3a58.366 58.366 0 0 0 4-8 745.66 745.66 0 0 0 16-33Z"/><path style="opacity:1" fill="#fd5a42" d="M304.5 905.5a408.987 408.987 0 0 1 63 34 19.22 19.22 0 0 0 1 6v5c-21.74-2.997-43.407-2.664-65 1v-6a486.338 486.338 0 0 1 1-40Z"/><path style="opacity:1" fill="#6793c6" d="M1539.5 906.5a8184.764 8184.764 0 0 0 99 76 208.986 208.986 0 0 1-15 19 383.354 383.354 0 0 0-26-20 634.55 634.55 0 0 0-47-36c-8.67-6.333-17.33-12.667-26-19 .21-1.422.71-2.755 1.5-4 4.28-5.59 8.78-10.923 13.5-16Z"/><path style="opacity:1" fill="#6593c6" d="M507.5 1072.5c-4.069-13.81-10.069-26.81-18-39a2916.974 2916.974 0 0 0 1-108c42.342-9.702 85.342-13.702 129-12v152c-36.828-1.23-73.494.6-110 5.5-.916.28-1.582.78-2 1.5Z"/><path style="opacity:1" fill="#f4d883" d="M1295.5 1030.5a60.29 60.29 0 0 1-6.5 4c-.5 13.33-.67 26.66-.5 40v115c-1.33-82.67-1.33-165.33 0-248-.17 13.671 0 27.337.5 41a3533.871 3533.871 0 0 1 28-61c3.82-5.541 8.99-7.374 15.5-5.5 7.28 3.731 9.78 9.565 7.5 17.5-14.85 32.359-29.68 64.693-44.5 97Z"/><path style="opacity:1" fill="#6995c7" d="M1062.5 923.5c43.33-1.634 86 2.866 128 13.5 2.67 2.333 2.67 4.667 0 7-2 .667-4 .667-6 0-106.5-25.834-206.829-10.834-301 45-6 .333-7.333-2-4-7 56.458-33.876 117.458-53.376 183-58.5Z"/><path style="opacity:1" fill="#8ba8c7" d="M490.5 925.5c.332 36.171-.002 72.171-1 108-.333-.67-.667-1.33-1-2l2-106Z"/><path style="opacity:1" fill="#6a95c7" d="M644.5 926.5c55.89 7.128 107.724 25.462 155.5 55 1.5 5.167-.333 7-5.5 5.5-46.072-27.581-95.738-45.247-149-53-2.337-2.194-2.67-4.694-1-7.5Z"/><path style="opacity:.993" fill="#e0422d" d="M1524.5 926.5c8.67 6.333 17.33 12.667 26 19-95.62 126.79-191.45 253.46-287.5 380-2.4 3.53-5.24 6.53-8.5 9-8.67-6.33-17.33-12.67-26-19 40.67-54.33 81.33-108.67 122-163 1 .09 1.83-.25 2.5-1 20.38-26.88 40.55-53.88 60.5-81 17.35-22.03 34.35-44.36 51-67a66.251 66.251 0 0 0 6-9c3.26-2.469 6.1-5.469 8.5-9a1467.63 1467.63 0 0 1 45.5-59Z"/><path style="opacity:1" fill="#de422e" d="M274.5 883.5h1v62h28v6a183.36 183.36 0 0 0-1.5 18 346.134 346.134 0 0 1-55.5 20.5 42.479 42.479 0 0 1-13 0c-.906-1.699-1.239-3.533-1-5.5a147.622 147.622 0 0 1 17-18.5 669.39 669.39 0 0 1 24-19.5c1-20.989 1.333-41.989 1-63Z"/><path style="opacity:1" fill="#de422d" d="M368.5 945.5c9.339-.166 18.673 0 28 .5a247.35 247.35 0 0 0 16 12.5c4 4.667 8.333 9 13 13a42.898 42.898 0 0 1 7 11.5c-.32 1.653-1.32 2.653-3 3-3.711.439-7.378.106-11-1a340.626 340.626 0 0 1-46-18 701.761 701.761 0 0 0-4-16.5v-5Z"/><path style="opacity:1" fill="#fe9930" d="M1550.5 945.5a634.55 634.55 0 0 1 47 36c-98.58 129.49-196.91 259.15-295 389a1287.727 1287.727 0 0 1-48-36c3.26-2.47 6.1-5.47 8.5-9 96.05-126.54 191.88-253.21 287.5-380Z"/><path style="opacity:.993" fill="#033672" d="M368.5 950.5a701.761 701.761 0 0 1 4 16.5 340.626 340.626 0 0 0 46 18c3.622 1.106 7.289 1.439 11 1 1.68-.347 2.68-1.347 3-3a42.898 42.898 0 0 0-7-11.5 218.713 218.713 0 0 1 17 10c18.478 13.81 33.811 30.48 46 50 .333.67.667 1.33 1 2 7.931 12.19 13.931 25.19 18 39 5.069 17.61 7.735 35.61 8 54a219.572 219.572 0 0 1-4.5 37 558.231 558.231 0 0 1-9.5 31c77.675 7.93 155.341 15.93 233 24a283.68 283.68 0 0 1-2.5 29c-.383.56-.883.89-1.5 1a18020.58 18020.58 0 0 1-248-18 1031.952 1031.952 0 0 1-27 27.5 82.525 82.525 0 0 1-9 6.5 352.458 352.458 0 0 1-30 19c-59.288 26.57-116.955 23.41-173-9.5-15.065-9.9-28.398-21.73-40-35.5-31.688-39.36-45.022-84.36-40-135 6.674-46.36 27.674-84.69 63-115a17.902 17.902 0 0 1 6-4c-.239 1.967.094 3.801 1 5.5 4.333.667 8.667.667 13 0a346.134 346.134 0 0 0 55.5-20.5 183.36 183.36 0 0 1 1.5-18c21.593-3.664 43.26-3.997 65-1Z"/><path style="opacity:1" fill="#6b96c7" d="M1073.5 968.5c40.08-.93 79.41 3.903 118 14.5 1.27 1.796 1.27 3.629 0 5.5-2.26 1.147-4.6 1.314-7 .5-106.51-25.627-206.843-10.627-301 45-4.984.69-6.65-1.31-5-6 59.979-36.495 124.98-56.328 195-59.5Z"/><path style="opacity:1" fill="#6995c6" d="M732.5 993.5a25.658 25.658 0 0 1-6 6 386.539 386.539 0 0 0-84-20.5c-2.793-1.545-3.46-3.712-2-6.5 3.284-1.157 6.618-1.324 10-.5 28.13 4.365 55.463 11.532 82 21.5Z"/><path style="opacity:1" fill="#4c78ad" d="M469.5 1058.5c-43.997-51.93-98.997-68.761-165-50.5a286.81 286.81 0 0 0-29 13.5 340.372 340.372 0 0 1-14-21c35.747-21.764 74.08-27.597 115-17.5 41.954 11.798 72.954 36.96 93 75.5Z"/><path style="opacity:.991" fill="#e0422d" d="M1597.5 981.5a383.354 383.354 0 0 1 26 20c-.06 1.11-.39 2.11-1 3a2067.077 2067.077 0 0 1-37 49 1058.935 1058.935 0 0 0-47 62 2813.256 2813.256 0 0 0-75 99c-44.76 59.18-89.76 118.18-135 177-8.67-7-17.33-14-26-21 98.09-129.85 196.42-259.51 295-389Z"/><path style="opacity:.992" fill="#fe9930" d="M226.5 988.5c-35.326 30.31-56.326 68.64-63 115-51.627 25.63-97.294 59.3-137 101-13.03-39.75-7.864-77.08 15.5-112 12.833-18.17 28.333-33.67 46.5-46.5a406.283 406.283 0 0 1 75-40.5 2340.586 2340.586 0 0 0 37-11.5c8.664-1.943 17.33-3.776 26-5.5Z"/><path style="opacity:1" fill="#063772" d="M759.5 997.5c-4.17 2.083-7.504 5.08-10 9-8.108 6.25-11.275 14.58-9.5 25a78.917 78.917 0 0 1 4.5 19c.284 5.04-1.049 9.54-4 13.5-2.31.5-4.643.66-7 .5-6.63.19-11.63-2.48-15-8 4.259.43 8.592-.07 13-1.5 2.541-1.85 3.541-4.35 3-7.5a32.483 32.483 0 0 0-4-10 134.066 134.066 0 0 1-6.5-14c-2.422-8.37-1.588-16.37 2.5-24a25.658 25.658 0 0 0 6-6c9.99-5.003 18.99-3.67 27 4Z"/><path style="opacity:1" fill="#053772" d="M821.5 1032.5c-1.109-6.56-3.609-12.56-7.5-18-3.533 6.54-8.2 12.21-14 17a4.939 4.939 0 0 0-.5 3c-4.81 1.07-9.143 3.24-13 6.5-6.697 3.02-13.364 6.02-20 9 3.622 7.32 3.956 14.82 1 22.5-.667 0-1 .33-1 1a69.798 69.798 0 0 0-9-11c1.175.22 2.175-.11 3-1-2.506-5.39-3.506-11.06-3-17-3.338-.43-6.338.23-9 2-2.957-10.15-2.623-20.15 1-30 2.973-7.63 7.64-13.96 14-19 16.103-9.467 32.103-9.3 48 .5 14.284.705 20.45 8.2 18.5 22.5-1.18 5.32-4.014 9.32-8.5 12Z"/><path style="opacity:1" fill="#cf4334" d="M759.5 997.5h4c-6.36 5.04-11.027 11.37-14 19-1.193-.47-1.86-1.47-2-3 .272-2.48.938-4.81 2-7 2.496-3.92 5.83-6.917 10-9Z"/><path style="opacity:.997" fill="#fe9930" d="M1421.5 999.5c14.47.113 28.8 1.45 43 4a2551.099 2551.099 0 0 1-51 67c-41.84-7.68-83.51-6.34-125 4-.17-13.34 0-26.67.5-40a60.29 60.29 0 0 0 6.5-4 436.634 436.634 0 0 1 77-26c-.07.44.1.77.5 1a259.446 259.446 0 0 1 48.5-6Z"/><path style="opacity:1" fill="#8bccf4" d="M469.5 1058.5c24.4 53.33 20.233 104.33-12.5 153-11.241 15.42-25.075 27.75-41.5 37a24714.53 24714.53 0 0 1-140-226v-1a286.81 286.81 0 0 1 29-13.5c66.003-18.261 121.003-1.43 165 50.5Z"/><path style="opacity:1" fill="#6593c6" d="M261.5 1000.5a340.372 340.372 0 0 0 14 21v1c-36.788 23-59.288 56-67.5 99-4.485 31.42.015 61.42 13.5 90-30.473-42.76-36.973-89.1-19.5-139 12.017-30.51 31.851-54.51 59.5-72Z"/><path style="opacity:1" fill="#062b57" d="M749.5 1006.5a21.206 21.206 0 0 0-2 7c.14 1.53.807 2.53 2 3-3.623 9.85-3.957 19.85-1 30-3.103 5.48-2.103 10.15 3 14-5.334 4.72-11.334 6.06-18 4 2.357.16 4.69 0 7-.5 2.951-3.96 4.284-8.46 4-13.5a78.917 78.917 0 0 0-4.5-19c-1.775-10.42 1.392-18.75 9.5-25Z"/><path style="opacity:1" fill="#6995c7" d="M920.5 1059.5c-1.21.43-2.21 1.1-3 2h-18a294.9 294.9 0 0 1 29-14.5c85.16-36.04 172.49-42.37 262-19 2.67 2.33 2.67 4.67 0 7-92.86-23.26-182.86-15.09-270 24.5Z"/><path style="opacity:1" fill="#f5c59e" d="M821.5 1032.5c-.691 4.1-1.691 8.1-3 12-1.293 1.34-2.126 3.01-2.5 5-.499 5.99-.666 11.99-.5 18a109.38 109.38 0 0 1-2.5 8c-4.632 9.9-12.465 13.9-23.5 12 .237 1.29-.096 2.29-1 3 .219-1.18-.114-2.18-1-3-8.598-2.61-15.265-7.61-20-15 2.956-7.68 2.622-15.18-1-22.5 6.636-2.98 13.303-5.98 20-9 3.857-3.26 8.19-5.43 13-6.5a4.939 4.939 0 0 1 .5-3c5.8-4.79 10.467-10.46 14-17 3.891 5.44 6.391 11.44 7.5 18Z"/><path style="opacity:1" fill="#6a95c7" d="M730.5 1037.5a32.483 32.483 0 0 1 4 10 1219.786 1219.786 0 0 0-46-14.5 794.963 794.963 0 0 0-49-9c-2.148-2.07-2.482-4.41-1-7a68.4 68.4 0 0 1 18 1 503.674 503.674 0 0 1 74 19.5Z"/><path style="opacity:1" fill="#a9dffd" d="M275.5 1022.5a24714.53 24714.53 0 0 0 140 226c-41.204 24.62-84.537 28.79-130 12.5-25.879-10.72-47.212-27.22-64-49.5-13.485-28.58-17.985-58.58-13.5-90 8.212-43 30.712-76 67.5-99Z"/><path style="opacity:1" fill="#2d4878" d="M812.5 1032.5c2.897-.37 5.563.13 8 1.5a4.486 4.486 0 0 1-2 1.5c-2.547-.27-4.547-1.27-6-3Z"/><path style="opacity:1" fill="#eabf9c" d="M757.5 1062.5a31.828 31.828 0 0 0-6-2c-5.103-3.85-6.103-8.52-3-14 2.662-1.77 5.662-2.43 9-2-.506 5.94.494 11.61 3 17-.825.89-1.825 1.22-3 1Z"/><path style="opacity:1" fill="#1c4076" d="M818.5 1044.5c2.895 8.06 3.728 16.39 2.5 25a6.845 6.845 0 0 1-1.5 3 486.042 486.042 0 0 1-4-5c-.166-6.01.001-12.01.5-18 .374-1.99 1.207-3.66 2.5-5Z"/><path style="opacity:1" fill="#1a3e75" d="M810.5 1047.5h3c-.074 4.04-1.407 4.71-4 2 .363-.68.696-1.35 1-2Z"/><path style="opacity:1" fill="#214276" d="M788.5 1048.5c2.666-.43 3.833.57 3.5 3-3.597 1.57-4.763.57-3.5-3Z"/><path style="opacity:1" fill="#df7061" d="M802.5 1051.5h3c-.128 2.15.372 4.15 1.5 6 2.123.47 3.623 1.63 4.5 3.5-2.066 3.07-4.566 3.24-7.5.5-2.396-3.13-2.896-6.46-1.5-10Z"/><path style="opacity:.99" fill="#fe9930" d="M1585.5 1053.5c25.74 16.91 45.24 39.24 58.5 67 10.58 26.32 11.08 52.65 1.5 79-31.63-33.31-67.29-61.31-107-84 14.91-21.24 30.57-41.91 47-62Z"/><path style="opacity:1" fill="#6995c7" d="M977.5 1083.5c.565-4.04 1.899-7.7 4-11 .417.62 1.084.96 2 1 68.94-18.46 137.94-18.63 207-.5 3.17 4.14 2.17 6.64-3 7.5-70.3-18.17-140.3-17.17-210 3Z"/><path style="opacity:1" fill="#bebfb5" d="M920.5 1059.5c20.667.67 41.333 1.33 62 2h-65c.79-.9 1.79-1.57 3-2Z"/><path style="opacity:1" fill="#6a95c7" d="M756.5 1093.5v1c-2.909.95-5.242 2.61-7 5-35.204-15.28-71.87-25.44-110-30.5-2.148-2.07-2.482-4.41-1-7 7.363 0 14.697.67 22 2 33.052 6.52 65.052 16.35 96 29.5Z"/><path style="opacity:1" fill="#fefbf9" d="M788.5 1060.5a88.026 88.026 0 0 0 9 5.5c1.667.33 3.333.67 5 1 1.164 4.02-.503 5.85-5 5.5-7.314-.59-10.314-4.59-9-12Z"/><path style="opacity:1" fill="#013672" d="M899.5 1061.5h83c1.195.37 1.861 1.2 2 2.5a43.015 43.015 0 0 0-3 8.5c-2.101 3.3-3.435 6.96-4 11a3419.248 3419.248 0 0 1-17 39.5c-25.503.17-50.837.67-76 1.5h-1a412.793 412.793 0 0 0-40-1h-4c-2.027.16-4.027 0-6-.5-3.497-6.36-1.497-9.2 6-8.5 12.351.33 24.685 0 37-1a92.828 92.828 0 0 0 4-10c3.665-9.33 7.332-18.66 11-28 1.623-3.93 3.29-7.93 5-12 .473-1.41 1.473-2.07 3-2Z"/><path style="opacity:1" fill="#6b95c6" d="M896.5 1063.5c-1.71 4.07-3.377 8.07-5 12 .065-.44-.101-.77-.5-1-2.852 2.76-6.185 4.76-10 6-3.072-.95-4.072-2.95-3-6a74.281 74.281 0 0 1 18.5-11Z"/><path style="opacity:.997" fill="#feba44" d="M1413.5 1070.5a6979.964 6979.964 0 0 1-60.5 81c-.67.75-1.5 1.09-2.5 1a140.204 140.204 0 0 0-41-9c-6.78 15.21-13.78 30.21-21 45v-114c41.49-10.34 83.16-11.68 125-4Z"/><path style="opacity:1" fill="#daa376" d="M767.5 1072.5c4.735 7.39 11.402 12.39 20 15 .886.82 1.219 1.82 1 3-.135 2.05.532 3.72 2 5-.992-.17-1.658.16-2 1a73.284 73.284 0 0 1-10-5.5 133.031 133.031 0 0 0-10-9.5 84.855 84.855 0 0 1-2-8c0-.67.333-1 1-1Z"/><path style="opacity:1" fill="#f6c19a" d="M768.5 1081.5c3.464 2.96 6.797 6.13 10 9.5a73.284 73.284 0 0 0 10 5.5c.409 4.38 1.075 8.71 2 13-4.404-.21-8.404-1.54-12-4-2.728-6.39-7.395-10.73-14-13 1.068-.93 2.401-1.27 4-1v-10Z"/><path style="opacity:1" fill="#fceaca" d="M921.5 1087.5c8.34-.17 16.673 0 25 .5 1.095 2.27.761 4.44-1 6.5a113.062 113.062 0 0 1-26 .5c-1.017-2.84-.35-5.34 2-7.5Z"/><path style="opacity:1" fill="#7d87af" d="M764.5 1092.5c6.605 2.27 11.272 6.61 14 13a178.618 178.618 0 0 1 7 20c.34 4.38 1.007 8.71 2 13-.043.92-.376 1.58-1 2-2.509-13.36-7.009-26.02-13.5-38-3.741-6.29-9.241-8.95-16.5-8v-1c2.448-.97 5.115-1.31 8-1Z"/><path style="opacity:1" fill="#df432e" d="M756.5 1094.5c7.259-.95 12.759 1.71 16.5 8 6.491 11.98 10.991 24.64 13.5 38a95.685 95.685 0 0 1 4 15c-8.043 1.98-16.043 5.15-24 9.5-1.074.74-1.741 1.74-2 3a80.024 80.024 0 0 0 7 16c5.028.59 10.028.42 15-.5v42a87.185 87.185 0 0 1-23-4c.908-21.83-1.758-43.17-8-64a186.65 186.65 0 0 1-10-29v-17c.414-4.33 1.747-8.33 4-12 1.758-2.39 4.091-4.05 7-5ZM790.5 1095.5c4.971.98 9.637 2.82 14 5.5 11.305 8.8 20.638 19.3 28 31.5a46.827 46.827 0 0 1-10 6 112.21 112.21 0 0 0-16-13c-.333.33-.667.67-1 1a196.222 196.222 0 0 1 8 17c-4.516 3.43-9.516 6.09-15 8a118.613 118.613 0 0 0-13-26 178.618 178.618 0 0 0-7-20c3.596 2.46 7.596 3.79 12 4-.925-4.29-1.591-8.62-2-13 .342-.84 1.008-1.17 2-1Z"/><path style="opacity:1" fill="#efc39d" d="M880.5 1103.5a92.828 92.828 0 0 1-4 10c-12.315 1-24.649 1.33-37 1v-1h13c3.836-3.99 8.17-7.49 13-10.5 5.099-2.07 10.099-1.9 15 .5Z"/><path style="opacity:1" fill="#feba44" d="M163.5 1103.5c-5.022 50.64 8.312 95.64 40 135-26.231 14.8-54.397 22.8-84.5 24-37.466.77-66.466-14.23-87-45a55.466 55.466 0 0 1-5.5-13c39.706-41.7 85.373-75.37 137-101ZM1538.5 1115.5c39.71 22.69 75.37 50.69 107 84-8.16 22.32-23.49 37.49-46 45.5-26.08 7.56-52.08 7.22-78-1-20.64-7.49-39.97-17.32-58-29.5 24.27-33.55 49.27-66.55 75-99Z"/><path style="opacity:.99" fill="#6691c4" d="M745.5 1111.5v17c-1.734 8.11-2.734 16.44-3 25a757.887 757.887 0 0 0-4 66c-1.197 8.16-1.697 16.49-1.5 25 15.338 7.01 31.338 9.67 48 8 .251-9.03.751-18.03 1.5-27v-42a6.927 6.927 0 0 1 4-1v35c-.977 2.79-1.31 5.79-1 9a1020.97 1020.97 0 0 0-.5 56c-.444 6.66-2.11 13-5 19-2.677 3.84-6.344 5.51-11 5a524.775 524.775 0 0 0-28.5-3 93.184 93.184 0 0 1-18-4.5c-4.532-6.11-6.032-12.94-4.5-20.5a140.357 140.357 0 0 1 8.5-30c.617-.11 1.117-.44 1.5-1a283.68 283.68 0 0 0 2.5-29 2346.15 2346.15 0 0 0 4-62 590.87 590.87 0 0 1 4.5-37c.546-2.88 1.379-5.55 2.5-8Z"/><path style="opacity:1" fill="#b29f94" d="M843.5 1123.5c13.413-.31 26.746.02 40 1-.342.84-1.008 1.17-2 1-12.667-.67-25.333-1.33-38-2Z"/><path style="opacity:1" fill="#f9b35a" d="M738.5 1156.5a2346.15 2346.15 0 0 1-4 62c-77.659-8.07-155.325-16.07-233-24a558.231 558.231 0 0 0 9.5-31 219.572 219.572 0 0 0 4.5-37c75.762-6.11 149.762 2.55 222 26 .929 1.19 1.262 2.52 1 4Z"/><path style="opacity:1" fill="#f7c69e" d="M839.5 1123.5h4c12.667.67 25.333 1.33 38 2-3.894 6.54-9.561 8.71-17 6.5a33.84 33.84 0 0 0-6-3.5 14.754 14.754 0 0 0-4 6 66.11 66.11 0 0 0-7 9c2.17 3.2 4.503 3.53 7 1a467.727 467.727 0 0 0 35-15.5c1.563-1.74 3.23-3.24 5-4.5 6.009-.17 12.009 0 18 .5a114.564 114.564 0 0 1-19 17 365.133 365.133 0 0 1-38 22.5 43.252 43.252 0 0 1-16-4c-1.679-1.67-3.679-2.51-6-2.5a57.262 57.262 0 0 1-9.5 8.5c-.191 2.21-.691 4.21-1.5 6 .16-1.7-.006-3.37-.5-5a105.494 105.494 0 0 1-31.5 15 6.927 6.927 0 0 0-4 1 49.974 49.974 0 0 1-15 .5 80.024 80.024 0 0 1-7-16c.259-1.26.926-2.26 2-3 7.957-4.35 15.957-7.52 24-9.5 2.985-.83 5.651-2.16 8-4 5.484-1.91 10.484-4.57 15-8 3.492-.91 6.492-2.58 9-5a46.827 46.827 0 0 0 10-6c4.259-1.58 6.592-4.58 7-9Z"/><path style="opacity:1" fill="#feebca" d="M883.5 1124.5h11c-1.77 1.26-3.437 2.76-5 4.5a467.727 467.727 0 0 1-35 15.5v-10c.83-2.32 2.163-4.32 4-6 2.13.97 4.13 2.13 6 3.5 7.439 2.21 13.106.04 17-6.5.992.17 1.658-.16 2-1Z"/><path style="opacity:1" fill="#a63222" d="M785.5 1125.5a118.613 118.613 0 0 1 13 26c-2.349 1.84-5.015 3.17-8 4a95.685 95.685 0 0 0-4-15c.624-.42.957-1.08 1-2a87.618 87.618 0 0 1-2-13Z"/><path style="opacity:1" fill="#a53122" d="M822.5 1138.5c-2.508 2.42-5.508 4.09-9 5a196.222 196.222 0 0 0-8-17c.333-.33.667-.67 1-1a112.21 112.21 0 0 1 16 13Z"/><path style="opacity:1" fill="#fbe6c6" d="M745.5 1128.5a186.65 186.65 0 0 0 10 29 73.17 73.17 0 0 1-13-4c.266-8.56 1.266-16.89 3-25Z"/><path style="opacity:1" fill="#fab763" d="M854.5 1134.5v10c-2.497 2.53-4.83 2.2-7-1a66.11 66.11 0 0 1 7-9Z"/><path style="opacity:1" fill="#f7b25a" d="M742.5 1153.5a73.17 73.17 0 0 0 13 4c6.242 20.83 8.908 42.17 8 64-8.333-.67-16.667-1.33-25-2 .376-22.11 1.71-44.11 4-66Z"/><path style="opacity:1" fill="#feebc8" d="M839.5 1160.5a211.13 211.13 0 0 1-1 29 80.153 80.153 0 0 0-16-6v-11c.809-1.79 1.309-3.79 1.5-6a57.262 57.262 0 0 0 9.5-8.5c2.321-.01 4.321.83 6 2.5Z"/><path style="opacity:1" fill="#e0432d" d="M822.5 1172.5v11a418.802 418.802 0 0 0-2 38 173.683 173.683 0 0 1-23 4h-7v-43a105.494 105.494 0 0 0 31.5-15c.494 1.63.66 3.3.5 5Z"/><path style="opacity:1" fill="#a74c50" d="M790.5 1217.5v8h7c-2.448.97-5.115 1.31-8 1-.31-3.21.023-6.21 1-9Z"/><path style="opacity:1" fill="#023772" d="M738.5 1219.5c8.333.67 16.667 1.33 25 2a87.185 87.185 0 0 0 23 4 487.047 487.047 0 0 0-1.5 27c-16.662 1.67-32.662-.99-48-8-.197-8.51.303-16.84 1.5-25Z"/><path style="opacity:.986" fill="#feba45" d="M1272.5 1220.5c-29.17 56.3-64.01 108.63-104.5 157-1.8-.82-3.63-1.49-5.5-2-8.1-5.05-16.77-9.05-26-12-2.53-.77-4.53-2.27-6-4.5 7.6-42.55 17.93-84.38 31-125.5 31.8-3.08 63.8-5.58 96-7.5 5.42-.75 10.42-2.59 15-5.5Z"/><path style="opacity:1" fill="#002855" d="M817.5 1391.5a1036.702 1036.702 0 0 0-17-39c1.834-35.02 4.001-70.02 6.5-105 4.13 46.28 7.963 92.61 11.5 139-.007 1.87-.34 3.54-1 5Z"/><path style="opacity:.971" fill="#6492c6" d="M446.5 1264.5a734.005 734.005 0 0 1 19 31c-.453.96-1.119 1.79-2 2.5a862.464 862.464 0 0 0-28 16.5 734.005 734.005 0 0 0-19-31 352.458 352.458 0 0 0 30-19Z"/><path style="opacity:1" fill="#fbba48" d="M745.5 1269.5c4.009.36 8.009.86 12 1.5 2.229 2.55 2.562 5.39 1 8.5a33.225 33.225 0 0 1-14 .5c-1.512-3.72-1.179-7.22 1-10.5Z"/><path style="opacity:.978" fill="#003672" d="M435.5 1314.5a862.464 862.464 0 0 1 28-16.5c.881-.71 1.547-1.54 2-2.5 7.929-2.89 15.095-1.56 21.5 4a28748.5 28748.5 0 0 0 120 193c8.624 18.67 4.791 34.17-11.5 46.5-17.943 8.22-33.11 4.72-45.5-10.5-40-64.67-80-129.33-120-194-.667-4-.667-8 0-12 1.104-3.22 2.937-5.89 5.5-8Z"/><path style="opacity:.987" fill="#fee4b1" d="M1228.5 1315.5c8.67 6.33 17.33 12.67 26 19 15.69 12.35 31.69 24.35 48 36 8.67 7 17.33 14 26 21a5290.8 5290.8 0 0 1-116 76 615.145 615.145 0 0 0-27-20c13.96-44.22 28.3-88.22 43-132Z"/><path style="opacity:1" fill="#4a75ac" d="M446.5 1322.5c4.016-.6 7.516.4 10.5 3 38.083 61.83 76.416 123.5 115 185 3.668 7.59 1.502 12.25-6.5 14-2.611-.06-4.778-1.06-6.5-3a26916.566 26916.566 0 0 0-116-187c-1.407-4.86-.24-8.86 3.5-12Z"/><path style="opacity:.957" fill="#013671" d="M1136.5 1363.5c9.23 2.95 17.9 6.95 26 12a791.491 791.491 0 0 0-16.5 34c-8.31 7.07-15.98 6.41-23-2-1.43-3.91-1.77-7.91-1-12 5.12-10.57 9.95-21.24 14.5-32Z"/><path style="opacity:1" fill="#143c74" d="M1185.5 1447.5c9.19 6.43 18.19 13.09 27 20a885.316 885.316 0 0 1-41.5 28c4.2-16.11 9.03-32.11 14.5-48Z"/><path style="opacity:.965" fill="#f6c59d" d="M890.5 1518.5a615.418 615.418 0 0 0 26 10c-2.938 3.97-6.938 6.14-12 6.5-9.68.58-19.347.41-29-.5a65.61 65.61 0 0 1-3-10 290.627 290.627 0 0 0 18-6Z"/><path style="opacity:1" fill="#e0452f" d="M916.5 1528.5a1042.41 1042.41 0 0 1 24 8.5c3.852 3.14 3.852 6.14 0 9-21.008.83-42.008.67-63-.5a40.016 40.016 0 0 1-2-11c9.653.91 19.32 1.08 29 .5 5.062-.36 9.062-2.53 12-6.5Z"/><path style="opacity:.982" fill="#f6c59e" d="M765.5 1531.5h23l5 14c-9.402 2.57-18.736 2.57-28 0v-14Z"/><path style="opacity:1" fill="#e14a33" d="M765.5 1545.5c9.264 2.57 18.598 2.57 28 0 2.577 4.18 3.077 8.51 1.5 13-1.409 1.28-2.909 2.28-4.5 3h-21a29.471 29.471 0 0 1-3.5-3 84.878 84.878 0 0 1-.5-13Z"/></svg>