<?xml version="1.0" encoding="UTF-8"?>
<!DOCTYPE svg PUBLIC "-//W3C//DTD SVG 1.1//EN" "http://www.w3.org/Graphics/SVG/1.1/DTD/svg11.dtd">
<svg xmlns="http://www.w3.org/2000/svg" version="1.1" width="1734px" height="1562px" style="shape-rendering:geometricPrecision; text-rendering:geometricPrecision; image-rendering:optimizeQuality; fill-rule:evenodd; clip-rule:evenodd" xmlns:xlink="http://www.w3.org/1999/xlink">
<g><path style="opacity:0.978" fill="#023672" d="M 874.5,-0.5 C 880.833,-0.5 887.167,-0.5 893.5,-0.5C 903.183,0.760254 912.517,3.59359 921.5,8C 933.419,15.7567 936.919,26.2567 932,39.5C 928.186,45.4922 922.686,48.4922 915.5,48.5C 915.371,50.2161 915.038,51.8828 914.5,53.5C 912.507,55.4668 910.507,57.4668 908.5,59.5C 905.936,54.9749 904.269,50.1416 903.5,45C 900.833,44.3333 898.167,44.3333 895.5,45C 898.789,46.391 900.456,48.5577 900.5,51.5C 896.557,47.8631 891.89,45.8631 886.5,45.5C 888.167,43.8333 887.833,42.8333 885.5,42.5C 875.131,40.6005 865.464,36.9339 856.5,31.5C 853.801,42.4299 849.635,52.7632 844,62.5C 841.667,61.5 840,59.8333 839,57.5C 838.617,58.056 838.117,58.3893 837.5,58.5C 834.649,43.9843 833.815,29.3176 835,14.5C 847.112,6.51953 860.278,1.51953 874.5,-0.5 Z"/></g>
<g><path style="opacity:0.984" fill="#f6c59e" d="M 914.5,53.5 C 916.533,54.8984 917.533,56.8984 917.5,59.5C 917.163,65.3586 914.663,70.0253 910,73.5C 908.668,85.5151 902.835,94.5151 892.5,100.5C 887.529,102.366 882.362,103.366 877,103.5C 872.238,103.452 867.738,102.619 863.5,101C 871.583,107.862 880.917,111.695 891.5,112.5C 891.5,114.167 891.5,115.833 891.5,117.5C 889.029,127.412 882.696,131.246 872.5,129C 865.742,125.543 862.409,120.043 862.5,112.5C 862.666,108.486 862.499,104.486 862,100.5C 852.746,94.6521 847.58,86.3187 846.5,75.5C 846.715,73.8212 846.048,72.8212 844.5,72.5C 840.066,68.9654 837.733,64.2987 837.5,58.5C 838.117,58.3893 838.617,58.056 839,57.5C 840,59.8333 841.667,61.5 844,62.5C 849.635,52.7632 853.801,42.4299 856.5,31.5C 865.464,36.9339 875.131,40.6005 885.5,42.5C 887.833,42.8333 888.167,43.8333 886.5,45.5C 891.89,45.8631 896.557,47.8631 900.5,51.5C 900.456,48.5577 898.789,46.391 895.5,45C 898.167,44.3333 900.833,44.3333 903.5,45C 904.269,50.1416 905.936,54.9749 908.5,59.5C 910.507,57.4668 912.507,55.4668 914.5,53.5 Z"/></g>
<g><path style="opacity:1" fill="#2f4878" d="M 862.5,43.5 C 864.977,43.0508 866.977,43.7175 868.5,45.5C 865.893,46.3184 863.226,46.8184 860.5,47C 858.983,48.6851 857.316,50.1851 855.5,51.5C 854.417,50.635 854.251,49.635 855,48.5C 857.426,46.5476 859.926,44.881 862.5,43.5 Z"/></g>
<g><path style="opacity:1" fill="#1f3f75" d="M 861.5,59.5 C 862.833,59.5 864.167,59.5 865.5,59.5C 865.5,60.8333 865.5,62.1667 865.5,63.5C 864.167,63.5 862.833,63.5 861.5,63.5C 861.5,62.1667 861.5,60.8333 861.5,59.5 Z"/></g>
<g><path style="opacity:1" fill="#1f4075" d="M 890.5,59.5 C 893.694,59.1756 894.694,60.3422 893.5,63C 892.207,63.49 890.873,63.6567 889.5,63.5C 889.433,62.0413 889.766,60.7079 890.5,59.5 Z"/></g>
<g><path style="opacity:0.989" fill="#aae0fd" d="M 471.5,62.5 C 508.26,60.8763 536.26,75.5429 555.5,106.5C 576.3,94.9426 596.3,96.1093 615.5,110C 627.024,120.217 632.69,133.05 632.5,148.5C 553.167,148.5 473.833,148.5 394.5,148.5C 395.67,112.3 412.336,86.1335 444.5,70C 453.323,66.381 462.323,63.881 471.5,62.5 Z"/></g>
<g><path style="opacity:1" fill="#de6d5f" d="M 855.5,67.5 C 857.833,67.5 860.167,67.5 862.5,67.5C 862.825,70.5242 861.492,72.1909 858.5,72.5C 855.02,72.1228 854.02,70.4562 855.5,67.5 Z"/></g>
<g><path style="opacity:1" fill="#e07262" d="M 894.5,66.5 C 898.73,65.8313 900.563,67.498 900,71.5C 897.069,73.0471 894.569,72.5471 892.5,70C 892.978,68.6974 893.645,67.5307 894.5,66.5 Z"/></g>
<g><path style="opacity:1" fill="#df6f60" d="M 875.5,67.5 C 876.496,67.4142 877.329,67.7476 878,68.5C 878.092,72.7127 880.092,75.3794 884,76.5C 884.611,80.0876 883.111,81.2542 879.5,80C 874.662,77.0148 873.328,72.8482 875.5,67.5 Z"/></g>
<g><path style="opacity:0.957" fill="#3c557c" d="M 844.5,72.5 C 846.048,72.8212 846.715,73.8212 846.5,75.5C 845.094,75.0269 844.427,74.0269 844.5,72.5 Z"/></g>
<g><path style="opacity:1" fill="#e17565" d="M 863.5,80.5 C 865.797,81.8347 867.797,83.6681 869.5,86C 871.473,86.4955 873.473,86.6621 875.5,86.5C 875.5,87.5 875.5,88.5 875.5,89.5C 868.821,89.8473 864.821,86.8473 863.5,80.5 Z"/></g>
<g><path style="opacity:0.974" fill="#aae0fd" d="M 212.5,98.5 C 235.477,97.331 250.311,107.664 257,129.5C 259.648,153.501 249.482,169.001 226.5,176C 201.619,178.437 186.119,167.604 180,143.5C 178.766,119.594 189.599,104.594 212.5,98.5 Z"/></g>
<g><path style="opacity:1" fill="#dba377" d="M 892.5,100.5 C 892.5,104.5 892.5,108.5 892.5,112.5C 892.784,114.415 892.451,116.081 891.5,117.5C 891.5,115.833 891.5,114.167 891.5,112.5C 880.917,111.695 871.583,107.862 863.5,101C 867.738,102.619 872.238,103.452 877,103.5C 882.362,103.366 887.529,102.366 892.5,100.5 Z"/></g>
<g><path style="opacity:0.982" fill="#df422d" d="M 862.5,112.5 C 862.409,120.043 865.742,125.543 872.5,129C 882.696,131.246 889.029,127.412 891.5,117.5C 892.451,116.081 892.784,114.415 892.5,112.5C 902.839,112.334 913.172,112.5 923.5,113C 956.119,132.283 980.286,159.116 996,193.5C 998.439,201.455 997.773,209.122 994,216.5C 982.971,231.362 970.138,244.362 955.5,255.5C 954.504,239.675 954.17,223.675 954.5,207.5C 959.66,203.595 959.66,199.595 954.5,195.5C 958.269,180.753 953.936,169.42 941.5,161.5C 937.878,152.256 933.711,143.256 929,134.5C 928.5,143.16 928.334,151.827 928.5,160.5C 894.5,160.5 860.5,160.5 826.5,160.5C 826.666,152.16 826.5,143.827 826,135.5C 820.998,144.501 816.831,153.834 813.5,163.5C 809.781,166.054 806.948,169.387 805,173.5C 804.753,179.882 804.253,186.215 803.5,192.5C 800.822,195.332 798.488,198.499 796.5,202C 798.828,205.516 801.495,208.682 804.5,211.5C 804.5,227.167 804.5,242.833 804.5,258.5C 787.874,246.374 773.374,232.041 761,215.5C 756.96,207.977 756.626,200.311 760,192.5C 776.16,158.675 800.326,132.175 832.5,113C 842.494,112.5 852.494,112.334 862.5,112.5 Z M 803.5,192.5 C 803.557,198.851 803.89,205.185 804.5,211.5C 801.495,208.682 798.828,205.516 796.5,202C 798.488,198.499 800.822,195.332 803.5,192.5 Z M 954.5,195.5 C 959.66,199.595 959.66,203.595 954.5,207.5C 954.5,203.5 954.5,199.5 954.5,195.5 Z"/></g>
<g><path style="opacity:0.987" fill="#aae0fd" d="M 1363.5,128.5 C 1415.42,128.031 1453.26,150.697 1477,196.5C 1483.63,212.158 1487.13,228.491 1487.5,245.5C 1354.5,245.5 1221.5,245.5 1088.5,245.5C 1090.19,212.65 1106.85,191.816 1138.5,183C 1152.2,180.196 1165.36,181.696 1178,187.5C 1208.91,153.692 1245.91,145.025 1289,161.5C 1310.27,142.451 1335.1,131.451 1363.5,128.5 Z"/></g>
<g><path style="opacity:1" fill="#a43021" d="M 941.5,161.5 C 940.5,161.5 939.5,161.5 938.5,161.5C 935.375,160.521 932.042,160.187 928.5,160.5C 928.334,151.827 928.5,143.16 929,134.5C 933.711,143.256 937.878,152.256 941.5,161.5 Z"/></g>
<g><path style="opacity:1" fill="#a33327" d="M 928.5,160.5 C 932.042,160.187 935.375,160.521 938.5,161.5C 897.832,161.333 857.165,161.5 816.5,162C 815.473,162.513 814.473,163.013 813.5,163.5C 816.831,153.834 820.998,144.501 826,135.5C 826.5,143.827 826.666,152.16 826.5,160.5C 860.5,160.5 894.5,160.5 928.5,160.5 Z"/></g>
<g><path style="opacity:0.939" fill="#aae0fd" d="M 297.5,154.5 C 314.066,153.676 320.899,161.343 318,177.5C 311.389,188.158 302.556,190.324 291.5,184C 283.5,175.333 283.5,166.667 291.5,158C 293.432,156.541 295.432,155.375 297.5,154.5 Z"/></g>
<g><path style="opacity:0.998" fill="#002854" d="M 938.5,161.5 C 939.5,161.5 940.5,161.5 941.5,161.5C 953.936,169.42 958.269,180.753 954.5,195.5C 954.5,199.5 954.5,203.5 954.5,207.5C 954.17,223.675 954.504,239.675 955.5,255.5C 955.5,261.167 955.5,266.833 955.5,272.5C 957.415,272.216 959.081,272.549 960.5,273.5C 959.218,276.731 959.218,280.064 960.5,283.5C 955.886,282.45 951.22,282.283 946.5,283C 939.928,286.121 933.261,288.955 926.5,291.5C 893.167,291.5 859.833,291.5 826.5,291.5C 817.954,287.548 809.287,284.215 800.5,281.5C 800.5,278.5 800.5,275.5 800.5,272.5C 801.833,272.5 803.167,272.5 804.5,272.5C 804.5,267.833 804.5,263.167 804.5,258.5C 804.5,242.833 804.5,227.167 804.5,211.5C 803.89,205.185 803.557,198.851 803.5,192.5C 804.253,186.215 804.753,179.882 805,173.5C 806.948,169.387 809.781,166.054 813.5,163.5C 814.473,163.013 815.473,162.513 816.5,162C 857.165,161.5 897.832,161.333 938.5,161.5 Z"/></g>
<g><path style="opacity:0.991" fill="#aadffd" d="M 403.5,367.5 C 410.951,408.873 418.618,450.206 426.5,491.5C 404.324,495.954 381.991,499.287 359.5,501.5C 359.5,501.167 359.5,500.833 359.5,500.5C 357.499,490.16 355.499,479.827 353.5,469.5C 354.007,464.809 356.674,462.643 361.5,463C 368.575,460.016 371.241,454.849 369.5,447.5C 372.702,439.393 375.202,431.059 377,422.5C 377.884,415.418 377.551,408.418 376,401.5C 372.67,396.251 367.837,393.751 361.5,394C 354.938,384.896 346.271,379.063 335.5,376.5C 328.67,342.861 321.837,309.194 315,275.5C 309.072,264.456 299.905,260.289 287.5,263C 278.475,266.891 273.808,273.724 273.5,283.5C 278.137,309.521 282.971,335.521 288,361.5C 289.742,370.738 291.909,379.738 294.5,388.5C 287.507,396.826 280.174,404.826 272.5,412.5C 272.675,410.379 272.341,408.379 271.5,406.5C 271.5,405.833 271.167,405.5 270.5,405.5C 260.833,354.833 251.167,304.167 241.5,253.5C 228.071,253.567 222.238,246.901 224,233.5C 225.4,230.098 227.567,227.264 230.5,225C 277.427,215.181 324.427,205.681 371.5,196.5C 385.127,199.425 389.627,207.425 385,220.5C 382.736,223.433 379.902,225.6 376.5,227C 375.941,227.725 375.608,228.558 375.5,229.5C 384.474,275.707 393.808,321.707 403.5,367.5 Z"/></g>
<g><path style="opacity:0.993" fill="#fe9a30" d="M 578.5,202.5 C 527.616,252.796 491.949,312.463 471.5,381.5C 470.662,381.842 470.328,382.508 470.5,383.5C 468.012,394.284 466.012,405.284 464.5,416.5C 454.635,440.919 444.469,465.252 434,489.5C 431.509,490.22 429.009,490.887 426.5,491.5C 418.618,450.206 410.951,408.873 403.5,367.5C 412.652,313.363 435.986,266.529 473.5,227C 498.678,203.719 528.345,194.052 562.5,198C 568.124,198.902 573.458,200.402 578.5,202.5 Z"/></g>
<g><path style="opacity:1" fill="#fafbfc" d="M 873.5,200.5 C 890.955,199.447 896.789,207.113 891,223.5C 881.888,231.958 873.555,231.292 866,221.5C 862.364,212.136 864.864,205.136 873.5,200.5 Z"/></g>
<g><path style="opacity:1" fill="#feba45" d="M 578.5,202.5 C 592.208,206.847 603.208,214.847 611.5,226.5C 590.879,238.009 579.045,255.676 576,279.5C 574.819,293.412 576.152,307.078 580,320.5C 585.208,336.625 590.708,352.625 596.5,368.5C 588.754,378.984 581.754,389.984 575.5,401.5C 566.517,401.229 557.85,399.396 549.5,396C 532.735,393.478 519.235,398.978 509,412.5C 497.137,430.512 495.471,449.512 504,469.5C 506.826,475.822 510.159,481.822 514,487.5C 520.025,495.018 526.191,502.352 532.5,509.5C 528.158,540.271 528.825,570.937 534.5,601.5C 514.843,584.509 495.51,567.175 476.5,549.5C 470.421,530.932 466.421,511.932 464.5,492.5C 472.301,464.431 480.301,436.431 488.5,408.5C 494.293,400.584 498.793,391.917 502,382.5C 502.867,378.044 502.534,373.711 501,369.5C 497.36,367.857 494.193,368.524 491.5,371.5C 485.932,377.636 481.099,384.302 477,391.5C 475.992,387.577 474.159,384.243 471.5,381.5C 491.949,312.463 527.616,252.796 578.5,202.5 Z"/></g>
<g><path style="opacity:0.985" fill="#df422d" d="M 699.5,292.5 C 678.677,294.533 657.677,296.2 636.5,297.5C 629.04,273.787 621.374,250.12 613.5,226.5C 633.649,222.204 651.649,226.704 667.5,240C 683.126,254.407 693.792,271.907 699.5,292.5 Z"/></g>
<g><path style="opacity:0.998" fill="#fe5b42" d="M 611.5,226.5 C 612.167,226.5 612.833,226.5 613.5,226.5C 621.374,250.12 629.04,273.787 636.5,297.5C 619.464,301.381 611.964,312.048 614,329.5C 615.632,335.93 619.132,341.097 624.5,345C 635.071,350.453 645.738,355.619 656.5,360.5C 658.514,366.212 660.514,371.878 662.5,377.5C 675.542,420.113 688.042,462.78 700,505.5C 656.952,493.703 613.785,482.536 570.5,472C 615.102,486.978 659.602,502.145 704,517.5C 721.082,571.245 737.249,625.245 752.5,679.5C 751.167,679.5 749.833,679.5 748.5,679.5C 705.955,663.031 661.955,652.531 616.5,648C 606.172,647.5 595.839,647.334 585.5,647.5C 573.833,636.833 562.167,626.167 550.5,615.5C 558.697,612.893 567.03,610.726 575.5,609C 610.028,596.887 614.028,578.22 587.5,553C 569.5,538.01 551.167,523.51 532.5,509.5C 526.191,502.352 520.025,495.018 514,487.5C 510.159,481.822 506.826,475.822 504,469.5C 495.471,449.512 497.137,430.512 509,412.5C 519.235,398.978 532.735,393.478 549.5,396C 557.85,399.396 566.517,401.229 575.5,401.5C 589.621,402.568 597.287,395.902 598.5,381.5C 598.089,377.116 597.423,372.782 596.5,368.5C 590.708,352.625 585.208,336.625 580,320.5C 576.152,307.078 574.819,293.412 576,279.5C 579.045,255.676 590.879,238.009 611.5,226.5 Z"/></g>
<g><path style="opacity:1" fill="#fefefe" d="M 335.5,376.5 C 319.879,373.955 306.212,377.955 294.5,388.5C 291.909,379.738 289.742,370.738 288,361.5C 282.971,335.521 278.137,309.521 273.5,283.5C 273.808,273.724 278.475,266.891 287.5,263C 299.905,260.289 309.072,264.456 315,275.5C 321.837,309.194 328.67,342.861 335.5,376.5 Z"/></g>
<g><path style="opacity:0.999" fill="#013671" d="M 1171.5,317.5 C 1205.19,334.342 1239.19,350.676 1273.5,366.5C 1325.46,391.492 1377.46,416.492 1429.5,441.5C 1437.17,445.336 1444.84,449.169 1452.5,453C 1465.12,465.706 1465.78,479.039 1454.5,493C 1450.82,496.338 1446.48,498.338 1441.5,499C 1404.5,502.009 1367.5,504.843 1330.5,507.5C 1318.22,508.83 1305.88,509.83 1293.5,510.5C 1292.62,505.771 1289.96,502.271 1285.5,500C 1207.04,459.937 1128.71,419.604 1050.5,379C 1044.58,375.002 1038.58,374.668 1032.5,378C 1026.88,384.693 1027.21,391.026 1033.5,397C 1108.88,435.352 1183.88,474.186 1258.5,513.5C 1251.83,513.713 1245.16,514.046 1238.5,514.5C 1168.5,519.5 1098.5,524.5 1028.5,529.5C 1014.86,529.07 1001.86,525.904 989.5,520C 929.763,490.817 869.763,462.317 809.5,434.5C 799.634,428.735 789.3,423.735 778.5,419.5C 778.158,418.662 777.492,418.328 776.5,418.5C 736.778,398.639 696.778,379.306 656.5,360.5C 645.738,355.619 635.071,350.453 624.5,345C 619.132,341.097 615.632,335.93 614,329.5C 611.964,312.048 619.464,301.381 636.5,297.5C 657.677,296.2 678.677,294.533 699.5,292.5C 728.5,290.5 757.5,288.5 786.5,286.5C 778.629,294.93 777.462,304.264 783,314.5C 785.592,317.762 788.759,320.262 792.5,322C 804.426,326.142 816.426,329.976 828.5,333.5C 812.167,334.167 795.833,334.833 779.5,335.5C 780.154,346.981 785.821,354.814 796.5,359C 812.163,359.5 827.83,359.667 843.5,359.5C 854.552,357.148 865.218,353.815 875.5,349.5C 886.781,353.038 898.114,356.372 909.5,359.5C 926.223,359.941 942.89,359.441 959.5,358C 968.624,353.249 973.29,345.749 973.5,335.5C 957.167,334.833 940.833,334.167 924.5,333.5C 930.96,331.902 937.293,329.902 943.5,327.5C 951.254,324.97 958.92,322.137 966.5,319C 973.042,312.463 975.209,304.629 973,295.5C 970.283,289.949 966.117,285.949 960.5,283.5C 959.218,280.064 959.218,276.731 960.5,273.5C 984.486,271.591 1008.49,269.758 1032.5,268C 1048.24,266.193 1063.57,267.86 1078.5,273C 1109.53,287.847 1140.53,302.68 1171.5,317.5 Z"/></g>
<g><path style="opacity:0.991" fill="#fe9930" d="M 1452.5,339.5 C 1395.2,337.632 1339.2,345.132 1284.5,362C 1280.53,363.038 1276.87,364.538 1273.5,366.5C 1239.19,350.676 1205.19,334.342 1171.5,317.5C 1225.61,283.721 1284.61,267.554 1348.5,269C 1396.4,273.459 1431.06,296.959 1452.5,339.5 Z"/></g>
<g><path style="opacity:0.998" fill="#fdba45" d="M 800.5,281.5 C 809.287,284.215 817.954,287.548 826.5,291.5C 857.526,306.344 888.859,320.677 920.5,334.5C 917.018,342.956 913.352,351.289 909.5,359.5C 898.114,356.372 886.781,353.038 875.5,349.5C 861.659,344.664 847.659,339.997 833.5,335.5C 833.167,335.5 832.833,335.5 832.5,335.5C 831.329,334.655 829.995,333.989 828.5,333.5C 816.426,329.976 804.426,326.142 792.5,322C 788.759,320.262 785.592,317.762 783,314.5C 777.462,304.264 778.629,294.93 786.5,286.5C 790.538,283.316 795.205,281.649 800.5,281.5 Z"/></g>
<g><path style="opacity:1" fill="#fdba45" d="M 960.5,283.5 C 966.117,285.949 970.283,289.949 973,295.5C 975.209,304.629 973.042,312.463 966.5,319C 958.92,322.137 951.254,324.97 943.5,327.5C 927.054,320.4 910.388,313.566 893.5,307C 904.832,302.331 915.832,297.165 926.5,291.5C 933.261,288.955 939.928,286.121 946.5,283C 951.22,282.283 955.886,282.45 960.5,283.5 Z"/></g>
<g><path style="opacity:1" fill="#fe9a30" d="M 826.5,291.5 C 859.833,291.5 893.167,291.5 926.5,291.5C 915.832,297.165 904.832,302.331 893.5,307C 910.388,313.566 927.054,320.4 943.5,327.5C 937.293,329.902 930.96,331.902 924.5,333.5C 923.609,334.11 922.609,334.443 921.5,334.5C 921.167,334.5 920.833,334.5 920.5,334.5C 888.859,320.677 857.526,306.344 826.5,291.5 Z"/></g>
<g><path style="opacity:1" fill="#703c4f" d="M 828.5,333.5 C 829.995,333.989 831.329,334.655 832.5,335.5C 814.833,335.5 797.167,335.5 779.5,335.5C 795.833,334.833 812.167,334.167 828.5,333.5 Z"/></g>
<g><path style="opacity:1" fill="#713d4f" d="M 924.5,333.5 C 940.833,334.167 957.167,334.833 973.5,335.5C 955.992,335.83 938.659,335.497 921.5,334.5C 922.609,334.443 923.609,334.11 924.5,333.5 Z"/></g>
<g><path style="opacity:1" fill="#df422d" d="M 779.5,335.5 C 797.167,335.5 814.833,335.5 832.5,335.5C 832.833,335.5 833.167,335.5 833.5,335.5C 836.833,343.5 840.167,351.5 843.5,359.5C 827.83,359.667 812.163,359.5 796.5,359C 785.821,354.814 780.154,346.981 779.5,335.5 Z"/></g>
<g><path style="opacity:1" fill="#df422d" d="M 920.5,334.5 C 920.833,334.5 921.167,334.5 921.5,334.5C 938.659,335.497 955.992,335.83 973.5,335.5C 973.29,345.749 968.624,353.249 959.5,358C 942.89,359.441 926.223,359.941 909.5,359.5C 913.352,351.289 917.018,342.956 920.5,334.5 Z"/></g>
<g><path style="opacity:1" fill="#fc9831" d="M 833.5,335.5 C 847.659,339.997 861.659,344.664 875.5,349.5C 865.218,353.815 854.552,357.148 843.5,359.5C 840.167,351.5 836.833,343.5 833.5,335.5 Z"/></g>
<g><path style="opacity:1" fill="#feba45" d="M 1452.5,339.5 C 1462.09,362.982 1461.76,386.316 1451.5,409.5C 1446.12,421.541 1438.79,432.208 1429.5,441.5C 1377.46,416.492 1325.46,391.492 1273.5,366.5C 1276.87,364.538 1280.53,363.038 1284.5,362C 1339.2,345.132 1395.2,337.632 1452.5,339.5 Z"/></g>
<g><path style="opacity:1" fill="#df422d" d="M 656.5,360.5 C 696.778,379.306 736.778,398.639 776.5,418.5C 753.575,446.602 730.408,474.602 707,502.5C 692.248,460.742 677.415,419.075 662.5,377.5C 660.514,371.878 658.514,366.212 656.5,360.5 Z"/></g>
<g><path style="opacity:0.99" fill="#fe9930" d="M 141.5,416.5 C 134.244,425.421 130.411,435.754 130,447.5C 128.817,464.303 129.65,480.969 132.5,497.5C 128.199,493.028 124.032,488.361 120,483.5C 92.616,446.956 65.4494,410.289 38.5,373.5C 47.004,367.663 56.504,364.996 67,365.5C 85.1035,365.973 100.937,372.14 114.5,384C 124.843,393.831 133.843,404.665 141.5,416.5 Z"/></g>
<g><path style="opacity:1" fill="#f8c69d" d="M 488.5,408.5 C 482.506,407.168 476.506,405.835 470.5,404.5C 470.5,397.5 470.5,390.5 470.5,383.5C 470.328,382.508 470.662,381.842 471.5,381.5C 474.159,384.243 475.992,387.577 477,391.5C 481.099,384.302 485.932,377.636 491.5,371.5C 494.193,368.524 497.36,367.857 501,369.5C 502.534,373.711 502.867,378.044 502,382.5C 498.793,391.917 494.293,400.584 488.5,408.5 Z"/></g>
<g><path style="opacity:0.993" fill="#febb45" d="M 38.5,373.5 C 65.4494,410.289 92.616,446.956 120,483.5C 124.032,488.361 128.199,493.028 132.5,497.5C 133.641,502.42 135.474,507.086 138,511.5C 139.432,513.439 141.265,514.772 143.5,515.5C 161.754,541.761 180.421,567.761 199.5,593.5C 159.182,596.798 118.849,599.965 78.5,603C 121.167,603.333 163.833,603.667 206.5,604C 217.732,619.656 229.066,635.156 240.5,650.5C 223.452,686.263 206.119,721.929 188.5,757.5C 172.862,760.997 157.195,764.497 141.5,768C 156.493,766.058 171.493,763.891 186.5,761.5C 180.635,774.232 174.468,786.898 168,799.5C 164.263,807.782 162.763,816.449 163.5,825.5C 154.746,823.781 146.08,821.615 137.5,819C 128.617,815.057 119.95,810.89 111.5,806.5C 103.393,800.224 96.8931,792.557 92,783.5C 84.3204,766.248 86.8204,750.748 99.5,737C 108.833,730.667 118.167,724.333 127.5,718C 133.965,712.236 137.632,705.069 138.5,696.5C 138.39,689.781 135.724,684.281 130.5,680C 124.154,675.826 117.488,672.159 110.5,669C 91.8333,662.333 73.1667,655.667 54.5,649C 36.4735,641.629 21.3068,630.463 9,615.5C 4.40872,608.664 1.24205,601.331 -0.5,593.5C -0.5,588.167 -0.5,582.833 -0.5,577.5C 1.28324,566.109 6.61657,556.609 15.5,549C 18.5544,546.806 21.8878,545.139 25.5,544C 35.1338,542.764 44.8005,541.764 54.5,541C 73.2456,535.667 77.7456,524.5 68,507.5C 59.3805,495.879 50.3805,484.545 41,473.5C 31.6646,460.827 24.9979,446.827 21,431.5C 17.7412,414.978 20.0745,399.311 28,384.5C 31.002,380.332 34.502,376.665 38.5,373.5 Z"/></g>
<g><path style="opacity:0.993" fill="#fdba45" d="M 1293.5,510.5 C 1287.58,541.089 1281.92,571.756 1276.5,602.5C 1267.76,643.234 1259.76,684.234 1252.5,725.5C 1246.9,712.624 1241.56,699.624 1236.5,686.5C 1236.5,685.5 1236.5,684.5 1236.5,683.5C 1242.5,651.49 1248.5,619.49 1254.5,587.5C 1258.45,564.426 1262.78,541.426 1267.5,518.5C 1264.61,516.555 1261.61,514.889 1258.5,513.5C 1183.88,474.186 1108.88,435.352 1033.5,397C 1027.21,391.026 1026.88,384.693 1032.5,378C 1038.58,374.668 1044.58,375.002 1050.5,379C 1128.71,419.604 1207.04,459.937 1285.5,500C 1289.96,502.271 1292.62,505.771 1293.5,510.5 Z"/></g>
<g><path style="opacity:1" fill="#033772" d="M 335.5,376.5 C 346.271,379.063 354.938,384.896 361.5,394C 367.837,393.751 372.67,396.251 376,401.5C 377.551,408.418 377.884,415.418 377,422.5C 375.202,431.059 372.702,439.393 369.5,447.5C 363.975,444.104 359.475,445.104 356,450.5C 355,453.167 354,455.833 353,458.5C 343.448,447.679 338.948,435.012 339.5,420.5C 323.819,424.926 307.819,426.592 291.5,425.5C 286.146,425.431 280.813,425.098 275.5,424.5C 272.587,423.759 269.587,423.259 266.5,423C 268.833,421.5 271.167,420 273.5,418.5C 271.527,417.669 269.527,417.502 267.5,418C 269.373,416.296 271.04,414.463 272.5,412.5C 280.174,404.826 287.507,396.826 294.5,388.5C 306.212,377.955 319.879,373.955 335.5,376.5 Z"/></g>
<g><path style="opacity:0.993" fill="#fe9930" d="M 270.5,405.5 C 271.167,405.5 271.5,405.833 271.5,406.5C 272.341,408.379 272.675,410.379 272.5,412.5C 271.04,414.463 269.373,416.296 267.5,418C 269.527,417.502 271.527,417.669 273.5,418.5C 271.167,420 268.833,421.5 266.5,423C 269.587,423.259 272.587,423.759 275.5,424.5C 280.601,451.67 285.934,478.67 291.5,505.5C 281.788,523.922 272.288,542.588 263,561.5C 258.77,543.853 254.604,526.186 250.5,508.5C 248.713,500.903 247.046,493.236 245.5,485.5C 246.981,481.583 247.815,477.583 248,473.5C 246.595,477.217 245.095,480.883 243.5,484.5C 242.15,483.05 240.484,482.383 238.5,482.5C 238.833,480.5 239.167,478.5 239.5,476.5C 249.043,472.808 251.043,466.641 245.5,458C 228.277,451.101 211.277,443.934 194.5,436.5C 197.562,428.151 200.728,419.818 204,411.5C 209.458,402.682 217.292,397.182 227.5,395C 243.526,392.09 257.86,395.59 270.5,405.5 Z"/></g>
<g><path style="opacity:1" fill="#fdb64b" d="M 470.5,383.5 C 470.5,390.5 470.5,397.5 470.5,404.5C 468.5,408.5 466.5,412.5 464.5,416.5C 466.012,405.284 468.012,394.284 470.5,383.5 Z"/></g>
<g><path style="opacity:1" fill="#e0422d" d="M 470.5,404.5 C 476.506,405.835 482.506,407.168 488.5,408.5C 480.301,436.431 472.301,464.431 464.5,492.5C 462.93,499.804 459.597,506.304 454.5,512C 449.523,514.483 444.523,516.65 439.5,518.5C 421.148,524.673 402.982,531.339 385,538.5C 378.36,581.145 371.86,623.812 365.5,666.5C 335.5,666.5 305.5,666.5 275.5,666.5C 277.259,639.469 279.092,612.469 281,585.5C 276.235,590.772 271.069,595.439 265.5,599.5C 252.873,603.061 245.04,598.394 242,585.5C 239.465,565.311 236.632,545.311 233.5,525.5C 233.658,522.098 233.324,518.764 232.5,515.5C 232.5,514.167 232.5,512.833 232.5,511.5C 238.538,510.685 244.538,509.685 250.5,508.5C 254.604,526.186 258.77,543.853 263,561.5C 272.288,542.588 281.788,523.922 291.5,505.5C 293.612,504.56 295.612,503.394 297.5,502C 303.491,501.501 309.491,501.334 315.5,501.5C 316.833,501.5 318.167,501.5 319.5,501.5C 319.986,514.832 326.653,519.998 339.5,517C 345.466,513.569 348.133,508.402 347.5,501.5C 351.5,501.5 355.5,501.5 359.5,501.5C 381.991,499.287 404.324,495.954 426.5,491.5C 429.009,490.887 431.509,490.22 434,489.5C 444.469,465.252 454.635,440.919 464.5,416.5C 466.5,412.5 468.5,408.5 470.5,404.5 Z"/></g>
<g><path style="opacity:1" fill="#fea195" d="M 662.5,377.5 C 677.415,419.075 692.248,460.742 707,502.5C 730.408,474.602 753.575,446.602 776.5,418.5C 777.492,418.328 778.158,418.662 778.5,419.5C 755.843,451.471 733.176,483.471 710.5,515.5C 729.632,568.756 748.465,622.089 767,675.5C 779.331,665.001 791.164,654.001 802.5,642.5C 805.447,643.781 807.781,645.781 809.5,648.5C 796.506,660.661 784.006,673.328 772,686.5C 771.517,687.448 771.351,688.448 771.5,689.5C 763.653,686.406 755.986,683.072 748.5,679.5C 749.833,679.5 751.167,679.5 752.5,679.5C 737.249,625.245 721.082,571.245 704,517.5C 659.602,502.145 615.102,486.978 570.5,472C 613.785,482.536 656.952,493.703 700,505.5C 688.042,462.78 675.542,420.113 662.5,377.5 Z"/></g>
<g><path style="opacity:0.992" fill="#77cbfd" d="M 1689.5,408.5 C 1698.11,417.045 1703.61,427.378 1706,439.5C 1709.78,463.393 1705.44,485.726 1693,506.5C 1688.25,513.676 1683.25,520.676 1678,527.5C 1660.67,544.833 1643.33,562.167 1626,579.5C 1611.79,601.605 1617.29,616.772 1642.5,625C 1653.32,626.696 1663.98,629.03 1674.5,632C 1690.81,639.665 1700.31,652.498 1703,670.5C 1706.57,695.141 1699.4,715.974 1681.5,733C 1664.06,748.053 1644.06,758.386 1621.5,764C 1600.97,768.973 1580.3,773.306 1559.5,777C 1546.78,779.742 1534.44,783.575 1522.5,788.5C 1535.74,757.099 1549.74,726.099 1564.5,695.5C 1565.33,696.748 1566.67,697.415 1568.5,697.5C 1580.81,699.553 1593.14,701.053 1605.5,702C 1591.91,699.017 1578.24,696.517 1564.5,694.5C 1569.54,684.426 1574.04,674.093 1578,663.5C 1579.67,645.684 1572.17,633.684 1555.5,627.5C 1568.94,607.716 1572.11,586.383 1565,563.5C 1562.44,557.778 1559.27,552.445 1555.5,547.5C 1556.41,545.405 1557.58,543.405 1559,541.5C 1602.73,497.272 1646.23,452.938 1689.5,408.5 Z"/></g>
<g><path style="opacity:1" fill="#a33021" d="M 141.5,416.5 C 143.527,416.338 145.527,416.505 147.5,417C 148.056,417.383 148.389,417.883 148.5,418.5C 152.255,423.921 154.755,429.921 156,436.5C 159.567,457.562 159.233,478.562 155,499.5C 153.152,503.859 151.318,508.192 149.5,512.5C 148.128,513.512 146.795,514.512 145.5,515.5C 144.833,515.5 144.167,515.5 143.5,515.5C 141.265,514.772 139.432,513.439 138,511.5C 135.474,507.086 133.641,502.42 132.5,497.5C 129.65,480.969 128.817,464.303 130,447.5C 130.411,435.754 134.244,425.421 141.5,416.5 Z"/></g>
<g><path style="opacity:0.995" fill="#df422d" d="M 148.5,418.5 C 163.9,424.301 179.234,430.301 194.5,436.5C 211.277,443.934 228.277,451.101 245.5,458C 251.043,466.641 249.043,472.808 239.5,476.5C 234.383,478.226 229.383,480.226 224.5,482.5C 220.646,483.93 216.979,485.597 213.5,487.5C 192.177,495.827 170.844,504.16 149.5,512.5C 151.318,508.192 153.152,503.859 155,499.5C 159.233,478.562 159.567,457.562 156,436.5C 154.755,429.921 152.255,423.921 148.5,418.5 Z"/></g>
<g><path style="opacity:1" fill="#df422d" d="M 778.5,419.5 C 789.3,423.735 799.634,428.735 809.5,434.5C 806.503,450.469 803.503,466.469 800.5,482.5C 792.9,521.934 785.566,561.434 778.5,601C 779.394,609.015 781.894,616.515 786,623.5C 790.963,630.296 796.463,636.63 802.5,642.5C 791.164,654.001 779.331,665.001 767,675.5C 748.465,622.089 729.632,568.756 710.5,515.5C 733.176,483.471 755.843,451.471 778.5,419.5 Z"/></g>
<g><path style="opacity:1" fill="#f5c59e" d="M 369.5,447.5 C 371.241,454.849 368.575,460.016 361.5,463C 356.674,462.643 354.007,464.809 353.5,469.5C 351.336,471.822 349.669,474.489 348.5,477.5C 340.824,485.337 331.491,489.337 320.5,489.5C 318.167,489.5 315.833,489.5 313.5,489.5C 305.768,485.582 301.268,479.248 300,470.5C 299.667,463.5 299.333,456.5 299,449.5C 295.259,441.866 292.759,433.866 291.5,425.5C 307.819,426.592 323.819,424.926 339.5,420.5C 338.948,435.012 343.448,447.679 353,458.5C 354,455.833 355,453.167 356,450.5C 359.475,445.104 363.975,444.104 369.5,447.5 Z"/></g>
<g><path style="opacity:1" fill="#acdefa" d="M 275.5,424.5 C 280.813,425.098 286.146,425.431 291.5,425.5C 292.759,433.866 295.259,441.866 299,449.5C 299.333,456.5 299.667,463.5 300,470.5C 301.268,479.248 305.768,485.582 313.5,489.5C 314.552,493.426 315.218,497.426 315.5,501.5C 309.491,501.334 303.491,501.501 297.5,502C 295.612,503.394 293.612,504.56 291.5,505.5C 285.934,478.67 280.601,451.67 275.5,424.5 Z"/></g>
<g><path style="opacity:1" fill="#1c4175" d="M 295.5,432.5 C 304.517,432.773 304.684,433.773 296,435.5C 294.272,434.648 294.105,433.648 295.5,432.5 Z"/></g>
<g><path style="opacity:1" fill="#234376" d="M 316.5,432.5 C 319.85,432.335 323.183,432.502 326.5,433C 329.53,433.897 330.364,435.397 329,437.5C 324.677,435.713 320.511,434.047 316.5,432.5 Z"/></g>
<g><path style="opacity:1" fill="#002854" d="M 809.5,434.5 C 869.763,462.317 929.763,490.817 989.5,520C 1001.86,525.904 1014.86,529.07 1028.5,529.5C 1098.5,524.5 1168.5,519.5 1238.5,514.5C 1235.61,530.187 1232.61,545.854 1229.5,561.5C 1222.9,596.312 1216.24,631.145 1209.5,666C 1209.39,667.681 1208.73,668.848 1207.5,669.5C 1164.9,652.127 1120.57,644.794 1074.5,647.5C 1078.97,646.514 1083.64,646.181 1088.5,646.5C 1092.43,623.508 1083.43,608.341 1061.5,601C 1000.16,595.582 941.16,580.915 884.5,557C 861.649,546.462 840.649,533.129 821.5,517C 811.516,507.177 804.516,495.677 800.5,482.5C 803.503,466.469 806.503,450.469 809.5,434.5 Z"/></g>
<g><path style="opacity:1" fill="#2f4677" d="M 302.5,447.5 C 305.956,448.536 306.29,450.203 303.5,452.5C 301.296,451.218 300.962,449.551 302.5,447.5 Z"/></g>
<g><path style="opacity:1" fill="#364d79" d="M 327.5,453.5 C 327.167,453.5 326.833,453.5 326.5,453.5C 324.748,453.582 323.748,452.749 323.5,451C 325.167,447.667 326.833,447.667 328.5,451C 328.257,451.902 327.923,452.735 327.5,453.5 Z"/></g>
<g><path style="opacity:1" fill="#df6e60" d="M 310.5,451.5 C 311.496,451.414 312.329,451.748 313,452.5C 314.826,460.069 311.992,463.902 304.5,464C 303.483,462.951 303.316,461.784 304,460.5C 308.566,459.303 310.732,456.303 310.5,451.5 Z"/></g>
<g><path style="opacity:1" fill="#e07262" d="M 326.5,453.5 C 326.833,453.5 327.167,453.5 327.5,453.5C 329.225,453.843 329.725,454.843 329,456.5C 327.989,457.337 326.822,457.67 325.5,457.5C 325.433,456.041 325.766,454.708 326.5,453.5 Z"/></g>
<g><path style="opacity:1" fill="#fefdfc" d="M 325.5,461.5 C 329.016,468.765 326.516,472.765 318,473.5C 315.648,473.695 313.648,473.028 312,471.5C 311.383,470.551 311.549,469.718 312.5,469C 317.815,468.015 322.148,465.515 325.5,461.5 Z"/></g>
<g><path style="opacity:1" fill="#fdfdfd" d="M 353.5,469.5 C 355.499,479.827 357.499,490.16 359.5,500.5C 355.5,500.5 351.5,500.5 347.5,500.5C 347.324,495.12 347.658,489.787 348.5,484.5C 348.5,482.167 348.5,479.833 348.5,477.5C 349.669,474.489 351.336,471.822 353.5,469.5 Z"/></g>
<g><path style="opacity:1" fill="#a53221" d="M 239.5,476.5 C 239.167,478.5 238.833,480.5 238.5,482.5C 237.596,483.209 237.263,484.209 237.5,485.5C 233.167,485.5 228.833,485.5 224.5,485.5C 224.5,484.5 224.5,483.5 224.5,482.5C 229.383,480.226 234.383,478.226 239.5,476.5 Z"/></g>
<g><path style="opacity:1" fill="#daa376" d="M 348.5,477.5 C 348.5,479.833 348.5,482.167 348.5,484.5C 340.681,492.076 331.348,496.409 320.5,497.5C 320.5,494.833 320.5,492.167 320.5,489.5C 331.491,489.337 340.824,485.337 348.5,477.5 Z"/></g>
<g><path style="opacity:1" fill="#f7c49b" d="M 250.5,508.5 C 244.538,509.685 238.538,510.685 232.5,511.5C 231.833,511.5 231.167,511.5 230.5,511.5C 231.704,506.821 233.038,502.155 234.5,497.5C 232.807,495.973 230.973,494.64 229,493.5C 227.395,496.648 226.395,499.981 226,503.5C 223.595,504.274 221.095,504.774 218.5,505C 217.748,505.671 217.414,506.504 217.5,507.5C 215.887,507.056 214.72,506.056 214,504.5C 213.501,498.843 213.334,493.176 213.5,487.5C 216.979,485.597 220.646,483.93 224.5,482.5C 224.5,483.5 224.5,484.5 224.5,485.5C 228.833,485.5 233.167,485.5 237.5,485.5C 237.263,484.209 237.596,483.209 238.5,482.5C 240.484,482.383 242.15,483.05 243.5,484.5C 245.095,480.883 246.595,477.217 248,473.5C 247.815,477.583 246.981,481.583 245.5,485.5C 247.046,493.236 248.713,500.903 250.5,508.5 Z"/></g>
<g><path style="opacity:1" fill="#013671" d="M 800.5,482.5 C 804.516,495.677 811.516,507.177 821.5,517C 840.649,533.129 861.649,546.462 884.5,557C 941.16,580.915 1000.16,595.582 1061.5,601C 1083.43,608.341 1092.43,623.508 1088.5,646.5C 1083.64,646.181 1078.97,646.514 1074.5,647.5C 1031.97,649.754 990.638,657.921 950.5,672C 932.356,678.909 914.356,686.076 896.5,693.5C 889.146,689.933 881.479,686.933 873.5,684.5C 850.943,674.558 829.61,662.558 809.5,648.5C 807.781,645.781 805.447,643.781 802.5,642.5C 796.463,636.63 790.963,630.296 786,623.5C 781.894,616.515 779.394,609.015 778.5,601C 785.566,561.434 792.9,521.934 800.5,482.5 Z"/></g>
<g><path style="opacity:1" fill="#f7c49d" d="M 348.5,484.5 C 347.658,489.787 347.324,495.12 347.5,500.5C 351.5,500.5 355.5,500.5 359.5,500.5C 359.5,500.833 359.5,501.167 359.5,501.5C 355.5,501.5 351.5,501.5 347.5,501.5C 348.133,508.402 345.466,513.569 339.5,517C 326.653,519.998 319.986,514.832 319.5,501.5C 320.234,500.292 320.567,498.959 320.5,497.5C 331.348,496.409 340.681,492.076 348.5,484.5 Z"/></g>
<g><path style="opacity:1" fill="#fe9a30" d="M 213.5,487.5 C 213.334,493.176 213.501,498.843 214,504.5C 214.72,506.056 215.887,507.056 217.5,507.5C 216.197,510.376 215.697,513.376 216,516.5C 220.021,518.34 224.188,519.674 228.5,520.5C 228.7,517.37 229.366,514.37 230.5,511.5C 231.167,511.5 231.833,511.5 232.5,511.5C 232.5,512.833 232.5,514.167 232.5,515.5C 223.114,540.151 213.614,564.818 204,589.5C 184.24,564.946 164.74,540.279 145.5,515.5C 146.795,514.512 148.128,513.512 149.5,512.5C 170.844,504.16 192.177,495.827 213.5,487.5 Z"/></g>
<g><path style="opacity:1" fill="#fdf8f5" d="M 313.5,489.5 C 315.833,489.5 318.167,489.5 320.5,489.5C 320.5,492.167 320.5,494.833 320.5,497.5C 320.567,498.959 320.234,500.292 319.5,501.5C 318.167,501.5 316.833,501.5 315.5,501.5C 315.218,497.426 314.552,493.426 313.5,489.5 Z"/></g>
<g><path style="opacity:1" fill="#a73624" d="M 230.5,511.5 C 229.366,514.37 228.7,517.37 228.5,520.5C 224.188,519.674 220.021,518.34 216,516.5C 215.697,513.376 216.197,510.376 217.5,507.5C 217.414,506.504 217.748,505.671 218.5,505C 221.095,504.774 223.595,504.274 226,503.5C 226.395,499.981 227.395,496.648 229,493.5C 230.973,494.64 232.807,495.973 234.5,497.5C 233.038,502.155 231.704,506.821 230.5,511.5 Z"/></g>
<g><path style="opacity:1" fill="#fe9a32" d="M 464.5,492.5 C 466.421,511.932 470.421,530.932 476.5,549.5C 465.407,540.579 454.74,531.079 444.5,521C 442.922,519.906 441.255,519.072 439.5,518.5C 444.523,516.65 449.523,514.483 454.5,512C 459.597,506.304 462.93,499.804 464.5,492.5 Z"/></g>
<g><path style="opacity:0.998" fill="#aadffd" d="M 1689.5,408.5 C 1646.23,452.938 1602.73,497.272 1559,541.5C 1557.58,543.405 1556.41,545.405 1555.5,547.5C 1537.14,527.109 1514.48,520.276 1487.5,527C 1464.56,536.112 1449.89,552.612 1443.5,576.5C 1438.12,586.958 1433.12,597.625 1428.5,608.5C 1427.5,610.5 1426.5,612.5 1425.5,614.5C 1424.88,614.389 1424.38,614.056 1424,613.5C 1415.77,577.133 1407.44,540.799 1399,504.5C 1398.33,506.833 1398.33,509.167 1399,511.5C 1405.66,551.436 1411.83,591.436 1417.5,631.5C 1404.36,660.923 1391.03,690.256 1377.5,719.5C 1376.76,719.369 1376.09,719.536 1375.5,720C 1346.63,748.37 1317.63,776.536 1288.5,804.5C 1288.83,790.323 1288.5,776.323 1287.5,762.5C 1283.66,744.656 1272.66,734.989 1254.5,733.5C 1253.23,731.007 1252.56,728.341 1252.5,725.5C 1259.76,684.234 1267.76,643.234 1276.5,602.5C 1291.15,606.26 1302.32,601.593 1310,588.5C 1313.99,580.877 1316.99,572.877 1319,564.5C 1323.29,545.551 1327.12,526.551 1330.5,507.5C 1367.5,504.843 1404.5,502.009 1441.5,499C 1446.48,498.338 1450.82,496.338 1454.5,493C 1465.78,479.039 1465.12,465.706 1452.5,453C 1444.84,449.169 1437.17,445.336 1429.5,441.5C 1438.79,432.208 1446.12,421.541 1451.5,409.5C 1457.53,414.042 1462.37,419.709 1466,426.5C 1469.3,437.336 1471.97,448.336 1474,459.5C 1483.94,485.92 1500.1,490.42 1522.5,473C 1536.8,457.032 1551.47,441.365 1566.5,426C 1578.47,415.042 1591.8,406.042 1606.5,399C 1629.41,389.504 1652.41,389.17 1675.5,398C 1680.92,400.594 1685.58,404.094 1689.5,408.5 Z"/></g>
<g><path style="opacity:1" fill="#d5f0fd" d="M 1425.5,614.5 C 1423.07,620.352 1420.41,626.019 1417.5,631.5C 1411.83,591.436 1405.66,551.436 1399,511.5C 1398.33,509.167 1398.33,506.833 1399,504.5C 1407.44,540.799 1415.77,577.133 1424,613.5C 1424.38,614.056 1424.88,614.389 1425.5,614.5 Z"/></g>
<g><path style="opacity:1" fill="#ffdfa9" d="M 143.5,515.5 C 144.167,515.5 144.833,515.5 145.5,515.5C 164.74,540.279 184.24,564.946 204,589.5C 213.614,564.818 223.114,540.151 232.5,515.5C 233.324,518.764 233.658,522.098 233.5,525.5C 226.035,549.669 218.702,574.003 211.5,598.5C 221.774,612.616 232.274,626.616 243,640.5C 243.671,641.252 244.504,641.586 245.5,641.5C 243.55,644.406 241.883,647.406 240.5,650.5C 229.066,635.156 217.732,619.656 206.5,604C 163.833,603.667 121.167,603.333 78.5,603C 118.849,599.965 159.182,596.798 199.5,593.5C 180.421,567.761 161.754,541.761 143.5,515.5 Z"/></g>
<g><path style="opacity:0.999" fill="#aadffd" d="M 439.5,518.5 C 441.255,519.072 442.922,519.906 444.5,521C 454.74,531.079 465.407,540.579 476.5,549.5C 495.51,567.175 514.843,584.509 534.5,601.5C 540.155,605.823 545.488,610.49 550.5,615.5C 562.167,626.167 573.833,636.833 585.5,647.5C 537.172,647.22 491.505,658.053 448.5,680C 445.734,681.371 443.401,683.204 441.5,685.5C 439.695,690.916 437.695,696.249 435.5,701.5C 413.484,703.769 391.484,703.769 369.5,701.5C 368.286,689.805 366.952,678.138 365.5,666.5C 371.86,623.812 378.36,581.145 385,538.5C 402.982,531.339 421.148,524.673 439.5,518.5 Z"/></g>
<g><path style="opacity:1" fill="#feba45" d="M 1555.5,547.5 C 1559.27,552.445 1562.44,557.778 1565,563.5C 1572.11,586.383 1568.94,607.716 1555.5,627.5C 1533.42,618.257 1511.75,608.257 1490.5,597.5C 1495.16,588.694 1498.82,579.527 1501.5,570C 1500.41,562.91 1496.41,558.243 1489.5,556C 1483.41,553.528 1477.74,554.195 1472.5,558C 1468.01,566.483 1463.68,574.983 1459.5,583.5C 1453.9,581.697 1448.56,579.364 1443.5,576.5C 1449.89,552.612 1464.56,536.112 1487.5,527C 1514.48,520.276 1537.14,527.109 1555.5,547.5 Z"/></g>
<g><path style="opacity:1" fill="#fe9a31" d="M 233.5,525.5 C 236.632,545.311 239.465,565.311 242,585.5C 245.04,598.394 252.873,603.061 265.5,599.5C 258.836,613.495 252.169,627.495 245.5,641.5C 244.504,641.586 243.671,641.252 243,640.5C 232.274,626.616 221.774,612.616 211.5,598.5C 218.702,574.003 226.035,549.669 233.5,525.5 Z"/></g>
<g><path style="opacity:1" fill="#fedf86" d="M 1490.5,597.5 C 1479.75,593.624 1469.42,588.957 1459.5,583.5C 1463.68,574.983 1468.01,566.483 1472.5,558C 1477.74,554.195 1483.41,553.528 1489.5,556C 1496.41,558.243 1500.41,562.91 1501.5,570C 1498.82,579.527 1495.16,588.694 1490.5,597.5 Z"/></g>
<g><path style="opacity:0.992" fill="#aadffc" d="M 1229.5,561.5 C 1237.83,570.167 1246.17,578.833 1254.5,587.5C 1248.5,619.49 1242.5,651.49 1236.5,683.5C 1236.17,683.5 1235.83,683.5 1235.5,683.5C 1226.38,678.273 1217.05,673.607 1207.5,669.5C 1208.73,668.848 1209.39,667.681 1209.5,666C 1216.24,631.145 1222.9,596.312 1229.5,561.5 Z"/></g>
<g><path style="opacity:1" fill="#053672" d="M 1443.5,576.5 C 1448.56,579.364 1453.9,581.697 1459.5,583.5C 1469.42,588.957 1479.75,593.624 1490.5,597.5C 1511.75,608.257 1533.42,618.257 1555.5,627.5C 1572.17,633.684 1579.67,645.684 1578,663.5C 1574.04,674.093 1569.54,684.426 1564.5,694.5C 1564.5,694.833 1564.5,695.167 1564.5,695.5C 1549.74,726.099 1535.74,757.099 1522.5,788.5C 1522.5,788.833 1522.5,789.167 1522.5,789.5C 1507.94,819.132 1493.94,849.132 1480.5,879.5C 1470.01,902.474 1459.51,925.474 1449,948.5C 1443.29,954.715 1437.29,955.048 1431,949.5C 1429.6,947.361 1428.76,945.028 1428.5,942.5C 1436.21,924.079 1444.21,905.746 1452.5,887.5C 1467.2,856.413 1481.54,825.08 1495.5,793.5C 1511.35,760.47 1526.68,727.137 1541.5,693.5C 1542.44,691.95 1543.11,690.284 1543.5,688.5C 1547.19,681.604 1550.53,674.438 1553.5,667C 1553.36,666.228 1553.02,665.561 1552.5,665C 1548.93,663.201 1545.26,661.701 1541.5,660.5C 1519.81,649.989 1497.81,639.989 1475.5,630.5C 1465.35,625.261 1455.02,620.261 1444.5,615.5C 1439.16,613.164 1433.83,610.831 1428.5,608.5C 1433.12,597.625 1438.12,586.958 1443.5,576.5 Z"/></g>
<g><path style="opacity:1" fill="#aadffc" d="M 275.5,666.5 C 275.5,676.5 275.5,686.5 275.5,696.5C 273.265,696.205 271.265,696.539 269.5,697.5C 264.662,697.385 260.162,698.385 256,700.5C 237.939,738.289 219.606,775.956 201,813.5C 195.612,832.227 201.779,845.727 219.5,854C 224.762,855.439 230.096,855.772 235.5,855C 248.424,852.048 261.424,849.548 274.5,847.5C 274.833,847.5 275.167,847.5 275.5,847.5C 275.5,859.5 275.5,871.5 275.5,883.5C 275.167,883.5 274.833,883.5 274.5,883.5C 262.188,886.062 249.855,888.562 237.5,891C 217.432,892.808 199.765,887.308 184.5,874.5C 170.718,861.176 163.718,844.843 163.5,825.5C 162.763,816.449 164.263,807.782 168,799.5C 174.468,786.898 180.635,774.232 186.5,761.5C 187.345,760.329 188.011,758.995 188.5,757.5C 206.119,721.929 223.452,686.263 240.5,650.5C 241.883,647.406 243.55,644.406 245.5,641.5C 252.169,627.495 258.836,613.495 265.5,599.5C 271.069,595.439 276.235,590.772 281,585.5C 279.092,612.469 277.259,639.469 275.5,666.5 Z"/></g>
<g><path style="opacity:1" fill="#febb45" d="M 1428.5,608.5 C 1433.83,610.831 1439.16,613.164 1444.5,615.5C 1413.23,686.038 1381.4,756.372 1349,826.5C 1346.95,839.702 1352.61,847.036 1366,848.5C 1370.74,848.488 1374.74,846.822 1378,843.5C 1410.53,772.443 1443.03,701.443 1475.5,630.5C 1497.81,639.989 1519.81,649.989 1541.5,660.5C 1537.25,668.591 1533.58,676.925 1530.5,685.5C 1528.81,687.535 1527.47,689.868 1526.5,692.5C 1510.45,726.994 1494.78,761.66 1479.5,796.5C 1464.64,827.56 1450.3,858.893 1436.5,890.5C 1433.86,895.773 1431.2,901.106 1428.5,906.5C 1425.6,904.88 1422.6,903.547 1419.5,902.5C 1388.34,887.78 1357.01,873.447 1325.5,859.5C 1322.69,857.93 1319.69,856.597 1316.5,855.5C 1317.63,851.438 1318.97,847.438 1320.5,843.5C 1335.34,812.474 1349.68,781.141 1363.5,749.5C 1368.68,739.805 1373.35,729.805 1377.5,719.5C 1391.03,690.256 1404.36,660.923 1417.5,631.5C 1420.41,626.019 1423.07,620.352 1425.5,614.5C 1426.5,612.5 1427.5,610.5 1428.5,608.5 Z"/></g>
<g><path style="opacity:1" fill="#fee086" d="M 1444.5,615.5 C 1455.02,620.261 1465.35,625.261 1475.5,630.5C 1443.03,701.443 1410.53,772.443 1378,843.5C 1374.74,846.822 1370.74,848.488 1366,848.5C 1352.61,847.036 1346.95,839.702 1349,826.5C 1381.4,756.372 1413.23,686.038 1444.5,615.5 Z"/></g>
<g><path style="opacity:1" fill="#feeccb" d="M 585.5,647.5 C 595.839,647.334 606.172,647.5 616.5,648C 661.955,652.531 705.955,663.031 748.5,679.5C 755.986,683.072 763.653,686.406 771.5,689.5C 790.514,698.34 809.181,707.674 827.5,717.5C 831.154,720.304 834.987,722.97 839,725.5C 857.503,713.664 876.67,702.998 896.5,693.5C 914.356,686.076 932.356,678.909 950.5,672C 990.638,657.921 1031.97,649.754 1074.5,647.5C 1120.57,644.794 1164.9,652.127 1207.5,669.5C 1217.05,673.607 1226.38,678.273 1235.5,683.5C 1235.83,836.334 1235.5,989.001 1234.5,1141.5C 1196.51,1129.45 1157.51,1123.78 1117.5,1124.5C 1043.91,1125.52 972.581,1138.68 903.5,1164C 887.327,1169.93 871.327,1176.09 855.5,1182.5C 855.5,1176.5 855.5,1170.5 855.5,1164.5C 868.598,1157.78 881.265,1150.28 893.5,1142C 900.429,1137.07 906.762,1131.41 912.5,1125C 906.509,1124.5 900.509,1124.33 894.5,1124.5C 891.167,1124.5 887.833,1124.5 884.5,1124.5C 909.663,1123.67 934.997,1123.17 960.5,1123C 966.284,1109.79 971.951,1096.62 977.5,1083.5C 1047.2,1063.33 1117.2,1062.33 1187.5,1080.5C 1192.67,1079.64 1193.67,1077.14 1190.5,1073C 1121.44,1054.87 1052.44,1055.04 983.5,1073.5C 982.584,1073.46 981.917,1073.12 981.5,1072.5C 982.197,1069.58 983.197,1066.74 984.5,1064C 984.361,1062.7 983.695,1061.87 982.5,1061.5C 961.833,1060.83 941.167,1060.17 920.5,1059.5C 1007.64,1019.91 1097.64,1011.74 1190.5,1035C 1193.17,1032.67 1193.17,1030.33 1190.5,1028C 1100.99,1004.63 1013.66,1010.96 928.5,1047C 918.494,1051.34 908.827,1056.17 899.5,1061.5C 897.973,1061.43 896.973,1062.09 896.5,1063.5C 889.811,1066.26 883.644,1069.93 878,1074.5C 876.928,1077.55 877.928,1079.55 881,1080.5C 884.815,1079.26 888.148,1077.26 891,1074.5C 891.399,1074.73 891.565,1075.06 891.5,1075.5C 887.832,1084.84 884.165,1094.17 880.5,1103.5C 875.599,1101.1 870.599,1100.93 865.5,1103C 860.67,1106.01 856.336,1109.51 852.5,1113.5C 848.5,1008.17 844.5,902.833 840.5,797.5C 840.662,791.445 840.162,785.445 839,779.5C 838.167,891.001 838.334,1002.33 839.5,1113.5C 839.5,1113.83 839.5,1114.17 839.5,1114.5C 832.003,1113.8 830.003,1116.64 833.5,1123C 835.473,1123.5 837.473,1123.66 839.5,1123.5C 839.092,1127.92 836.759,1130.92 832.5,1132.5C 825.138,1120.3 815.805,1109.8 804.5,1101C 800.137,1098.32 795.471,1096.48 790.5,1095.5C 789.032,1094.22 788.365,1092.55 788.5,1090.5C 789.404,1089.79 789.737,1088.79 789.5,1087.5C 800.535,1089.4 808.368,1085.4 813,1075.5C 813.941,1072.85 814.774,1070.18 815.5,1067.5C 816.779,1069.12 818.113,1070.79 819.5,1072.5C 820.251,1071.62 820.751,1070.62 821,1069.5C 822.228,1060.89 821.395,1052.56 818.5,1044.5C 819.809,1040.6 820.809,1036.6 821.5,1032.5C 825.986,1029.82 828.82,1025.82 830,1020.5C 831.95,1006.2 825.784,998.705 811.5,998C 795.603,988.2 779.603,988.033 763.5,997.5C 762.167,997.5 760.833,997.5 759.5,997.5C 751.49,989.83 742.49,988.497 732.5,993.5C 705.963,983.532 678.63,976.365 650.5,972C 647.118,971.176 643.784,971.343 640.5,972.5C 639.04,975.288 639.707,977.455 642.5,979C 671.275,982.694 699.275,989.527 726.5,999.5C 722.412,1007.13 721.578,1015.13 724,1023.5C 725.907,1028.31 728.074,1032.98 730.5,1037.5C 706.353,1029.13 681.686,1022.63 656.5,1018C 650.529,1016.87 644.529,1016.54 638.5,1017C 637.018,1019.59 637.352,1021.93 639.5,1024C 655.938,1026.49 672.271,1029.49 688.5,1033C 703.955,1037.54 719.288,1042.37 734.5,1047.5C 735.041,1050.65 734.041,1053.15 731.5,1055C 727.092,1056.43 722.759,1056.93 718.5,1056.5C 721.87,1062.02 726.87,1064.69 733.5,1064.5C 740.166,1066.56 746.166,1065.22 751.5,1060.5C 753.579,1060.97 755.579,1061.64 757.5,1062.5C 760.908,1065.9 763.908,1069.57 766.5,1073.5C 767.043,1076.22 767.709,1078.89 768.5,1081.5C 768.5,1084.83 768.5,1088.17 768.5,1091.5C 766.901,1091.23 765.568,1091.57 764.5,1092.5C 761.615,1092.19 758.948,1092.53 756.5,1093.5C 725.552,1080.35 693.552,1070.52 660.5,1064C 653.197,1062.67 645.863,1062 638.5,1062C 637.018,1064.59 637.352,1066.93 639.5,1069C 677.63,1074.06 714.296,1084.22 749.5,1099.5C 747.247,1103.17 745.914,1107.17 745.5,1111.5C 744.379,1113.95 743.546,1116.62 743,1119.5C 741.093,1131.93 739.593,1144.27 738.5,1156.5C 738.762,1155.02 738.429,1153.69 737.5,1152.5C 665.262,1129.05 591.262,1120.39 515.5,1126.5C 515.235,1108.11 512.569,1090.11 507.5,1072.5C 507.918,1071.78 508.584,1071.28 509.5,1071C 546.006,1066.1 582.672,1064.27 619.5,1065.5C 619.5,1014.83 619.5,964.167 619.5,913.5C 575.842,911.798 532.842,915.798 490.5,925.5C 489.833,960.833 489.167,996.167 488.5,1031.5C 476.311,1011.98 460.978,995.31 442.5,981.5C 442.833,882.665 442.499,783.999 441.5,685.5C 443.401,683.204 445.734,681.371 448.5,680C 491.505,658.053 537.172,647.22 585.5,647.5 Z M 873.5,684.5 C 881.479,686.933 889.146,689.933 896.5,693.5C 876.67,702.998 857.503,713.664 839,725.5C 834.987,722.97 831.154,720.304 827.5,717.5C 843.891,707.971 859.225,696.971 873.5,684.5 Z"/></g>
<g><path style="opacity:0.992" fill="#df422d" d="M 809.5,648.5 C 829.61,662.558 850.943,674.558 873.5,684.5C 859.225,696.971 843.891,707.971 827.5,717.5C 809.181,707.674 790.514,698.34 771.5,689.5C 771.351,688.448 771.517,687.448 772,686.5C 784.006,673.328 796.506,660.661 809.5,648.5 Z"/></g>
<g><path style="opacity:1" fill="#77cafa" d="M 1541.5,660.5 C 1545.26,661.701 1548.93,663.201 1552.5,665C 1553.02,665.561 1553.36,666.228 1553.5,667C 1550.53,674.438 1547.19,681.604 1543.5,688.5C 1538.81,688.575 1534.47,687.575 1530.5,685.5C 1533.58,676.925 1537.25,668.591 1541.5,660.5 Z"/></g>
<g><path style="opacity:1" fill="#023671" d="M 275.5,666.5 C 305.5,666.5 335.5,666.5 365.5,666.5C 366.952,678.138 368.286,689.805 369.5,701.5C 373.954,742.992 378.62,784.325 383.5,825.5C 384.063,837.727 385.397,849.727 387.5,861.5C 387.298,863.95 387.631,866.283 388.5,868.5C 388.548,875.197 389.048,881.864 390,888.5C 390.5,882.175 390.666,875.842 390.5,869.5C 390.5,866.833 390.5,864.167 390.5,861.5C 390.5,849.167 390.5,836.833 390.5,824.5C 390.333,803.164 390.5,781.831 391,760.5C 394.436,746.796 402.936,737.963 416.5,734C 418.81,733.503 421.143,733.337 423.5,733.5C 420.837,742.653 417.671,751.653 414,760.5C 413.115,826.497 412.615,892.497 412.5,958.5C 407.046,954.592 401.713,950.425 396.5,946C 387.173,945.5 377.839,945.334 368.5,945.5C 367.85,943.565 367.517,941.565 367.5,939.5C 362.678,915.591 358.345,891.591 354.5,867.5C 352.804,855.582 350.471,843.915 347.5,832.5C 341.586,794.425 335.086,756.425 328,718.5C 326.143,712.822 322.309,710.655 316.5,712C 314,713.167 312.167,715 311,717.5C 309.381,758.498 307.881,799.498 306.5,840.5C 306.325,852.839 305.992,865.172 305.5,877.5C 304.646,886.805 304.313,896.139 304.5,905.5C 303.618,918.811 303.285,932.144 303.5,945.5C 294.167,945.5 284.833,945.5 275.5,945.5C 275.5,924.833 275.5,904.167 275.5,883.5C 275.5,871.5 275.5,859.5 275.5,847.5C 275.5,797.167 275.5,746.833 275.5,696.5C 275.5,686.5 275.5,676.5 275.5,666.5 Z M 387.5,861.5 C 388.5,861.5 389.5,861.5 390.5,861.5C 390.5,864.167 390.5,866.833 390.5,869.5C 389.833,869.167 389.167,868.833 388.5,868.5C 387.631,866.283 387.298,863.95 387.5,861.5 Z"/></g>
<g><path style="opacity:1" fill="#fcd092" d="M 1235.5,683.5 C 1235.83,683.5 1236.17,683.5 1236.5,683.5C 1236.5,684.5 1236.5,685.5 1236.5,686.5C 1236.83,838.501 1236.5,990.501 1235.5,1142.5C 1234.89,1142.38 1234.56,1142.04 1234.5,1141.5C 1235.5,989.001 1235.83,836.334 1235.5,683.5 Z"/></g>
<g><path style="opacity:1" fill="#f7b25a" d="M 441.5,685.5 C 442.499,783.999 442.833,882.665 442.5,981.5C 436.97,977.903 431.304,974.57 425.5,971.5C 420.833,967.5 416.5,963.167 412.5,958.5C 412.615,892.497 413.115,826.497 414,760.5C 417.671,751.653 420.837,742.653 423.5,733.5C 427.796,723.01 431.796,712.344 435.5,701.5C 437.695,696.249 439.695,690.916 441.5,685.5 Z"/></g>
<g><path style="opacity:1" fill="#d1edf9" d="M 1530.5,685.5 C 1534.47,687.575 1538.81,688.575 1543.5,688.5C 1543.11,690.284 1542.44,691.95 1541.5,693.5C 1536.54,692.746 1531.54,692.413 1526.5,692.5C 1527.47,689.868 1528.81,687.535 1530.5,685.5 Z"/></g>
<g><path style="opacity:1" fill="#f9b35a" d="M 1236.5,686.5 C 1241.56,699.624 1246.9,712.624 1252.5,725.5C 1252.56,728.341 1253.23,731.007 1254.5,733.5C 1257.37,742.244 1260.54,750.911 1264,759.5C 1265.87,901.492 1267.04,1043.49 1267.5,1185.5C 1124.62,1199.8 981.79,1214.47 839,1229.5C 834,1228.83 829,1228.17 824,1227.5C 822.251,1225.78 821.084,1223.78 820.5,1221.5C 820.591,1208.8 821.258,1196.13 822.5,1183.5C 828.021,1184.92 833.354,1186.92 838.5,1189.5C 839.498,1179.86 839.832,1170.19 839.5,1160.5C 844.572,1162.86 849.905,1164.19 855.5,1164.5C 855.5,1170.5 855.5,1176.5 855.5,1182.5C 871.327,1176.09 887.327,1169.93 903.5,1164C 972.581,1138.68 1043.91,1125.52 1117.5,1124.5C 1157.51,1123.78 1196.51,1129.45 1234.5,1141.5C 1234.56,1142.04 1234.89,1142.38 1235.5,1142.5C 1236.5,990.501 1236.83,838.501 1236.5,686.5 Z"/></g>
<g><path style="opacity:1" fill="#78cafa" d="M 1526.5,692.5 C 1531.54,692.413 1536.54,692.746 1541.5,693.5C 1526.68,727.137 1511.35,760.47 1495.5,793.5C 1490.17,794.5 1484.83,795.5 1479.5,796.5C 1494.78,761.66 1510.45,726.994 1526.5,692.5 Z"/></g>
<g><path style="opacity:1" fill="#c7ebfd" d="M 1564.5,694.5 C 1578.24,696.517 1591.91,699.017 1605.5,702C 1593.14,701.053 1580.81,699.553 1568.5,697.5C 1566.67,697.415 1565.33,696.748 1564.5,695.5C 1564.5,695.167 1564.5,694.833 1564.5,694.5 Z"/></g>
<g><path style="opacity:1" fill="#6a95c7" d="M 569.5,695.5 C 652.462,691.781 729.295,711.448 800,754.5C 801.477,758.998 799.977,761.165 795.5,761C 715.437,713.453 629.103,695.453 536.5,707C 520.091,709.901 503.758,712.901 487.5,716C 486.167,713.667 486.167,711.333 487.5,709C 514.558,701.99 541.891,697.49 569.5,695.5 Z"/></g>
<g><path style="opacity:1" fill="#6995c7" d="M 1069.5,695.5 C 1110.54,694.005 1150.87,698.505 1190.5,709C 1193.59,712.813 1192.76,715.313 1188,716.5C 1130.79,701.571 1073.12,699.571 1015,710.5C 1011.79,709.202 1010.79,706.868 1012,703.5C 1012.75,702.874 1013.58,702.374 1014.5,702C 1032.84,698.787 1051.18,696.62 1069.5,695.5 Z"/></g>
<g><path style="opacity:1" fill="#fe9a30" d="M 269.5,697.5 C 271.167,697.5 272.833,697.5 274.5,697.5C 274.5,747.5 274.5,797.5 274.5,847.5C 261.424,849.548 248.424,852.048 235.5,855C 230.096,855.772 224.762,855.439 219.5,854C 201.779,845.727 195.612,832.227 201,813.5C 219.606,775.956 237.939,738.289 256,700.5C 260.162,698.385 264.662,697.385 269.5,697.5 Z"/></g>
<g><path style="opacity:1" fill="#bf8244" d="M 269.5,697.5 C 271.265,696.539 273.265,696.205 275.5,696.5C 275.5,746.833 275.5,797.167 275.5,847.5C 275.167,847.5 274.833,847.5 274.5,847.5C 274.5,797.5 274.5,747.5 274.5,697.5C 272.833,697.5 271.167,697.5 269.5,697.5 Z"/></g>
<g><path style="opacity:1" fill="#fd9931" d="M 369.5,701.5 C 391.484,703.769 413.484,703.769 435.5,701.5C 431.796,712.344 427.796,723.01 423.5,733.5C 421.143,733.337 418.81,733.503 416.5,734C 402.936,737.963 394.436,746.796 391,760.5C 390.5,781.831 390.333,803.164 390.5,824.5C 388.097,824.448 385.764,824.781 383.5,825.5C 378.62,784.325 373.954,742.992 369.5,701.5 Z"/></g>
<g><path style="opacity:1" fill="#fb9831" d="M 347.5,832.5 C 334.009,835.398 320.343,838.064 306.5,840.5C 307.881,799.498 309.381,758.498 311,717.5C 312.167,715 314,713.167 316.5,712C 322.309,710.655 326.143,712.822 328,718.5C 335.086,756.425 341.586,794.425 347.5,832.5 Z"/></g>
<g><path style="opacity:1" fill="#6593c7" d="M 976.5,712.5 C 976.828,759.905 976.495,807.239 975.5,854.5C 941.729,863.224 910.729,877.557 882.5,897.5C 881.501,849.003 881.168,800.336 881.5,751.5C 910.455,732.198 942.122,719.198 976.5,712.5 Z"/></g>
<g><path style="opacity:1" fill="#b2c0c9" d="M 976.5,712.5 C 977.167,735.998 977.5,759.664 977.5,783.5C 977.5,807.51 976.833,831.176 975.5,854.5C 976.495,807.239 976.828,759.905 976.5,712.5 Z"/></g>
<g><path style="opacity:1" fill="#d7f1fd" d="M 1377.5,719.5 C 1373.35,729.805 1368.68,739.805 1363.5,749.5C 1338.87,776.136 1313.87,802.469 1288.5,828.5C 1288.5,820.5 1288.5,812.5 1288.5,804.5C 1317.63,776.536 1346.63,748.37 1375.5,720C 1376.09,719.536 1376.76,719.369 1377.5,719.5 Z"/></g>
<g><path style="opacity:0.988" fill="#013671" d="M 1254.5,733.5 C 1272.66,734.989 1283.66,744.656 1287.5,762.5C 1287.17,817.905 1287.5,873.238 1288.5,928.5C 1288.5,931.833 1288.5,935.167 1288.5,938.5C 1288.5,939.5 1288.5,940.5 1288.5,941.5C 1287.17,1024.17 1287.17,1106.83 1288.5,1189.5C 1288.68,1202.81 1283.35,1213.14 1272.5,1220.5C 1267.92,1223.41 1262.92,1225.25 1257.5,1226C 1225.3,1227.92 1193.3,1230.42 1161.5,1233.5C 1054.18,1241.36 946.851,1249.02 839.5,1256.5C 836.159,1256.16 832.825,1255.83 829.5,1255.5C 849.676,1343.2 870.009,1430.87 890.5,1518.5C 884.643,1520.67 878.643,1522.67 872.5,1524.5C 854.362,1480.09 836.029,1435.75 817.5,1391.5C 818.16,1390.04 818.493,1388.37 818.5,1386.5C 814.963,1340.11 811.13,1293.78 807,1247.5C 804.501,1282.48 802.334,1317.48 800.5,1352.5C 796.677,1412.19 792.677,1471.85 788.5,1531.5C 780.833,1531.5 773.167,1531.5 765.5,1531.5C 756.108,1455.86 749.108,1379.86 744.5,1303.5C 754.022,1304.24 763.522,1305.24 773,1306.5C 777.656,1307.01 781.323,1305.34 784,1301.5C 786.89,1295.5 788.556,1289.16 789,1282.5C 788.655,1263.82 788.821,1245.16 789.5,1226.5C 792.385,1226.81 795.052,1226.47 797.5,1225.5C 805.261,1224.68 812.928,1223.35 820.5,1221.5C 821.084,1223.78 822.251,1225.78 824,1227.5C 829,1228.17 834,1228.83 839,1229.5C 981.79,1214.47 1124.62,1199.8 1267.5,1185.5C 1267.04,1043.49 1265.87,901.492 1264,759.5C 1260.54,750.911 1257.37,742.244 1254.5,733.5 Z"/></g>
<g><path style="opacity:1" fill="#6a95c7" d="M 566.5,740.5 C 649.175,737.252 726.175,756.419 797.5,798C 800.207,799.864 801.041,802.364 800,805.5C 798.274,806.576 796.441,806.743 794.5,806C 715.211,758.519 629.544,740.519 537.5,752C 520.777,755.048 504.111,758.048 487.5,761C 485.438,756.663 486.771,753.996 491.5,753C 516.254,746.652 541.254,742.485 566.5,740.5 Z"/></g>
<g><path style="opacity:1" fill="#6a95c7" d="M 1066.5,740.5 C 1108.16,739.211 1149.16,743.711 1189.5,754C 1192.55,755.36 1193.22,757.527 1191.5,760.5C 1190.5,760.833 1189.5,761.167 1188.5,761.5C 1131.11,746.77 1073.28,744.77 1015,755.5C 1013.89,755.415 1012.89,755.081 1012,754.5C 1011.24,752.231 1011.41,750.064 1012.5,748C 1030.58,745.014 1048.58,742.514 1066.5,740.5 Z"/></g>
<g><path style="opacity:1" fill="#d8d6cb" d="M 881.5,751.5 C 881.168,800.336 881.501,849.003 882.5,897.5C 882.44,898.043 882.107,898.376 881.5,898.5C 880.169,849.335 880.169,800.335 881.5,751.5 Z"/></g>
<g><path style="opacity:1" fill="#79ccfc" d="M 1363.5,749.5 C 1349.68,781.141 1335.34,812.474 1320.5,843.5C 1309.85,839.847 1299.19,836.18 1288.5,832.5C 1288.5,831.167 1288.5,829.833 1288.5,828.5C 1313.87,802.469 1338.87,776.136 1363.5,749.5 Z"/></g>
<g><path style="opacity:1" fill="#fedb9e" d="M 188.5,757.5 C 188.011,758.995 187.345,760.329 186.5,761.5C 171.493,763.891 156.493,766.058 141.5,768C 157.195,764.497 172.862,760.997 188.5,757.5 Z"/></g>
<g><path style="opacity:1" fill="#fddeae" d="M 840.5,797.5 C 839.501,902.665 839.167,1008 839.5,1113.5C 838.334,1002.33 838.167,891.001 839,779.5C 840.162,785.445 840.662,791.445 840.5,797.5 Z"/></g>
<g><path style="opacity:1" fill="#6a95c7" d="M 559.5,786.5 C 645.162,781.333 724.829,800.5 798.5,844C 800.396,845.808 800.896,847.975 800,850.5C 798.274,851.576 796.441,851.743 794.5,851C 698.979,795.068 597.479,780.568 490,807.5C 486.795,806.202 485.795,803.868 487,800.5C 497.641,797.131 508.474,794.298 519.5,792C 532.98,790.19 546.313,788.357 559.5,786.5 Z"/></g>
<g><path style="opacity:1" fill="#6a95c7" d="M 1059.5,786.5 C 1103.18,783.978 1146.18,788.144 1188.5,799C 1193.84,802.012 1193.68,804.845 1188,807.5C 1146.27,796.094 1103.77,791.927 1060.5,795C 1044.14,796.869 1027.81,798.536 1011.5,800C 1010.02,797.408 1010.35,795.075 1012.5,793C 1028.22,790.153 1043.89,787.987 1059.5,786.5 Z"/></g>
<g><path style="opacity:0.993" fill="#df422d" d="M 1732.5,900.5 C 1714.62,895.028 1696.62,889.861 1678.5,885C 1665.19,882.172 1651.86,879.672 1638.5,877.5C 1628.35,870.252 1618.35,862.752 1608.5,855C 1598.82,850.379 1589.15,850.379 1579.5,855C 1573.57,860.092 1568.57,865.925 1564.5,872.5C 1536.29,872.338 1508.29,874.671 1480.5,879.5C 1493.94,849.132 1507.94,819.132 1522.5,789.5C 1563.71,784.309 1604.21,787.642 1644,799.5C 1683.5,812.007 1711.17,837.34 1727,875.5C 1729.94,883.6 1731.78,891.933 1732.5,900.5 Z"/></g>
<g><path style="opacity:1" fill="#de432e" d="M 1495.5,793.5 C 1481.54,825.08 1467.2,856.413 1452.5,887.5C 1447.17,888.666 1442,890.332 1437,892.5C 1436.54,891.906 1436.37,891.239 1436.5,890.5C 1450.3,858.893 1464.64,827.56 1479.5,796.5C 1484.83,795.5 1490.17,794.5 1495.5,793.5 Z"/></g>
<g><path style="opacity:1" fill="#fab45b" d="M 840.5,797.5 C 844.5,902.833 848.5,1008.17 852.5,1113.5C 848.167,1113.5 843.833,1113.5 839.5,1113.5C 839.167,1008 839.501,902.665 840.5,797.5 Z"/></g>
<g><path style="opacity:0.991" fill="#e0422d" d="M 111.5,806.5 C 119.95,810.89 128.617,815.057 137.5,819C 146.08,821.615 154.746,823.781 163.5,825.5C 163.718,844.843 170.718,861.176 184.5,874.5C 139.286,869.765 94.2863,871.098 49.5,878.5C 56.2539,854.566 69.5872,835.066 89.5,820C 96.7301,815.224 104.063,810.724 111.5,806.5 Z"/></g>
<g><path style="opacity:0.991" fill="#a6dbf9" d="M 390.5,824.5 C 390.5,836.833 390.5,849.167 390.5,861.5C 389.5,861.5 388.5,861.5 387.5,861.5C 385.397,849.727 384.063,837.727 383.5,825.5C 385.764,824.781 388.097,824.448 390.5,824.5 Z"/></g>
<g><path style="opacity:1" fill="#6995c7" d="M 568.5,831.5 C 651.709,827.927 728.876,847.593 800,890.5C 801.477,894.998 799.977,897.165 795.5,897C 713.24,847.766 624.574,830.1 529.5,844C 515.481,846.891 501.481,849.557 487.5,852C 485.476,848.016 486.476,845.35 490.5,844C 516.223,837.206 542.223,833.04 568.5,831.5 Z"/></g>
<g><path style="opacity:1" fill="#6a95c7" d="M 1064.5,831.5 C 1107.25,829.38 1149.25,833.88 1190.5,845C 1193.59,848.813 1192.76,851.313 1188,852.5C 1130.8,837.577 1073.13,835.577 1015,846.5C 1012.4,846.399 1010.9,845.065 1010.5,842.5C 1010.93,840.234 1012.26,838.734 1014.5,838C 1031.23,835.317 1047.9,833.151 1064.5,831.5 Z"/></g>
<g><path style="opacity:1" fill="#d6f1fd" d="M 1288.5,832.5 C 1299.19,836.18 1309.85,839.847 1320.5,843.5C 1318.97,847.438 1317.63,851.438 1316.5,855.5C 1307.53,851.732 1298.19,848.732 1288.5,846.5C 1288.5,841.833 1288.5,837.167 1288.5,832.5 Z"/></g>
<g><path style="opacity:1" fill="#aaddfa" d="M 347.5,832.5 C 350.471,843.915 352.804,855.582 354.5,867.5C 338.215,871.09 321.882,874.424 305.5,877.5C 305.992,865.172 306.325,852.839 306.5,840.5C 320.343,838.064 334.009,835.398 347.5,832.5 Z"/></g>
<g><path style="opacity:0.999" fill="#74c6f7" d="M 1287.5,762.5 C 1288.5,776.323 1288.83,790.323 1288.5,804.5C 1288.5,812.5 1288.5,820.5 1288.5,828.5C 1288.5,829.833 1288.5,831.167 1288.5,832.5C 1288.5,837.167 1288.5,841.833 1288.5,846.5C 1298.19,848.732 1307.53,851.732 1316.5,855.5C 1319.69,856.597 1322.69,857.93 1325.5,859.5C 1319.29,871.926 1313.62,884.592 1308.5,897.5C 1303.44,908.622 1298.11,919.622 1292.5,930.5C 1291.17,929.833 1289.83,929.167 1288.5,928.5C 1287.5,873.238 1287.17,817.905 1287.5,762.5 Z"/></g>
<g><path style="opacity:1" fill="#fee4b1" d="M 1638.5,877.5 C 1647.07,884.798 1656.07,891.632 1665.5,898C 1678.3,907.703 1681.47,919.87 1675,934.5C 1662.97,950.685 1650.8,966.685 1638.5,982.5C 1605.28,957.398 1572.28,932.064 1539.5,906.5C 1547.34,894.841 1555.67,883.507 1564.5,872.5C 1568.57,865.925 1573.57,860.092 1579.5,855C 1589.15,850.379 1598.82,850.379 1608.5,855C 1618.35,862.752 1628.35,870.252 1638.5,877.5 Z"/></g>
<g><path style="opacity:1" fill="#fe9a30" d="M 1325.5,859.5 C 1357.01,873.447 1388.34,887.78 1419.5,902.5C 1413.47,915.231 1407.47,927.898 1401.5,940.5C 1373.41,928.292 1345.41,915.792 1317.5,903C 1314.1,901.643 1311.1,899.81 1308.5,897.5C 1313.62,884.592 1319.29,871.926 1325.5,859.5 Z"/></g>
<g><path style="opacity:1" fill="#de422d" d="M 354.5,867.5 C 358.345,891.591 362.678,915.591 367.5,939.5C 347.553,926.357 326.553,915.024 304.5,905.5C 304.313,896.139 304.646,886.805 305.5,877.5C 321.882,874.424 338.215,871.09 354.5,867.5 Z"/></g>
<g><path style="opacity:0.948" fill="#d8412f" d="M 388.5,868.5 C 389.167,868.833 389.833,869.167 390.5,869.5C 390.666,875.842 390.5,882.175 390,888.5C 389.048,881.864 388.548,875.197 388.5,868.5 Z"/></g>
<g><path style="opacity:1" fill="#fe5a41" d="M 184.5,874.5 C 199.765,887.308 217.432,892.808 237.5,891C 249.855,888.562 262.188,886.062 274.5,883.5C 274.833,904.511 274.5,925.511 273.5,946.5C 265.355,952.811 257.355,959.311 249.5,966C 243.259,971.737 237.592,977.903 232.5,984.5C 230.246,985.415 228.246,986.748 226.5,988.5C 217.83,990.224 209.164,992.057 200.5,994C 188.162,997.947 175.828,1001.78 163.5,1005.5C 126.547,1001.6 95.0471,986.604 69,960.5C 47.9914,936.472 41.4914,909.138 49.5,878.5C 94.2863,871.098 139.286,869.765 184.5,874.5 Z"/></g>
<g><path style="opacity:1" fill="#fe5b42" d="M 1564.5,872.5 C 1555.67,883.507 1547.34,894.841 1539.5,906.5C 1534.78,911.577 1530.28,916.91 1526,922.5C 1525.21,923.745 1524.71,925.078 1524.5,926.5C 1508.87,945.737 1493.7,965.404 1479,985.5C 1476.6,989.031 1473.76,992.031 1470.5,994.5C 1453.85,994.468 1437.52,996.135 1421.5,999.5C 1405.11,999.977 1388.94,1001.98 1373,1005.5C 1372.6,1005.27 1372.43,1004.94 1372.5,1004.5C 1382.18,983.136 1391.85,961.803 1401.5,940.5C 1407.47,927.898 1413.47,915.231 1419.5,902.5C 1422.6,903.547 1425.6,904.88 1428.5,906.5C 1431.2,901.106 1433.86,895.773 1436.5,890.5C 1436.37,891.239 1436.54,891.906 1437,892.5C 1442,890.332 1447.17,888.666 1452.5,887.5C 1444.21,905.746 1436.21,924.079 1428.5,942.5C 1428.76,945.028 1429.6,947.361 1431,949.5C 1437.29,955.048 1443.29,954.715 1449,948.5C 1459.51,925.474 1470.01,902.474 1480.5,879.5C 1508.29,874.671 1536.29,872.338 1564.5,872.5 Z"/></g>
<g><path style="opacity:1" fill="#6a95c7" d="M 565.5,876.5 C 649.683,872.379 727.683,892.045 799.5,935.5C 800.833,937.5 800.833,939.5 799.5,941.5C 798.232,942.428 796.899,942.595 795.5,942C 713.697,893.973 625.697,876.306 531.5,889C 516.83,892.005 502.163,894.672 487.5,897C 485.438,892.663 486.771,889.996 491.5,889C 515.947,882.759 540.613,878.592 565.5,876.5 Z"/></g>
<g><path style="opacity:1" fill="#6a95c7" d="M 1066.5,876.5 C 1108.2,874.925 1149.2,879.425 1189.5,890C 1192.55,891.36 1193.22,893.527 1191.5,896.5C 1190.33,896.833 1189.17,897.167 1188,897.5C 1080.3,870.648 978.796,885.481 883.5,942C 877.5,942.333 876.167,940 879.5,935C 937.229,900.452 999.562,880.952 1066.5,876.5 Z"/></g>
<g><path style="opacity:1" fill="#fe5b42" d="M 1638.5,877.5 C 1651.86,879.672 1665.19,882.172 1678.5,885C 1696.62,889.861 1714.62,895.028 1732.5,900.5C 1732.2,903.059 1732.53,905.393 1733.5,907.5C 1733.5,908.833 1733.5,910.167 1733.5,911.5C 1730.76,944.42 1715.1,969.254 1686.5,986C 1666.61,997.14 1645.27,1003.31 1622.5,1004.5C 1623.11,1003.61 1623.44,1002.61 1623.5,1001.5C 1628.85,995.478 1633.85,989.145 1638.5,982.5C 1650.8,966.685 1662.97,950.685 1675,934.5C 1681.47,919.87 1678.3,907.703 1665.5,898C 1656.07,891.632 1647.07,884.798 1638.5,877.5 Z"/></g>
<g><path style="opacity:0.999" fill="#feba45" d="M 1308.5,897.5 C 1311.1,899.81 1314.1,901.643 1317.5,903C 1345.41,915.792 1373.41,928.292 1401.5,940.5C 1391.85,961.803 1382.18,983.136 1372.5,1004.5C 1346.03,1010.77 1320.36,1019.44 1295.5,1030.5C 1310.32,998.193 1325.15,965.859 1340,933.5C 1342.28,925.565 1339.78,919.731 1332.5,916C 1325.99,914.126 1320.82,915.959 1317,921.5C 1307.47,941.749 1298.14,962.082 1289,982.5C 1288.5,968.837 1288.33,955.171 1288.5,941.5C 1288.5,940.5 1288.5,939.5 1288.5,938.5C 1290.01,935.995 1291.34,933.328 1292.5,930.5C 1298.11,919.622 1303.44,908.622 1308.5,897.5 Z"/></g>
<g><path style="opacity:1" fill="#fd5a42" d="M 304.5,905.5 C 326.553,915.024 347.553,926.357 367.5,939.5C 367.517,941.565 367.85,943.565 368.5,945.5C 368.5,947.167 368.5,948.833 368.5,950.5C 346.76,947.503 325.093,947.836 303.5,951.5C 303.5,949.5 303.5,947.5 303.5,945.5C 303.285,932.144 303.618,918.811 304.5,905.5 Z"/></g>
<g><path style="opacity:1" fill="#6793c6" d="M 1539.5,906.5 C 1572.28,932.064 1605.28,957.398 1638.5,982.5C 1633.85,989.145 1628.85,995.478 1623.5,1001.5C 1615.14,994.481 1606.48,987.815 1597.5,981.5C 1582.41,968.784 1566.75,956.784 1550.5,945.5C 1541.83,939.167 1533.17,932.833 1524.5,926.5C 1524.71,925.078 1525.21,923.745 1526,922.5C 1530.28,916.91 1534.78,911.577 1539.5,906.5 Z"/></g>
<g><path style="opacity:1" fill="#6593c6" d="M 507.5,1072.5 C 503.431,1058.69 497.431,1045.69 489.5,1033.5C 490.498,997.671 490.832,961.671 490.5,925.5C 532.842,915.798 575.842,911.798 619.5,913.5C 619.5,964.167 619.5,1014.83 619.5,1065.5C 582.672,1064.27 546.006,1066.1 509.5,1071C 508.584,1071.28 507.918,1071.78 507.5,1072.5 Z"/></g>
<g><path style="opacity:1" fill="#f4d883" d="M 1295.5,1030.5 C 1293.48,1031.93 1291.31,1033.27 1289,1034.5C 1288.5,1047.83 1288.33,1061.16 1288.5,1074.5C 1288.5,1112.5 1288.5,1150.5 1288.5,1188.5C 1288.5,1188.83 1288.5,1189.17 1288.5,1189.5C 1287.17,1106.83 1287.17,1024.17 1288.5,941.5C 1288.33,955.171 1288.5,968.837 1289,982.5C 1298.14,962.082 1307.47,941.749 1317,921.5C 1320.82,915.959 1325.99,914.126 1332.5,916C 1339.78,919.731 1342.28,925.565 1340,933.5C 1325.15,965.859 1310.32,998.193 1295.5,1030.5 Z"/></g>
<g><path style="opacity:1" fill="#6995c7" d="M 1062.5,923.5 C 1105.83,921.866 1148.5,926.366 1190.5,937C 1193.17,939.333 1193.17,941.667 1190.5,944C 1188.5,944.667 1186.5,944.667 1184.5,944C 1078,918.166 977.671,933.166 883.5,989C 877.5,989.333 876.167,987 879.5,982C 935.958,948.124 996.958,928.624 1062.5,923.5 Z"/></g>
<g><path style="opacity:1" fill="#8ba8c7" d="M 490.5,925.5 C 490.832,961.671 490.498,997.671 489.5,1033.5C 489.167,1032.83 488.833,1032.17 488.5,1031.5C 489.167,996.167 489.833,960.833 490.5,925.5 Z"/></g>
<g><path style="opacity:1" fill="#6a95c7" d="M 644.5,926.5 C 700.39,933.628 752.224,951.962 800,981.5C 801.5,986.667 799.667,988.5 794.5,987C 748.428,959.419 698.762,941.753 645.5,934C 643.163,931.806 642.83,929.306 644.5,926.5 Z"/></g>
<g><path style="opacity:0.993" fill="#e0422d" d="M 1524.5,926.5 C 1533.17,932.833 1541.83,939.167 1550.5,945.5C 1454.88,1072.29 1359.05,1198.96 1263,1325.5C 1260.6,1329.03 1257.76,1332.03 1254.5,1334.5C 1245.83,1328.17 1237.17,1321.83 1228.5,1315.5C 1269.17,1261.17 1309.83,1206.83 1350.5,1152.5C 1351.5,1152.59 1352.33,1152.25 1353,1151.5C 1373.38,1124.62 1393.55,1097.62 1413.5,1070.5C 1430.85,1048.47 1447.85,1026.14 1464.5,1003.5C 1466.76,1000.64 1468.76,997.643 1470.5,994.5C 1473.76,992.031 1476.6,989.031 1479,985.5C 1493.7,965.404 1508.87,945.737 1524.5,926.5 Z"/></g>
<g><path style="opacity:1" fill="#de422e" d="M 274.5,883.5 C 274.833,883.5 275.167,883.5 275.5,883.5C 275.5,904.167 275.5,924.833 275.5,945.5C 284.833,945.5 294.167,945.5 303.5,945.5C 303.5,947.5 303.5,949.5 303.5,951.5C 302.709,957.419 302.209,963.419 302,969.5C 284.1,977.912 265.6,984.745 246.5,990C 242.167,990.667 237.833,990.667 233.5,990C 232.594,988.301 232.261,986.467 232.5,984.5C 237.592,977.903 243.259,971.737 249.5,966C 257.355,959.311 265.355,952.811 273.5,946.5C 274.5,925.511 274.833,904.511 274.5,883.5 Z"/></g>
<g><path style="opacity:1" fill="#de422d" d="M 368.5,945.5 C 377.839,945.334 387.173,945.5 396.5,946C 401.713,950.425 407.046,954.592 412.5,958.5C 416.5,963.167 420.833,967.5 425.5,971.5C 428.418,974.931 430.751,978.764 432.5,983C 432.18,984.653 431.18,985.653 429.5,986C 425.789,986.439 422.122,986.106 418.5,985C 402.72,980.109 387.387,974.109 372.5,967C 371.211,961.393 369.878,955.893 368.5,950.5C 368.5,948.833 368.5,947.167 368.5,945.5 Z"/></g>
<g><path style="opacity:1" fill="#fe9930" d="M 1550.5,945.5 C 1566.75,956.784 1582.41,968.784 1597.5,981.5C 1498.92,1110.99 1400.59,1240.65 1302.5,1370.5C 1286.19,1358.85 1270.19,1346.85 1254.5,1334.5C 1257.76,1332.03 1260.6,1329.03 1263,1325.5C 1359.05,1198.96 1454.88,1072.29 1550.5,945.5 Z"/></g>
<g><path style="opacity:0.993" fill="#033672" d="M 368.5,950.5 C 369.878,955.893 371.211,961.393 372.5,967C 387.387,974.109 402.72,980.109 418.5,985C 422.122,986.106 425.789,986.439 429.5,986C 431.18,985.653 432.18,984.653 432.5,983C 430.751,978.764 428.418,974.931 425.5,971.5C 431.304,974.57 436.97,977.903 442.5,981.5C 460.978,995.31 476.311,1011.98 488.5,1031.5C 488.833,1032.17 489.167,1032.83 489.5,1033.5C 497.431,1045.69 503.431,1058.69 507.5,1072.5C 512.569,1090.11 515.235,1108.11 515.5,1126.5C 515.049,1138.96 513.549,1151.29 511,1163.5C 508.122,1173.96 504.955,1184.3 501.5,1194.5C 579.175,1202.43 656.841,1210.43 734.5,1218.5C 734.163,1228.21 733.33,1237.87 732,1247.5C 731.617,1248.06 731.117,1248.39 730.5,1248.5C 647.787,1243.07 565.121,1237.07 482.5,1230.5C 473.792,1239.71 464.792,1248.88 455.5,1258C 452.621,1260.39 449.621,1262.55 446.5,1264.5C 436.802,1271.35 426.802,1277.68 416.5,1283.5C 357.212,1310.07 299.545,1306.91 243.5,1274C 228.435,1264.1 215.102,1252.27 203.5,1238.5C 171.812,1199.14 158.478,1154.14 163.5,1103.5C 170.174,1057.14 191.174,1018.81 226.5,988.5C 228.246,986.748 230.246,985.415 232.5,984.5C 232.261,986.467 232.594,988.301 233.5,990C 237.833,990.667 242.167,990.667 246.5,990C 265.6,984.745 284.1,977.912 302,969.5C 302.209,963.419 302.709,957.419 303.5,951.5C 325.093,947.836 346.76,947.503 368.5,950.5 Z"/></g>
<g><path style="opacity:1" fill="#6b96c7" d="M 1073.5,968.5 C 1113.58,967.57 1152.91,972.403 1191.5,983C 1192.77,984.796 1192.77,986.629 1191.5,988.5C 1189.24,989.647 1186.9,989.814 1184.5,989C 1077.99,963.373 977.657,978.373 883.5,1034C 878.516,1034.69 876.85,1032.69 878.5,1028C 938.479,991.505 1003.48,971.672 1073.5,968.5 Z"/></g>
<g><path style="opacity:1" fill="#6995c6" d="M 732.5,993.5 C 730.833,995.833 728.833,997.833 726.5,999.5C 699.275,989.527 671.275,982.694 642.5,979C 639.707,977.455 639.04,975.288 640.5,972.5C 643.784,971.343 647.118,971.176 650.5,972C 678.63,976.365 705.963,983.532 732.5,993.5 Z"/></g>
<g><path style="opacity:1" fill="#4c78ad" d="M 469.5,1058.5 C 425.503,1006.57 370.503,989.739 304.5,1008C 294.54,1011.98 284.874,1016.48 275.5,1021.5C 270.598,1014.71 265.932,1007.71 261.5,1000.5C 297.247,978.736 335.58,972.903 376.5,983C 418.454,994.798 449.454,1019.96 469.5,1058.5 Z"/></g>
<g><path style="opacity:0.991" fill="#e0422d" d="M 1597.5,981.5 C 1606.48,987.815 1615.14,994.481 1623.5,1001.5C 1623.44,1002.61 1623.11,1003.61 1622.5,1004.5C 1610.41,1021.01 1598.08,1037.35 1585.5,1053.5C 1569.07,1073.59 1553.41,1094.26 1538.5,1115.5C 1512.77,1147.95 1487.77,1180.95 1463.5,1214.5C 1418.74,1273.68 1373.74,1332.68 1328.5,1391.5C 1319.83,1384.5 1311.17,1377.5 1302.5,1370.5C 1400.59,1240.65 1498.92,1110.99 1597.5,981.5 Z"/></g>
<g><path style="opacity:0.992" fill="#fe9930" d="M 226.5,988.5 C 191.174,1018.81 170.174,1057.14 163.5,1103.5C 111.873,1129.13 66.2064,1162.8 26.5,1204.5C 13.4694,1164.75 18.6361,1127.42 42,1092.5C 54.8333,1074.33 70.3333,1058.83 88.5,1046C 112.062,1029.88 137.062,1016.38 163.5,1005.5C 175.828,1001.78 188.162,997.947 200.5,994C 209.164,992.057 217.83,990.224 226.5,988.5 Z"/></g>
<g><path style="opacity:1" fill="#063772" d="M 759.5,997.5 C 755.33,999.583 751.996,1002.58 749.5,1006.5C 741.392,1012.75 738.225,1021.08 740,1031.5C 742.288,1037.65 743.788,1043.99 744.5,1050.5C 744.784,1055.54 743.451,1060.04 740.5,1064C 738.19,1064.5 735.857,1064.66 733.5,1064.5C 726.87,1064.69 721.87,1062.02 718.5,1056.5C 722.759,1056.93 727.092,1056.43 731.5,1055C 734.041,1053.15 735.041,1050.65 734.5,1047.5C 733.724,1043.95 732.391,1040.61 730.5,1037.5C 728.074,1032.98 725.907,1028.31 724,1023.5C 721.578,1015.13 722.412,1007.13 726.5,999.5C 728.833,997.833 730.833,995.833 732.5,993.5C 742.49,988.497 751.49,989.83 759.5,997.5 Z"/></g>
<g><path style="opacity:1" fill="#053772" d="M 821.5,1032.5 C 820.391,1025.94 817.891,1019.94 814,1014.5C 810.467,1021.04 805.8,1026.71 800,1031.5C 799.517,1032.45 799.351,1033.45 799.5,1034.5C 794.69,1035.57 790.357,1037.74 786.5,1041C 779.803,1044.02 773.136,1047.02 766.5,1050C 770.122,1057.32 770.456,1064.82 767.5,1072.5C 766.833,1072.5 766.5,1072.83 766.5,1073.5C 763.908,1069.57 760.908,1065.9 757.5,1062.5C 758.675,1062.72 759.675,1062.39 760.5,1061.5C 757.994,1056.11 756.994,1050.44 757.5,1044.5C 754.162,1044.07 751.162,1044.73 748.5,1046.5C 745.543,1036.35 745.877,1026.35 749.5,1016.5C 752.473,1008.87 757.14,1002.54 763.5,997.5C 779.603,988.033 795.603,988.2 811.5,998C 825.784,998.705 831.95,1006.2 830,1020.5C 828.82,1025.82 825.986,1029.82 821.5,1032.5 Z"/></g>
<g><path style="opacity:1" fill="#cf4334" d="M 759.5,997.5 C 760.833,997.5 762.167,997.5 763.5,997.5C 757.14,1002.54 752.473,1008.87 749.5,1016.5C 748.307,1016.03 747.64,1015.03 747.5,1013.5C 747.772,1011.02 748.438,1008.69 749.5,1006.5C 751.996,1002.58 755.33,999.583 759.5,997.5 Z"/></g>
<g><path style="opacity:0.997" fill="#fe9930" d="M 1421.5,999.5 C 1435.97,999.613 1450.3,1000.95 1464.5,1003.5C 1447.85,1026.14 1430.85,1048.47 1413.5,1070.5C 1371.66,1062.82 1329.99,1064.16 1288.5,1074.5C 1288.33,1061.16 1288.5,1047.83 1289,1034.5C 1291.31,1033.27 1293.48,1031.93 1295.5,1030.5C 1320.36,1019.44 1346.03,1010.77 1372.5,1004.5C 1372.43,1004.94 1372.6,1005.27 1373,1005.5C 1388.94,1001.98 1405.11,999.977 1421.5,999.5 Z"/></g>
<g><path style="opacity:1" fill="#8bccf4" d="M 469.5,1058.5 C 493.9,1111.83 489.733,1162.83 457,1211.5C 445.759,1226.92 431.925,1239.25 415.5,1248.5C 368.437,1173.43 321.77,1098.1 275.5,1022.5C 275.5,1022.17 275.5,1021.83 275.5,1021.5C 284.874,1016.48 294.54,1011.98 304.5,1008C 370.503,989.739 425.503,1006.57 469.5,1058.5 Z"/></g>
<g><path style="opacity:1" fill="#6593c6" d="M 261.5,1000.5 C 265.932,1007.71 270.598,1014.71 275.5,1021.5C 275.5,1021.83 275.5,1022.17 275.5,1022.5C 238.712,1045.5 216.212,1078.5 208,1121.5C 203.515,1152.92 208.015,1182.92 221.5,1211.5C 191.027,1168.74 184.527,1122.4 202,1072.5C 214.017,1041.99 233.851,1017.99 261.5,1000.5 Z"/></g>
<g><path style="opacity:1" fill="#062b57" d="M 749.5,1006.5 C 748.438,1008.69 747.772,1011.02 747.5,1013.5C 747.64,1015.03 748.307,1016.03 749.5,1016.5C 745.877,1026.35 745.543,1036.35 748.5,1046.5C 745.397,1051.98 746.397,1056.65 751.5,1060.5C 746.166,1065.22 740.166,1066.56 733.5,1064.5C 735.857,1064.66 738.19,1064.5 740.5,1064C 743.451,1060.04 744.784,1055.54 744.5,1050.5C 743.788,1043.99 742.288,1037.65 740,1031.5C 738.225,1021.08 741.392,1012.75 749.5,1006.5 Z"/></g>
<g><path style="opacity:1" fill="#6995c7" d="M 920.5,1059.5 C 919.29,1059.93 918.29,1060.6 917.5,1061.5C 911.5,1061.5 905.5,1061.5 899.5,1061.5C 908.827,1056.17 918.494,1051.34 928.5,1047C 1013.66,1010.96 1100.99,1004.63 1190.5,1028C 1193.17,1030.33 1193.17,1032.67 1190.5,1035C 1097.64,1011.74 1007.64,1019.91 920.5,1059.5 Z"/></g>
<g><path style="opacity:1" fill="#f5c59e" d="M 821.5,1032.5 C 820.809,1036.6 819.809,1040.6 818.5,1044.5C 817.207,1045.84 816.374,1047.51 816,1049.5C 815.501,1055.49 815.334,1061.49 815.5,1067.5C 814.774,1070.18 813.941,1072.85 813,1075.5C 808.368,1085.4 800.535,1089.4 789.5,1087.5C 789.737,1088.79 789.404,1089.79 788.5,1090.5C 788.719,1089.32 788.386,1088.32 787.5,1087.5C 778.902,1084.89 772.235,1079.89 767.5,1072.5C 770.456,1064.82 770.122,1057.32 766.5,1050C 773.136,1047.02 779.803,1044.02 786.5,1041C 790.357,1037.74 794.69,1035.57 799.5,1034.5C 799.351,1033.45 799.517,1032.45 800,1031.5C 805.8,1026.71 810.467,1021.04 814,1014.5C 817.891,1019.94 820.391,1025.94 821.5,1032.5 Z"/></g>
<g><path style="opacity:1" fill="#6a95c7" d="M 730.5,1037.5 C 732.391,1040.61 733.724,1043.95 734.5,1047.5C 719.288,1042.37 703.955,1037.54 688.5,1033C 672.271,1029.49 655.938,1026.49 639.5,1024C 637.352,1021.93 637.018,1019.59 638.5,1017C 644.529,1016.54 650.529,1016.87 656.5,1018C 681.686,1022.63 706.353,1029.13 730.5,1037.5 Z"/></g>
<g><path style="opacity:1" fill="#a9dffd" d="M 275.5,1022.5 C 321.77,1098.1 368.437,1173.43 415.5,1248.5C 374.296,1273.12 330.963,1277.29 285.5,1261C 259.621,1250.28 238.288,1233.78 221.5,1211.5C 208.015,1182.92 203.515,1152.92 208,1121.5C 216.212,1078.5 238.712,1045.5 275.5,1022.5 Z"/></g>
<g><path style="opacity:1" fill="#2d4878" d="M 812.5,1032.5 C 815.397,1032.13 818.063,1032.63 820.5,1034C 819.975,1034.69 819.308,1035.19 818.5,1035.5C 815.953,1035.23 813.953,1034.23 812.5,1032.5 Z"/></g>
<g><path style="opacity:1" fill="#eabf9c" d="M 757.5,1062.5 C 755.579,1061.64 753.579,1060.97 751.5,1060.5C 746.397,1056.65 745.397,1051.98 748.5,1046.5C 751.162,1044.73 754.162,1044.07 757.5,1044.5C 756.994,1050.44 757.994,1056.11 760.5,1061.5C 759.675,1062.39 758.675,1062.72 757.5,1062.5 Z"/></g>
<g><path style="opacity:1" fill="#1c4076" d="M 818.5,1044.5 C 821.395,1052.56 822.228,1060.89 821,1069.5C 820.751,1070.62 820.251,1071.62 819.5,1072.5C 818.113,1070.79 816.779,1069.12 815.5,1067.5C 815.334,1061.49 815.501,1055.49 816,1049.5C 816.374,1047.51 817.207,1045.84 818.5,1044.5 Z"/></g>
<g><path style="opacity:1" fill="#1a3e75" d="M 810.5,1047.5 C 811.5,1047.5 812.5,1047.5 813.5,1047.5C 813.426,1051.54 812.093,1052.21 809.5,1049.5C 809.863,1048.82 810.196,1048.15 810.5,1047.5 Z"/></g>
<g><path style="opacity:1" fill="#214276" d="M 788.5,1048.5 C 791.166,1048.07 792.333,1049.07 792,1051.5C 788.403,1053.07 787.237,1052.07 788.5,1048.5 Z"/></g>
<g><path style="opacity:1" fill="#df7061" d="M 802.5,1051.5 C 803.5,1051.5 804.5,1051.5 805.5,1051.5C 805.372,1053.65 805.872,1055.65 807,1057.5C 809.123,1057.97 810.623,1059.13 811.5,1061C 809.434,1064.07 806.934,1064.24 804,1061.5C 801.604,1058.37 801.104,1055.04 802.5,1051.5 Z"/></g>
<g><path style="opacity:0.99" fill="#fe9930" d="M 1585.5,1053.5 C 1611.24,1070.41 1630.74,1092.74 1644,1120.5C 1654.58,1146.82 1655.08,1173.15 1645.5,1199.5C 1613.87,1166.19 1578.21,1138.19 1538.5,1115.5C 1553.41,1094.26 1569.07,1073.59 1585.5,1053.5 Z"/></g>
<g><path style="opacity:1" fill="#6995c7" d="M 977.5,1083.5 C 978.065,1079.46 979.399,1075.8 981.5,1072.5C 981.917,1073.12 982.584,1073.46 983.5,1073.5C 1052.44,1055.04 1121.44,1054.87 1190.5,1073C 1193.67,1077.14 1192.67,1079.64 1187.5,1080.5C 1117.2,1062.33 1047.2,1063.33 977.5,1083.5 Z"/></g>
<g><path style="opacity:1" fill="#bebfb5" d="M 920.5,1059.5 C 941.167,1060.17 961.833,1060.83 982.5,1061.5C 960.833,1061.5 939.167,1061.5 917.5,1061.5C 918.29,1060.6 919.29,1059.93 920.5,1059.5 Z"/></g>
<g><path style="opacity:1" fill="#6a95c7" d="M 756.5,1093.5 C 756.5,1093.83 756.5,1094.17 756.5,1094.5C 753.591,1095.45 751.258,1097.11 749.5,1099.5C 714.296,1084.22 677.63,1074.06 639.5,1069C 637.352,1066.93 637.018,1064.59 638.5,1062C 645.863,1062 653.197,1062.67 660.5,1064C 693.552,1070.52 725.552,1080.35 756.5,1093.5 Z"/></g>
<g><path style="opacity:1" fill="#fefbf9" d="M 788.5,1060.5 C 791.333,1062.48 794.333,1064.31 797.5,1066C 799.167,1066.33 800.833,1066.67 802.5,1067C 803.664,1071.02 801.997,1072.85 797.5,1072.5C 790.186,1071.91 787.186,1067.91 788.5,1060.5 Z"/></g>
<g><path style="opacity:1" fill="#013672" d="M 899.5,1061.5 C 905.5,1061.5 911.5,1061.5 917.5,1061.5C 939.167,1061.5 960.833,1061.5 982.5,1061.5C 983.695,1061.87 984.361,1062.7 984.5,1064C 983.197,1066.74 982.197,1069.58 981.5,1072.5C 979.399,1075.8 978.065,1079.46 977.5,1083.5C 971.951,1096.62 966.284,1109.79 960.5,1123C 934.997,1123.17 909.663,1123.67 884.5,1124.5C 884.167,1124.5 883.833,1124.5 883.5,1124.5C 870.246,1123.52 856.913,1123.19 843.5,1123.5C 842.167,1123.5 840.833,1123.5 839.5,1123.5C 837.473,1123.66 835.473,1123.5 833.5,1123C 830.003,1116.64 832.003,1113.8 839.5,1114.5C 851.851,1114.83 864.185,1114.5 876.5,1113.5C 878.036,1110.22 879.369,1106.89 880.5,1103.5C 884.165,1094.17 887.832,1084.84 891.5,1075.5C 893.123,1071.57 894.79,1067.57 896.5,1063.5C 896.973,1062.09 897.973,1061.43 899.5,1061.5 Z"/></g>
<g><path style="opacity:1" fill="#6b95c6" d="M 896.5,1063.5 C 894.79,1067.57 893.123,1071.57 891.5,1075.5C 891.565,1075.06 891.399,1074.73 891,1074.5C 888.148,1077.26 884.815,1079.26 881,1080.5C 877.928,1079.55 876.928,1077.55 878,1074.5C 883.644,1069.93 889.811,1066.26 896.5,1063.5 Z"/></g>
<g><path style="opacity:0.997" fill="#feba44" d="M 1413.5,1070.5 C 1393.55,1097.62 1373.38,1124.62 1353,1151.5C 1352.33,1152.25 1351.5,1152.59 1350.5,1152.5C 1337.27,1147.44 1323.61,1144.44 1309.5,1143.5C 1302.72,1158.71 1295.72,1173.71 1288.5,1188.5C 1288.5,1150.5 1288.5,1112.5 1288.5,1074.5C 1329.99,1064.16 1371.66,1062.82 1413.5,1070.5 Z"/></g>
<g><path style="opacity:1" fill="#daa376" d="M 767.5,1072.5 C 772.235,1079.89 778.902,1084.89 787.5,1087.5C 788.386,1088.32 788.719,1089.32 788.5,1090.5C 788.365,1092.55 789.032,1094.22 790.5,1095.5C 789.508,1095.33 788.842,1095.66 788.5,1096.5C 785.06,1094.95 781.727,1093.11 778.5,1091C 775.297,1087.63 771.964,1084.46 768.5,1081.5C 767.709,1078.89 767.043,1076.22 766.5,1073.5C 766.5,1072.83 766.833,1072.5 767.5,1072.5 Z"/></g>
<g><path style="opacity:1" fill="#f6c19a" d="M 768.5,1081.5 C 771.964,1084.46 775.297,1087.63 778.5,1091C 781.727,1093.11 785.06,1094.95 788.5,1096.5C 788.909,1100.88 789.575,1105.21 790.5,1109.5C 786.096,1109.29 782.096,1107.96 778.5,1105.5C 775.772,1099.11 771.105,1094.77 764.5,1092.5C 765.568,1091.57 766.901,1091.23 768.5,1091.5C 768.5,1088.17 768.5,1084.83 768.5,1081.5 Z"/></g>
<g><path style="opacity:1" fill="#fceaca" d="M 921.5,1087.5 C 929.84,1087.33 938.173,1087.5 946.5,1088C 947.595,1090.27 947.261,1092.44 945.5,1094.5C 936.853,1095.67 928.186,1095.83 919.5,1095C 918.483,1092.16 919.15,1089.66 921.5,1087.5 Z"/></g>
<g><path style="opacity:1" fill="#7d87af" d="M 764.5,1092.5 C 771.105,1094.77 775.772,1099.11 778.5,1105.5C 781.258,1112.11 783.592,1118.78 785.5,1125.5C 785.84,1129.88 786.507,1134.21 787.5,1138.5C 787.457,1139.42 787.124,1140.08 786.5,1140.5C 783.991,1127.14 779.491,1114.48 773,1102.5C 769.259,1096.21 763.759,1093.55 756.5,1094.5C 756.5,1094.17 756.5,1093.83 756.5,1093.5C 758.948,1092.53 761.615,1092.19 764.5,1092.5 Z"/></g>
<g><path style="opacity:1" fill="#df432e" d="M 756.5,1094.5 C 763.759,1093.55 769.259,1096.21 773,1102.5C 779.491,1114.48 783.991,1127.14 786.5,1140.5C 788.234,1145.37 789.567,1150.37 790.5,1155.5C 782.457,1157.48 774.457,1160.65 766.5,1165C 765.426,1165.74 764.759,1166.74 764.5,1168C 766.254,1173.6 768.587,1178.93 771.5,1184C 776.528,1184.59 781.528,1184.42 786.5,1183.5C 786.5,1197.5 786.5,1211.5 786.5,1225.5C 778.648,1225.2 770.981,1223.86 763.5,1221.5C 764.408,1199.67 761.742,1178.33 755.5,1157.5C 751.34,1148.02 748.007,1138.35 745.5,1128.5C 745.5,1122.83 745.5,1117.17 745.5,1111.5C 745.914,1107.17 747.247,1103.17 749.5,1099.5C 751.258,1097.11 753.591,1095.45 756.5,1094.5 Z"/></g>
<g><path style="opacity:1" fill="#df432e" d="M 790.5,1095.5 C 795.471,1096.48 800.137,1098.32 804.5,1101C 815.805,1109.8 825.138,1120.3 832.5,1132.5C 829.411,1134.92 826.078,1136.92 822.5,1138.5C 817.604,1133.71 812.27,1129.37 806.5,1125.5C 806.167,1125.83 805.833,1126.17 805.5,1126.5C 808.451,1132.07 811.118,1137.73 813.5,1143.5C 808.984,1146.93 803.984,1149.59 798.5,1151.5C 795.237,1142.31 790.903,1133.64 785.5,1125.5C 783.592,1118.78 781.258,1112.11 778.5,1105.5C 782.096,1107.96 786.096,1109.29 790.5,1109.5C 789.575,1105.21 788.909,1100.88 788.5,1096.5C 788.842,1095.66 789.508,1095.33 790.5,1095.5 Z"/></g>
<g><path style="opacity:1" fill="#efc39d" d="M 880.5,1103.5 C 879.369,1106.89 878.036,1110.22 876.5,1113.5C 864.185,1114.5 851.851,1114.83 839.5,1114.5C 839.5,1114.17 839.5,1113.83 839.5,1113.5C 843.833,1113.5 848.167,1113.5 852.5,1113.5C 856.336,1109.51 860.67,1106.01 865.5,1103C 870.599,1100.93 875.599,1101.1 880.5,1103.5 Z"/></g>
<g><path style="opacity:1" fill="#feba44" d="M 163.5,1103.5 C 158.478,1154.14 171.812,1199.14 203.5,1238.5C 177.269,1253.3 149.103,1261.3 119,1262.5C 81.5344,1263.27 52.5344,1248.27 32,1217.5C 29.6028,1213.38 27.7694,1209.04 26.5,1204.5C 66.2064,1162.8 111.873,1129.13 163.5,1103.5 Z"/></g>
<g><path style="opacity:1" fill="#feba44" d="M 1538.5,1115.5 C 1578.21,1138.19 1613.87,1166.19 1645.5,1199.5C 1637.34,1221.82 1622.01,1236.99 1599.5,1245C 1573.42,1252.56 1547.42,1252.22 1521.5,1244C 1500.86,1236.51 1481.53,1226.68 1463.5,1214.5C 1487.77,1180.95 1512.77,1147.95 1538.5,1115.5 Z"/></g>
<g><path style="opacity:0.99" fill="#6691c4" d="M 745.5,1111.5 C 745.5,1117.17 745.5,1122.83 745.5,1128.5C 743.766,1136.61 742.766,1144.94 742.5,1153.5C 740.21,1175.39 738.876,1197.39 738.5,1219.5C 737.303,1227.66 736.803,1235.99 737,1244.5C 752.338,1251.51 768.338,1254.17 785,1252.5C 785.251,1243.47 785.751,1234.47 786.5,1225.5C 786.5,1211.5 786.5,1197.5 786.5,1183.5C 787.708,1182.77 789.041,1182.43 790.5,1182.5C 790.5,1194.17 790.5,1205.83 790.5,1217.5C 789.523,1220.29 789.19,1223.29 789.5,1226.5C 788.821,1245.16 788.655,1263.82 789,1282.5C 788.556,1289.16 786.89,1295.5 784,1301.5C 781.323,1305.34 777.656,1307.01 773,1306.5C 763.522,1305.24 754.022,1304.24 744.5,1303.5C 738.355,1302.6 732.355,1301.1 726.5,1299C 721.968,1292.89 720.468,1286.06 722,1278.5C 723.729,1268.15 726.562,1258.15 730.5,1248.5C 731.117,1248.39 731.617,1248.06 732,1247.5C 733.33,1237.87 734.163,1228.21 734.5,1218.5C 736.107,1197.85 737.44,1177.19 738.5,1156.5C 739.593,1144.27 741.093,1131.93 743,1119.5C 743.546,1116.62 744.379,1113.95 745.5,1111.5 Z"/></g>
<g><path style="opacity:1" fill="#b29f94" d="M 843.5,1123.5 C 856.913,1123.19 870.246,1123.52 883.5,1124.5C 883.158,1125.34 882.492,1125.67 881.5,1125.5C 868.833,1124.83 856.167,1124.17 843.5,1123.5 Z"/></g>
<g><path style="opacity:1" fill="#f9b35a" d="M 738.5,1156.5 C 737.44,1177.19 736.107,1197.85 734.5,1218.5C 656.841,1210.43 579.175,1202.43 501.5,1194.5C 504.955,1184.3 508.122,1173.96 511,1163.5C 513.549,1151.29 515.049,1138.96 515.5,1126.5C 591.262,1120.39 665.262,1129.05 737.5,1152.5C 738.429,1153.69 738.762,1155.02 738.5,1156.5 Z"/></g>
<g><path style="opacity:1" fill="#f7c69e" d="M 839.5,1123.5 C 840.833,1123.5 842.167,1123.5 843.5,1123.5C 856.167,1124.17 868.833,1124.83 881.5,1125.5C 877.606,1132.04 871.939,1134.21 864.5,1132C 862.63,1130.63 860.63,1129.47 858.5,1128.5C 856.663,1130.18 855.33,1132.18 854.5,1134.5C 851.945,1137.25 849.612,1140.25 847.5,1143.5C 849.67,1146.7 852.003,1147.03 854.5,1144.5C 866.35,1139.82 878.017,1134.66 889.5,1129C 891.063,1127.26 892.73,1125.76 894.5,1124.5C 900.509,1124.33 906.509,1124.5 912.5,1125C 906.762,1131.41 900.429,1137.07 893.5,1142C 881.265,1150.28 868.598,1157.78 855.5,1164.5C 849.905,1164.19 844.572,1162.86 839.5,1160.5C 837.821,1158.83 835.821,1157.99 833.5,1158C 830.631,1161.2 827.465,1164.04 824,1166.5C 823.809,1168.71 823.309,1170.71 822.5,1172.5C 822.66,1170.8 822.494,1169.13 822,1167.5C 812.329,1174.25 801.829,1179.25 790.5,1182.5C 789.041,1182.43 787.708,1182.77 786.5,1183.5C 781.528,1184.42 776.528,1184.59 771.5,1184C 768.587,1178.93 766.254,1173.6 764.5,1168C 764.759,1166.74 765.426,1165.74 766.5,1165C 774.457,1160.65 782.457,1157.48 790.5,1155.5C 793.485,1154.67 796.151,1153.34 798.5,1151.5C 803.984,1149.59 808.984,1146.93 813.5,1143.5C 816.992,1142.59 819.992,1140.92 822.5,1138.5C 826.078,1136.92 829.411,1134.92 832.5,1132.5C 836.759,1130.92 839.092,1127.92 839.5,1123.5 Z"/></g>
<g><path style="opacity:1" fill="#feebca" d="M 883.5,1124.5 C 883.833,1124.5 884.167,1124.5 884.5,1124.5C 887.833,1124.5 891.167,1124.5 894.5,1124.5C 892.73,1125.76 891.063,1127.26 889.5,1129C 878.017,1134.66 866.35,1139.82 854.5,1144.5C 854.5,1141.17 854.5,1137.83 854.5,1134.5C 855.33,1132.18 856.663,1130.18 858.5,1128.5C 860.63,1129.47 862.63,1130.63 864.5,1132C 871.939,1134.21 877.606,1132.04 881.5,1125.5C 882.492,1125.67 883.158,1125.34 883.5,1124.5 Z"/></g>
<g><path style="opacity:1" fill="#a63222" d="M 785.5,1125.5 C 790.903,1133.64 795.237,1142.31 798.5,1151.5C 796.151,1153.34 793.485,1154.67 790.5,1155.5C 789.567,1150.37 788.234,1145.37 786.5,1140.5C 787.124,1140.08 787.457,1139.42 787.5,1138.5C 786.507,1134.21 785.84,1129.88 785.5,1125.5 Z"/></g>
<g><path style="opacity:1" fill="#a53122" d="M 822.5,1138.5 C 819.992,1140.92 816.992,1142.59 813.5,1143.5C 811.118,1137.73 808.451,1132.07 805.5,1126.5C 805.833,1126.17 806.167,1125.83 806.5,1125.5C 812.27,1129.37 817.604,1133.71 822.5,1138.5 Z"/></g>
<g><path style="opacity:1" fill="#fbe6c6" d="M 745.5,1128.5 C 748.007,1138.35 751.34,1148.02 755.5,1157.5C 751.031,1156.57 746.697,1155.23 742.5,1153.5C 742.766,1144.94 743.766,1136.61 745.5,1128.5 Z"/></g>
<g><path style="opacity:1" fill="#fab763" d="M 854.5,1134.5 C 854.5,1137.83 854.5,1141.17 854.5,1144.5C 852.003,1147.03 849.67,1146.7 847.5,1143.5C 849.612,1140.25 851.945,1137.25 854.5,1134.5 Z"/></g>
<g><path style="opacity:1" fill="#f7b25a" d="M 742.5,1153.5 C 746.697,1155.23 751.031,1156.57 755.5,1157.5C 761.742,1178.33 764.408,1199.67 763.5,1221.5C 755.167,1220.83 746.833,1220.17 738.5,1219.5C 738.876,1197.39 740.21,1175.39 742.5,1153.5 Z"/></g>
<g><path style="opacity:1" fill="#feebc8" d="M 839.5,1160.5 C 839.832,1170.19 839.498,1179.86 838.5,1189.5C 833.354,1186.92 828.021,1184.92 822.5,1183.5C 822.5,1179.83 822.5,1176.17 822.5,1172.5C 823.309,1170.71 823.809,1168.71 824,1166.5C 827.465,1164.04 830.631,1161.2 833.5,1158C 835.821,1157.99 837.821,1158.83 839.5,1160.5 Z"/></g>
<g><path style="opacity:1" fill="#e0432d" d="M 822.5,1172.5 C 822.5,1176.17 822.5,1179.83 822.5,1183.5C 821.258,1196.13 820.591,1208.8 820.5,1221.5C 812.928,1223.35 805.261,1224.68 797.5,1225.5C 795.167,1225.5 792.833,1225.5 790.5,1225.5C 790.5,1222.83 790.5,1220.17 790.5,1217.5C 790.5,1205.83 790.5,1194.17 790.5,1182.5C 801.829,1179.25 812.329,1174.25 822,1167.5C 822.494,1169.13 822.66,1170.8 822.5,1172.5 Z"/></g>
<g><path style="opacity:1" fill="#a74c50" d="M 790.5,1217.5 C 790.5,1220.17 790.5,1222.83 790.5,1225.5C 792.833,1225.5 795.167,1225.5 797.5,1225.5C 795.052,1226.47 792.385,1226.81 789.5,1226.5C 789.19,1223.29 789.523,1220.29 790.5,1217.5 Z"/></g>
<g><path style="opacity:1" fill="#023772" d="M 738.5,1219.5 C 746.833,1220.17 755.167,1220.83 763.5,1221.5C 770.981,1223.86 778.648,1225.2 786.5,1225.5C 785.751,1234.47 785.251,1243.47 785,1252.5C 768.338,1254.17 752.338,1251.51 737,1244.5C 736.803,1235.99 737.303,1227.66 738.5,1219.5 Z"/></g>
<g><path style="opacity:0.986" fill="#feba45" d="M 1272.5,1220.5 C 1243.33,1276.8 1208.49,1329.13 1168,1377.5C 1166.2,1376.68 1164.37,1376.01 1162.5,1375.5C 1154.4,1370.45 1145.73,1366.45 1136.5,1363.5C 1133.97,1362.73 1131.97,1361.23 1130.5,1359C 1138.1,1316.45 1148.43,1274.62 1161.5,1233.5C 1193.3,1230.42 1225.3,1227.92 1257.5,1226C 1262.92,1225.25 1267.92,1223.41 1272.5,1220.5 Z"/></g>
<g><path style="opacity:1" fill="#002855" d="M 817.5,1391.5 C 812.072,1378.32 806.406,1365.32 800.5,1352.5C 802.334,1317.48 804.501,1282.48 807,1247.5C 811.13,1293.78 814.963,1340.11 818.5,1386.5C 818.493,1388.37 818.16,1390.04 817.5,1391.5 Z"/></g>
<g><path style="opacity:0.971" fill="#6492c6" d="M 446.5,1264.5 C 453.084,1274.67 459.418,1285 465.5,1295.5C 465.047,1296.46 464.381,1297.29 463.5,1298C 454.002,1303.36 444.669,1308.86 435.5,1314.5C 429.418,1304 423.084,1293.67 416.5,1283.5C 426.802,1277.68 436.802,1271.35 446.5,1264.5 Z"/></g>
<g><path style="opacity:1" fill="#fbba48" d="M 745.5,1269.5 C 749.509,1269.86 753.509,1270.36 757.5,1271C 759.729,1273.55 760.062,1276.39 758.5,1279.5C 753.869,1280.66 749.202,1280.83 744.5,1280C 742.988,1276.28 743.321,1272.78 745.5,1269.5 Z"/></g>
<g><path style="opacity:0.978" fill="#003672" d="M 435.5,1314.5 C 444.669,1308.86 454.002,1303.36 463.5,1298C 464.381,1297.29 465.047,1296.46 465.5,1295.5C 473.429,1292.61 480.595,1293.94 487,1299.5C 526.75,1364 566.75,1428.33 607,1492.5C 615.624,1511.17 611.791,1526.67 595.5,1539C 577.557,1547.22 562.39,1543.72 550,1528.5C 510,1463.83 470,1399.17 430,1334.5C 429.333,1330.5 429.333,1326.5 430,1322.5C 431.104,1319.28 432.937,1316.61 435.5,1314.5 Z"/></g>
<g><path style="opacity:0.987" fill="#fee4b1" d="M 1228.5,1315.5 C 1237.17,1321.83 1245.83,1328.17 1254.5,1334.5C 1270.19,1346.85 1286.19,1358.85 1302.5,1370.5C 1311.17,1377.5 1319.83,1384.5 1328.5,1391.5C 1290.18,1417.33 1251.52,1442.66 1212.5,1467.5C 1203.69,1460.59 1194.69,1453.93 1185.5,1447.5C 1199.46,1403.28 1213.8,1359.28 1228.5,1315.5 Z"/></g>
<g><path style="opacity:1" fill="#4a75ac" d="M 446.5,1322.5 C 450.516,1321.9 454.016,1322.9 457,1325.5C 495.083,1387.33 533.416,1449 572,1510.5C 575.668,1518.09 573.502,1522.75 565.5,1524.5C 562.889,1524.44 560.722,1523.44 559,1521.5C 520.584,1459 481.917,1396.67 443,1334.5C 441.593,1329.64 442.76,1325.64 446.5,1322.5 Z"/></g>
<g><path style="opacity:0.957" fill="#013671" d="M 1136.5,1363.5 C 1145.73,1366.45 1154.4,1370.45 1162.5,1375.5C 1156.77,1386.62 1151.27,1397.95 1146,1409.5C 1137.69,1416.57 1130.02,1415.91 1123,1407.5C 1121.57,1403.59 1121.23,1399.59 1122,1395.5C 1127.12,1384.93 1131.95,1374.26 1136.5,1363.5 Z"/></g>
<g><path style="opacity:1" fill="#143c74" d="M 1185.5,1447.5 C 1194.69,1453.93 1203.69,1460.59 1212.5,1467.5C 1198.99,1477.18 1185.16,1486.52 1171,1495.5C 1175.2,1479.39 1180.03,1463.39 1185.5,1447.5 Z"/></g>
<g><path style="opacity:0.965" fill="#f6c59d" d="M 890.5,1518.5 C 899.088,1522.03 907.755,1525.36 916.5,1528.5C 913.562,1532.47 909.562,1534.64 904.5,1535C 894.82,1535.58 885.153,1535.41 875.5,1534.5C 874.257,1531.32 873.257,1527.99 872.5,1524.5C 878.643,1522.67 884.643,1520.67 890.5,1518.5 Z"/></g>
<g><path style="opacity:1" fill="#e0452f" d="M 916.5,1528.5 C 924.514,1531.23 932.514,1534.06 940.5,1537C 944.352,1540.14 944.352,1543.14 940.5,1546C 919.492,1546.83 898.492,1546.67 877.5,1545.5C 876.319,1541.93 875.652,1538.26 875.5,1534.5C 885.153,1535.41 894.82,1535.58 904.5,1535C 909.562,1534.64 913.562,1532.47 916.5,1528.5 Z"/></g>
<g><path style="opacity:0.982" fill="#f6c59e" d="M 765.5,1531.5 C 773.167,1531.5 780.833,1531.5 788.5,1531.5C 790.165,1536.16 791.832,1540.83 793.5,1545.5C 784.098,1548.07 774.764,1548.07 765.5,1545.5C 765.5,1540.83 765.5,1536.17 765.5,1531.5 Z"/></g>
<g><path style="opacity:1" fill="#e14a33" d="M 765.5,1545.5 C 774.764,1548.07 784.098,1548.07 793.5,1545.5C 796.077,1549.68 796.577,1554.01 795,1558.5C 793.591,1559.78 792.091,1560.78 790.5,1561.5C 783.5,1561.5 776.5,1561.5 769.5,1561.5C 768.312,1560.64 767.145,1559.64 766,1558.5C 765.501,1554.18 765.334,1549.85 765.5,1545.5 Z"/></g>
</svg>
