<?xml version="1.0" encoding="UTF-8"?>
<!DOCTYPE svg PUBLIC "-//W3C//DTD SVG 1.1//EN" "http://www.w3.org/Graphics/SVG/1.1/DTD/svg11.dtd">
<svg xmlns="http://www.w3.org/2000/svg" version="1.1" width="512px" height="512px" style="shape-rendering:geometricPrecision; text-rendering:geometricPrecision; image-rendering:optimizeQuality; fill-rule:evenodd; clip-rule:evenodd" xmlns:xlink="http://www.w3.org/1999/xlink">
<g><path style="opacity:0.968" fill="#feb69d" d="M 122.5,0.5 C 146.554,0.390286 160.221,12.2236 163.5,36C 160.937,57.396 148.937,69.2293 127.5,71.5C 105.897,69.3808 94.23,57.5474 92.5,36C 93.7507,16.6153 103.751,4.78201 122.5,0.5 Z"/></g>
<g><path style="opacity:0.99" fill="#46738b" d="M 243.5,174.5 C 248.322,170.589 253.322,166.922 258.5,163.5C 260.882,162.649 262.882,161.316 264.5,159.5C 267.822,158.342 269.988,156.008 271,152.5C 272.199,149.274 272.699,145.941 272.5,142.5C 289.317,129.918 305.984,117.084 322.5,104C 325.04,101.795 327.207,99.2953 329,96.5C 329.119,87.6316 324.952,84.7982 316.5,88C 298.764,102.186 281.097,116.353 263.5,130.5C 257.983,128.854 252.649,129.187 247.5,131.5C 246.167,132.167 244.833,132.833 243.5,133.5C 243.333,101.498 243.5,69.4983 244,37.5C 246.679,30.4021 251.845,26.5688 259.5,26C 332.531,25.0189 405.531,25.3523 478.5,27C 483.428,28.9268 486.594,32.4268 488,37.5C 488.667,90.8333 488.667,144.167 488,197.5C 485.635,203.202 481.469,206.702 475.5,208C 402.5,208.667 329.5,208.667 256.5,208C 250.531,206.702 246.365,203.202 244,197.5C 243.5,189.841 243.334,182.174 243.5,174.5 Z"/></g>
<g><path style="opacity:0.992" fill="#252d5c" d="M 101.5,81.5 C 106.99,95.9834 112.657,110.317 118.5,124.5C 121.057,132.003 123.724,139.503 126.5,147C 126.836,148.03 127.503,148.53 128.5,148.5C 127.508,180.427 127.174,212.427 127.5,244.5C 126.167,244.5 124.833,244.5 123.5,244.5C 109.833,244.5 96.1667,244.5 82.5,244.5C 82.5,201.833 82.5,159.167 82.5,116.5C 78.8932,116.379 76.7266,118.045 76,121.5C 75.5,160.165 75.3333,198.832 75.5,237.5C 64.1667,237.5 52.8333,237.5 41.5,237.5C 41.3333,195.832 41.5,154.165 42,112.5C 47.0408,96.1249 57.8741,85.9583 74.5,82C 83.4938,81.5002 92.4938,81.3336 101.5,81.5 Z"/></g>
<g><path style="opacity:1" fill="#faf6f7" d="M 101.5,81.5 C 107.167,81.5 112.833,81.5 118.5,81.5C 117.859,82.4822 117.193,83.4822 116.5,84.5C 118.696,87.5596 120.363,90.893 121.5,94.5C 119.101,98.7999 117.101,103.3 115.5,108C 116.696,113.477 117.696,118.977 118.5,124.5C 112.657,110.317 106.99,95.9834 101.5,81.5 Z"/></g>
<g><path style="opacity:1" fill="#fe3f3f" d="M 118.5,81.5 C 124.5,81.5 130.5,81.5 136.5,81.5C 136.982,82.4163 137.315,83.4163 137.5,84.5C 136.167,87.8333 134.833,91.1667 133.5,94.5C 135.899,98.7999 137.899,103.3 139.5,108C 138.304,113.477 137.304,118.977 136.5,124.5C 133.636,132.426 130.969,140.426 128.5,148.5C 127.503,148.53 126.836,148.03 126.5,147C 123.724,139.503 121.057,132.003 118.5,124.5C 117.696,118.977 116.696,113.477 115.5,108C 117.101,103.3 119.101,98.7999 121.5,94.5C 120.363,90.893 118.696,87.5596 116.5,84.5C 117.193,83.4822 117.859,82.4822 118.5,81.5 Z"/></g>
<g><path style="opacity:1" fill="#f9f5f6" d="M 136.5,81.5 C 141.833,81.5 147.167,81.5 152.5,81.5C 147.934,96.2057 142.601,110.539 136.5,124.5C 137.304,118.977 138.304,113.477 139.5,108C 137.899,103.3 135.899,98.7999 133.5,94.5C 134.833,91.1667 136.167,87.8333 137.5,84.5C 137.315,83.4163 136.982,82.4163 136.5,81.5 Z"/></g>
<g><path style="opacity:1" fill="#1b224a" d="M 152.5,81.5 C 163.231,81.0973 173.898,81.5973 184.5,83C 200.842,88.3422 210.342,99.5088 213,116.5C 213.333,128.167 213.667,139.833 214,151.5C 223.111,145.697 232.278,140.03 241.5,134.5C 246.776,144.431 252.442,154.098 258.5,163.5C 253.322,166.922 248.322,170.589 243.5,174.5C 229.861,182.655 216.194,190.822 202.5,199C 193.466,201.731 186.299,199.231 181,191.5C 180.08,188.899 179.413,186.232 179,183.5C 178.667,161.833 178.333,140.167 178,118.5C 176.559,117.13 174.892,116.13 173,115.5C 172.5,158.499 172.333,201.499 172.5,244.5C 158.833,244.5 145.167,244.5 131.5,244.5C 130.167,244.5 128.833,244.5 127.5,244.5C 127.174,212.427 127.508,180.427 128.5,148.5C 130.969,140.426 133.636,132.426 136.5,124.5C 142.601,110.539 147.934,96.2057 152.5,81.5 Z"/></g>
<g><path style="opacity:1" fill="#fc8b47" d="M 272.5,142.5 C 271.419,136.981 268.419,132.981 263.5,130.5C 281.097,116.353 298.764,102.186 316.5,88C 324.952,84.7982 329.119,87.6316 329,96.5C 327.207,99.2953 325.04,101.795 322.5,104C 305.984,117.084 289.317,129.918 272.5,142.5 Z"/></g>
<g><path style="opacity:1" fill="#fbb49c" d="M 263.5,130.5 C 268.419,132.981 271.419,136.981 272.5,142.5C 272.699,145.941 272.199,149.274 271,152.5C 269.988,156.008 267.822,158.342 264.5,159.5C 258.833,150.167 253.167,140.833 247.5,131.5C 252.649,129.187 257.983,128.854 263.5,130.5 Z"/></g>
<g><path style="opacity:1" fill="#f6f6f7" d="M 247.5,131.5 C 253.167,140.833 258.833,150.167 264.5,159.5C 262.882,161.316 260.882,162.649 258.5,163.5C 252.442,154.098 246.776,144.431 241.5,134.5C 241.842,133.662 242.508,133.328 243.5,133.5C 244.833,132.833 246.167,132.167 247.5,131.5 Z"/></g>
<g><path style="opacity:1" fill="#fefcfc" d="M 41.5,237.5 C 52.8333,237.5 64.1667,237.5 75.5,237.5C 75.5,240.167 75.5,242.833 75.5,245.5C 64.1667,245.5 52.8333,245.5 41.5,245.5C 41.5,242.833 41.5,240.167 41.5,237.5 Z"/></g>
<g><path style="opacity:0.988" fill="#414b82" d="M 82.5,244.5 C 96.1667,244.5 109.833,244.5 123.5,244.5C 123.5,286.833 123.5,329.167 123.5,371.5C 114.833,371.5 106.167,371.5 97.5,371.5C 92.5,371.5 87.5,371.5 82.5,371.5C 82.5,368.167 82.5,364.833 82.5,361.5C 103.042,359.124 114.375,347.624 116.5,327C 114.374,306.374 103.041,294.874 82.5,292.5C 82.5,276.5 82.5,260.5 82.5,244.5 Z"/></g>
<g><path style="opacity:0.99" fill="#343e6b" d="M 131.5,244.5 C 145.167,244.5 158.833,244.5 172.5,244.5C 172.5,281.167 172.5,317.833 172.5,354.5C 160.146,357.846 151.479,365.513 146.5,377.5C 141.625,375.039 136.625,373.039 131.5,371.5C 131.5,329.167 131.5,286.833 131.5,244.5 Z"/></g>
<g><path style="opacity:1" fill="#fbb59f" d="M 41.5,245.5 C 52.8333,245.5 64.1667,245.5 75.5,245.5C 73.558,259.647 65.558,265.147 51.5,262C 44.732,258.638 41.3987,253.138 41.5,245.5 Z"/></g>
<g><path style="opacity:0.982" fill="#feb59d" d="M 82.5,292.5 C 103.041,294.874 114.374,306.374 116.5,327C 114.375,347.624 103.042,359.124 82.5,361.5C 61.2592,359.759 49.9259,348.259 48.5,327C 49.9141,305.752 61.2474,294.252 82.5,292.5 Z"/></g>
<g><path style="opacity:0.966" fill="#feb69d" d="M 247.5,293.5 C 272.49,291.501 286.824,302.834 290.5,327.5C 286.114,354.69 270.448,365.524 243.5,360C 226.224,351.952 219.058,338.452 222,319.5C 226.017,306.318 234.517,297.651 247.5,293.5 Z"/></g>
<g><path style="opacity:0.967" fill="#7f391a" d="M 420.5,293.5 C 445.465,291.471 459.798,302.804 463.5,327.5C 459.167,354.66 443.501,365.493 416.5,360C 399.224,351.952 392.058,338.452 395,319.5C 399.017,306.318 407.517,297.651 420.5,293.5 Z"/></g>
<g><path style="opacity:0.993" fill="#b96646" d="M 172.5,354.5 C 188.761,352.799 201.095,358.799 209.5,372.5C 213.969,384.468 213.302,396.134 207.5,407.5C 207.5,408.167 207.167,408.5 206.5,408.5C 205.094,408.973 204.427,409.973 204.5,411.5C 195.524,419.753 184.858,423.419 172.5,422.5C 170.421,422.029 168.421,421.363 166.5,420.5C 148.827,411.479 142.16,397.146 146.5,377.5C 151.479,365.513 160.146,357.846 172.5,354.5 Z"/></g>
<g><path style="opacity:0.986" fill="#fdb59d" d="M 382.5,372.5 C 382.062,372.435 381.728,372.601 381.5,373C 385.307,380.017 386.474,387.517 385,395.5C 383.765,399.631 382.265,403.631 380.5,407.5C 380.5,408.167 380.167,408.5 379.5,408.5C 370.377,418.997 358.71,423.663 344.5,422.5C 342.97,421.933 341.47,421.267 340,420.5C 339.501,424.486 339.334,428.486 339.5,432.5C 341.167,432.5 342.833,432.5 344.5,432.5C 352.08,433.466 359.747,433.799 367.5,433.5C 360.092,439.449 351.758,440.949 342.5,438C 339.986,437.119 337.986,435.619 336.5,433.5C 337.492,433.672 338.158,433.338 338.5,432.5C 338.826,428.116 338.492,423.783 337.5,419.5C 321.223,410.025 315.223,396.025 319.5,377.5C 323.413,365.757 331.413,358.257 343.5,355C 360.558,352.202 373.558,358.035 382.5,372.5 Z"/></g>
<g><path style="opacity:0.795" fill="#e1a395" d="M 210.5,372.5 C 240.5,371.167 270.5,371.167 300.5,372.5C 290.494,372.334 280.494,372.5 270.5,373C 259.805,380.277 249.138,380.277 238.5,373C 229.173,372.5 219.839,372.334 210.5,372.5 Z"/></g>
<g><path style="opacity:1" fill="#7abdfd" d="M 65.5,371.5 C 69.7899,375.92 75.1233,377.92 81.5,377.5C 85.6935,377.602 89.6935,376.769 93.5,375C 95.3237,374.34 96.657,373.173 97.5,371.5C 106.167,371.5 114.833,371.5 123.5,371.5C 126.167,371.5 128.833,371.5 131.5,371.5C 136.625,373.039 141.625,375.039 146.5,377.5C 142.16,397.146 148.827,411.479 166.5,420.5C 166.5,424.5 166.5,428.5 166.5,432.5C 164.958,433.301 163.292,433.634 161.5,433.5C 151.833,433.5 142.167,433.5 132.5,433.5C 132.876,424.765 132.376,416.098 131,407.5C 130.292,406.619 129.458,405.953 128.5,405.5C 127.791,404.596 126.791,404.263 125.5,404.5C 125.5,414.5 125.5,424.5 125.5,434.5C 120.957,435.769 116.624,437.603 112.5,440C 108.616,443.061 104.949,446.227 101.5,449.5C 80.5,449.5 59.5,449.5 38.5,449.5C 38.8326,434.818 38.4993,420.152 37.5,405.5C 34.7633,406.069 33.2633,407.736 33,410.5C 32.5003,418.493 32.3336,426.493 32.5,434.5C 21.5,434.5 10.5,434.5 -0.5,434.5C -0.5,423.5 -0.5,412.5 -0.5,401.5C 4.61983,385.219 15.6198,375.386 32.5,372C 43.495,371.5 54.495,371.333 65.5,371.5 Z M 128.5,405.5 C 129.458,405.953 130.292,406.619 131,407.5C 132.376,416.098 132.876,424.765 132.5,433.5C 130.5,433.5 128.5,433.5 126.5,433.5C 125.861,423.773 126.528,414.44 128.5,405.5 Z"/></g>
<g><path style="opacity:0.947" fill="#f6b29e" d="M 65.5,371.5 C 71.1667,371.5 76.8333,371.5 82.5,371.5C 87.5,371.5 92.5,371.5 97.5,371.5C 96.657,373.173 95.3237,374.34 93.5,375C 89.6935,376.769 85.6935,377.602 81.5,377.5C 75.1233,377.92 69.7899,375.92 65.5,371.5 Z"/></g>
<g><path style="opacity:1" fill="#262d5c" d="M 209.5,372.5 C 209.833,372.5 210.167,372.5 210.5,372.5C 219.839,372.334 229.173,372.5 238.5,373C 249.138,380.277 259.805,380.277 270.5,373C 280.494,372.5 290.494,372.334 300.5,372.5C 307.376,372.351 313.709,374.018 319.5,377.5C 315.223,396.025 321.223,410.025 337.5,419.5C 338.492,423.783 338.826,428.116 338.5,432.5C 327.833,432.5 317.167,432.5 306.5,432.5C 306.825,424.981 306.492,417.648 305.5,410.5C 304.188,408.359 302.355,406.692 300,405.5C 299.5,414.827 299.334,424.161 299.5,433.5C 294.544,434.808 289.877,436.975 285.5,440C 281.596,443.083 277.929,446.25 274.5,449.5C 268.167,449.5 261.833,449.5 255.5,449.5C 248.839,441.826 240.506,436.66 230.5,434C 228.19,433.503 225.857,433.337 223.5,433.5C 220.038,432.518 216.371,432.185 212.5,432.5C 212.827,423.318 212.493,414.318 211.5,405.5C 210.167,406.167 208.833,406.833 207.5,407.5C 213.302,396.134 213.969,384.468 209.5,372.5 Z"/></g>
<g><path style="opacity:1" fill="#55c5a4" d="M 412.5,371.5 C 416.359,376.34 421.525,378.674 428,378.5C 434.844,378.392 440.677,376.059 445.5,371.5C 454.839,371.334 464.173,371.5 473.5,372C 492.918,373.932 505.585,384.099 511.5,402.5C 511.5,413.167 511.5,423.833 511.5,434.5C 500.5,434.5 489.5,434.5 478.5,434.5C 478.666,426.493 478.5,418.493 478,410.5C 476.945,407.944 475.112,406.277 472.5,405.5C 471.504,419.657 471.171,433.99 471.5,448.5C 456.5,448.5 441.5,448.5 426.5,448.5C 420.513,441.164 412.846,436.331 403.5,434C 396.987,433.828 390.653,433.328 384.5,432.5C 384.666,423.494 384.5,414.494 384,405.5C 382.887,406.305 381.721,406.972 380.5,407.5C 382.265,403.631 383.765,399.631 385,395.5C 386.474,387.517 385.307,380.017 381.5,373C 381.728,372.601 382.062,372.435 382.5,372.5C 392.418,371.526 402.418,371.193 412.5,371.5 Z"/></g>
<g><path style="opacity:0.795" fill="#7f3d1e" d="M 412.5,371.5 C 423.5,371.5 434.5,371.5 445.5,371.5C 440.677,376.059 434.844,378.392 428,378.5C 421.525,378.674 416.359,376.34 412.5,371.5 Z"/></g>
<g><path style="opacity:0.341" fill="#b4b8d2" d="M 128.5,405.5 C 126.528,414.44 125.861,423.773 126.5,433.5C 126.5,434.167 126.167,434.5 125.5,434.5C 125.5,424.5 125.5,414.5 125.5,404.5C 126.791,404.263 127.791,404.596 128.5,405.5 Z"/></g>
<g><path style="opacity:0.906" fill="#5a4866" d="M 211.5,405.5 C 212.493,414.318 212.827,423.318 212.5,432.5C 216.371,432.185 220.038,432.518 223.5,433.5C 219.298,433.817 215.298,433.483 211.5,432.5C 211.5,423.5 211.5,414.5 211.5,405.5 Z"/></g>
<g><path style="opacity:0.953" fill="#4e4060" d="M 206.5,408.5 C 205.563,416.445 205.23,424.445 205.5,432.5C 201.702,433.483 197.702,433.817 193.5,433.5C 186.313,433.825 179.313,433.491 172.5,432.5C 183.167,432.5 193.833,432.5 204.5,432.5C 204.5,425.5 204.5,418.5 204.5,411.5C 204.427,409.973 205.094,408.973 206.5,408.5 Z"/></g>
<g><path style="opacity:1" fill="#272d5b" d="M 204.5,411.5 C 204.5,418.5 204.5,425.5 204.5,432.5C 193.833,432.5 183.167,432.5 172.5,432.5C 172.5,429.167 172.5,425.833 172.5,422.5C 184.858,423.419 195.524,419.753 204.5,411.5 Z"/></g>
<g><path style="opacity:1" fill="#5bc4a3" d="M 379.5,408.5 C 378.563,416.445 378.23,424.445 378.5,432.5C 375.038,433.482 371.371,433.815 367.5,433.5C 359.747,433.799 352.08,433.466 344.5,432.5C 344.5,429.167 344.5,425.833 344.5,422.5C 358.71,423.663 370.377,418.997 379.5,408.5 Z"/></g>
<g><path style="opacity:0.958" fill="#bc6545" d="M 166.5,432.5 C 168.5,432.5 170.5,432.5 172.5,432.5C 179.313,433.491 186.313,433.825 193.5,433.5C 182.804,441.444 172.138,441.444 161.5,433.5C 163.292,433.634 164.958,433.301 166.5,432.5 Z"/></g>
<g><path style="opacity:1" fill="#4e4f75" d="M 305.5,410.5 C 306.492,417.648 306.825,424.981 306.5,432.5C 317.167,432.5 327.833,432.5 338.5,432.5C 338.158,433.338 337.492,433.672 336.5,433.5C 326.167,433.5 315.833,433.5 305.5,433.5C 305.5,425.833 305.5,418.167 305.5,410.5 Z"/></g>
<g><path style="opacity:1" fill="#fe3c3c" d="M 205.5,432.5 C 207.5,432.5 209.5,432.5 211.5,432.5C 215.298,433.483 219.298,433.817 223.5,433.5C 225.857,433.337 228.19,433.503 230.5,434C 240.506,436.66 248.839,441.826 255.5,449.5C 259.306,455.587 261.306,462.254 261.5,469.5C 261.5,478.167 261.5,486.833 261.5,495.5C 250.5,495.5 239.5,495.5 228.5,495.5C 228.666,487.16 228.5,478.827 228,470.5C 227.208,468.356 225.708,467.023 223.5,466.5C 223.44,465.957 223.107,465.624 222.5,465.5C 221.501,480.152 221.167,494.818 221.5,509.5C 192.833,509.5 164.167,509.5 135.5,509.5C 135.829,494.99 135.496,480.657 134.5,466.5C 131.459,467.375 129.625,469.375 129,472.5C 128.5,480.159 128.334,487.826 128.5,495.5C 117.5,495.5 106.5,495.5 95.5,495.5C 95.3335,484.828 95.5002,474.161 96,463.5C 97.5692,458.7 99.4026,454.034 101.5,449.5C 104.949,446.227 108.616,443.061 112.5,440C 116.624,437.603 120.957,435.769 125.5,434.5C 126.167,434.5 126.5,434.167 126.5,433.5C 128.5,433.5 130.5,433.5 132.5,433.5C 142.167,433.5 151.833,433.5 161.5,433.5C 172.138,441.444 182.804,441.444 193.5,433.5C 197.702,433.817 201.702,433.483 205.5,432.5 Z"/></g>
<g><path style="opacity:1" fill="#78bdfe" d="M 378.5,432.5 C 380.5,432.5 382.5,432.5 384.5,432.5C 390.653,433.328 396.987,433.828 403.5,434C 412.846,436.331 420.513,441.164 426.5,448.5C 426.842,449.338 427.508,449.672 428.5,449.5C 432.516,455.885 434.516,462.885 434.5,470.5C 434.5,478.833 434.5,487.167 434.5,495.5C 423.5,495.5 412.5,495.5 401.5,495.5C 401.666,487.16 401.5,478.827 401,470.5C 399.549,468.536 397.716,467.203 395.5,466.5C 394.504,480.657 394.171,494.99 394.5,509.5C 365.833,509.5 337.167,509.5 308.5,509.5C 308.829,494.99 308.496,480.657 307.5,466.5C 304.459,467.375 302.625,469.375 302,472.5C 301.5,480.159 301.334,487.826 301.5,495.5C 290.5,495.5 279.5,495.5 268.5,495.5C 268.333,484.828 268.5,474.161 269,463.5C 270.569,458.7 272.403,454.034 274.5,449.5C 277.929,446.25 281.596,443.083 285.5,440C 289.877,436.975 294.544,434.808 299.5,433.5C 301.5,433.5 303.5,433.5 305.5,433.5C 315.833,433.5 326.167,433.5 336.5,433.5C 337.986,435.619 339.986,437.119 342.5,438C 351.758,440.949 360.092,439.449 367.5,433.5C 371.371,433.815 375.038,433.482 378.5,432.5 Z"/></g>
<g><path style="opacity:0.93" fill="#feb69d" d="M -0.5,434.5 C 10.5,434.5 21.5,434.5 32.5,434.5C 32.5,439.5 32.5,444.5 32.5,449.5C 21.5,449.5 10.5,449.5 -0.5,449.5C -0.5,444.5 -0.5,439.5 -0.5,434.5 Z"/></g>
<g><path style="opacity:0.966" fill="#7f3d1e" d="M 478.5,434.5 C 489.5,434.5 500.5,434.5 511.5,434.5C 511.5,439.5 511.5,444.5 511.5,449.5C 500.5,449.5 489.5,449.5 478.5,449.5C 478.5,444.5 478.5,439.5 478.5,434.5 Z"/></g>
<g><path style="opacity:0.835" fill="#649676" d="M 472.5,405.5 C 472.5,420.167 472.5,434.833 472.5,449.5C 457.833,449.5 443.167,449.5 428.5,449.5C 427.508,449.672 426.842,449.338 426.5,448.5C 441.5,448.5 456.5,448.5 471.5,448.5C 471.171,433.99 471.504,419.657 472.5,405.5 Z"/></g>
<g><path style="opacity:0.99" fill="#d65542" d="M 261.5,469.5 C 262.493,478.318 262.827,487.318 262.5,496.5C 251.167,496.5 239.833,496.5 228.5,496.5C 228.5,496.167 228.5,495.833 228.5,495.5C 239.5,495.5 250.5,495.5 261.5,495.5C 261.5,486.833 261.5,478.167 261.5,469.5 Z"/></g>
<g><path style="opacity:1" fill="#c9b9c4" d="M 434.5,470.5 C 435.493,478.984 435.826,487.651 435.5,496.5C 424.167,496.5 412.833,496.5 401.5,496.5C 401.5,496.167 401.5,495.833 401.5,495.5C 412.5,495.5 423.5,495.5 434.5,495.5C 434.5,487.167 434.5,478.833 434.5,470.5 Z"/></g>
<g><path style="opacity:0.958" fill="#bb6645" d="M 95.5,495.5 C 106.5,495.5 117.5,495.5 128.5,495.5C 128.5,500.5 128.5,505.5 128.5,510.5C 117.5,510.5 106.5,510.5 95.5,510.5C 95.5,505.5 95.5,500.5 95.5,495.5 Z"/></g>
<g><path style="opacity:0.93" fill="#b96745" d="M 228.5,496.5 C 239.833,496.5 251.167,496.5 262.5,496.5C 262.5,501.167 262.5,505.833 262.5,510.5C 251.167,510.5 239.833,510.5 228.5,510.5C 228.5,505.833 228.5,501.167 228.5,496.5 Z"/></g>
<g><path style="opacity:0.959" fill="#fcb6a0" d="M 268.5,495.5 C 279.5,495.5 290.5,495.5 301.5,495.5C 301.5,500.5 301.5,505.5 301.5,510.5C 290.5,510.5 279.5,510.5 268.5,510.5C 268.5,505.5 268.5,500.5 268.5,495.5 Z"/></g>
<g><path style="opacity:0.931" fill="#feb69d" d="M 401.5,496.5 C 412.833,496.5 424.167,496.5 435.5,496.5C 435.5,501.167 435.5,505.833 435.5,510.5C 424.167,510.5 412.833,510.5 401.5,510.5C 401.5,505.833 401.5,501.167 401.5,496.5 Z"/></g>
<g><path style="opacity:0.753" fill="#e74a3f" d="M 223.5,466.5 C 222.504,480.99 222.171,495.657 222.5,510.5C 193.167,510.5 163.833,510.5 134.5,510.5C 134.5,495.833 134.5,481.167 134.5,466.5C 135.496,480.657 135.829,494.99 135.5,509.5C 164.167,509.5 192.833,509.5 221.5,509.5C 221.167,494.818 221.501,480.152 222.5,465.5C 223.107,465.624 223.44,465.957 223.5,466.5 Z"/></g>
<g><path style="opacity:0.753" fill="#a6bbde" d="M 307.5,466.5 C 308.496,480.657 308.829,494.99 308.5,509.5C 337.167,509.5 365.833,509.5 394.5,509.5C 394.171,494.99 394.504,480.657 395.5,466.5C 395.5,481.167 395.5,495.833 395.5,510.5C 366.167,510.5 336.833,510.5 307.5,510.5C 307.5,495.833 307.5,481.167 307.5,466.5 Z"/></g>
</svg>
