<?xml version="1.0" encoding="UTF-8"?>
<!DOCTYPE svg PUBLIC "-//W3C//DTD SVG 1.1//EN" "http://www.w3.org/Graphics/SVG/1.1/DTD/svg11.dtd">
<svg xmlns="http://www.w3.org/2000/svg" version="1.1" width="512px" height="512px" style="shape-rendering:geometricPrecision; text-rendering:geometricPrecision; image-rendering:optimizeQuality; fill-rule:evenodd; clip-rule:evenodd" xmlns:xlink="http://www.w3.org/1999/xlink">
<g><path style="opacity:0.969" fill="#010000" d="M 178.5,15.5 C 200.733,12.5571 220.733,17.7237 238.5,31C 244.376,36.7079 250.042,42.5412 255.5,48.5C 278.759,18.581 308.759,8.74764 345.5,19C 364.217,25.7223 378.717,37.5556 389,54.5C 409.846,96.5282 406.512,136.528 379,174.5C 366.268,190.237 352.434,205.07 337.5,219C 312.128,241.374 286.461,263.374 260.5,285C 255.816,286.102 251.483,285.436 247.5,283C 223.167,262 198.833,241 174.5,220C 164.333,209.833 154.167,199.667 144,189.5C 129.493,173.497 118.826,155.164 112,134.5C 103.189,99.2114 110.189,67.5448 133,39.5C 145.634,26.6007 160.801,18.6007 178.5,15.5 Z"/></g>
<g><path style="opacity:1" fill="#fe7a78" d="M 181.5,35.5 C 203.141,32.9882 220.975,39.9882 235,56.5C 239.831,62.8256 244.165,69.4923 248,76.5C 252.633,80.3246 257.467,80.4913 262.5,77C 270.833,59.3333 283.833,46.3333 301.5,38C 336.905,30.7857 362.072,43.619 377,76.5C 386.552,104.42 383.219,130.753 367,155.5C 355.691,171.82 342.524,186.653 327.5,200C 304.462,220.706 281.129,241.04 257.5,261C 255.711,261.52 254.044,261.187 252.5,260C 236.461,245.626 220.128,231.626 203.5,218C 189.061,205.564 175.228,192.397 162,178.5C 147.581,163.672 137.248,146.339 131,126.5C 123.912,95.772 131.745,69.6054 154.5,48C 162.831,42.1648 171.831,37.9982 181.5,35.5 Z"/></g>
<g><path style="opacity:0.985" fill="#000000" d="M -0.5,307.5 C -0.5,253.833 -0.5,200.167 -0.5,146.5C 8.31036,121.257 25.977,111.424 52.5,117C 66.6063,122.106 75.4396,131.939 79,146.5C 79.5,176.165 79.6666,205.831 79.5,235.5C 89.2721,235.035 97.9388,237.869 105.5,244C 114.833,253.333 124.167,262.667 133.5,272C 153.996,286.056 176.663,294.389 201.5,297C 225.296,303.796 239.796,319.296 245,343.5C 245.667,392.5 245.667,441.5 245,490.5C 243.833,492.333 242.333,493.833 240.5,495C 201.833,495.667 163.167,495.667 124.5,495C 122.667,493.833 121.167,492.333 120,490.5C 119.667,471.167 119.333,451.833 119,432.5C 99.7551,422.794 80.5884,412.961 61.5,403C 26.5066,380.499 5.83993,348.666 -0.5,307.5 Z"/></g>
<g><path style="opacity:0.986" fill="#000000" d="M 511.5,146.5 C 511.5,200.167 511.5,253.833 511.5,307.5C 508.876,323.874 503.709,339.54 496,354.5C 491.945,358.798 487.112,360.131 481.5,358.5C 480.588,356.405 479.421,354.405 478,352.5C 477.333,349.833 477.333,347.167 478,344.5C 485.289,330.342 489.622,315.342 491,299.5C 491.667,249.833 491.667,200.167 491,150.5C 485.365,136.617 475.532,132.451 461.5,138C 456.769,140.956 453.602,145.123 452,150.5C 451.167,180.839 451.333,211.172 452.5,241.5C 472.656,256.492 476.823,275.159 465,297.5C 445.833,318 426,337.833 405.5,357C 394.128,358.298 389.961,353.464 393,342.5C 411,324.5 429,306.5 447,288.5C 455.313,273.774 451.813,262.94 436.5,256C 431.266,255.023 426.266,255.69 421.5,258C 410.863,267.636 400.529,277.636 390.5,288C 367.294,303.961 341.627,313.628 313.5,317C 299.064,322.435 289.898,332.601 286,347.5C 285.5,390.165 285.333,432.832 285.5,475.5C 314.167,475.5 342.833,475.5 371.5,475.5C 371.333,457.497 371.5,439.497 372,421.5C 372.915,420.672 373.581,419.672 374,418.5C 388.089,411.206 402.256,404.039 416.5,397C 422.21,395.841 426.544,397.674 429.5,402.5C 430.848,406.604 430.181,410.437 427.5,414C 415.745,420.294 403.912,426.461 392,432.5C 391.667,451.833 391.333,471.167 391,490.5C 389.833,492.333 388.333,493.833 386.5,495C 347.833,495.667 309.167,495.667 270.5,495C 268.667,493.833 267.167,492.333 266,490.5C 265.333,441.5 265.333,392.5 266,343.5C 271.204,319.296 285.704,303.796 309.5,297C 334.289,294.265 356.955,285.932 377.5,272C 388.23,260.601 399.563,249.934 411.5,240C 417.737,236.607 424.404,235.107 431.5,235.5C 431.333,205.831 431.5,176.165 432,146.5C 435.56,131.939 444.394,122.106 458.5,117C 485.023,111.424 502.69,121.257 511.5,146.5 Z"/></g>
<g><path style="opacity:1" fill="#fbe7cf" d="M 34.5,135.5 C 46.6522,134.177 54.8188,139.177 59,150.5C 59.8332,180.839 59.6665,211.172 58.5,241.5C 38.344,256.492 34.1773,275.159 46,297.5C 65.1667,318 85,337.833 105.5,357C 116.872,358.298 121.039,353.464 118,342.5C 100,324.5 82,306.5 64,288.5C 57.4002,278.333 58.2335,268.833 66.5,260C 73.762,254.907 81.4287,254.241 89.5,258C 100.137,267.636 110.471,277.636 120.5,288C 143.864,303.569 169.531,313.236 197.5,317C 211.936,322.435 221.102,332.601 225,347.5C 225.5,390.165 225.667,432.832 225.5,475.5C 196.833,475.5 168.167,475.5 139.5,475.5C 139.667,457.83 139.5,440.164 139,422.5C 138.333,421.167 137.667,419.833 137,418.5C 117.578,408.539 98.0777,398.705 78.5,389C 43.3818,369.518 23.8818,339.685 20,299.5C 19.3333,249.833 19.3333,200.167 20,150.5C 22.3509,142.984 27.1842,137.984 34.5,135.5 Z"/></g>
<g><path style="opacity:0.999" fill="#fbe7cf" d="M 481.5,358.5 C 477.224,365.109 472.224,371.109 466.5,376.5C 457.345,371.085 451.345,373.418 448.5,383.5C 448.886,385.932 449.553,388.266 450.5,390.5C 443.628,394.768 436.628,398.768 429.5,402.5C 426.544,397.674 422.21,395.841 416.5,397C 402.256,404.039 388.089,411.206 374,418.5C 373.581,419.672 372.915,420.672 372,421.5C 371.5,439.497 371.333,457.497 371.5,475.5C 342.833,475.5 314.167,475.5 285.5,475.5C 285.333,432.832 285.5,390.165 286,347.5C 289.898,332.601 299.064,322.435 313.5,317C 341.627,313.628 367.294,303.961 390.5,288C 400.529,277.636 410.863,267.636 421.5,258C 426.266,255.69 431.266,255.023 436.5,256C 451.813,262.94 455.313,273.774 447,288.5C 429,306.5 411,324.5 393,342.5C 389.961,353.464 394.128,358.298 405.5,357C 426,337.833 445.833,318 465,297.5C 476.823,275.159 472.656,256.492 452.5,241.5C 451.333,211.172 451.167,180.839 452,150.5C 453.602,145.123 456.769,140.956 461.5,138C 475.532,132.451 485.365,136.617 491,150.5C 491.667,200.167 491.667,249.833 491,299.5C 489.622,315.342 485.289,330.342 478,344.5C 477.333,347.167 477.333,349.833 478,352.5C 479.421,354.405 480.588,356.405 481.5,358.5 Z"/></g>
<g><path style="opacity:0.949" fill="#040303" d="M 466.5,376.5 C 471.169,388.978 466.836,394.478 453.5,393C 452.429,392.148 451.429,391.315 450.5,390.5C 449.553,388.266 448.886,385.932 448.5,383.5C 451.345,373.418 457.345,371.085 466.5,376.5 Z"/></g>
</svg>
