<?xml version="1.0" encoding="UTF-8"?>
<!DOCTYPE svg PUBLIC "-//W3C//DTD SVG 1.1//EN" "http://www.w3.org/Graphics/SVG/1.1/DTD/svg11.dtd">
<svg xmlns="http://www.w3.org/2000/svg" version="1.1" width="512px" height="512px" style="shape-rendering:geometricPrecision; text-rendering:geometricPrecision; image-rendering:optimizeQuality; fill-rule:evenodd; clip-rule:evenodd" xmlns:xlink="http://www.w3.org/1999/xlink">
<g><path style="opacity:0.994" fill="#901bb0" d="M 75.5,31.5 C 85.8333,42.1667 96.1667,52.8333 106.5,63.5C 93.7963,63.2249 81.1296,63.5582 68.5,64.5C 60.5888,58.0939 53.0888,51.0939 46,43.5C 45.5172,42.552 45.3505,41.552 45.5,40.5C 54.06,33.187 64.06,30.187 75.5,31.5 Z"/></g>
<g><path style="opacity:1" fill="#9919b2" d="M 75.5,31.5 C 83.5,31.5 91.5,31.5 99.5,31.5C 109.833,42.1667 120.167,52.8333 130.5,63.5C 122.5,63.5 114.5,63.5 106.5,63.5C 96.1667,52.8333 85.8333,42.1667 75.5,31.5 Z"/></g>
<g><path style="opacity:1" fill="#9f17b4" d="M 99.5,31.5 C 106.167,31.5 112.833,31.5 119.5,31.5C 129.833,42.1667 140.167,52.8333 150.5,63.5C 143.833,63.5 137.167,63.5 130.5,63.5C 120.167,52.8333 109.833,42.1667 99.5,31.5 Z"/></g>
<g><path style="opacity:1" fill="#a516b5" d="M 119.5,31.5 C 126.167,31.5 132.833,31.5 139.5,31.5C 149.833,42.1667 160.167,52.8333 170.5,63.5C 163.833,63.5 157.167,63.5 150.5,63.5C 140.167,52.8333 129.833,42.1667 119.5,31.5 Z"/></g>
<g><path style="opacity:1" fill="#ab14b7" d="M 139.5,31.5 C 146.5,31.5 153.5,31.5 160.5,31.5C 170.833,42.1667 181.167,52.8333 191.5,63.5C 184.5,63.5 177.5,63.5 170.5,63.5C 160.167,52.8333 149.833,42.1667 139.5,31.5 Z"/></g>
<g><path style="opacity:0.998" fill="#b113b8" d="M 160.5,31.5 C 168.167,31.5 175.833,31.5 183.5,31.5C 201.833,50.5 220.5,69.1667 239.5,87.5C 239.5,95.1667 239.5,102.833 239.5,110.5C 228.833,100.167 218.167,89.8333 207.5,79.5C 209.167,67.1667 203.833,61.8333 191.5,63.5C 181.167,52.8333 170.833,42.1667 160.5,31.5 Z"/></g>
<g><path style="opacity:1" fill="#b911ba" d="M 183.5,31.5 C 224.5,27.8333 243.167,46.5 239.5,87.5C 220.5,69.1667 201.833,50.5 183.5,31.5 Z"/></g>
<g><path style="opacity:0.982" fill="#ee04c7" d="M 377.5,31.5 C 411.167,65.8333 445.167,99.8333 479.5,133.5C 480.015,144.742 478.681,155.742 475.5,166.5C 465.553,157.889 455.886,148.889 446.5,139.5C 445.829,99.6721 426.163,74.8388 387.5,65C 383.247,64.8002 379.08,64.3002 375,63.5C 374.617,64.056 374.117,64.3893 373.5,64.5C 363.45,55.9562 353.784,46.7895 344.5,37C 345.056,36.6174 345.389,36.1174 345.5,35.5C 355.881,32.216 366.548,30.8827 377.5,31.5 Z"/></g>
<g><path style="opacity:0.991" fill="#f602c9" d="M 377.5,31.5 C 384.599,31.3413 391.599,32.008 398.5,33.5C 424.116,60.7835 450.45,87.4501 477.5,113.5C 479.045,120.032 479.712,126.699 479.5,133.5C 445.167,99.8333 411.167,65.8333 377.5,31.5 Z"/></g>
<g><path style="opacity:0.96" fill="#fc00cb" d="M 398.5,33.5 C 432.066,41.561 456.232,61.2277 471,92.5C 473.877,99.2952 476.043,106.295 477.5,113.5C 450.45,87.4501 424.116,60.7835 398.5,33.5 Z"/></g>
<g><path style="opacity:0.99" fill="#851ead" d="M 45.5,40.5 C 45.3505,41.552 45.5172,42.552 46,43.5C 53.0888,51.0939 60.5888,58.0939 68.5,64.5C 66.0303,66.0817 64.5303,68.415 64,71.5C 63.5007,76.4889 63.3341,81.4889 63.5,86.5C 53.5,76.8333 43.5,67.1667 33.5,57.5C 35.9523,50.7186 39.9523,45.0519 45.5,40.5 Z"/></g>
<g><path style="opacity:0.981" fill="#e007c4" d="M 345.5,35.5 C 345.389,36.1174 345.056,36.6174 344.5,37C 353.784,46.7895 363.45,55.9562 373.5,64.5C 362.195,64.6595 351.529,67.3262 341.5,72.5C 333.255,65.7601 325.422,58.4268 318,50.5C 317.536,49.9056 317.369,49.2389 317.5,48.5C 326.047,42.5611 335.38,38.2278 345.5,35.5 Z"/></g>
<g><path style="opacity:0.984" fill="#d30bc0" d="M 317.5,48.5 C 317.369,49.2389 317.536,49.9056 318,50.5C 325.422,58.4268 333.255,65.7601 341.5,72.5C 332.626,77.7028 324.959,84.3695 318.5,92.5C 311.556,83.8877 303.889,75.8877 295.5,68.5C 301.91,60.7538 309.243,54.0871 317.5,48.5 Z"/></g>
<g><path style="opacity:1" fill="#7b21aa" d="M 33.5,57.5 C 43.5,67.1667 53.5,76.8333 63.5,86.5C 63.5,100.833 63.5,115.167 63.5,129.5C 52.8333,119.167 42.1667,108.833 31.5,98.5C 31.3335,86.4954 31.5001,74.4954 32,62.5C 32.3519,60.7525 32.8519,59.0858 33.5,57.5 Z"/></g>
<g><path style="opacity:1" fill="#ab14b7" d="M 207.5,79.5 C 218.167,89.8333 228.833,100.167 239.5,110.5C 239.5,117.5 239.5,124.5 239.5,131.5C 228.833,121.167 218.167,110.833 207.5,100.5C 207.5,93.5 207.5,86.5 207.5,79.5 Z"/></g>
<g><path style="opacity:0.985" fill="#c60ebd" d="M 295.5,68.5 C 303.889,75.8877 311.556,83.8877 318.5,92.5C 313.446,99.9422 309.446,107.942 306.5,116.5C 298.088,109.593 290.088,102.093 282.5,94C 281.552,93.5172 280.552,93.3505 279.5,93.5C 283.6,84.2819 288.933,75.9486 295.5,68.5 Z"/></g>
<g><path style="opacity:1" fill="#7323a8" d="M 31.5,98.5 C 42.1667,108.833 52.8333,119.167 63.5,129.5C 63.5,138.167 63.5,146.833 63.5,155.5C 52.8333,145.167 42.1667,134.833 31.5,124.5C 31.5,115.833 31.5,107.167 31.5,98.5 Z"/></g>
<g><path style="opacity:1" fill="#a516b5" d="M 207.5,100.5 C 218.167,110.833 228.833,121.167 239.5,131.5C 239.5,138.167 239.5,144.833 239.5,151.5C 228.833,141.167 218.167,130.833 207.5,120.5C 207.5,113.833 207.5,107.167 207.5,100.5 Z"/></g>
<g><path style="opacity:0.983" fill="#ba11ba" d="M 279.5,93.5 C 280.552,93.3505 281.552,93.5172 282.5,94C 290.088,102.093 298.088,109.593 306.5,116.5C 303.833,129.167 303.833,141.833 306.5,154.5C 295.167,143.5 283.833,132.5 272.5,121.5C 273.267,111.764 275.601,102.431 279.5,93.5 Z"/></g>
<g><path style="opacity:1" fill="#9f17b4" d="M 207.5,120.5 C 218.167,130.833 228.833,141.167 239.5,151.5C 239.5,158.167 239.5,164.833 239.5,171.5C 228.833,161.167 218.167,150.833 207.5,140.5C 207.5,133.833 207.5,127.167 207.5,120.5 Z"/></g>
<g><path style="opacity:0.985" fill="#b113b8" d="M 272.5,121.5 C 283.833,132.5 295.167,143.5 306.5,154.5C 315.031,180.365 332.364,197.032 358.5,204.5C 358.389,205.117 358.056,205.617 357.5,206C 368.369,216.702 379.035,227.535 389.5,238.5C 382.352,239.492 375.019,239.825 367.5,239.5C 335.473,207.14 303.473,174.806 271.5,142.5C 271.175,135.313 271.509,128.313 272.5,121.5 Z"/></g>
<g><path style="opacity:1" fill="#6d24a7" d="M 31.5,124.5 C 42.1667,134.833 52.8333,145.167 63.5,155.5C 63.5,164.5 63.5,173.5 63.5,182.5C 52.8333,172.167 42.1667,161.833 31.5,151.5C 31.5,142.5 31.5,133.5 31.5,124.5 Z"/></g>
<g><path style="opacity:1" fill="#9919b2" d="M 207.5,140.5 C 218.167,150.833 228.833,161.167 239.5,171.5C 239.5,179.5 239.5,187.5 239.5,195.5C 228.833,185.167 218.167,174.833 207.5,164.5C 207.5,156.5 207.5,148.5 207.5,140.5 Z"/></g>
<g><path style="opacity:0.989" fill="#aa15b6" d="M 271.5,142.5 C 303.473,174.806 335.473,207.14 367.5,239.5C 324.777,234.939 294.943,212.939 278,173.5C 274.088,163.522 271.922,153.189 271.5,142.5 Z"/></g>
<g><path style="opacity:0.998" fill="#6626a5" d="M 31.5,151.5 C 42.1667,161.833 52.8333,172.167 63.5,182.5C 63.3339,188.176 63.5006,193.843 64,199.5C 64.5,204 67,206.5 71.5,207C 77.1569,207.499 82.8236,207.666 88.5,207.5C 98.8333,218.167 109.167,228.833 119.5,239.5C 110.167,239.5 100.833,239.5 91.5,239.5C 71.8333,219.167 51.8333,199.167 31.5,179.5C 31.5,170.167 31.5,160.833 31.5,151.5 Z"/></g>
<g><path style="opacity:0.977" fill="#e007c4" d="M 446.5,139.5 C 455.886,148.889 465.553,157.889 475.5,166.5C 472.497,176.172 468.164,185.172 462.5,193.5C 454.167,186.167 445.833,178.833 437.5,171.5C 442.92,161.566 445.92,150.9 446.5,139.5 Z"/></g>
<g><path style="opacity:0.994" fill="#901bb0" d="M 207.5,164.5 C 218.167,174.833 228.833,185.167 239.5,195.5C 240.973,208.087 237.306,218.753 228.5,227.5C 228.649,226.448 228.483,225.448 228,224.5C 220.329,217.662 212.829,210.662 205.5,203.5C 206.09,202.234 206.59,200.901 207,199.5C 207.5,187.838 207.667,176.171 207.5,164.5 Z"/></g>
<g><path style="opacity:0.997" fill="#6027a4" d="M 31.5,179.5 C 51.8333,199.167 71.8333,219.167 91.5,239.5C 46.5,244.5 26.5,224.5 31.5,179.5 Z"/></g>
<g><path style="opacity:0.986" fill="#d30bc1" d="M 437.5,171.5 C 445.833,178.833 454.167,186.167 462.5,193.5C 457.247,201.422 450.914,208.422 443.5,214.5C 436.167,206.5 428.5,198.833 420.5,191.5C 426.946,185.396 432.613,178.729 437.5,171.5 Z"/></g>
<g><path style="opacity:0.98" fill="#c60ebd" d="M 420.5,191.5 C 428.5,198.833 436.167,206.5 443.5,214.5C 436.695,220.741 429.029,225.741 420.5,229.5C 419.448,229.649 418.448,229.483 417.5,229C 409.833,221.333 402.167,213.667 394.5,206C 395.056,205.617 395.389,205.117 395.5,204.5C 399.744,202.719 404.077,200.885 408.5,199C 412.402,196.249 416.402,193.749 420.5,191.5 Z"/></g>
<g><path style="opacity:0.987" fill="#851ead" d="M 205.5,203.5 C 212.829,210.662 220.329,217.662 228,224.5C 228.483,225.448 228.649,226.448 228.5,227.5C 224.14,232.349 218.806,235.682 212.5,237.5C 203.555,227.219 194.222,217.219 184.5,207.5C 189.511,207.666 194.511,207.499 199.5,207C 202.025,206.576 204.025,205.41 205.5,203.5 Z"/></g>
<g><path style="opacity:0.986" fill="#ba11ba" d="M 358.5,204.5 C 370.775,207.056 383.108,207.056 395.5,204.5C 395.389,205.117 395.056,205.617 394.5,206C 402.167,213.667 409.833,221.333 417.5,229C 418.448,229.483 419.448,229.649 420.5,229.5C 410.902,234.695 400.569,237.695 389.5,238.5C 379.035,227.535 368.369,216.702 357.5,206C 358.056,205.617 358.389,205.117 358.5,204.5 Z"/></g>
<g><path style="opacity:1" fill="#6d24a7" d="M 88.5,207.5 C 97.5,207.5 106.5,207.5 115.5,207.5C 125.833,218.167 136.167,228.833 146.5,239.5C 137.5,239.5 128.5,239.5 119.5,239.5C 109.167,228.833 98.8333,218.167 88.5,207.5 Z"/></g>
<g><path style="opacity:1" fill="#7323a8" d="M 115.5,207.5 C 124.167,207.5 132.833,207.5 141.5,207.5C 151.833,218.167 162.167,228.833 172.5,239.5C 163.833,239.5 155.167,239.5 146.5,239.5C 136.167,228.833 125.833,218.167 115.5,207.5 Z"/></g>
<g><path style="opacity:1" fill="#7b21aa" d="M 141.5,207.5 C 155.833,207.5 170.167,207.5 184.5,207.5C 194.222,217.219 203.555,227.219 212.5,237.5C 211.391,238.29 210.058,238.79 208.5,239C 196.505,239.5 184.505,239.667 172.5,239.5C 162.167,228.833 151.833,218.167 141.5,207.5 Z"/></g>
<g><path style="opacity:0.992" fill="#542aa1" d="M 73.5,271.5 C 83.8333,282.167 94.1667,292.833 104.5,303.5C 95.8333,303.5 87.1667,303.5 78.5,303.5C 70.369,294.868 62.0357,286.368 53.5,278C 52.552,277.517 51.552,277.351 50.5,277.5C 52.6489,275.254 55.3156,273.754 58.5,273C 63.4195,271.75 68.4195,271.25 73.5,271.5 Z"/></g>
<g><path style="opacity:1" fill="#5a29a2" d="M 73.5,271.5 C 81.8333,271.5 90.1667,271.5 98.5,271.5C 108.833,282.167 119.167,292.833 129.5,303.5C 121.167,303.5 112.833,303.5 104.5,303.5C 94.1667,292.833 83.8333,282.167 73.5,271.5 Z"/></g>
<g><path style="opacity:1" fill="#6027a4" d="M 98.5,271.5 C 107.167,271.5 115.833,271.5 124.5,271.5C 134.833,282.167 145.167,292.833 155.5,303.5C 146.833,303.5 138.167,303.5 129.5,303.5C 119.167,292.833 108.833,282.167 98.5,271.5 Z"/></g>
<g><path style="opacity:1" fill="#6626a5" d="M 124.5,271.5 C 133.833,271.5 143.167,271.5 152.5,271.5C 162.833,282.167 173.167,292.833 183.5,303.5C 174.167,303.5 164.833,303.5 155.5,303.5C 145.167,292.833 134.833,282.167 124.5,271.5 Z"/></g>
<g><path style="opacity:0.997" fill="#6d24a7" d="M 152.5,271.5 C 163.833,271.5 175.167,271.5 186.5,271.5C 203.833,289.5 221.5,307.167 239.5,324.5C 239.5,335.833 239.5,347.167 239.5,358.5C 228.833,348.167 218.167,337.833 207.5,327.5C 207.666,322.156 207.499,316.823 207,311.5C 206.5,307 204,304.5 199.5,304C 194.177,303.501 188.844,303.334 183.5,303.5C 173.167,292.833 162.833,282.167 152.5,271.5 Z"/></g>
<g><path style="opacity:0.997" fill="#7422a9" d="M 186.5,271.5 C 224.5,268.833 242.167,286.5 239.5,324.5C 221.5,307.167 203.833,289.5 186.5,271.5 Z"/></g>
<g><path style="opacity:0.994" fill="#901bb0" d="M 315.5,271.5 C 325.833,282.167 336.167,292.833 346.5,303.5C 333.796,303.225 321.13,303.558 308.5,304.5C 300.589,298.094 293.089,291.094 286,283.5C 285.517,282.552 285.351,281.552 285.5,280.5C 294.06,273.187 304.06,270.187 315.5,271.5 Z"/></g>
<g><path style="opacity:1" fill="#9919b2" d="M 315.5,271.5 C 323.5,271.5 331.5,271.5 339.5,271.5C 349.833,282.167 360.167,292.833 370.5,303.5C 362.5,303.5 354.5,303.5 346.5,303.5C 336.167,292.833 325.833,282.167 315.5,271.5 Z"/></g>
<g><path style="opacity:1" fill="#9f17b4" d="M 339.5,271.5 C 346.167,271.5 352.833,271.5 359.5,271.5C 369.833,282.167 380.167,292.833 390.5,303.5C 383.833,303.5 377.167,303.5 370.5,303.5C 360.167,292.833 349.833,282.167 339.5,271.5 Z"/></g>
<g><path style="opacity:1" fill="#a516b5" d="M 359.5,271.5 C 366.167,271.5 372.833,271.5 379.5,271.5C 389.833,282.167 400.167,292.833 410.5,303.5C 403.833,303.5 397.167,303.5 390.5,303.5C 380.167,292.833 369.833,282.167 359.5,271.5 Z"/></g>
<g><path style="opacity:1" fill="#ab14b7" d="M 379.5,271.5 C 386.5,271.5 393.5,271.5 400.5,271.5C 410.833,282.167 421.167,292.833 431.5,303.5C 424.5,303.5 417.5,303.5 410.5,303.5C 400.167,292.833 389.833,282.167 379.5,271.5 Z"/></g>
<g><path style="opacity:0.998" fill="#b113b8" d="M 400.5,271.5 C 408.167,271.5 415.833,271.5 423.5,271.5C 441.833,290.5 460.5,309.167 479.5,327.5C 479.5,335.167 479.5,342.833 479.5,350.5C 468.833,340.167 458.167,329.833 447.5,319.5C 449.167,307.167 443.833,301.833 431.5,303.5C 421.167,292.833 410.833,282.167 400.5,271.5 Z"/></g>
<g><path style="opacity:1" fill="#b911ba" d="M 423.5,271.5 C 464.5,267.833 483.167,286.5 479.5,327.5C 460.5,309.167 441.833,290.5 423.5,271.5 Z"/></g>
<g><path style="opacity:0.987" fill="#4e2c9f" d="M 50.5,277.5 C 51.552,277.351 52.552,277.517 53.5,278C 62.0357,286.368 70.369,294.868 78.5,303.5C 73.9679,303.074 69.8012,304.074 66,306.5C 65.1376,308.087 64.4709,309.754 64,311.5C 63.5006,317.157 63.3339,322.824 63.5,328.5C 53.1667,318.833 43.1667,308.833 33.5,298.5C 36.0917,288.969 41.7583,281.969 50.5,277.5 Z"/></g>
<g><path style="opacity:0.987" fill="#851ead" d="M 285.5,280.5 C 285.351,281.552 285.517,282.552 286,283.5C 293.089,291.094 300.589,298.094 308.5,304.5C 306.03,306.082 304.53,308.415 304,311.5C 303.501,316.489 303.334,321.489 303.5,326.5C 293.5,316.833 283.5,307.167 273.5,297.5C 275.952,290.719 279.952,285.052 285.5,280.5 Z"/></g>
<g><path style="opacity:0.996" fill="#472e9d" d="M 33.5,298.5 C 43.1667,308.833 53.1667,318.833 63.5,328.5C 63.5,339.167 63.5,349.833 63.5,360.5C 52.8333,350.167 42.1667,339.833 31.5,329.5C 31.3336,320.494 31.5002,311.494 32,302.5C 32.21,300.942 32.71,299.609 33.5,298.5 Z"/></g>
<g><path style="opacity:1" fill="#7b21aa" d="M 273.5,297.5 C 283.5,307.167 293.5,316.833 303.5,326.5C 303.5,340.833 303.5,355.167 303.5,369.5C 292.833,359.167 282.167,348.833 271.5,338.5C 271.333,326.495 271.5,314.495 272,302.5C 272.352,300.753 272.852,299.086 273.5,297.5 Z"/></g>
<g><path style="opacity:1" fill="#ab14b7" d="M 447.5,319.5 C 458.167,329.833 468.833,340.167 479.5,350.5C 479.5,357.5 479.5,364.5 479.5,371.5C 468.833,361.167 458.167,350.833 447.5,340.5C 447.5,333.5 447.5,326.5 447.5,319.5 Z"/></g>
<g><path style="opacity:1" fill="#6626a5" d="M 207.5,327.5 C 218.167,337.833 228.833,348.167 239.5,358.5C 239.5,367.833 239.5,377.167 239.5,386.5C 228.833,376.167 218.167,365.833 207.5,355.5C 207.5,346.167 207.5,336.833 207.5,327.5 Z"/></g>
<g><path style="opacity:1" fill="#7323a8" d="M 271.5,338.5 C 282.167,348.833 292.833,359.167 303.5,369.5C 303.5,378.167 303.5,386.833 303.5,395.5C 292.833,385.167 282.167,374.833 271.5,364.5C 271.5,355.833 271.5,347.167 271.5,338.5 Z"/></g>
<g><path style="opacity:1" fill="#a516b5" d="M 447.5,340.5 C 458.167,350.833 468.833,361.167 479.5,371.5C 479.5,378.167 479.5,384.833 479.5,391.5C 468.833,381.167 458.167,370.833 447.5,360.5C 447.5,353.833 447.5,347.167 447.5,340.5 Z"/></g>
<g><path style="opacity:1" fill="#412f9c" d="M 31.5,329.5 C 42.1667,339.833 52.8333,350.167 63.5,360.5C 63.5,371.167 63.5,381.833 63.5,392.5C 52.8333,382.167 42.1667,371.833 31.5,361.5C 31.5,350.833 31.5,340.167 31.5,329.5 Z"/></g>
<g><path style="opacity:1" fill="#6027a4" d="M 207.5,355.5 C 218.167,365.833 228.833,376.167 239.5,386.5C 239.5,395.167 239.5,403.833 239.5,412.5C 228.833,402.167 218.167,391.833 207.5,381.5C 207.5,372.833 207.5,364.167 207.5,355.5 Z"/></g>
<g><path style="opacity:1" fill="#9f17b4" d="M 447.5,360.5 C 458.167,370.833 468.833,381.167 479.5,391.5C 479.5,398.167 479.5,404.833 479.5,411.5C 468.833,401.167 458.167,390.833 447.5,380.5C 447.5,373.833 447.5,367.167 447.5,360.5 Z"/></g>
<g><path style="opacity:1" fill="#3b309b" d="M 31.5,361.5 C 42.1667,371.833 52.8333,382.167 63.5,392.5C 63.5,403.833 63.5,415.167 63.5,426.5C 52.8333,416.167 42.1667,405.833 31.5,395.5C 31.5,384.167 31.5,372.833 31.5,361.5 Z"/></g>
<g><path style="opacity:1" fill="#6d24a7" d="M 271.5,364.5 C 282.167,374.833 292.833,385.167 303.5,395.5C 303.5,404.5 303.5,413.5 303.5,422.5C 292.833,412.167 282.167,401.833 271.5,391.5C 271.5,382.5 271.5,373.5 271.5,364.5 Z"/></g>
<g><path style="opacity:1" fill="#9919b2" d="M 447.5,380.5 C 458.167,390.833 468.833,401.167 479.5,411.5C 479.5,419.5 479.5,427.5 479.5,435.5C 468.833,425.167 458.167,414.833 447.5,404.5C 447.5,396.5 447.5,388.5 447.5,380.5 Z"/></g>
<g><path style="opacity:1" fill="#5a29a2" d="M 207.5,381.5 C 218.167,391.833 228.833,402.167 239.5,412.5C 239.5,420.833 239.5,429.167 239.5,437.5C 228.833,427.167 218.167,416.833 207.5,406.5C 207.5,398.167 207.5,389.833 207.5,381.5 Z"/></g>
<g><path style="opacity:0.998" fill="#6626a5" d="M 271.5,391.5 C 282.167,401.833 292.833,412.167 303.5,422.5C 303.334,428.176 303.501,433.843 304,439.5C 304.5,444 307,446.5 311.5,447C 317.157,447.499 322.824,447.666 328.5,447.5C 338.833,458.167 349.167,468.833 359.5,479.5C 350.167,479.5 340.833,479.5 331.5,479.5C 311.833,459.167 291.833,439.167 271.5,419.5C 271.5,410.167 271.5,400.833 271.5,391.5 Z"/></g>
<g><path style="opacity:0.994" fill="#901bb0" d="M 447.5,404.5 C 458.167,414.833 468.833,425.167 479.5,435.5C 480.813,446.94 477.813,456.94 470.5,465.5C 462.186,458.189 453.853,450.856 445.5,443.5C 446.09,442.234 446.59,440.901 447,439.5C 447.5,427.838 447.667,416.171 447.5,404.5 Z"/></g>
<g><path style="opacity:0.995" fill="#542aa1" d="M 207.5,406.5 C 218.167,416.833 228.833,427.167 239.5,437.5C 240.325,445.522 238.659,452.855 234.5,459.5C 225.833,450.167 216.833,441.167 207.5,432.5C 207.5,423.833 207.5,415.167 207.5,406.5 Z"/></g>
<g><path style="opacity:0.989" fill="#363299" d="M 31.5,395.5 C 42.1667,405.833 52.8333,416.167 63.5,426.5C 62.9386,432.732 63.772,438.732 66,444.5C 67.6477,445.717 69.481,446.55 71.5,447C 75.8206,447.499 80.1539,447.666 84.5,447.5C 94.8333,458.167 105.167,468.833 115.5,479.5C 46.5,492.5 18.5,464.5 31.5,395.5 Z"/></g>
<g><path style="opacity:0.997" fill="#6027a4" d="M 271.5,419.5 C 291.833,439.167 311.833,459.167 331.5,479.5C 286.5,484.5 266.5,464.5 271.5,419.5 Z"/></g>
<g><path style="opacity:0.985" fill="#4e2c9f" d="M 207.5,432.5 C 216.833,441.167 225.833,450.167 234.5,459.5C 229.392,468.893 221.725,475.226 211.5,478.5C 211.631,477.761 211.464,477.094 211,476.5C 201.298,466.965 191.798,457.298 182.5,447.5C 188.176,447.666 193.843,447.499 199.5,447C 204,446.5 206.5,444 207,439.5C 207.497,437.19 207.663,434.857 207.5,432.5 Z"/></g>
<g><path style="opacity:0.987" fill="#851ead" d="M 445.5,443.5 C 453.853,450.856 462.186,458.189 470.5,465.5C 465.837,471.495 459.837,475.495 452.5,477.5C 443.555,467.219 434.222,457.219 424.5,447.5C 429.511,447.666 434.511,447.499 439.5,447C 442.025,446.576 444.025,445.41 445.5,443.5 Z"/></g>
<g><path style="opacity:1" fill="#3b309b" d="M 84.5,447.5 C 95.8333,447.5 107.167,447.5 118.5,447.5C 128.833,458.167 139.167,468.833 149.5,479.5C 138.167,479.5 126.833,479.5 115.5,479.5C 105.167,468.833 94.8333,458.167 84.5,447.5 Z"/></g>
<g><path style="opacity:1" fill="#422f9c" d="M 118.5,447.5 C 129.167,447.5 139.833,447.5 150.5,447.5C 160.833,458.167 171.167,468.833 181.5,479.5C 170.833,479.5 160.167,479.5 149.5,479.5C 139.167,468.833 128.833,458.167 118.5,447.5 Z"/></g>
<g><path style="opacity:0.996" fill="#472e9d" d="M 150.5,447.5 C 161.167,447.5 171.833,447.5 182.5,447.5C 191.798,457.298 201.298,466.965 211,476.5C 211.464,477.094 211.631,477.761 211.5,478.5C 201.539,479.424 191.539,479.758 181.5,479.5C 171.167,468.833 160.833,458.167 150.5,447.5 Z"/></g>
<g><path style="opacity:1" fill="#6d24a7" d="M 328.5,447.5 C 337.5,447.5 346.5,447.5 355.5,447.5C 365.833,458.167 376.167,468.833 386.5,479.5C 377.5,479.5 368.5,479.5 359.5,479.5C 349.167,468.833 338.833,458.167 328.5,447.5 Z"/></g>
<g><path style="opacity:1" fill="#7323a8" d="M 355.5,447.5 C 364.167,447.5 372.833,447.5 381.5,447.5C 391.833,458.167 402.167,468.833 412.5,479.5C 403.833,479.5 395.167,479.5 386.5,479.5C 376.167,468.833 365.833,458.167 355.5,447.5 Z"/></g>
<g><path style="opacity:1" fill="#7b21aa" d="M 381.5,447.5 C 395.833,447.5 410.167,447.5 424.5,447.5C 434.222,457.219 443.555,467.219 452.5,477.5C 451.391,478.29 450.058,478.79 448.5,479C 436.505,479.5 424.505,479.667 412.5,479.5C 402.167,468.833 391.833,458.167 381.5,447.5 Z"/></g>
</svg>
