<svg xmlns="http://www.w3.org/2000/svg" width="512" height="512" style="shape-rendering:geometricPrecision;text-rendering:geometricPrecision;image-rendering:optimizeQuality;fill-rule:evenodd;clip-rule:evenodd"><path style="opacity:.994" fill="#901bb0" d="m75.5 31.5 31 32a395.546 395.546 0 0 0-38 1 221.146 221.146 0 0 1-22.5-21 4.932 4.932 0 0 1-.5-3c8.56-7.313 18.56-10.313 30-9Z"/><path style="opacity:1" fill="#9919b2" d="M75.5 31.5h24l31 32h-24l-31-32Z"/><path style="opacity:1" fill="#9f17b4" d="M99.5 31.5h20l31 32h-20l-31-32Z"/><path style="opacity:1" fill="#a516b5" d="M119.5 31.5h20l31 32h-20l-31-32Z"/><path style="opacity:1" fill="#ab14b7" d="M139.5 31.5h21l31 32h-21l-31-32Z"/><path style="opacity:.998" fill="#b113b8" d="M160.5 31.5h23c18.333 19 37 37.667 56 56v23l-32-31c1.667-12.333-3.667-17.667-16-16l-31-32Z"/><path style="opacity:1" fill="#b911ba" d="M183.5 31.5c41-3.667 59.667 15 56 56-19-18.333-37.667-37-56-56Z"/><path style="opacity:.982" fill="#ee04c7" d="M377.5 31.5a7360.964 7360.964 0 0 0 102 102c.515 11.242-.819 22.242-4 33a550.075 550.075 0 0 1-29-27c-.671-39.828-20.337-64.661-59-74.5-4.253-.2-8.42-.7-12.5-1.5-.383.556-.883.89-1.5 1a372.319 372.319 0 0 1-29-27.5c.556-.383.889-.883 1-1.5 10.381-3.284 21.048-4.617 32-4Z"/><path style="opacity:.991" fill="#f602c9" d="M377.5 31.5a89.56 89.56 0 0 1 21 2 2233.194 2233.194 0 0 0 79 80 76.198 76.198 0 0 1 2 20 7360.964 7360.964 0 0 1-102-102Z"/><path style="opacity:.96" fill="#fc00cb" d="M398.5 33.5c33.566 8.061 57.732 27.728 72.5 59a109.288 109.288 0 0 1 6.5 21 2233.194 2233.194 0 0 1-79-80Z"/><path style="opacity:.99" fill="#851ead" d="M45.5 40.5a4.932 4.932 0 0 0 .5 3 221.146 221.146 0 0 0 22.5 21c-2.47 1.582-3.97 3.915-4.5 7-.5 4.989-.666 9.989-.5 15l-30-29c2.452-6.781 6.452-12.448 12-17Z"/><path style="opacity:.981" fill="#e007c4" d="M345.5 35.5c-.111.617-.444 1.117-1 1.5a372.319 372.319 0 0 0 29 27.5c-11.305.16-21.971 2.826-32 8a241.995 241.995 0 0 1-23.5-22 2.429 2.429 0 0 1-.5-2c8.547-5.939 17.88-10.272 28-13Z"/><path style="opacity:.984" fill="#d30bc0" d="M317.5 48.5a2.429 2.429 0 0 0 .5 2 241.995 241.995 0 0 0 23.5 22c-8.874 5.203-16.541 11.87-23 20a195.179 195.179 0 0 0-23-24c6.41-7.746 13.743-14.413 22-20Z"/><path style="opacity:1" fill="#7b21aa" d="m33.5 57.5 30 29v43l-32-31c-.166-12.005 0-24.005.5-36a27.57 27.57 0 0 1 1.5-5Z"/><path style="opacity:1" fill="#ab14b7" d="m207.5 79.5 32 31v21l-32-31v-21Z"/><path style="opacity:.985" fill="#c60ebd" d="M295.5 68.5a195.179 195.179 0 0 1 23 24 101.099 101.099 0 0 0-12 24 252.747 252.747 0 0 1-24-22.5 4.932 4.932 0 0 0-3-.5c4.1-9.218 9.433-17.551 16-25Z"/><path style="opacity:1" fill="#7323a8" d="m31.5 98.5 32 31v26l-32-31v-26Z"/><path style="opacity:1" fill="#a516b5" d="m207.5 100.5 32 31v20l-32-31v-20Z"/><path style="opacity:.983" fill="#ba11ba" d="M279.5 93.5a4.932 4.932 0 0 1 3 .5 252.747 252.747 0 0 0 24 22.5c-2.667 12.667-2.667 25.333 0 38l-34-33a86.472 86.472 0 0 1 7-28Z"/><path style="opacity:1" fill="#9f17b4" d="m207.5 120.5 32 31v20l-32-31v-20Z"/><path style="opacity:.985" fill="#b113b8" d="m272.5 121.5 34 33c8.531 25.865 25.864 42.532 52 50-.111.617-.444 1.117-1 1.5a1467.947 1467.947 0 0 1 32 32.5c-7.148.992-14.481 1.325-22 1l-96-97c-.325-7.187.009-14.187 1-21Z"/><path style="opacity:1" fill="#6d24a7" d="m31.5 124.5 32 31v27l-32-31v-27Z"/><path style="opacity:1" fill="#9919b2" d="m207.5 140.5 32 31v24l-32-31v-24Z"/><path style="opacity:.989" fill="#aa15b6" d="m271.5 142.5 96 97c-42.723-4.561-72.557-26.561-89.5-66a94.562 94.562 0 0 1-6.5-31Z"/><path style="opacity:.998" fill="#6626a5" d="m31.5 151.5 32 31c-.166 5.676 0 11.343.5 17 .5 4.5 3 7 7.5 7.5a145.05 145.05 0 0 0 17 .5l31 32h-28a2547.162 2547.162 0 0 0-60-60v-28Z"/><path style="opacity:.977" fill="#e007c4" d="M446.5 139.5a550.075 550.075 0 0 0 29 27 100.985 100.985 0 0 1-13 27l-25-22c5.42-9.934 8.42-20.6 9-32Z"/><path style="opacity:.994" fill="#901bb0" d="m207.5 164.5 32 31c1.473 12.587-2.194 23.253-11 32a4.934 4.934 0 0 0-.5-3 671.59 671.59 0 0 1-22.5-21 28.208 28.208 0 0 0 1.5-4c.5-11.662.667-23.329.5-35Z"/><path style="opacity:.997" fill="#6027a4" d="M31.5 179.5a2547.162 2547.162 0 0 1 60 60c-45 5-65-15-60-60Z"/><path style="opacity:.986" fill="#d30bc1" d="m437.5 171.5 25 22c-5.253 7.922-11.586 14.922-19 21-7.333-8-15-15.667-23-23 6.446-6.104 12.113-12.771 17-20Z"/><path style="opacity:.98" fill="#c60ebd" d="M420.5 191.5c8 7.333 15.667 15 23 23-6.805 6.241-14.471 11.241-23 15a4.934 4.934 0 0 1-3-.5l-23-23c.556-.383.889-.883 1-1.5a2550.75 2550.75 0 0 0 13-5.5 126.14 126.14 0 0 1 12-7.5Z"/><path style="opacity:.987" fill="#851ead" d="M205.5 203.5a671.59 671.59 0 0 0 22.5 21c.483.948.649 1.948.5 3-4.36 4.849-9.694 8.182-16 10a590.126 590.126 0 0 0-28-30 112.97 112.97 0 0 0 15-.5c2.525-.424 4.525-1.59 6-3.5Z"/><path style="opacity:.986" fill="#ba11ba" d="M358.5 204.5c12.275 2.556 24.608 2.556 37 0-.111.617-.444 1.117-1 1.5l23 23a4.934 4.934 0 0 0 3 .5c-9.598 5.195-19.931 8.195-31 9a1467.947 1467.947 0 0 0-32-32.5c.556-.383.889-.883 1-1.5Z"/><path style="opacity:1" fill="#6d24a7" d="M88.5 207.5h27l31 32h-27l-31-32Z"/><path style="opacity:1" fill="#7323a8" d="M115.5 207.5h26l31 32h-26l-31-32Z"/><path style="opacity:1" fill="#7b21aa" d="M141.5 207.5h43a590.126 590.126 0 0 1 28 30c-1.109.79-2.442 1.29-4 1.5-11.995.5-23.995.667-36 .5l-31-32Z"/><path style="opacity:.992" fill="#542aa1" d="m73.5 271.5 31 32h-26a897.256 897.256 0 0 0-25-25.5 4.934 4.934 0 0 0-3-.5c2.149-2.246 4.816-3.746 8-4.5 4.92-1.25 9.92-1.75 15-1.5Z"/><path style="opacity:1" fill="#5a29a2" d="M73.5 271.5h25l31 32h-25l-31-32Z"/><path style="opacity:1" fill="#6027a4" d="M98.5 271.5h26l31 32h-26l-31-32Z"/><path style="opacity:1" fill="#6626a5" d="M124.5 271.5h28l31 32h-28l-31-32Z"/><path style="opacity:.997" fill="#6d24a7" d="M152.5 271.5h34c17.333 18 35 35.667 53 53v34l-32-31a128.507 128.507 0 0 0-.5-16c-.5-4.5-3-7-7.5-7.5a128.507 128.507 0 0 0-16-.5l-31-32Z"/><path style="opacity:.997" fill="#7422a9" d="M186.5 271.5c38-2.667 55.667 15 53 53-18-17.333-35.667-35-53-53Z"/><path style="opacity:.994" fill="#901bb0" d="m315.5 271.5 31 32a395.515 395.515 0 0 0-38 1 221.165 221.165 0 0 1-22.5-21 4.934 4.934 0 0 1-.5-3c8.56-7.313 18.56-10.313 30-9Z"/><path style="opacity:1" fill="#9919b2" d="M315.5 271.5h24l31 32h-24l-31-32Z"/><path style="opacity:1" fill="#9f17b4" d="M339.5 271.5h20l31 32h-20l-31-32Z"/><path style="opacity:1" fill="#a516b5" d="M359.5 271.5h20l31 32h-20l-31-32Z"/><path style="opacity:1" fill="#ab14b7" d="M379.5 271.5h21l31 32h-21l-31-32Z"/><path style="opacity:.998" fill="#b113b8" d="M400.5 271.5h23c18.333 19 37 37.667 56 56v23l-32-31c1.667-12.333-3.667-17.667-16-16l-31-32Z"/><path style="opacity:1" fill="#b911ba" d="M423.5 271.5c41-3.667 59.667 15 56 56-19-18.333-37.667-37-56-56Z"/><path style="opacity:.987" fill="#4e2c9f" d="M50.5 277.5a4.934 4.934 0 0 1 3 .5 897.256 897.256 0 0 1 25 25.5c-4.532-.426-8.699.574-12.5 3a22.956 22.956 0 0 0-2 5c-.5 5.657-.666 11.324-.5 17a636.923 636.923 0 0 1-30-30c2.592-9.531 8.258-16.531 17-21Z"/><path style="opacity:.987" fill="#851ead" d="M285.5 280.5a4.934 4.934 0 0 0 .5 3 221.165 221.165 0 0 0 22.5 21c-2.47 1.582-3.97 3.915-4.5 7a112.97 112.97 0 0 0-.5 15l-30-29c2.452-6.781 6.452-12.448 12-17Z"/><path style="opacity:.996" fill="#472e9d" d="M33.5 298.5a636.923 636.923 0 0 0 30 30v32l-32-31c-.166-9.006 0-18.006.5-27 .21-1.558.71-2.891 1.5-4Z"/><path style="opacity:1" fill="#7b21aa" d="m273.5 297.5 30 29v43l-32-31c-.167-12.005 0-24.005.5-36a27.603 27.603 0 0 1 1.5-5Z"/><path style="opacity:1" fill="#ab14b7" d="m447.5 319.5 32 31v21l-32-31v-21Z"/><path style="opacity:1" fill="#6626a5" d="m207.5 327.5 32 31v28l-32-31v-28Z"/><path style="opacity:1" fill="#7323a8" d="m271.5 338.5 32 31v26l-32-31v-26Z"/><path style="opacity:1" fill="#a516b5" d="m447.5 340.5 32 31v20l-32-31v-20Z"/><path style="opacity:1" fill="#412f9c" d="m31.5 329.5 32 31v32l-32-31v-32Z"/><path style="opacity:1" fill="#6027a4" d="m207.5 355.5 32 31v26l-32-31v-26Z"/><path style="opacity:1" fill="#9f17b4" d="m447.5 360.5 32 31v20l-32-31v-20Z"/><path style="opacity:1" fill="#3b309b" d="m31.5 361.5 32 31v34l-32-31v-34Z"/><path style="opacity:1" fill="#6d24a7" d="m271.5 364.5 32 31v27l-32-31v-27Z"/><path style="opacity:1" fill="#9919b2" d="m447.5 380.5 32 31v24l-32-31v-24Z"/><path style="opacity:1" fill="#5a29a2" d="m207.5 381.5 32 31v25l-32-31v-25Z"/><path style="opacity:.998" fill="#6626a5" d="m271.5 391.5 32 31c-.166 5.676.001 11.343.5 17 .5 4.5 3 7 7.5 7.5 5.657.499 11.324.666 17 .5l31 32h-28a2548.31 2548.31 0 0 0-60-60v-28Z"/><path style="opacity:.994" fill="#901bb0" d="m447.5 404.5 32 31c1.313 11.44-1.687 21.44-9 30a46106.701 46106.701 0 0 1-25-22 28.208 28.208 0 0 0 1.5-4c.5-11.662.667-23.329.5-35Z"/><path style="opacity:.995" fill="#542aa1" d="m207.5 406.5 32 31c.825 8.022-.841 15.355-5 22a516.173 516.173 0 0 0-27-27v-26Z"/><path style="opacity:.989" fill="#363299" d="m31.5 395.5 32 31c-.561 6.232.272 12.232 2.5 18a14.442 14.442 0 0 0 5.5 2.5 84.9 84.9 0 0 0 13 .5l31 32c-69 13-97-15-84-84Z"/><path style="opacity:.997" fill="#6027a4" d="M271.5 419.5a2548.31 2548.31 0 0 1 60 60c-45 5-65-15-60-60Z"/><path style="opacity:.985" fill="#4e2c9f" d="M207.5 432.5a516.173 516.173 0 0 1 27 27c-5.108 9.393-12.775 15.726-23 19a2.428 2.428 0 0 0-.5-2 1166.425 1166.425 0 0 1-28.5-29c5.676.166 11.343-.001 17-.5 4.5-.5 7-3 7.5-7.5.497-2.31.663-4.643.5-7Z"/><path style="opacity:.987" fill="#851ead" d="M445.5 443.5c8.353 7.356 16.686 14.689 25 22-4.663 5.995-10.663 9.995-18 12a590.126 590.126 0 0 0-28-30 112.97 112.97 0 0 0 15-.5c2.525-.424 4.525-1.59 6-3.5Z"/><path style="opacity:1" fill="#3b309b" d="M84.5 447.5h34l31 32h-34l-31-32Z"/><path style="opacity:1" fill="#422f9c" d="M118.5 447.5h32l31 32h-32l-31-32Z"/><path style="opacity:.996" fill="#472e9d" d="M150.5 447.5h32a1166.425 1166.425 0 0 0 28.5 29c.464.594.631 1.261.5 2a253.894 253.894 0 0 1-30 1l-31-32Z"/><path style="opacity:1" fill="#6d24a7" d="M328.5 447.5h27l31 32h-27l-31-32Z"/><path style="opacity:1" fill="#7323a8" d="M355.5 447.5h26l31 32h-26l-31-32Z"/><path style="opacity:1" fill="#7b21aa" d="M381.5 447.5h43a590.126 590.126 0 0 1 28 30c-1.109.79-2.442 1.29-4 1.5-11.995.5-23.995.667-36 .5l-31-32Z"/></svg>