<?xml version="1.0" encoding="UTF-8"?>
<!DOCTYPE svg PUBLIC "-//W3C//DTD SVG 1.1//EN" "http://www.w3.org/Graphics/SVG/1.1/DTD/svg11.dtd">
<svg xmlns="http://www.w3.org/2000/svg" version="1.1" width="512px" height="512px" style="shape-rendering:geometricPrecision; text-rendering:geometricPrecision; image-rendering:optimizeQuality; fill-rule:evenodd; clip-rule:evenodd" xmlns:xlink="http://www.w3.org/1999/xlink">
<g><path style="opacity:1" fill="#4b4949" d="M 303.5,39.5 C 300.5,39.5 297.5,39.5 294.5,39.5C 289.833,39.5 285.167,39.5 280.5,39.5C 277.5,39.5 274.5,39.5 271.5,39.5C 276.295,28.5765 281.628,17.9098 287.5,7.5C 293.372,17.9098 298.705,28.5765 303.5,39.5 Z"/></g>
<g><path style="opacity:0.97" fill="#eef3f6" d="M 271.5,39.5 C 274.5,39.5 277.5,39.5 280.5,39.5C 277.5,55.5 274.5,71.5 271.5,87.5C 263.5,87.5 255.5,87.5 247.5,87.5C 254.992,71.1824 262.992,55.1824 271.5,39.5 Z"/></g>
<g><path style="opacity:0.996" fill="#dee3e6" d="M 280.5,39.5 C 285.167,39.5 289.833,39.5 294.5,39.5C 297.5,55.5 300.5,71.5 303.5,87.5C 292.833,87.5 282.167,87.5 271.5,87.5C 274.5,71.5 277.5,55.5 280.5,39.5 Z"/></g>
<g><path style="opacity:0.97" fill="#cfd3d6" d="M 294.5,39.5 C 297.5,39.5 300.5,39.5 303.5,39.5C 312.008,55.1824 320.008,71.1824 327.5,87.5C 319.5,87.5 311.5,87.5 303.5,87.5C 300.5,71.5 297.5,55.5 294.5,39.5 Z"/></g>
<g><path style="opacity:1" fill="#feeca5" d="M 247.5,87.5 C 255.5,87.5 263.5,87.5 271.5,87.5C 271.5,146.167 271.5,204.833 271.5,263.5C 263.5,263.5 255.5,263.5 247.5,263.5C 247.5,204.833 247.5,146.167 247.5,87.5 Z"/></g>
<g><path style="opacity:1" fill="#fedc72" d="M 271.5,87.5 C 282.167,87.5 292.833,87.5 303.5,87.5C 303.5,146.167 303.5,204.833 303.5,263.5C 292.833,263.5 282.167,263.5 271.5,263.5C 271.5,204.833 271.5,146.167 271.5,87.5 Z"/></g>
<g><path style="opacity:1" fill="#fecb58" d="M 303.5,87.5 C 311.5,87.5 319.5,87.5 327.5,87.5C 327.5,146.167 327.5,204.833 327.5,263.5C 319.5,263.5 311.5,263.5 303.5,263.5C 303.5,204.833 303.5,146.167 303.5,87.5 Z"/></g>
<g><path style="opacity:1" fill="#49b2d6" d="M 399.5,87.5 C 399.5,146.167 399.5,204.833 399.5,263.5C 383.5,263.5 367.5,263.5 351.5,263.5C 351.5,258.167 351.5,252.833 351.5,247.5C 356.833,247.5 362.167,247.5 367.5,247.5C 367.5,242.167 367.5,236.833 367.5,231.5C 362.167,231.5 356.833,231.5 351.5,231.5C 351.5,226.167 351.5,220.833 351.5,215.5C 356.833,215.5 362.167,215.5 367.5,215.5C 367.5,210.167 367.5,204.833 367.5,199.5C 362.167,199.5 356.833,199.5 351.5,199.5C 351.5,194.167 351.5,188.833 351.5,183.5C 356.833,183.5 362.167,183.5 367.5,183.5C 367.5,178.167 367.5,172.833 367.5,167.5C 362.167,167.5 356.833,167.5 351.5,167.5C 351.5,162.167 351.5,156.833 351.5,151.5C 356.833,151.5 362.167,151.5 367.5,151.5C 367.5,146.167 367.5,140.833 367.5,135.5C 362.167,135.5 356.833,135.5 351.5,135.5C 351.5,130.167 351.5,124.833 351.5,119.5C 356.833,119.5 362.167,119.5 367.5,119.5C 367.5,114.167 367.5,108.833 367.5,103.5C 362.167,103.5 356.833,103.5 351.5,103.5C 351.5,98.1667 351.5,92.8333 351.5,87.5C 367.5,87.5 383.5,87.5 399.5,87.5 Z"/></g>
<g><path style="opacity:1" fill="#1395bf" d="M 399.5,87.5 C 410.167,87.5 420.833,87.5 431.5,87.5C 431.5,146.167 431.5,204.833 431.5,263.5C 420.833,263.5 410.167,263.5 399.5,263.5C 399.5,204.833 399.5,146.167 399.5,87.5 Z"/></g>
<g><path style="opacity:1" fill="#464544" d="M 351.5,103.5 C 356.833,103.5 362.167,103.5 367.5,103.5C 367.5,108.833 367.5,114.167 367.5,119.5C 362.167,119.5 356.833,119.5 351.5,119.5C 351.5,114.167 351.5,108.833 351.5,103.5 Z"/></g>
<g><path style="opacity:1" fill="#464544" d="M 351.5,135.5 C 356.833,135.5 362.167,135.5 367.5,135.5C 367.5,140.833 367.5,146.167 367.5,151.5C 362.167,151.5 356.833,151.5 351.5,151.5C 351.5,146.167 351.5,140.833 351.5,135.5 Z"/></g>
<g><path style="opacity:1" fill="#5d5c5b" d="M -0.5,151.5 C 74.1667,151.5 148.833,151.5 223.5,151.5C 223.5,188.833 223.5,226.167 223.5,263.5C 148.833,263.5 74.1667,263.5 -0.5,263.5C -0.5,226.167 -0.5,188.833 -0.5,151.5 Z"/></g>
<g><path style="opacity:1" fill="#464544" d="M 351.5,167.5 C 356.833,167.5 362.167,167.5 367.5,167.5C 367.5,172.833 367.5,178.167 367.5,183.5C 362.167,183.5 356.833,183.5 351.5,183.5C 351.5,178.167 351.5,172.833 351.5,167.5 Z"/></g>
<g><path style="opacity:1" fill="#464544" d="M 23.5,175.5 C 82.1667,175.5 140.833,175.5 199.5,175.5C 199.5,196.833 199.5,218.167 199.5,239.5C 140.833,239.5 82.1667,239.5 23.5,239.5C 23.5,218.167 23.5,196.833 23.5,175.5 Z"/></g>
<g><path style="opacity:1" fill="#fefffe" d="M 95.5,199.5 C 100.833,199.5 106.167,199.5 111.5,199.5C 111.5,204.833 111.5,210.167 111.5,215.5C 106.167,215.5 100.833,215.5 95.5,215.5C 95.5,210.167 95.5,204.833 95.5,199.5 Z"/></g>
<g><path style="opacity:1" fill="#fefffe" d="M 127.5,199.5 C 132.833,199.5 138.167,199.5 143.5,199.5C 143.5,204.833 143.5,210.167 143.5,215.5C 138.167,215.5 132.833,215.5 127.5,215.5C 127.5,210.167 127.5,204.833 127.5,199.5 Z"/></g>
<g><path style="opacity:1" fill="#fefffe" d="M 159.5,199.5 C 164.833,199.5 170.167,199.5 175.5,199.5C 175.5,204.833 175.5,210.167 175.5,215.5C 170.167,215.5 164.833,215.5 159.5,215.5C 159.5,210.167 159.5,204.833 159.5,199.5 Z"/></g>
<g><path style="opacity:1" fill="#464544" d="M 351.5,199.5 C 356.833,199.5 362.167,199.5 367.5,199.5C 367.5,204.833 367.5,210.167 367.5,215.5C 362.167,215.5 356.833,215.5 351.5,215.5C 351.5,210.167 351.5,204.833 351.5,199.5 Z"/></g>
<g><path style="opacity:1" fill="#464544" d="M 351.5,231.5 C 356.833,231.5 362.167,231.5 367.5,231.5C 367.5,236.833 367.5,242.167 367.5,247.5C 362.167,247.5 356.833,247.5 351.5,247.5C 351.5,242.167 351.5,236.833 351.5,231.5 Z"/></g>
<g><path style="opacity:1" fill="#464544" d="M -0.5,263.5 C 74.1667,263.5 148.833,263.5 223.5,263.5C 223.5,268.833 223.5,274.167 223.5,279.5C 148.833,279.5 74.1667,279.5 -0.5,279.5C -0.5,274.167 -0.5,268.833 -0.5,263.5 Z"/></g>
<g><path style="opacity:0.985" fill="#5e5c5c" d="M 223.5,263.5 C 231.5,263.5 239.5,263.5 247.5,263.5C 255.5,263.5 263.5,263.5 271.5,263.5C 282.167,263.5 292.833,263.5 303.5,263.5C 311.5,263.5 319.5,263.5 327.5,263.5C 335.5,263.5 343.5,263.5 351.5,263.5C 367.5,263.5 383.5,263.5 399.5,263.5C 410.167,263.5 420.833,263.5 431.5,263.5C 443.171,263.333 454.838,263.5 466.5,264C 490.68,269.681 505.68,284.514 511.5,308.5C 511.5,315.833 511.5,323.167 511.5,330.5C 504.983,355.455 488.983,370.455 463.5,375.5C 463.5,369.833 463.5,364.167 463.5,358.5C 483.376,353.094 494.042,340.094 495.5,319.5C 493.977,298.966 483.31,285.799 463.5,280C 383.501,279.5 303.501,279.333 223.5,279.5C 223.5,274.167 223.5,268.833 223.5,263.5 Z"/></g>
<g><path style="opacity:1" fill="#5d5c5b" d="M -0.5,279.5 C 74.1667,279.5 148.833,279.5 223.5,279.5C 223.5,284.833 223.5,290.167 223.5,295.5C 223.5,300.833 223.5,306.167 223.5,311.5C 223.5,316.833 223.5,322.167 223.5,327.5C 223.5,332.833 223.5,338.167 223.5,343.5C 223.5,348.833 223.5,354.167 223.5,359.5C 292.833,359.5 362.167,359.5 431.5,359.5C 431.5,364.833 431.5,370.167 431.5,375.5C 418.167,375.5 404.833,375.5 391.5,375.5C 335.5,375.5 279.5,375.5 223.5,375.5C 223.5,391.5 223.5,407.5 223.5,423.5C 223.5,444.833 223.5,466.167 223.5,487.5C 148.833,487.5 74.1667,487.5 -0.5,487.5C -0.5,418.167 -0.5,348.833 -0.5,279.5 Z"/></g>
<g><path style="opacity:1" fill="#eef3f6" d="M 223.5,279.5 C 303.501,279.333 383.501,279.5 463.5,280C 483.31,285.799 493.977,298.966 495.5,319.5C 494.042,340.094 483.376,353.094 463.5,358.5C 463.5,337.5 463.5,316.5 463.5,295.5C 452.833,295.5 442.167,295.5 431.5,295.5C 362.167,295.5 292.833,295.5 223.5,295.5C 223.5,290.167 223.5,284.833 223.5,279.5 Z"/></g>
<g><path style="opacity:1" fill="#fefffe" d="M 23.5,295.5 C 34.1667,295.5 44.8333,295.5 55.5,295.5C 55.5,306.167 55.5,316.833 55.5,327.5C 44.8333,327.5 34.1667,327.5 23.5,327.5C 23.5,316.833 23.5,306.167 23.5,295.5 Z"/></g>
<g><path style="opacity:1" fill="#ced3d5" d="M 71.5,295.5 C 82.1667,295.5 92.8333,295.5 103.5,295.5C 103.5,306.167 103.5,316.833 103.5,327.5C 92.8333,327.5 82.1667,327.5 71.5,327.5C 71.5,316.833 71.5,306.167 71.5,295.5 Z"/></g>
<g><path style="opacity:1" fill="#464544" d="M 167.5,295.5 C 178.167,295.5 188.833,295.5 199.5,295.5C 199.5,300.833 199.5,306.167 199.5,311.5C 188.833,311.5 178.167,311.5 167.5,311.5C 167.5,306.167 167.5,300.833 167.5,295.5 Z"/></g>
<g><path style="opacity:1" fill="#ced3d5" d="M 223.5,295.5 C 292.833,295.5 362.167,295.5 431.5,295.5C 431.5,300.833 431.5,306.167 431.5,311.5C 362.167,311.5 292.833,311.5 223.5,311.5C 223.5,306.167 223.5,300.833 223.5,295.5 Z"/></g>
<g><path style="opacity:1" fill="#f36089" d="M 431.5,295.5 C 442.167,295.5 452.833,295.5 463.5,295.5C 463.5,316.5 463.5,337.5 463.5,358.5C 463.5,364.167 463.5,369.833 463.5,375.5C 463.5,380.833 463.5,386.167 463.5,391.5C 452.833,391.5 442.167,391.5 431.5,391.5C 431.5,386.167 431.5,380.833 431.5,375.5C 431.5,370.167 431.5,364.833 431.5,359.5C 431.5,354.167 431.5,348.833 431.5,343.5C 431.5,338.167 431.5,332.833 431.5,327.5C 431.5,322.167 431.5,316.833 431.5,311.5C 431.5,306.167 431.5,300.833 431.5,295.5 Z"/></g>
<g><path style="opacity:1" fill="#eef4f6" d="M 223.5,311.5 C 292.833,311.5 362.167,311.5 431.5,311.5C 431.5,316.833 431.5,322.167 431.5,327.5C 362.167,327.5 292.833,327.5 223.5,327.5C 223.5,322.167 223.5,316.833 223.5,311.5 Z"/></g>
<g><path style="opacity:1" fill="#ced3d5" d="M 223.5,327.5 C 292.833,327.5 362.167,327.5 431.5,327.5C 431.5,332.833 431.5,338.167 431.5,343.5C 362.167,343.5 292.833,343.5 223.5,343.5C 223.5,338.167 223.5,332.833 223.5,327.5 Z"/></g>
<g><path style="opacity:1" fill="#fefffe" d="M 23.5,343.5 C 34.1667,343.5 44.8333,343.5 55.5,343.5C 55.5,354.167 55.5,364.833 55.5,375.5C 44.8333,375.5 34.1667,375.5 23.5,375.5C 23.5,364.833 23.5,354.167 23.5,343.5 Z"/></g>
<g><path style="opacity:1" fill="#fefffe" d="M 71.5,343.5 C 82.1667,343.5 92.8333,343.5 103.5,343.5C 103.5,354.167 103.5,364.833 103.5,375.5C 92.8333,375.5 82.1667,375.5 71.5,375.5C 71.5,364.833 71.5,354.167 71.5,343.5 Z"/></g>
<g><path style="opacity:1" fill="#fefffe" d="M 119.5,343.5 C 130.167,343.5 140.833,343.5 151.5,343.5C 151.5,354.167 151.5,364.833 151.5,375.5C 140.833,375.5 130.167,375.5 119.5,375.5C 119.5,364.833 119.5,354.167 119.5,343.5 Z"/></g>
<g><path style="opacity:1" fill="#fefffe" d="M 167.5,343.5 C 178.167,343.5 188.833,343.5 199.5,343.5C 199.5,354.167 199.5,364.833 199.5,375.5C 188.833,375.5 178.167,375.5 167.5,375.5C 167.5,364.833 167.5,354.167 167.5,343.5 Z"/></g>
<g><path style="opacity:1" fill="#eef4f6" d="M 223.5,343.5 C 292.833,343.5 362.167,343.5 431.5,343.5C 431.5,348.833 431.5,354.167 431.5,359.5C 362.167,359.5 292.833,359.5 223.5,359.5C 223.5,354.167 223.5,348.833 223.5,343.5 Z"/></g>
<g><path style="opacity:1" fill="#49b2d6" d="M 391.5,375.5 C 391.5,391.5 391.5,407.5 391.5,423.5C 367.5,423.5 343.5,423.5 319.5,423.5C 287.5,423.5 255.5,423.5 223.5,423.5C 223.5,407.5 223.5,391.5 223.5,375.5C 279.5,375.5 335.5,375.5 391.5,375.5 Z"/></g>
<g><path style="opacity:1" fill="#eef4f6" d="M 391.5,375.5 C 404.833,375.5 418.167,375.5 431.5,375.5C 431.5,380.833 431.5,386.167 431.5,391.5C 442.167,391.5 452.833,391.5 463.5,391.5C 463.5,402.167 463.5,412.833 463.5,423.5C 439.5,423.5 415.5,423.5 391.5,423.5C 391.5,407.5 391.5,391.5 391.5,375.5 Z"/></g>
<g><path style="opacity:1" fill="#fefffe" d="M 23.5,391.5 C 34.1667,391.5 44.8333,391.5 55.5,391.5C 55.5,402.167 55.5,412.833 55.5,423.5C 44.8333,423.5 34.1667,423.5 23.5,423.5C 23.5,412.833 23.5,402.167 23.5,391.5 Z"/></g>
<g><path style="opacity:1" fill="#fefffe" d="M 71.5,391.5 C 82.1667,391.5 92.8333,391.5 103.5,391.5C 103.5,402.167 103.5,412.833 103.5,423.5C 92.8333,423.5 82.1667,423.5 71.5,423.5C 71.5,412.833 71.5,402.167 71.5,391.5 Z"/></g>
<g><path style="opacity:1" fill="#fefffe" d="M 119.5,391.5 C 130.167,391.5 140.833,391.5 151.5,391.5C 151.5,402.167 151.5,412.833 151.5,423.5C 140.833,423.5 130.167,423.5 119.5,423.5C 119.5,412.833 119.5,402.167 119.5,391.5 Z"/></g>
<g><path style="opacity:1" fill="#ced3d5" d="M 167.5,391.5 C 178.167,391.5 188.833,391.5 199.5,391.5C 199.5,418.167 199.5,444.833 199.5,471.5C 188.833,471.5 178.167,471.5 167.5,471.5C 167.5,444.833 167.5,418.167 167.5,391.5 Z"/></g>
<g><path style="opacity:1" fill="#fefffe" d="M 239.5,391.5 C 284.833,391.5 330.167,391.5 375.5,391.5C 375.5,396.833 375.5,402.167 375.5,407.5C 330.167,407.5 284.833,407.5 239.5,407.5C 239.5,402.167 239.5,396.833 239.5,391.5 Z"/></g>
<g><path style="opacity:1" fill="#f36089" d="M 223.5,423.5 C 255.5,423.5 287.5,423.5 319.5,423.5C 292.757,433.319 283.257,451.986 291,479.5C 292.259,482.356 293.759,485.023 295.5,487.5C 271.5,487.5 247.5,487.5 223.5,487.5C 223.5,466.167 223.5,444.833 223.5,423.5 Z"/></g>
<g><path style="opacity:1" fill="#5e5c5c" d="M 319.5,423.5 C 343.5,423.5 367.5,423.5 391.5,423.5C 415.5,423.5 439.5,423.5 463.5,423.5C 479.5,423.5 495.5,423.5 511.5,423.5C 511.5,428.833 511.5,434.167 511.5,439.5C 448.166,439.333 384.832,439.5 321.5,440C 303.71,447.703 299.21,460.203 308,477.5C 311.571,482.031 316.071,485.198 321.5,487C 384.832,487.5 448.166,487.667 511.5,487.5C 511.5,492.833 511.5,498.167 511.5,503.5C 448.833,503.5 386.167,503.5 323.5,503.5C 312.108,501.803 302.774,496.47 295.5,487.5C 293.759,485.023 292.259,482.356 291,479.5C 283.257,451.986 292.757,433.319 319.5,423.5 Z"/></g>
<g><path style="opacity:1" fill="#fefffe" d="M 23.5,439.5 C 34.1667,439.5 44.8333,439.5 55.5,439.5C 55.5,450.167 55.5,460.833 55.5,471.5C 44.8333,471.5 34.1667,471.5 23.5,471.5C 23.5,460.833 23.5,450.167 23.5,439.5 Z"/></g>
<g><path style="opacity:1" fill="#fefffe" d="M 71.5,439.5 C 82.1667,439.5 92.8333,439.5 103.5,439.5C 103.5,450.167 103.5,460.833 103.5,471.5C 92.8333,471.5 82.1667,471.5 71.5,471.5C 71.5,460.833 71.5,450.167 71.5,439.5 Z"/></g>
<g><path style="opacity:1" fill="#fefffe" d="M 119.5,439.5 C 130.167,439.5 140.833,439.5 151.5,439.5C 151.5,450.167 151.5,460.833 151.5,471.5C 140.833,471.5 130.167,471.5 119.5,471.5C 119.5,460.833 119.5,450.167 119.5,439.5 Z"/></g>
<g><path style="opacity:0.994" fill="#dee2e5" d="M 511.5,439.5 C 511.5,439.833 511.5,440.167 511.5,440.5C 492.686,443.171 485.519,453.838 490,472.5C 494.131,481.793 501.298,486.46 511.5,486.5C 511.5,486.833 511.5,487.167 511.5,487.5C 448.166,487.667 384.832,487.5 321.5,487C 316.071,485.198 311.571,482.031 308,477.5C 299.21,460.203 303.71,447.703 321.5,440C 384.832,439.5 448.166,439.333 511.5,439.5 Z"/></g>
<g><path style="opacity:1" fill="#464544" d="M -0.5,487.5 C 74.1667,487.5 148.833,487.5 223.5,487.5C 223.5,492.833 223.5,498.167 223.5,503.5C 148.833,503.5 74.1667,503.5 -0.5,503.5C -0.5,498.167 -0.5,492.833 -0.5,487.5 Z"/></g>
<g><path style="opacity:1" fill="#d8416a" d="M 223.5,487.5 C 247.5,487.5 271.5,487.5 295.5,487.5C 302.774,496.47 312.108,501.803 323.5,503.5C 290.167,503.5 256.833,503.5 223.5,503.5C 223.5,498.167 223.5,492.833 223.5,487.5 Z"/></g>
</svg>
